G04 #@! TF.GenerationSoftware,KiCad,Pcbnew,(5.1.2-1)-1*
G04 #@! TF.CreationDate,2019-07-24T21:32:52+02:00*
G04 #@! TF.ProjectId,AddOnB,4164644f-6e42-42e6-9b69-6361645f7063,rev?*
G04 #@! TF.SameCoordinates,Original*
G04 #@! TF.FileFunction,Paste,Bot*
G04 #@! TF.FilePolarity,Positive*
%FSLAX46Y46*%
G04 Gerber Fmt 4.6, Leading zero omitted, Abs format (unit mm)*
G04 Created by KiCad (PCBNEW (5.1.2-1)-1) date 2019-07-24 21:32:52*
%MOMM*%
%LPD*%
G04 APERTURE LIST*
%ADD10R,1.300000X1.000000*%
%ADD11R,1.000000X1.300000*%
%ADD12R,0.600000X1.500000*%
%ADD13R,2.032000X3.657600*%
%ADD14R,2.032000X1.016000*%
%ADD15R,0.600000X1.550000*%
G04 APERTURE END LIST*
D10*
X217790000Y75100000D03*
X217790000Y73300000D03*
X225290000Y75100000D03*
X225290000Y73300000D03*
X231790000Y73300000D03*
X231790000Y75100000D03*
X239290000Y73300000D03*
X239290000Y75100000D03*
X245790000Y75100000D03*
X245790000Y73300000D03*
X253290000Y73300000D03*
X253290000Y75100000D03*
X259790000Y75100000D03*
X259790000Y73300000D03*
X267290000Y73300000D03*
X267290000Y75100000D03*
D11*
X287500000Y82000000D03*
X289300000Y82000000D03*
X301500000Y82000000D03*
X303300000Y82000000D03*
X315500000Y82000000D03*
X317300000Y82000000D03*
X329500000Y82000000D03*
X331300000Y82000000D03*
X327500000Y78600000D03*
X329300000Y78600000D03*
X287500000Y84000000D03*
X289300000Y84000000D03*
X301500000Y84000000D03*
X303300000Y84000000D03*
X315500000Y84000000D03*
X317300000Y84000000D03*
X329500000Y83900000D03*
X331300000Y83900000D03*
D10*
X219790000Y75100000D03*
X219790000Y73300000D03*
X215790000Y73300000D03*
X215790000Y75100000D03*
X227290000Y73300000D03*
X227290000Y75100000D03*
X223290000Y75100000D03*
X223290000Y73300000D03*
X233790000Y73300000D03*
X233790000Y75100000D03*
X229790000Y75100000D03*
X229790000Y73300000D03*
X241290000Y75100000D03*
X241290000Y73300000D03*
X237290000Y73300000D03*
X237290000Y75100000D03*
X247790000Y75100000D03*
X247790000Y73300000D03*
X243790000Y73300000D03*
X243790000Y75100000D03*
X255290000Y73300000D03*
X255290000Y75100000D03*
X251290000Y75100000D03*
X251290000Y73300000D03*
X261790000Y73300000D03*
X261790000Y75100000D03*
X257790000Y73300000D03*
X257790000Y75100000D03*
X269290000Y75100000D03*
X269290000Y73300000D03*
X265290000Y75100000D03*
X265290000Y73300000D03*
D12*
X329445000Y71100000D03*
X328175000Y71100000D03*
X326905000Y71100000D03*
X325635000Y71100000D03*
X324365000Y71100000D03*
X323095000Y71100000D03*
X321825000Y71100000D03*
X320555000Y71100000D03*
X320555000Y76500000D03*
X321825000Y76500000D03*
X323095000Y76500000D03*
X324365000Y76500000D03*
X325635000Y76500000D03*
X326905000Y76500000D03*
X328175000Y76500000D03*
X329445000Y76500000D03*
D10*
X278300000Y78500000D03*
X278300000Y80300000D03*
X292300000Y80300000D03*
X292300000Y78500000D03*
X306300000Y78500000D03*
X306300000Y80300000D03*
X320400000Y80300000D03*
X320400000Y78500000D03*
X278300000Y83800000D03*
X278300000Y82000000D03*
X292300000Y82000000D03*
X292300000Y83800000D03*
X306300000Y83800000D03*
X306300000Y82000000D03*
X320400000Y82000000D03*
X320400000Y83800000D03*
X291360000Y50465000D03*
X291360000Y52265000D03*
D11*
X278260000Y53765000D03*
X280060000Y53765000D03*
X278260000Y51765000D03*
X280060000Y51765000D03*
X311300000Y71100000D03*
X313100000Y71100000D03*
D13*
X282358000Y52765000D03*
D14*
X288962000Y52765000D03*
X288962000Y50479000D03*
X288962000Y55051000D03*
D15*
X314795000Y76500000D03*
X316065000Y76500000D03*
X317335000Y76500000D03*
X318605000Y76500000D03*
X318605000Y71100000D03*
X317335000Y71100000D03*
X316065000Y71100000D03*
X314795000Y71100000D03*
D10*
X324400000Y69200000D03*
X324400000Y67400000D03*
M02*
