G04 #@! TF.GenerationSoftware,KiCad,Pcbnew,(5.1.2-1)-1*
G04 #@! TF.CreationDate,2019-07-24T21:32:52+02:00*
G04 #@! TF.ProjectId,AddOnB,4164644f-6e42-42e6-9b69-6361645f7063,rev?*
G04 #@! TF.SameCoordinates,Original*
G04 #@! TF.FileFunction,Legend,Bot*
G04 #@! TF.FilePolarity,Positive*
%FSLAX46Y46*%
G04 Gerber Fmt 4.6, Leading zero omitted, Abs format (unit mm)*
G04 Created by KiCad (PCBNEW (5.1.2-1)-1) date 2019-07-24 21:32:52*
%MOMM*%
%LPD*%
G04 APERTURE LIST*
%ADD10C,0.150000*%
G04 APERTURE END LIST*
D10*
X216940000Y73700000D02*
X216940000Y74700000D01*
X218640000Y74700000D02*
X218640000Y73700000D01*
X224440000Y73700000D02*
X224440000Y74700000D01*
X226140000Y74700000D02*
X226140000Y73700000D01*
X232640000Y74700000D02*
X232640000Y73700000D01*
X230940000Y73700000D02*
X230940000Y74700000D01*
X240140000Y74700000D02*
X240140000Y73700000D01*
X238440000Y73700000D02*
X238440000Y74700000D01*
X244940000Y73700000D02*
X244940000Y74700000D01*
X246640000Y74700000D02*
X246640000Y73700000D01*
X254140000Y74700000D02*
X254140000Y73700000D01*
X252440000Y73700000D02*
X252440000Y74700000D01*
X258940000Y73700000D02*
X258940000Y74700000D01*
X260640000Y74700000D02*
X260640000Y73700000D01*
X268140000Y74700000D02*
X268140000Y73700000D01*
X266440000Y73700000D02*
X266440000Y74700000D01*
X288900000Y81150000D02*
X287900000Y81150000D01*
X287900000Y82850000D02*
X288900000Y82850000D01*
X302900000Y81150000D02*
X301900000Y81150000D01*
X301900000Y82850000D02*
X302900000Y82850000D01*
X316900000Y81150000D02*
X315900000Y81150000D01*
X315900000Y82850000D02*
X316900000Y82850000D01*
X330900000Y81150000D02*
X329900000Y81150000D01*
X329900000Y82850000D02*
X330900000Y82850000D01*
X328900000Y77750000D02*
X327900000Y77750000D01*
X327900000Y79450000D02*
X328900000Y79450000D01*
X288900000Y83150000D02*
X287900000Y83150000D01*
X287900000Y84850000D02*
X288900000Y84850000D01*
X302900000Y83150000D02*
X301900000Y83150000D01*
X301900000Y84850000D02*
X302900000Y84850000D01*
X316900000Y83150000D02*
X315900000Y83150000D01*
X315900000Y84850000D02*
X316900000Y84850000D01*
X330900000Y83050000D02*
X329900000Y83050000D01*
X329900000Y84750000D02*
X330900000Y84750000D01*
X220665000Y73600000D02*
X220665000Y74800000D01*
X218915000Y74800000D02*
X218915000Y73600000D01*
X214915000Y74800000D02*
X214915000Y73600000D01*
X216665000Y73600000D02*
X216665000Y74800000D01*
X226415000Y74800000D02*
X226415000Y73600000D01*
X228165000Y73600000D02*
X228165000Y74800000D01*
X224165000Y73600000D02*
X224165000Y74800000D01*
X222415000Y74800000D02*
X222415000Y73600000D01*
X232915000Y74800000D02*
X232915000Y73600000D01*
X234665000Y73600000D02*
X234665000Y74800000D01*
X230665000Y73600000D02*
X230665000Y74800000D01*
X228915000Y74800000D02*
X228915000Y73600000D01*
X242165000Y73600000D02*
X242165000Y74800000D01*
X240415000Y74800000D02*
X240415000Y73600000D01*
X236415000Y74800000D02*
X236415000Y73600000D01*
X238165000Y73600000D02*
X238165000Y74800000D01*
X248665000Y73600000D02*
X248665000Y74800000D01*
X246915000Y74800000D02*
X246915000Y73600000D01*
X242915000Y74800000D02*
X242915000Y73600000D01*
X244665000Y73600000D02*
X244665000Y74800000D01*
X254415000Y74800000D02*
X254415000Y73600000D01*
X256165000Y73600000D02*
X256165000Y74800000D01*
X252165000Y73600000D02*
X252165000Y74800000D01*
X250415000Y74800000D02*
X250415000Y73600000D01*
X260915000Y74800000D02*
X260915000Y73600000D01*
X262665000Y73600000D02*
X262665000Y74800000D01*
X256915000Y74800000D02*
X256915000Y73600000D01*
X258665000Y73600000D02*
X258665000Y74800000D01*
X270165000Y73600000D02*
X270165000Y74800000D01*
X268415000Y74800000D02*
X268415000Y73600000D01*
X266165000Y73600000D02*
X266165000Y74800000D01*
X264415000Y74800000D02*
X264415000Y73600000D01*
X330075000Y71725000D02*
X330050000Y71725000D01*
X330075000Y75875000D02*
X329970000Y75875000D01*
X319925000Y75875000D02*
X320030000Y75875000D01*
X319925000Y71725000D02*
X320030000Y71725000D01*
X330075000Y71725000D02*
X330075000Y75875000D01*
X319925000Y71725000D02*
X319925000Y75875000D01*
X330050000Y71725000D02*
X330050000Y70350000D01*
X279150000Y79900000D02*
X279150000Y78900000D01*
X277450000Y78900000D02*
X277450000Y79900000D01*
X291450000Y78900000D02*
X291450000Y79900000D01*
X293150000Y79900000D02*
X293150000Y78900000D01*
X307150000Y79900000D02*
X307150000Y78900000D01*
X305450000Y78900000D02*
X305450000Y79900000D01*
X319550000Y78900000D02*
X319550000Y79900000D01*
X321250000Y79900000D02*
X321250000Y78900000D01*
X279175000Y82300000D02*
X279175000Y83500000D01*
X277425000Y83500000D02*
X277425000Y82300000D01*
X291425000Y83500000D02*
X291425000Y82300000D01*
X293175000Y82300000D02*
X293175000Y83500000D01*
X307175000Y82300000D02*
X307175000Y83500000D01*
X305425000Y83500000D02*
X305425000Y82300000D01*
X319525000Y83500000D02*
X319525000Y82300000D01*
X321275000Y82300000D02*
X321275000Y83500000D01*
X292210000Y51865000D02*
X292210000Y50865000D01*
X290510000Y50865000D02*
X290510000Y51865000D01*
X279660000Y52915000D02*
X278660000Y52915000D01*
X278660000Y54615000D02*
X279660000Y54615000D01*
X279660000Y50915000D02*
X278660000Y50915000D01*
X278660000Y52615000D02*
X279660000Y52615000D01*
X312700000Y70250000D02*
X311700000Y70250000D01*
X311700000Y71950000D02*
X312700000Y71950000D01*
X287184000Y56321000D02*
X290232000Y56321000D01*
X290232000Y56321000D02*
X290232000Y49209000D01*
X290232000Y49209000D02*
X287184000Y49209000D01*
X284136000Y56321000D02*
X283374000Y56321000D01*
X283374000Y56321000D02*
X281088000Y54797000D01*
X281088000Y54797000D02*
X281088000Y50733000D01*
X281088000Y50733000D02*
X283374000Y49209000D01*
X283374000Y49209000D02*
X284136000Y49209000D01*
X314160000Y74435000D02*
G75*
G02X314160000Y73165000I0J-635000D01*
G01*
X314125000Y75875000D02*
X314270000Y75875000D01*
X314125000Y71725000D02*
X314270000Y71725000D01*
X319275000Y71725000D02*
X319130000Y71725000D01*
X319275000Y75875000D02*
X319130000Y75875000D01*
X314125000Y75875000D02*
X314125000Y71725000D01*
X319275000Y75875000D02*
X319275000Y71725000D01*
X325275000Y67700000D02*
X325275000Y68900000D01*
X323525000Y68900000D02*
X323525000Y67700000D01*
X218147142Y71719047D02*
X218194761Y71766666D01*
X218242380Y71909523D01*
X218242380Y72004761D01*
X218194761Y72147619D01*
X218099523Y72242857D01*
X218004285Y72290476D01*
X217813809Y72338095D01*
X217670952Y72338095D01*
X217480476Y72290476D01*
X217385238Y72242857D01*
X217290000Y72147619D01*
X217242380Y72004761D01*
X217242380Y71909523D01*
X217290000Y71766666D01*
X217337619Y71719047D01*
X218242380Y70766666D02*
X218242380Y71338095D01*
X218242380Y71052380D02*
X217242380Y71052380D01*
X217385238Y71147619D01*
X217480476Y71242857D01*
X217528095Y71338095D01*
X217242380Y70147619D02*
X217242380Y70052380D01*
X217290000Y69957142D01*
X217337619Y69909523D01*
X217432857Y69861904D01*
X217623333Y69814285D01*
X217861428Y69814285D01*
X218051904Y69861904D01*
X218147142Y69909523D01*
X218194761Y69957142D01*
X218242380Y70052380D01*
X218242380Y70147619D01*
X218194761Y70242857D01*
X218147142Y70290476D01*
X218051904Y70338095D01*
X217861428Y70385714D01*
X217623333Y70385714D01*
X217432857Y70338095D01*
X217337619Y70290476D01*
X217290000Y70242857D01*
X217242380Y70147619D01*
X218242380Y68861904D02*
X218242380Y69433333D01*
X218242380Y69147619D02*
X217242380Y69147619D01*
X217385238Y69242857D01*
X217480476Y69338095D01*
X217528095Y69433333D01*
X225647142Y71719047D02*
X225694761Y71766666D01*
X225742380Y71909523D01*
X225742380Y72004761D01*
X225694761Y72147619D01*
X225599523Y72242857D01*
X225504285Y72290476D01*
X225313809Y72338095D01*
X225170952Y72338095D01*
X224980476Y72290476D01*
X224885238Y72242857D01*
X224790000Y72147619D01*
X224742380Y72004761D01*
X224742380Y71909523D01*
X224790000Y71766666D01*
X224837619Y71719047D01*
X225742380Y70766666D02*
X225742380Y71338095D01*
X225742380Y71052380D02*
X224742380Y71052380D01*
X224885238Y71147619D01*
X224980476Y71242857D01*
X225028095Y71338095D01*
X224742380Y70147619D02*
X224742380Y70052380D01*
X224790000Y69957142D01*
X224837619Y69909523D01*
X224932857Y69861904D01*
X225123333Y69814285D01*
X225361428Y69814285D01*
X225551904Y69861904D01*
X225647142Y69909523D01*
X225694761Y69957142D01*
X225742380Y70052380D01*
X225742380Y70147619D01*
X225694761Y70242857D01*
X225647142Y70290476D01*
X225551904Y70338095D01*
X225361428Y70385714D01*
X225123333Y70385714D01*
X224932857Y70338095D01*
X224837619Y70290476D01*
X224790000Y70242857D01*
X224742380Y70147619D01*
X224837619Y69433333D02*
X224790000Y69385714D01*
X224742380Y69290476D01*
X224742380Y69052380D01*
X224790000Y68957142D01*
X224837619Y68909523D01*
X224932857Y68861904D01*
X225028095Y68861904D01*
X225170952Y68909523D01*
X225742380Y69480952D01*
X225742380Y68861904D01*
X232147142Y71719047D02*
X232194761Y71766666D01*
X232242380Y71909523D01*
X232242380Y72004761D01*
X232194761Y72147619D01*
X232099523Y72242857D01*
X232004285Y72290476D01*
X231813809Y72338095D01*
X231670952Y72338095D01*
X231480476Y72290476D01*
X231385238Y72242857D01*
X231290000Y72147619D01*
X231242380Y72004761D01*
X231242380Y71909523D01*
X231290000Y71766666D01*
X231337619Y71719047D01*
X232242380Y70766666D02*
X232242380Y71338095D01*
X232242380Y71052380D02*
X231242380Y71052380D01*
X231385238Y71147619D01*
X231480476Y71242857D01*
X231528095Y71338095D01*
X231242380Y70147619D02*
X231242380Y70052380D01*
X231290000Y69957142D01*
X231337619Y69909523D01*
X231432857Y69861904D01*
X231623333Y69814285D01*
X231861428Y69814285D01*
X232051904Y69861904D01*
X232147142Y69909523D01*
X232194761Y69957142D01*
X232242380Y70052380D01*
X232242380Y70147619D01*
X232194761Y70242857D01*
X232147142Y70290476D01*
X232051904Y70338095D01*
X231861428Y70385714D01*
X231623333Y70385714D01*
X231432857Y70338095D01*
X231337619Y70290476D01*
X231290000Y70242857D01*
X231242380Y70147619D01*
X231242380Y69480952D02*
X231242380Y68861904D01*
X231623333Y69195238D01*
X231623333Y69052380D01*
X231670952Y68957142D01*
X231718571Y68909523D01*
X231813809Y68861904D01*
X232051904Y68861904D01*
X232147142Y68909523D01*
X232194761Y68957142D01*
X232242380Y69052380D01*
X232242380Y69338095D01*
X232194761Y69433333D01*
X232147142Y69480952D01*
X239647142Y71719047D02*
X239694761Y71766666D01*
X239742380Y71909523D01*
X239742380Y72004761D01*
X239694761Y72147619D01*
X239599523Y72242857D01*
X239504285Y72290476D01*
X239313809Y72338095D01*
X239170952Y72338095D01*
X238980476Y72290476D01*
X238885238Y72242857D01*
X238790000Y72147619D01*
X238742380Y72004761D01*
X238742380Y71909523D01*
X238790000Y71766666D01*
X238837619Y71719047D01*
X239742380Y70766666D02*
X239742380Y71338095D01*
X239742380Y71052380D02*
X238742380Y71052380D01*
X238885238Y71147619D01*
X238980476Y71242857D01*
X239028095Y71338095D01*
X238742380Y70147619D02*
X238742380Y70052380D01*
X238790000Y69957142D01*
X238837619Y69909523D01*
X238932857Y69861904D01*
X239123333Y69814285D01*
X239361428Y69814285D01*
X239551904Y69861904D01*
X239647142Y69909523D01*
X239694761Y69957142D01*
X239742380Y70052380D01*
X239742380Y70147619D01*
X239694761Y70242857D01*
X239647142Y70290476D01*
X239551904Y70338095D01*
X239361428Y70385714D01*
X239123333Y70385714D01*
X238932857Y70338095D01*
X238837619Y70290476D01*
X238790000Y70242857D01*
X238742380Y70147619D01*
X239075714Y68957142D02*
X239742380Y68957142D01*
X238694761Y69195238D02*
X239409047Y69433333D01*
X239409047Y68814285D01*
X246147142Y71819047D02*
X246194761Y71866666D01*
X246242380Y72009523D01*
X246242380Y72104761D01*
X246194761Y72247619D01*
X246099523Y72342857D01*
X246004285Y72390476D01*
X245813809Y72438095D01*
X245670952Y72438095D01*
X245480476Y72390476D01*
X245385238Y72342857D01*
X245290000Y72247619D01*
X245242380Y72104761D01*
X245242380Y72009523D01*
X245290000Y71866666D01*
X245337619Y71819047D01*
X246242380Y70866666D02*
X246242380Y71438095D01*
X246242380Y71152380D02*
X245242380Y71152380D01*
X245385238Y71247619D01*
X245480476Y71342857D01*
X245528095Y71438095D01*
X245242380Y70247619D02*
X245242380Y70152380D01*
X245290000Y70057142D01*
X245337619Y70009523D01*
X245432857Y69961904D01*
X245623333Y69914285D01*
X245861428Y69914285D01*
X246051904Y69961904D01*
X246147142Y70009523D01*
X246194761Y70057142D01*
X246242380Y70152380D01*
X246242380Y70247619D01*
X246194761Y70342857D01*
X246147142Y70390476D01*
X246051904Y70438095D01*
X245861428Y70485714D01*
X245623333Y70485714D01*
X245432857Y70438095D01*
X245337619Y70390476D01*
X245290000Y70342857D01*
X245242380Y70247619D01*
X245242380Y69009523D02*
X245242380Y69485714D01*
X245718571Y69533333D01*
X245670952Y69485714D01*
X245623333Y69390476D01*
X245623333Y69152380D01*
X245670952Y69057142D01*
X245718571Y69009523D01*
X245813809Y68961904D01*
X246051904Y68961904D01*
X246147142Y69009523D01*
X246194761Y69057142D01*
X246242380Y69152380D01*
X246242380Y69390476D01*
X246194761Y69485714D01*
X246147142Y69533333D01*
X253647142Y71819047D02*
X253694761Y71866666D01*
X253742380Y72009523D01*
X253742380Y72104761D01*
X253694761Y72247619D01*
X253599523Y72342857D01*
X253504285Y72390476D01*
X253313809Y72438095D01*
X253170952Y72438095D01*
X252980476Y72390476D01*
X252885238Y72342857D01*
X252790000Y72247619D01*
X252742380Y72104761D01*
X252742380Y72009523D01*
X252790000Y71866666D01*
X252837619Y71819047D01*
X253742380Y70866666D02*
X253742380Y71438095D01*
X253742380Y71152380D02*
X252742380Y71152380D01*
X252885238Y71247619D01*
X252980476Y71342857D01*
X253028095Y71438095D01*
X252742380Y70247619D02*
X252742380Y70152380D01*
X252790000Y70057142D01*
X252837619Y70009523D01*
X252932857Y69961904D01*
X253123333Y69914285D01*
X253361428Y69914285D01*
X253551904Y69961904D01*
X253647142Y70009523D01*
X253694761Y70057142D01*
X253742380Y70152380D01*
X253742380Y70247619D01*
X253694761Y70342857D01*
X253647142Y70390476D01*
X253551904Y70438095D01*
X253361428Y70485714D01*
X253123333Y70485714D01*
X252932857Y70438095D01*
X252837619Y70390476D01*
X252790000Y70342857D01*
X252742380Y70247619D01*
X252742380Y69057142D02*
X252742380Y69247619D01*
X252790000Y69342857D01*
X252837619Y69390476D01*
X252980476Y69485714D01*
X253170952Y69533333D01*
X253551904Y69533333D01*
X253647142Y69485714D01*
X253694761Y69438095D01*
X253742380Y69342857D01*
X253742380Y69152380D01*
X253694761Y69057142D01*
X253647142Y69009523D01*
X253551904Y68961904D01*
X253313809Y68961904D01*
X253218571Y69009523D01*
X253170952Y69057142D01*
X253123333Y69152380D01*
X253123333Y69342857D01*
X253170952Y69438095D01*
X253218571Y69485714D01*
X253313809Y69533333D01*
X260147142Y71819047D02*
X260194761Y71866666D01*
X260242380Y72009523D01*
X260242380Y72104761D01*
X260194761Y72247619D01*
X260099523Y72342857D01*
X260004285Y72390476D01*
X259813809Y72438095D01*
X259670952Y72438095D01*
X259480476Y72390476D01*
X259385238Y72342857D01*
X259290000Y72247619D01*
X259242380Y72104761D01*
X259242380Y72009523D01*
X259290000Y71866666D01*
X259337619Y71819047D01*
X260242380Y70866666D02*
X260242380Y71438095D01*
X260242380Y71152380D02*
X259242380Y71152380D01*
X259385238Y71247619D01*
X259480476Y71342857D01*
X259528095Y71438095D01*
X259242380Y70247619D02*
X259242380Y70152380D01*
X259290000Y70057142D01*
X259337619Y70009523D01*
X259432857Y69961904D01*
X259623333Y69914285D01*
X259861428Y69914285D01*
X260051904Y69961904D01*
X260147142Y70009523D01*
X260194761Y70057142D01*
X260242380Y70152380D01*
X260242380Y70247619D01*
X260194761Y70342857D01*
X260147142Y70390476D01*
X260051904Y70438095D01*
X259861428Y70485714D01*
X259623333Y70485714D01*
X259432857Y70438095D01*
X259337619Y70390476D01*
X259290000Y70342857D01*
X259242380Y70247619D01*
X259242380Y69580952D02*
X259242380Y68914285D01*
X260242380Y69342857D01*
X267647142Y71819047D02*
X267694761Y71866666D01*
X267742380Y72009523D01*
X267742380Y72104761D01*
X267694761Y72247619D01*
X267599523Y72342857D01*
X267504285Y72390476D01*
X267313809Y72438095D01*
X267170952Y72438095D01*
X266980476Y72390476D01*
X266885238Y72342857D01*
X266790000Y72247619D01*
X266742380Y72104761D01*
X266742380Y72009523D01*
X266790000Y71866666D01*
X266837619Y71819047D01*
X267742380Y70866666D02*
X267742380Y71438095D01*
X267742380Y71152380D02*
X266742380Y71152380D01*
X266885238Y71247619D01*
X266980476Y71342857D01*
X267028095Y71438095D01*
X266742380Y70247619D02*
X266742380Y70152380D01*
X266790000Y70057142D01*
X266837619Y70009523D01*
X266932857Y69961904D01*
X267123333Y69914285D01*
X267361428Y69914285D01*
X267551904Y69961904D01*
X267647142Y70009523D01*
X267694761Y70057142D01*
X267742380Y70152380D01*
X267742380Y70247619D01*
X267694761Y70342857D01*
X267647142Y70390476D01*
X267551904Y70438095D01*
X267361428Y70485714D01*
X267123333Y70485714D01*
X266932857Y70438095D01*
X266837619Y70390476D01*
X266790000Y70342857D01*
X266742380Y70247619D01*
X267170952Y69342857D02*
X267123333Y69438095D01*
X267075714Y69485714D01*
X266980476Y69533333D01*
X266932857Y69533333D01*
X266837619Y69485714D01*
X266790000Y69438095D01*
X266742380Y69342857D01*
X266742380Y69152380D01*
X266790000Y69057142D01*
X266837619Y69009523D01*
X266932857Y68961904D01*
X266980476Y68961904D01*
X267075714Y69009523D01*
X267123333Y69057142D01*
X267170952Y69152380D01*
X267170952Y69342857D01*
X267218571Y69438095D01*
X267266190Y69485714D01*
X267361428Y69533333D01*
X267551904Y69533333D01*
X267647142Y69485714D01*
X267694761Y69438095D01*
X267742380Y69342857D01*
X267742380Y69152380D01*
X267694761Y69057142D01*
X267647142Y69009523D01*
X267551904Y68961904D01*
X267361428Y68961904D01*
X267266190Y69009523D01*
X267218571Y69057142D01*
X267170952Y69152380D01*
X289519047Y80042857D02*
X289566666Y79995238D01*
X289709523Y79947619D01*
X289804761Y79947619D01*
X289947619Y79995238D01*
X290042857Y80090476D01*
X290090476Y80185714D01*
X290138095Y80376190D01*
X290138095Y80519047D01*
X290090476Y80709523D01*
X290042857Y80804761D01*
X289947619Y80900000D01*
X289804761Y80947619D01*
X289709523Y80947619D01*
X289566666Y80900000D01*
X289519047Y80852380D01*
X288566666Y79947619D02*
X289138095Y79947619D01*
X288852380Y79947619D02*
X288852380Y80947619D01*
X288947619Y80804761D01*
X289042857Y80709523D01*
X289138095Y80661904D01*
X287947619Y80947619D02*
X287852380Y80947619D01*
X287757142Y80900000D01*
X287709523Y80852380D01*
X287661904Y80757142D01*
X287614285Y80566666D01*
X287614285Y80328571D01*
X287661904Y80138095D01*
X287709523Y80042857D01*
X287757142Y79995238D01*
X287852380Y79947619D01*
X287947619Y79947619D01*
X288042857Y79995238D01*
X288090476Y80042857D01*
X288138095Y80138095D01*
X288185714Y80328571D01*
X288185714Y80566666D01*
X288138095Y80757142D01*
X288090476Y80852380D01*
X288042857Y80900000D01*
X287947619Y80947619D01*
X287138095Y79947619D02*
X286947619Y79947619D01*
X286852380Y79995238D01*
X286804761Y80042857D01*
X286709523Y80185714D01*
X286661904Y80376190D01*
X286661904Y80757142D01*
X286709523Y80852380D01*
X286757142Y80900000D01*
X286852380Y80947619D01*
X287042857Y80947619D01*
X287138095Y80900000D01*
X287185714Y80852380D01*
X287233333Y80757142D01*
X287233333Y80519047D01*
X287185714Y80423809D01*
X287138095Y80376190D01*
X287042857Y80328571D01*
X286852380Y80328571D01*
X286757142Y80376190D01*
X286709523Y80423809D01*
X286661904Y80519047D01*
X303519047Y80042857D02*
X303566666Y79995238D01*
X303709523Y79947619D01*
X303804761Y79947619D01*
X303947619Y79995238D01*
X304042857Y80090476D01*
X304090476Y80185714D01*
X304138095Y80376190D01*
X304138095Y80519047D01*
X304090476Y80709523D01*
X304042857Y80804761D01*
X303947619Y80900000D01*
X303804761Y80947619D01*
X303709523Y80947619D01*
X303566666Y80900000D01*
X303519047Y80852380D01*
X302566666Y79947619D02*
X303138095Y79947619D01*
X302852380Y79947619D02*
X302852380Y80947619D01*
X302947619Y80804761D01*
X303042857Y80709523D01*
X303138095Y80661904D01*
X301614285Y79947619D02*
X302185714Y79947619D01*
X301900000Y79947619D02*
X301900000Y80947619D01*
X301995238Y80804761D01*
X302090476Y80709523D01*
X302185714Y80661904D01*
X300995238Y80947619D02*
X300900000Y80947619D01*
X300804761Y80900000D01*
X300757142Y80852380D01*
X300709523Y80757142D01*
X300661904Y80566666D01*
X300661904Y80328571D01*
X300709523Y80138095D01*
X300757142Y80042857D01*
X300804761Y79995238D01*
X300900000Y79947619D01*
X300995238Y79947619D01*
X301090476Y79995238D01*
X301138095Y80042857D01*
X301185714Y80138095D01*
X301233333Y80328571D01*
X301233333Y80566666D01*
X301185714Y80757142D01*
X301138095Y80852380D01*
X301090476Y80900000D01*
X300995238Y80947619D01*
X317519047Y80042857D02*
X317566666Y79995238D01*
X317709523Y79947619D01*
X317804761Y79947619D01*
X317947619Y79995238D01*
X318042857Y80090476D01*
X318090476Y80185714D01*
X318138095Y80376190D01*
X318138095Y80519047D01*
X318090476Y80709523D01*
X318042857Y80804761D01*
X317947619Y80900000D01*
X317804761Y80947619D01*
X317709523Y80947619D01*
X317566666Y80900000D01*
X317519047Y80852380D01*
X316566666Y79947619D02*
X317138095Y79947619D01*
X316852380Y79947619D02*
X316852380Y80947619D01*
X316947619Y80804761D01*
X317042857Y80709523D01*
X317138095Y80661904D01*
X315614285Y79947619D02*
X316185714Y79947619D01*
X315900000Y79947619D02*
X315900000Y80947619D01*
X315995238Y80804761D01*
X316090476Y80709523D01*
X316185714Y80661904D01*
X314661904Y79947619D02*
X315233333Y79947619D01*
X314947619Y79947619D02*
X314947619Y80947619D01*
X315042857Y80804761D01*
X315138095Y80709523D01*
X315233333Y80661904D01*
X331519047Y79942857D02*
X331566666Y79895238D01*
X331709523Y79847619D01*
X331804761Y79847619D01*
X331947619Y79895238D01*
X332042857Y79990476D01*
X332090476Y80085714D01*
X332138095Y80276190D01*
X332138095Y80419047D01*
X332090476Y80609523D01*
X332042857Y80704761D01*
X331947619Y80800000D01*
X331804761Y80847619D01*
X331709523Y80847619D01*
X331566666Y80800000D01*
X331519047Y80752380D01*
X330566666Y79847619D02*
X331138095Y79847619D01*
X330852380Y79847619D02*
X330852380Y80847619D01*
X330947619Y80704761D01*
X331042857Y80609523D01*
X331138095Y80561904D01*
X329614285Y79847619D02*
X330185714Y79847619D01*
X329900000Y79847619D02*
X329900000Y80847619D01*
X329995238Y80704761D01*
X330090476Y80609523D01*
X330185714Y80561904D01*
X329233333Y80752380D02*
X329185714Y80800000D01*
X329090476Y80847619D01*
X328852380Y80847619D01*
X328757142Y80800000D01*
X328709523Y80752380D01*
X328661904Y80657142D01*
X328661904Y80561904D01*
X328709523Y80419047D01*
X329280952Y79847619D01*
X328661904Y79847619D01*
X326019047Y78242857D02*
X326066666Y78195238D01*
X326209523Y78147619D01*
X326304761Y78147619D01*
X326447619Y78195238D01*
X326542857Y78290476D01*
X326590476Y78385714D01*
X326638095Y78576190D01*
X326638095Y78719047D01*
X326590476Y78909523D01*
X326542857Y79004761D01*
X326447619Y79100000D01*
X326304761Y79147619D01*
X326209523Y79147619D01*
X326066666Y79100000D01*
X326019047Y79052380D01*
X325066666Y78147619D02*
X325638095Y78147619D01*
X325352380Y78147619D02*
X325352380Y79147619D01*
X325447619Y79004761D01*
X325542857Y78909523D01*
X325638095Y78861904D01*
X324114285Y78147619D02*
X324685714Y78147619D01*
X324400000Y78147619D02*
X324400000Y79147619D01*
X324495238Y79004761D01*
X324590476Y78909523D01*
X324685714Y78861904D01*
X323780952Y79147619D02*
X323161904Y79147619D01*
X323495238Y78766666D01*
X323352380Y78766666D01*
X323257142Y78719047D01*
X323209523Y78671428D01*
X323161904Y78576190D01*
X323161904Y78338095D01*
X323209523Y78242857D01*
X323257142Y78195238D01*
X323352380Y78147619D01*
X323638095Y78147619D01*
X323733333Y78195238D01*
X323780952Y78242857D01*
X289519047Y85147619D02*
X289995238Y85147619D01*
X289995238Y86147619D01*
X288661904Y85147619D02*
X289233333Y85147619D01*
X288947619Y85147619D02*
X288947619Y86147619D01*
X289042857Y86004761D01*
X289138095Y85909523D01*
X289233333Y85861904D01*
X288042857Y86147619D02*
X287947619Y86147619D01*
X287852380Y86100000D01*
X287804761Y86052380D01*
X287757142Y85957142D01*
X287709523Y85766666D01*
X287709523Y85528571D01*
X287757142Y85338095D01*
X287804761Y85242857D01*
X287852380Y85195238D01*
X287947619Y85147619D01*
X288042857Y85147619D01*
X288138095Y85195238D01*
X288185714Y85242857D01*
X288233333Y85338095D01*
X288280952Y85528571D01*
X288280952Y85766666D01*
X288233333Y85957142D01*
X288185714Y86052380D01*
X288138095Y86100000D01*
X288042857Y86147619D01*
X286757142Y85147619D02*
X287328571Y85147619D01*
X287042857Y85147619D02*
X287042857Y86147619D01*
X287138095Y86004761D01*
X287233333Y85909523D01*
X287328571Y85861904D01*
X303519047Y85147619D02*
X303995238Y85147619D01*
X303995238Y86147619D01*
X302661904Y85147619D02*
X303233333Y85147619D01*
X302947619Y85147619D02*
X302947619Y86147619D01*
X303042857Y86004761D01*
X303138095Y85909523D01*
X303233333Y85861904D01*
X302042857Y86147619D02*
X301947619Y86147619D01*
X301852380Y86100000D01*
X301804761Y86052380D01*
X301757142Y85957142D01*
X301709523Y85766666D01*
X301709523Y85528571D01*
X301757142Y85338095D01*
X301804761Y85242857D01*
X301852380Y85195238D01*
X301947619Y85147619D01*
X302042857Y85147619D01*
X302138095Y85195238D01*
X302185714Y85242857D01*
X302233333Y85338095D01*
X302280952Y85528571D01*
X302280952Y85766666D01*
X302233333Y85957142D01*
X302185714Y86052380D01*
X302138095Y86100000D01*
X302042857Y86147619D01*
X301328571Y86052380D02*
X301280952Y86100000D01*
X301185714Y86147619D01*
X300947619Y86147619D01*
X300852380Y86100000D01*
X300804761Y86052380D01*
X300757142Y85957142D01*
X300757142Y85861904D01*
X300804761Y85719047D01*
X301376190Y85147619D01*
X300757142Y85147619D01*
X317519047Y85147619D02*
X317995238Y85147619D01*
X317995238Y86147619D01*
X316661904Y85147619D02*
X317233333Y85147619D01*
X316947619Y85147619D02*
X316947619Y86147619D01*
X317042857Y86004761D01*
X317138095Y85909523D01*
X317233333Y85861904D01*
X316042857Y86147619D02*
X315947619Y86147619D01*
X315852380Y86100000D01*
X315804761Y86052380D01*
X315757142Y85957142D01*
X315709523Y85766666D01*
X315709523Y85528571D01*
X315757142Y85338095D01*
X315804761Y85242857D01*
X315852380Y85195238D01*
X315947619Y85147619D01*
X316042857Y85147619D01*
X316138095Y85195238D01*
X316185714Y85242857D01*
X316233333Y85338095D01*
X316280952Y85528571D01*
X316280952Y85766666D01*
X316233333Y85957142D01*
X316185714Y86052380D01*
X316138095Y86100000D01*
X316042857Y86147619D01*
X315376190Y86147619D02*
X314757142Y86147619D01*
X315090476Y85766666D01*
X314947619Y85766666D01*
X314852380Y85719047D01*
X314804761Y85671428D01*
X314757142Y85576190D01*
X314757142Y85338095D01*
X314804761Y85242857D01*
X314852380Y85195238D01*
X314947619Y85147619D01*
X315233333Y85147619D01*
X315328571Y85195238D01*
X315376190Y85242857D01*
X331419047Y85047619D02*
X331895238Y85047619D01*
X331895238Y86047619D01*
X330561904Y85047619D02*
X331133333Y85047619D01*
X330847619Y85047619D02*
X330847619Y86047619D01*
X330942857Y85904761D01*
X331038095Y85809523D01*
X331133333Y85761904D01*
X329942857Y86047619D02*
X329847619Y86047619D01*
X329752380Y86000000D01*
X329704761Y85952380D01*
X329657142Y85857142D01*
X329609523Y85666666D01*
X329609523Y85428571D01*
X329657142Y85238095D01*
X329704761Y85142857D01*
X329752380Y85095238D01*
X329847619Y85047619D01*
X329942857Y85047619D01*
X330038095Y85095238D01*
X330085714Y85142857D01*
X330133333Y85238095D01*
X330180952Y85428571D01*
X330180952Y85666666D01*
X330133333Y85857142D01*
X330085714Y85952380D01*
X330038095Y86000000D01*
X329942857Y86047619D01*
X328752380Y85714285D02*
X328752380Y85047619D01*
X328990476Y86095238D02*
X329228571Y85380952D01*
X328609523Y85380952D01*
X220242380Y71819047D02*
X219766190Y72152380D01*
X220242380Y72390476D02*
X219242380Y72390476D01*
X219242380Y72009523D01*
X219290000Y71914285D01*
X219337619Y71866666D01*
X219432857Y71819047D01*
X219575714Y71819047D01*
X219670952Y71866666D01*
X219718571Y71914285D01*
X219766190Y72009523D01*
X219766190Y72390476D01*
X220242380Y70866666D02*
X220242380Y71438095D01*
X220242380Y71152380D02*
X219242380Y71152380D01*
X219385238Y71247619D01*
X219480476Y71342857D01*
X219528095Y71438095D01*
X220242380Y69914285D02*
X220242380Y70485714D01*
X220242380Y70200000D02*
X219242380Y70200000D01*
X219385238Y70295238D01*
X219480476Y70390476D01*
X219528095Y70485714D01*
X219242380Y69580952D02*
X219242380Y68914285D01*
X220242380Y69342857D01*
X216242380Y71819047D02*
X215766190Y72152380D01*
X216242380Y72390476D02*
X215242380Y72390476D01*
X215242380Y72009523D01*
X215290000Y71914285D01*
X215337619Y71866666D01*
X215432857Y71819047D01*
X215575714Y71819047D01*
X215670952Y71866666D01*
X215718571Y71914285D01*
X215766190Y72009523D01*
X215766190Y72390476D01*
X216242380Y70866666D02*
X216242380Y71438095D01*
X216242380Y71152380D02*
X215242380Y71152380D01*
X215385238Y71247619D01*
X215480476Y71342857D01*
X215528095Y71438095D01*
X216242380Y69914285D02*
X216242380Y70485714D01*
X216242380Y70200000D02*
X215242380Y70200000D01*
X215385238Y70295238D01*
X215480476Y70390476D01*
X215528095Y70485714D01*
X215670952Y69342857D02*
X215623333Y69438095D01*
X215575714Y69485714D01*
X215480476Y69533333D01*
X215432857Y69533333D01*
X215337619Y69485714D01*
X215290000Y69438095D01*
X215242380Y69342857D01*
X215242380Y69152380D01*
X215290000Y69057142D01*
X215337619Y69009523D01*
X215432857Y68961904D01*
X215480476Y68961904D01*
X215575714Y69009523D01*
X215623333Y69057142D01*
X215670952Y69152380D01*
X215670952Y69342857D01*
X215718571Y69438095D01*
X215766190Y69485714D01*
X215861428Y69533333D01*
X216051904Y69533333D01*
X216147142Y69485714D01*
X216194761Y69438095D01*
X216242380Y69342857D01*
X216242380Y69152380D01*
X216194761Y69057142D01*
X216147142Y69009523D01*
X216051904Y68961904D01*
X215861428Y68961904D01*
X215766190Y69009523D01*
X215718571Y69057142D01*
X215670952Y69152380D01*
X227742380Y71819047D02*
X227266190Y72152380D01*
X227742380Y72390476D02*
X226742380Y72390476D01*
X226742380Y72009523D01*
X226790000Y71914285D01*
X226837619Y71866666D01*
X226932857Y71819047D01*
X227075714Y71819047D01*
X227170952Y71866666D01*
X227218571Y71914285D01*
X227266190Y72009523D01*
X227266190Y72390476D01*
X227742380Y70866666D02*
X227742380Y71438095D01*
X227742380Y71152380D02*
X226742380Y71152380D01*
X226885238Y71247619D01*
X226980476Y71342857D01*
X227028095Y71438095D01*
X227742380Y69914285D02*
X227742380Y70485714D01*
X227742380Y70200000D02*
X226742380Y70200000D01*
X226885238Y70295238D01*
X226980476Y70390476D01*
X227028095Y70485714D01*
X227742380Y69438095D02*
X227742380Y69247619D01*
X227694761Y69152380D01*
X227647142Y69104761D01*
X227504285Y69009523D01*
X227313809Y68961904D01*
X226932857Y68961904D01*
X226837619Y69009523D01*
X226790000Y69057142D01*
X226742380Y69152380D01*
X226742380Y69342857D01*
X226790000Y69438095D01*
X226837619Y69485714D01*
X226932857Y69533333D01*
X227170952Y69533333D01*
X227266190Y69485714D01*
X227313809Y69438095D01*
X227361428Y69342857D01*
X227361428Y69152380D01*
X227313809Y69057142D01*
X227266190Y69009523D01*
X227170952Y68961904D01*
X223742380Y71819047D02*
X223266190Y72152380D01*
X223742380Y72390476D02*
X222742380Y72390476D01*
X222742380Y72009523D01*
X222790000Y71914285D01*
X222837619Y71866666D01*
X222932857Y71819047D01*
X223075714Y71819047D01*
X223170952Y71866666D01*
X223218571Y71914285D01*
X223266190Y72009523D01*
X223266190Y72390476D01*
X223742380Y70866666D02*
X223742380Y71438095D01*
X223742380Y71152380D02*
X222742380Y71152380D01*
X222885238Y71247619D01*
X222980476Y71342857D01*
X223028095Y71438095D01*
X222837619Y70485714D02*
X222790000Y70438095D01*
X222742380Y70342857D01*
X222742380Y70104761D01*
X222790000Y70009523D01*
X222837619Y69961904D01*
X222932857Y69914285D01*
X223028095Y69914285D01*
X223170952Y69961904D01*
X223742380Y70533333D01*
X223742380Y69914285D01*
X222742380Y69295238D02*
X222742380Y69200000D01*
X222790000Y69104761D01*
X222837619Y69057142D01*
X222932857Y69009523D01*
X223123333Y68961904D01*
X223361428Y68961904D01*
X223551904Y69009523D01*
X223647142Y69057142D01*
X223694761Y69104761D01*
X223742380Y69200000D01*
X223742380Y69295238D01*
X223694761Y69390476D01*
X223647142Y69438095D01*
X223551904Y69485714D01*
X223361428Y69533333D01*
X223123333Y69533333D01*
X222932857Y69485714D01*
X222837619Y69438095D01*
X222790000Y69390476D01*
X222742380Y69295238D01*
X234242380Y71819047D02*
X233766190Y72152380D01*
X234242380Y72390476D02*
X233242380Y72390476D01*
X233242380Y72009523D01*
X233290000Y71914285D01*
X233337619Y71866666D01*
X233432857Y71819047D01*
X233575714Y71819047D01*
X233670952Y71866666D01*
X233718571Y71914285D01*
X233766190Y72009523D01*
X233766190Y72390476D01*
X234242380Y70866666D02*
X234242380Y71438095D01*
X234242380Y71152380D02*
X233242380Y71152380D01*
X233385238Y71247619D01*
X233480476Y71342857D01*
X233528095Y71438095D01*
X233337619Y70485714D02*
X233290000Y70438095D01*
X233242380Y70342857D01*
X233242380Y70104761D01*
X233290000Y70009523D01*
X233337619Y69961904D01*
X233432857Y69914285D01*
X233528095Y69914285D01*
X233670952Y69961904D01*
X234242380Y70533333D01*
X234242380Y69914285D01*
X234242380Y68961904D02*
X234242380Y69533333D01*
X234242380Y69247619D02*
X233242380Y69247619D01*
X233385238Y69342857D01*
X233480476Y69438095D01*
X233528095Y69533333D01*
X230242380Y71819047D02*
X229766190Y72152380D01*
X230242380Y72390476D02*
X229242380Y72390476D01*
X229242380Y72009523D01*
X229290000Y71914285D01*
X229337619Y71866666D01*
X229432857Y71819047D01*
X229575714Y71819047D01*
X229670952Y71866666D01*
X229718571Y71914285D01*
X229766190Y72009523D01*
X229766190Y72390476D01*
X230242380Y70866666D02*
X230242380Y71438095D01*
X230242380Y71152380D02*
X229242380Y71152380D01*
X229385238Y71247619D01*
X229480476Y71342857D01*
X229528095Y71438095D01*
X229337619Y70485714D02*
X229290000Y70438095D01*
X229242380Y70342857D01*
X229242380Y70104761D01*
X229290000Y70009523D01*
X229337619Y69961904D01*
X229432857Y69914285D01*
X229528095Y69914285D01*
X229670952Y69961904D01*
X230242380Y70533333D01*
X230242380Y69914285D01*
X229337619Y69533333D02*
X229290000Y69485714D01*
X229242380Y69390476D01*
X229242380Y69152380D01*
X229290000Y69057142D01*
X229337619Y69009523D01*
X229432857Y68961904D01*
X229528095Y68961904D01*
X229670952Y69009523D01*
X230242380Y69580952D01*
X230242380Y68961904D01*
X241742380Y71819047D02*
X241266190Y72152380D01*
X241742380Y72390476D02*
X240742380Y72390476D01*
X240742380Y72009523D01*
X240790000Y71914285D01*
X240837619Y71866666D01*
X240932857Y71819047D01*
X241075714Y71819047D01*
X241170952Y71866666D01*
X241218571Y71914285D01*
X241266190Y72009523D01*
X241266190Y72390476D01*
X241742380Y70866666D02*
X241742380Y71438095D01*
X241742380Y71152380D02*
X240742380Y71152380D01*
X240885238Y71247619D01*
X240980476Y71342857D01*
X241028095Y71438095D01*
X240837619Y70485714D02*
X240790000Y70438095D01*
X240742380Y70342857D01*
X240742380Y70104761D01*
X240790000Y70009523D01*
X240837619Y69961904D01*
X240932857Y69914285D01*
X241028095Y69914285D01*
X241170952Y69961904D01*
X241742380Y70533333D01*
X241742380Y69914285D01*
X240742380Y69580952D02*
X240742380Y68961904D01*
X241123333Y69295238D01*
X241123333Y69152380D01*
X241170952Y69057142D01*
X241218571Y69009523D01*
X241313809Y68961904D01*
X241551904Y68961904D01*
X241647142Y69009523D01*
X241694761Y69057142D01*
X241742380Y69152380D01*
X241742380Y69438095D01*
X241694761Y69533333D01*
X241647142Y69580952D01*
X237742380Y71819047D02*
X237266190Y72152380D01*
X237742380Y72390476D02*
X236742380Y72390476D01*
X236742380Y72009523D01*
X236790000Y71914285D01*
X236837619Y71866666D01*
X236932857Y71819047D01*
X237075714Y71819047D01*
X237170952Y71866666D01*
X237218571Y71914285D01*
X237266190Y72009523D01*
X237266190Y72390476D01*
X237742380Y70866666D02*
X237742380Y71438095D01*
X237742380Y71152380D02*
X236742380Y71152380D01*
X236885238Y71247619D01*
X236980476Y71342857D01*
X237028095Y71438095D01*
X236837619Y70485714D02*
X236790000Y70438095D01*
X236742380Y70342857D01*
X236742380Y70104761D01*
X236790000Y70009523D01*
X236837619Y69961904D01*
X236932857Y69914285D01*
X237028095Y69914285D01*
X237170952Y69961904D01*
X237742380Y70533333D01*
X237742380Y69914285D01*
X237075714Y69057142D02*
X237742380Y69057142D01*
X236694761Y69295238D02*
X237409047Y69533333D01*
X237409047Y68914285D01*
X248242380Y71819047D02*
X247766190Y72152380D01*
X248242380Y72390476D02*
X247242380Y72390476D01*
X247242380Y72009523D01*
X247290000Y71914285D01*
X247337619Y71866666D01*
X247432857Y71819047D01*
X247575714Y71819047D01*
X247670952Y71866666D01*
X247718571Y71914285D01*
X247766190Y72009523D01*
X247766190Y72390476D01*
X248242380Y70866666D02*
X248242380Y71438095D01*
X248242380Y71152380D02*
X247242380Y71152380D01*
X247385238Y71247619D01*
X247480476Y71342857D01*
X247528095Y71438095D01*
X247337619Y70485714D02*
X247290000Y70438095D01*
X247242380Y70342857D01*
X247242380Y70104761D01*
X247290000Y70009523D01*
X247337619Y69961904D01*
X247432857Y69914285D01*
X247528095Y69914285D01*
X247670952Y69961904D01*
X248242380Y70533333D01*
X248242380Y69914285D01*
X247242380Y69009523D02*
X247242380Y69485714D01*
X247718571Y69533333D01*
X247670952Y69485714D01*
X247623333Y69390476D01*
X247623333Y69152380D01*
X247670952Y69057142D01*
X247718571Y69009523D01*
X247813809Y68961904D01*
X248051904Y68961904D01*
X248147142Y69009523D01*
X248194761Y69057142D01*
X248242380Y69152380D01*
X248242380Y69390476D01*
X248194761Y69485714D01*
X248147142Y69533333D01*
X244342380Y71819047D02*
X243866190Y72152380D01*
X244342380Y72390476D02*
X243342380Y72390476D01*
X243342380Y72009523D01*
X243390000Y71914285D01*
X243437619Y71866666D01*
X243532857Y71819047D01*
X243675714Y71819047D01*
X243770952Y71866666D01*
X243818571Y71914285D01*
X243866190Y72009523D01*
X243866190Y72390476D01*
X244342380Y70866666D02*
X244342380Y71438095D01*
X244342380Y71152380D02*
X243342380Y71152380D01*
X243485238Y71247619D01*
X243580476Y71342857D01*
X243628095Y71438095D01*
X243437619Y70485714D02*
X243390000Y70438095D01*
X243342380Y70342857D01*
X243342380Y70104761D01*
X243390000Y70009523D01*
X243437619Y69961904D01*
X243532857Y69914285D01*
X243628095Y69914285D01*
X243770952Y69961904D01*
X244342380Y70533333D01*
X244342380Y69914285D01*
X243342380Y69057142D02*
X243342380Y69247619D01*
X243390000Y69342857D01*
X243437619Y69390476D01*
X243580476Y69485714D01*
X243770952Y69533333D01*
X244151904Y69533333D01*
X244247142Y69485714D01*
X244294761Y69438095D01*
X244342380Y69342857D01*
X244342380Y69152380D01*
X244294761Y69057142D01*
X244247142Y69009523D01*
X244151904Y68961904D01*
X243913809Y68961904D01*
X243818571Y69009523D01*
X243770952Y69057142D01*
X243723333Y69152380D01*
X243723333Y69342857D01*
X243770952Y69438095D01*
X243818571Y69485714D01*
X243913809Y69533333D01*
X255742380Y71819047D02*
X255266190Y72152380D01*
X255742380Y72390476D02*
X254742380Y72390476D01*
X254742380Y72009523D01*
X254790000Y71914285D01*
X254837619Y71866666D01*
X254932857Y71819047D01*
X255075714Y71819047D01*
X255170952Y71866666D01*
X255218571Y71914285D01*
X255266190Y72009523D01*
X255266190Y72390476D01*
X255742380Y70866666D02*
X255742380Y71438095D01*
X255742380Y71152380D02*
X254742380Y71152380D01*
X254885238Y71247619D01*
X254980476Y71342857D01*
X255028095Y71438095D01*
X254837619Y70485714D02*
X254790000Y70438095D01*
X254742380Y70342857D01*
X254742380Y70104761D01*
X254790000Y70009523D01*
X254837619Y69961904D01*
X254932857Y69914285D01*
X255028095Y69914285D01*
X255170952Y69961904D01*
X255742380Y70533333D01*
X255742380Y69914285D01*
X254742380Y69580952D02*
X254742380Y68914285D01*
X255742380Y69342857D01*
X251842380Y71819047D02*
X251366190Y72152380D01*
X251842380Y72390476D02*
X250842380Y72390476D01*
X250842380Y72009523D01*
X250890000Y71914285D01*
X250937619Y71866666D01*
X251032857Y71819047D01*
X251175714Y71819047D01*
X251270952Y71866666D01*
X251318571Y71914285D01*
X251366190Y72009523D01*
X251366190Y72390476D01*
X251842380Y70866666D02*
X251842380Y71438095D01*
X251842380Y71152380D02*
X250842380Y71152380D01*
X250985238Y71247619D01*
X251080476Y71342857D01*
X251128095Y71438095D01*
X250937619Y70485714D02*
X250890000Y70438095D01*
X250842380Y70342857D01*
X250842380Y70104761D01*
X250890000Y70009523D01*
X250937619Y69961904D01*
X251032857Y69914285D01*
X251128095Y69914285D01*
X251270952Y69961904D01*
X251842380Y70533333D01*
X251842380Y69914285D01*
X251270952Y69342857D02*
X251223333Y69438095D01*
X251175714Y69485714D01*
X251080476Y69533333D01*
X251032857Y69533333D01*
X250937619Y69485714D01*
X250890000Y69438095D01*
X250842380Y69342857D01*
X250842380Y69152380D01*
X250890000Y69057142D01*
X250937619Y69009523D01*
X251032857Y68961904D01*
X251080476Y68961904D01*
X251175714Y69009523D01*
X251223333Y69057142D01*
X251270952Y69152380D01*
X251270952Y69342857D01*
X251318571Y69438095D01*
X251366190Y69485714D01*
X251461428Y69533333D01*
X251651904Y69533333D01*
X251747142Y69485714D01*
X251794761Y69438095D01*
X251842380Y69342857D01*
X251842380Y69152380D01*
X251794761Y69057142D01*
X251747142Y69009523D01*
X251651904Y68961904D01*
X251461428Y68961904D01*
X251366190Y69009523D01*
X251318571Y69057142D01*
X251270952Y69152380D01*
X262242380Y71819047D02*
X261766190Y72152380D01*
X262242380Y72390476D02*
X261242380Y72390476D01*
X261242380Y72009523D01*
X261290000Y71914285D01*
X261337619Y71866666D01*
X261432857Y71819047D01*
X261575714Y71819047D01*
X261670952Y71866666D01*
X261718571Y71914285D01*
X261766190Y72009523D01*
X261766190Y72390476D01*
X262242380Y70866666D02*
X262242380Y71438095D01*
X262242380Y71152380D02*
X261242380Y71152380D01*
X261385238Y71247619D01*
X261480476Y71342857D01*
X261528095Y71438095D01*
X261337619Y70485714D02*
X261290000Y70438095D01*
X261242380Y70342857D01*
X261242380Y70104761D01*
X261290000Y70009523D01*
X261337619Y69961904D01*
X261432857Y69914285D01*
X261528095Y69914285D01*
X261670952Y69961904D01*
X262242380Y70533333D01*
X262242380Y69914285D01*
X262242380Y69438095D02*
X262242380Y69247619D01*
X262194761Y69152380D01*
X262147142Y69104761D01*
X262004285Y69009523D01*
X261813809Y68961904D01*
X261432857Y68961904D01*
X261337619Y69009523D01*
X261290000Y69057142D01*
X261242380Y69152380D01*
X261242380Y69342857D01*
X261290000Y69438095D01*
X261337619Y69485714D01*
X261432857Y69533333D01*
X261670952Y69533333D01*
X261766190Y69485714D01*
X261813809Y69438095D01*
X261861428Y69342857D01*
X261861428Y69152380D01*
X261813809Y69057142D01*
X261766190Y69009523D01*
X261670952Y68961904D01*
X258342380Y71819047D02*
X257866190Y72152380D01*
X258342380Y72390476D02*
X257342380Y72390476D01*
X257342380Y72009523D01*
X257390000Y71914285D01*
X257437619Y71866666D01*
X257532857Y71819047D01*
X257675714Y71819047D01*
X257770952Y71866666D01*
X257818571Y71914285D01*
X257866190Y72009523D01*
X257866190Y72390476D01*
X258342380Y70866666D02*
X258342380Y71438095D01*
X258342380Y71152380D02*
X257342380Y71152380D01*
X257485238Y71247619D01*
X257580476Y71342857D01*
X257628095Y71438095D01*
X257342380Y70533333D02*
X257342380Y69914285D01*
X257723333Y70247619D01*
X257723333Y70104761D01*
X257770952Y70009523D01*
X257818571Y69961904D01*
X257913809Y69914285D01*
X258151904Y69914285D01*
X258247142Y69961904D01*
X258294761Y70009523D01*
X258342380Y70104761D01*
X258342380Y70390476D01*
X258294761Y70485714D01*
X258247142Y70533333D01*
X257342380Y69295238D02*
X257342380Y69200000D01*
X257390000Y69104761D01*
X257437619Y69057142D01*
X257532857Y69009523D01*
X257723333Y68961904D01*
X257961428Y68961904D01*
X258151904Y69009523D01*
X258247142Y69057142D01*
X258294761Y69104761D01*
X258342380Y69200000D01*
X258342380Y69295238D01*
X258294761Y69390476D01*
X258247142Y69438095D01*
X258151904Y69485714D01*
X257961428Y69533333D01*
X257723333Y69533333D01*
X257532857Y69485714D01*
X257437619Y69438095D01*
X257390000Y69390476D01*
X257342380Y69295238D01*
X269842380Y71819047D02*
X269366190Y72152380D01*
X269842380Y72390476D02*
X268842380Y72390476D01*
X268842380Y72009523D01*
X268890000Y71914285D01*
X268937619Y71866666D01*
X269032857Y71819047D01*
X269175714Y71819047D01*
X269270952Y71866666D01*
X269318571Y71914285D01*
X269366190Y72009523D01*
X269366190Y72390476D01*
X269842380Y70866666D02*
X269842380Y71438095D01*
X269842380Y71152380D02*
X268842380Y71152380D01*
X268985238Y71247619D01*
X269080476Y71342857D01*
X269128095Y71438095D01*
X268842380Y70533333D02*
X268842380Y69914285D01*
X269223333Y70247619D01*
X269223333Y70104761D01*
X269270952Y70009523D01*
X269318571Y69961904D01*
X269413809Y69914285D01*
X269651904Y69914285D01*
X269747142Y69961904D01*
X269794761Y70009523D01*
X269842380Y70104761D01*
X269842380Y70390476D01*
X269794761Y70485714D01*
X269747142Y70533333D01*
X269842380Y68961904D02*
X269842380Y69533333D01*
X269842380Y69247619D02*
X268842380Y69247619D01*
X268985238Y69342857D01*
X269080476Y69438095D01*
X269128095Y69533333D01*
X265842380Y71819047D02*
X265366190Y72152380D01*
X265842380Y72390476D02*
X264842380Y72390476D01*
X264842380Y72009523D01*
X264890000Y71914285D01*
X264937619Y71866666D01*
X265032857Y71819047D01*
X265175714Y71819047D01*
X265270952Y71866666D01*
X265318571Y71914285D01*
X265366190Y72009523D01*
X265366190Y72390476D01*
X265842380Y70866666D02*
X265842380Y71438095D01*
X265842380Y71152380D02*
X264842380Y71152380D01*
X264985238Y71247619D01*
X265080476Y71342857D01*
X265128095Y71438095D01*
X264842380Y70533333D02*
X264842380Y69914285D01*
X265223333Y70247619D01*
X265223333Y70104761D01*
X265270952Y70009523D01*
X265318571Y69961904D01*
X265413809Y69914285D01*
X265651904Y69914285D01*
X265747142Y69961904D01*
X265794761Y70009523D01*
X265842380Y70104761D01*
X265842380Y70390476D01*
X265794761Y70485714D01*
X265747142Y70533333D01*
X264937619Y69533333D02*
X264890000Y69485714D01*
X264842380Y69390476D01*
X264842380Y69152380D01*
X264890000Y69057142D01*
X264937619Y69009523D01*
X265032857Y68961904D01*
X265128095Y68961904D01*
X265270952Y69009523D01*
X265842380Y69580952D01*
X265842380Y68961904D01*
X331452380Y75728571D02*
X330452380Y75728571D01*
X331357142Y74680952D02*
X331404761Y74728571D01*
X331452380Y74871428D01*
X331452380Y74966666D01*
X331404761Y75109523D01*
X331309523Y75204761D01*
X331214285Y75252380D01*
X331023809Y75300000D01*
X330880952Y75300000D01*
X330690476Y75252380D01*
X330595238Y75204761D01*
X330500000Y75109523D01*
X330452380Y74966666D01*
X330452380Y74871428D01*
X330500000Y74728571D01*
X330547619Y74680952D01*
X331452380Y73728571D02*
X331452380Y74300000D01*
X331452380Y74014285D02*
X330452380Y74014285D01*
X330595238Y74109523D01*
X330690476Y74204761D01*
X330738095Y74300000D01*
X330452380Y73109523D02*
X330452380Y73014285D01*
X330500000Y72919047D01*
X330547619Y72871428D01*
X330642857Y72823809D01*
X330833333Y72776190D01*
X331071428Y72776190D01*
X331261904Y72823809D01*
X331357142Y72871428D01*
X331404761Y72919047D01*
X331452380Y73014285D01*
X331452380Y73109523D01*
X331404761Y73204761D01*
X331357142Y73252380D01*
X331261904Y73300000D01*
X331071428Y73347619D01*
X330833333Y73347619D01*
X330642857Y73300000D01*
X330547619Y73252380D01*
X330500000Y73204761D01*
X330452380Y73109523D01*
X331452380Y71823809D02*
X331452380Y72395238D01*
X331452380Y72109523D02*
X330452380Y72109523D01*
X330595238Y72204761D01*
X330690476Y72300000D01*
X330738095Y72395238D01*
X277057142Y80042857D02*
X277104761Y80090476D01*
X277152380Y80233333D01*
X277152380Y80328571D01*
X277104761Y80471428D01*
X277009523Y80566666D01*
X276914285Y80614285D01*
X276723809Y80661904D01*
X276580952Y80661904D01*
X276390476Y80614285D01*
X276295238Y80566666D01*
X276200000Y80471428D01*
X276152380Y80328571D01*
X276152380Y80233333D01*
X276200000Y80090476D01*
X276247619Y80042857D01*
X277152380Y79090476D02*
X277152380Y79661904D01*
X277152380Y79376190D02*
X276152380Y79376190D01*
X276295238Y79471428D01*
X276390476Y79566666D01*
X276438095Y79661904D01*
X276152380Y78757142D02*
X276152380Y78090476D01*
X277152380Y78519047D01*
X291057142Y80042857D02*
X291104761Y80090476D01*
X291152380Y80233333D01*
X291152380Y80328571D01*
X291104761Y80471428D01*
X291009523Y80566666D01*
X290914285Y80614285D01*
X290723809Y80661904D01*
X290580952Y80661904D01*
X290390476Y80614285D01*
X290295238Y80566666D01*
X290200000Y80471428D01*
X290152380Y80328571D01*
X290152380Y80233333D01*
X290200000Y80090476D01*
X290247619Y80042857D01*
X291152380Y79090476D02*
X291152380Y79661904D01*
X291152380Y79376190D02*
X290152380Y79376190D01*
X290295238Y79471428D01*
X290390476Y79566666D01*
X290438095Y79661904D01*
X290580952Y78519047D02*
X290533333Y78614285D01*
X290485714Y78661904D01*
X290390476Y78709523D01*
X290342857Y78709523D01*
X290247619Y78661904D01*
X290200000Y78614285D01*
X290152380Y78519047D01*
X290152380Y78328571D01*
X290200000Y78233333D01*
X290247619Y78185714D01*
X290342857Y78138095D01*
X290390476Y78138095D01*
X290485714Y78185714D01*
X290533333Y78233333D01*
X290580952Y78328571D01*
X290580952Y78519047D01*
X290628571Y78614285D01*
X290676190Y78661904D01*
X290771428Y78709523D01*
X290961904Y78709523D01*
X291057142Y78661904D01*
X291104761Y78614285D01*
X291152380Y78519047D01*
X291152380Y78328571D01*
X291104761Y78233333D01*
X291057142Y78185714D01*
X290961904Y78138095D01*
X290771428Y78138095D01*
X290676190Y78185714D01*
X290628571Y78233333D01*
X290580952Y78328571D01*
X305057142Y80042857D02*
X305104761Y80090476D01*
X305152380Y80233333D01*
X305152380Y80328571D01*
X305104761Y80471428D01*
X305009523Y80566666D01*
X304914285Y80614285D01*
X304723809Y80661904D01*
X304580952Y80661904D01*
X304390476Y80614285D01*
X304295238Y80566666D01*
X304200000Y80471428D01*
X304152380Y80328571D01*
X304152380Y80233333D01*
X304200000Y80090476D01*
X304247619Y80042857D01*
X305152380Y79090476D02*
X305152380Y79661904D01*
X305152380Y79376190D02*
X304152380Y79376190D01*
X304295238Y79471428D01*
X304390476Y79566666D01*
X304438095Y79661904D01*
X305152380Y78614285D02*
X305152380Y78423809D01*
X305104761Y78328571D01*
X305057142Y78280952D01*
X304914285Y78185714D01*
X304723809Y78138095D01*
X304342857Y78138095D01*
X304247619Y78185714D01*
X304200000Y78233333D01*
X304152380Y78328571D01*
X304152380Y78519047D01*
X304200000Y78614285D01*
X304247619Y78661904D01*
X304342857Y78709523D01*
X304580952Y78709523D01*
X304676190Y78661904D01*
X304723809Y78614285D01*
X304771428Y78519047D01*
X304771428Y78328571D01*
X304723809Y78233333D01*
X304676190Y78185714D01*
X304580952Y78138095D01*
X319257142Y80042857D02*
X319304761Y80090476D01*
X319352380Y80233333D01*
X319352380Y80328571D01*
X319304761Y80471428D01*
X319209523Y80566666D01*
X319114285Y80614285D01*
X318923809Y80661904D01*
X318780952Y80661904D01*
X318590476Y80614285D01*
X318495238Y80566666D01*
X318400000Y80471428D01*
X318352380Y80328571D01*
X318352380Y80233333D01*
X318400000Y80090476D01*
X318447619Y80042857D01*
X318447619Y79661904D02*
X318400000Y79614285D01*
X318352380Y79519047D01*
X318352380Y79280952D01*
X318400000Y79185714D01*
X318447619Y79138095D01*
X318542857Y79090476D01*
X318638095Y79090476D01*
X318780952Y79138095D01*
X319352380Y79709523D01*
X319352380Y79090476D01*
X318352380Y78471428D02*
X318352380Y78376190D01*
X318400000Y78280952D01*
X318447619Y78233333D01*
X318542857Y78185714D01*
X318733333Y78138095D01*
X318971428Y78138095D01*
X319161904Y78185714D01*
X319257142Y78233333D01*
X319304761Y78280952D01*
X319352380Y78376190D01*
X319352380Y78471428D01*
X319304761Y78566666D01*
X319257142Y78614285D01*
X319161904Y78661904D01*
X318971428Y78709523D01*
X318733333Y78709523D01*
X318542857Y78661904D01*
X318447619Y78614285D01*
X318400000Y78566666D01*
X318352380Y78471428D01*
X277152380Y83542857D02*
X276676190Y83876190D01*
X277152380Y84114285D02*
X276152380Y84114285D01*
X276152380Y83733333D01*
X276200000Y83638095D01*
X276247619Y83590476D01*
X276342857Y83542857D01*
X276485714Y83542857D01*
X276580952Y83590476D01*
X276628571Y83638095D01*
X276676190Y83733333D01*
X276676190Y84114285D01*
X276247619Y83161904D02*
X276200000Y83114285D01*
X276152380Y83019047D01*
X276152380Y82780952D01*
X276200000Y82685714D01*
X276247619Y82638095D01*
X276342857Y82590476D01*
X276438095Y82590476D01*
X276580952Y82638095D01*
X277152380Y83209523D01*
X277152380Y82590476D01*
X276152380Y81685714D02*
X276152380Y82161904D01*
X276628571Y82209523D01*
X276580952Y82161904D01*
X276533333Y82066666D01*
X276533333Y81828571D01*
X276580952Y81733333D01*
X276628571Y81685714D01*
X276723809Y81638095D01*
X276961904Y81638095D01*
X277057142Y81685714D01*
X277104761Y81733333D01*
X277152380Y81828571D01*
X277152380Y82066666D01*
X277104761Y82161904D01*
X277057142Y82209523D01*
X291152380Y83642857D02*
X290676190Y83976190D01*
X291152380Y84214285D02*
X290152380Y84214285D01*
X290152380Y83833333D01*
X290200000Y83738095D01*
X290247619Y83690476D01*
X290342857Y83642857D01*
X290485714Y83642857D01*
X290580952Y83690476D01*
X290628571Y83738095D01*
X290676190Y83833333D01*
X290676190Y84214285D01*
X290247619Y83261904D02*
X290200000Y83214285D01*
X290152380Y83119047D01*
X290152380Y82880952D01*
X290200000Y82785714D01*
X290247619Y82738095D01*
X290342857Y82690476D01*
X290438095Y82690476D01*
X290580952Y82738095D01*
X291152380Y83309523D01*
X291152380Y82690476D01*
X290152380Y81833333D02*
X290152380Y82023809D01*
X290200000Y82119047D01*
X290247619Y82166666D01*
X290390476Y82261904D01*
X290580952Y82309523D01*
X290961904Y82309523D01*
X291057142Y82261904D01*
X291104761Y82214285D01*
X291152380Y82119047D01*
X291152380Y81928571D01*
X291104761Y81833333D01*
X291057142Y81785714D01*
X290961904Y81738095D01*
X290723809Y81738095D01*
X290628571Y81785714D01*
X290580952Y81833333D01*
X290533333Y81928571D01*
X290533333Y82119047D01*
X290580952Y82214285D01*
X290628571Y82261904D01*
X290723809Y82309523D01*
X305152380Y83642857D02*
X304676190Y83976190D01*
X305152380Y84214285D02*
X304152380Y84214285D01*
X304152380Y83833333D01*
X304200000Y83738095D01*
X304247619Y83690476D01*
X304342857Y83642857D01*
X304485714Y83642857D01*
X304580952Y83690476D01*
X304628571Y83738095D01*
X304676190Y83833333D01*
X304676190Y84214285D01*
X304247619Y83261904D02*
X304200000Y83214285D01*
X304152380Y83119047D01*
X304152380Y82880952D01*
X304200000Y82785714D01*
X304247619Y82738095D01*
X304342857Y82690476D01*
X304438095Y82690476D01*
X304580952Y82738095D01*
X305152380Y83309523D01*
X305152380Y82690476D01*
X304152380Y82357142D02*
X304152380Y81690476D01*
X305152380Y82119047D01*
X319352380Y83542857D02*
X318876190Y83876190D01*
X319352380Y84114285D02*
X318352380Y84114285D01*
X318352380Y83733333D01*
X318400000Y83638095D01*
X318447619Y83590476D01*
X318542857Y83542857D01*
X318685714Y83542857D01*
X318780952Y83590476D01*
X318828571Y83638095D01*
X318876190Y83733333D01*
X318876190Y84114285D01*
X318447619Y83161904D02*
X318400000Y83114285D01*
X318352380Y83019047D01*
X318352380Y82780952D01*
X318400000Y82685714D01*
X318447619Y82638095D01*
X318542857Y82590476D01*
X318638095Y82590476D01*
X318780952Y82638095D01*
X319352380Y83209523D01*
X319352380Y82590476D01*
X318780952Y82019047D02*
X318733333Y82114285D01*
X318685714Y82161904D01*
X318590476Y82209523D01*
X318542857Y82209523D01*
X318447619Y82161904D01*
X318400000Y82114285D01*
X318352380Y82019047D01*
X318352380Y81828571D01*
X318400000Y81733333D01*
X318447619Y81685714D01*
X318542857Y81638095D01*
X318590476Y81638095D01*
X318685714Y81685714D01*
X318733333Y81733333D01*
X318780952Y81828571D01*
X318780952Y82019047D01*
X318828571Y82114285D01*
X318876190Y82161904D01*
X318971428Y82209523D01*
X319161904Y82209523D01*
X319257142Y82161904D01*
X319304761Y82114285D01*
X319352380Y82019047D01*
X319352380Y81828571D01*
X319304761Y81733333D01*
X319257142Y81685714D01*
X319161904Y81638095D01*
X318971428Y81638095D01*
X318876190Y81685714D01*
X318828571Y81733333D01*
X318780952Y81828571D01*
X293417142Y52007857D02*
X293464761Y52055476D01*
X293512380Y52198333D01*
X293512380Y52293571D01*
X293464761Y52436428D01*
X293369523Y52531666D01*
X293274285Y52579285D01*
X293083809Y52626904D01*
X292940952Y52626904D01*
X292750476Y52579285D01*
X292655238Y52531666D01*
X292560000Y52436428D01*
X292512380Y52293571D01*
X292512380Y52198333D01*
X292560000Y52055476D01*
X292607619Y52007857D01*
X292607619Y51626904D02*
X292560000Y51579285D01*
X292512380Y51484047D01*
X292512380Y51245952D01*
X292560000Y51150714D01*
X292607619Y51103095D01*
X292702857Y51055476D01*
X292798095Y51055476D01*
X292940952Y51103095D01*
X293512380Y51674523D01*
X293512380Y51055476D01*
X293512380Y50103095D02*
X293512380Y50674523D01*
X293512380Y50388809D02*
X292512380Y50388809D01*
X292655238Y50484047D01*
X292750476Y50579285D01*
X292798095Y50674523D01*
X279702857Y55007857D02*
X279750476Y54960238D01*
X279893333Y54912619D01*
X279988571Y54912619D01*
X280131428Y54960238D01*
X280226666Y55055476D01*
X280274285Y55150714D01*
X280321904Y55341190D01*
X280321904Y55484047D01*
X280274285Y55674523D01*
X280226666Y55769761D01*
X280131428Y55865000D01*
X279988571Y55912619D01*
X279893333Y55912619D01*
X279750476Y55865000D01*
X279702857Y55817380D01*
X279321904Y55817380D02*
X279274285Y55865000D01*
X279179047Y55912619D01*
X278940952Y55912619D01*
X278845714Y55865000D01*
X278798095Y55817380D01*
X278750476Y55722142D01*
X278750476Y55626904D01*
X278798095Y55484047D01*
X279369523Y54912619D01*
X278750476Y54912619D01*
X278369523Y55817380D02*
X278321904Y55865000D01*
X278226666Y55912619D01*
X277988571Y55912619D01*
X277893333Y55865000D01*
X277845714Y55817380D01*
X277798095Y55722142D01*
X277798095Y55626904D01*
X277845714Y55484047D01*
X278417142Y54912619D01*
X277798095Y54912619D01*
X279902857Y49807857D02*
X279950476Y49760238D01*
X280093333Y49712619D01*
X280188571Y49712619D01*
X280331428Y49760238D01*
X280426666Y49855476D01*
X280474285Y49950714D01*
X280521904Y50141190D01*
X280521904Y50284047D01*
X280474285Y50474523D01*
X280426666Y50569761D01*
X280331428Y50665000D01*
X280188571Y50712619D01*
X280093333Y50712619D01*
X279950476Y50665000D01*
X279902857Y50617380D01*
X279521904Y50617380D02*
X279474285Y50665000D01*
X279379047Y50712619D01*
X279140952Y50712619D01*
X279045714Y50665000D01*
X278998095Y50617380D01*
X278950476Y50522142D01*
X278950476Y50426904D01*
X278998095Y50284047D01*
X279569523Y49712619D01*
X278950476Y49712619D01*
X278617142Y50712619D02*
X277998095Y50712619D01*
X278331428Y50331666D01*
X278188571Y50331666D01*
X278093333Y50284047D01*
X278045714Y50236428D01*
X277998095Y50141190D01*
X277998095Y49903095D01*
X278045714Y49807857D01*
X278093333Y49760238D01*
X278188571Y49712619D01*
X278474285Y49712619D01*
X278569523Y49760238D01*
X278617142Y49807857D01*
X312842857Y69142857D02*
X312890476Y69095238D01*
X313033333Y69047619D01*
X313128571Y69047619D01*
X313271428Y69095238D01*
X313366666Y69190476D01*
X313414285Y69285714D01*
X313461904Y69476190D01*
X313461904Y69619047D01*
X313414285Y69809523D01*
X313366666Y69904761D01*
X313271428Y70000000D01*
X313128571Y70047619D01*
X313033333Y70047619D01*
X312890476Y70000000D01*
X312842857Y69952380D01*
X312461904Y69952380D02*
X312414285Y70000000D01*
X312319047Y70047619D01*
X312080952Y70047619D01*
X311985714Y70000000D01*
X311938095Y69952380D01*
X311890476Y69857142D01*
X311890476Y69761904D01*
X311938095Y69619047D01*
X312509523Y69047619D01*
X311890476Y69047619D01*
X311033333Y69714285D02*
X311033333Y69047619D01*
X311271428Y70095238D02*
X311509523Y69380952D01*
X310890476Y69380952D01*
X289936190Y56512619D02*
X289936190Y57512619D01*
X288888571Y56607857D02*
X288936190Y56560238D01*
X289079047Y56512619D01*
X289174285Y56512619D01*
X289317142Y56560238D01*
X289412380Y56655476D01*
X289460000Y56750714D01*
X289507619Y56941190D01*
X289507619Y57084047D01*
X289460000Y57274523D01*
X289412380Y57369761D01*
X289317142Y57465000D01*
X289174285Y57512619D01*
X289079047Y57512619D01*
X288936190Y57465000D01*
X288888571Y57417380D01*
X287983809Y57512619D02*
X288460000Y57512619D01*
X288507619Y57036428D01*
X288460000Y57084047D01*
X288364761Y57131666D01*
X288126666Y57131666D01*
X288031428Y57084047D01*
X287983809Y57036428D01*
X287936190Y56941190D01*
X287936190Y56703095D01*
X287983809Y56607857D01*
X288031428Y56560238D01*
X288126666Y56512619D01*
X288364761Y56512619D01*
X288460000Y56560238D01*
X288507619Y56607857D01*
X313652380Y74776190D02*
X312652380Y74776190D01*
X313557142Y73728571D02*
X313604761Y73776190D01*
X313652380Y73919047D01*
X313652380Y74014285D01*
X313604761Y74157142D01*
X313509523Y74252380D01*
X313414285Y74300000D01*
X313223809Y74347619D01*
X313080952Y74347619D01*
X312890476Y74300000D01*
X312795238Y74252380D01*
X312700000Y74157142D01*
X312652380Y74014285D01*
X312652380Y73919047D01*
X312700000Y73776190D01*
X312747619Y73728571D01*
X312652380Y72871428D02*
X312652380Y73061904D01*
X312700000Y73157142D01*
X312747619Y73204761D01*
X312890476Y73300000D01*
X313080952Y73347619D01*
X313461904Y73347619D01*
X313557142Y73300000D01*
X313604761Y73252380D01*
X313652380Y73157142D01*
X313652380Y72966666D01*
X313604761Y72871428D01*
X313557142Y72823809D01*
X313461904Y72776190D01*
X313223809Y72776190D01*
X313128571Y72823809D01*
X313080952Y72871428D01*
X313033333Y72966666D01*
X313033333Y73157142D01*
X313080952Y73252380D01*
X313128571Y73300000D01*
X313223809Y73347619D01*
X323252380Y68942857D02*
X322776190Y69276190D01*
X323252380Y69514285D02*
X322252380Y69514285D01*
X322252380Y69133333D01*
X322300000Y69038095D01*
X322347619Y68990476D01*
X322442857Y68942857D01*
X322585714Y68942857D01*
X322680952Y68990476D01*
X322728571Y69038095D01*
X322776190Y69133333D01*
X322776190Y69514285D01*
X322347619Y68561904D02*
X322300000Y68514285D01*
X322252380Y68419047D01*
X322252380Y68180952D01*
X322300000Y68085714D01*
X322347619Y68038095D01*
X322442857Y67990476D01*
X322538095Y67990476D01*
X322680952Y68038095D01*
X323252380Y68609523D01*
X323252380Y67990476D01*
X323252380Y67514285D02*
X323252380Y67323809D01*
X323204761Y67228571D01*
X323157142Y67180952D01*
X323014285Y67085714D01*
X322823809Y67038095D01*
X322442857Y67038095D01*
X322347619Y67085714D01*
X322300000Y67133333D01*
X322252380Y67228571D01*
X322252380Y67419047D01*
X322300000Y67514285D01*
X322347619Y67561904D01*
X322442857Y67609523D01*
X322680952Y67609523D01*
X322776190Y67561904D01*
X322823809Y67514285D01*
X322871428Y67419047D01*
X322871428Y67228571D01*
X322823809Y67133333D01*
X322776190Y67085714D01*
X322680952Y67038095D01*
M02*
