G04 #@! TF.GenerationSoftware,KiCad,Pcbnew,(5.1.2-1)-1*
G04 #@! TF.CreationDate,2019-07-24T21:32:52+02:00*
G04 #@! TF.ProjectId,AddOnB,4164644f-6e42-42e6-9b69-6361645f7063,rev?*
G04 #@! TF.SameCoordinates,Original*
G04 #@! TF.FileFunction,Copper,L2,Bot*
G04 #@! TF.FilePolarity,Positive*
%FSLAX46Y46*%
G04 Gerber Fmt 4.6, Leading zero omitted, Abs format (unit mm)*
G04 Created by KiCad (PCBNEW (5.1.2-1)-1) date 2019-07-24 21:32:52*
%MOMM*%
%LPD*%
G04 APERTURE LIST*
%ADD10C,6.000000*%
%ADD11C,1.727200*%
%ADD12R,1.727200X1.727200*%
%ADD13O,4.000000X5.200000*%
%ADD14O,2.200000X5.200000*%
%ADD15C,2.600000*%
%ADD16R,1.300000X1.000000*%
%ADD17R,1.000000X1.300000*%
%ADD18C,1.600000*%
%ADD19C,1.400000*%
%ADD20O,1.727200X1.727200*%
%ADD21R,0.600000X1.500000*%
%ADD22R,2.032000X3.657600*%
%ADD23R,2.032000X1.016000*%
%ADD24R,0.600000X1.550000*%
%ADD25C,1.500000*%
%ADD26C,0.600000*%
%ADD27C,0.200000*%
%ADD28C,0.500000*%
%ADD29C,0.600000*%
%ADD30C,0.180000*%
G04 APERTURE END LIST*
D10*
X208280000Y83820000D03*
X208280000Y50800000D03*
X337820000Y58420000D03*
D11*
X312540000Y53065000D03*
X312540000Y50525000D03*
X310000000Y53065000D03*
X310000000Y50525000D03*
X307460000Y53065000D03*
X307460000Y50525000D03*
X304920000Y53065000D03*
X304920000Y50525000D03*
X302380000Y53065000D03*
X302380000Y50525000D03*
X299840000Y53065000D03*
X299840000Y50525000D03*
X297300000Y53065000D03*
X297300000Y50525000D03*
X294760000Y53065000D03*
D12*
X294760000Y50525000D03*
D13*
X244590000Y81250000D03*
D14*
X217440000Y81250000D03*
X271740000Y81250000D03*
D15*
X227340000Y77500000D03*
X219840000Y77500000D03*
X219840000Y84750000D03*
X233840000Y77500000D03*
X233840000Y84750000D03*
X241340000Y77500000D03*
X247840000Y84750000D03*
X247840000Y77500000D03*
X255340000Y77500000D03*
X261840000Y84750000D03*
X261840000Y77500000D03*
X269340000Y77500000D03*
D16*
X217790000Y75100000D03*
X217790000Y73300000D03*
X225290000Y75100000D03*
X225290000Y73300000D03*
X231790000Y73300000D03*
X231790000Y75100000D03*
X239290000Y73300000D03*
X239290000Y75100000D03*
X245790000Y75100000D03*
X245790000Y73300000D03*
X253290000Y73300000D03*
X253290000Y75100000D03*
X259790000Y75100000D03*
X259790000Y73300000D03*
X267290000Y73300000D03*
X267290000Y75100000D03*
D17*
X287500000Y82000000D03*
X289300000Y82000000D03*
X301500000Y82000000D03*
X303300000Y82000000D03*
X315500000Y82000000D03*
X317300000Y82000000D03*
X329500000Y82000000D03*
X331300000Y82000000D03*
X327500000Y78600000D03*
X329300000Y78600000D03*
X287500000Y84000000D03*
X289300000Y84000000D03*
X301500000Y84000000D03*
X303300000Y84000000D03*
X315500000Y84000000D03*
X317300000Y84000000D03*
X329500000Y83900000D03*
X331300000Y83900000D03*
D16*
X219790000Y75100000D03*
X219790000Y73300000D03*
X215790000Y73300000D03*
X215790000Y75100000D03*
X227290000Y73300000D03*
X227290000Y75100000D03*
X223290000Y75100000D03*
X223290000Y73300000D03*
X233790000Y73300000D03*
X233790000Y75100000D03*
X229790000Y75100000D03*
X229790000Y73300000D03*
X241290000Y75100000D03*
X241290000Y73300000D03*
X237290000Y73300000D03*
X237290000Y75100000D03*
X247790000Y75100000D03*
X247790000Y73300000D03*
X243790000Y73300000D03*
X243790000Y75100000D03*
X255290000Y73300000D03*
X255290000Y75100000D03*
X251290000Y75100000D03*
X251290000Y73300000D03*
X261790000Y73300000D03*
X261790000Y75100000D03*
X257790000Y73300000D03*
X257790000Y75100000D03*
X269290000Y75100000D03*
X269290000Y73300000D03*
X265290000Y75100000D03*
X265290000Y73300000D03*
D18*
X280460000Y84630000D03*
X285540000Y84630000D03*
D19*
X280460000Y82000000D03*
X283000000Y82000000D03*
X285540000Y82000000D03*
X299540000Y82000000D03*
X297000000Y82000000D03*
X294460000Y82000000D03*
D18*
X299540000Y84630000D03*
X294460000Y84630000D03*
X308460000Y84630000D03*
X313540000Y84630000D03*
D19*
X308460000Y82000000D03*
X311000000Y82000000D03*
X313540000Y82000000D03*
X327540000Y82000000D03*
X325000000Y82000000D03*
X322460000Y82000000D03*
D18*
X327540000Y84630000D03*
X322460000Y84630000D03*
D20*
X227710000Y54710000D03*
X227710000Y57250000D03*
X230250000Y54710000D03*
X230250000Y57250000D03*
X232790000Y54710000D03*
X232790000Y57250000D03*
X235330000Y54710000D03*
X235330000Y57250000D03*
X237870000Y54710000D03*
X237870000Y57250000D03*
X240410000Y54710000D03*
X240410000Y57250000D03*
X242950000Y54710000D03*
X242950000Y57250000D03*
X245490000Y54710000D03*
X245490000Y57250000D03*
X248030000Y54710000D03*
X248030000Y57250000D03*
X250570000Y54710000D03*
X250570000Y57250000D03*
X253110000Y54710000D03*
X253110000Y57250000D03*
X255650000Y54710000D03*
X255650000Y57250000D03*
X258190000Y54710000D03*
D12*
X258190000Y57250000D03*
D21*
X329445000Y71100000D03*
X328175000Y71100000D03*
X326905000Y71100000D03*
X325635000Y71100000D03*
X324365000Y71100000D03*
X323095000Y71100000D03*
X321825000Y71100000D03*
X320555000Y71100000D03*
X320555000Y76500000D03*
X321825000Y76500000D03*
X323095000Y76500000D03*
X324365000Y76500000D03*
X325635000Y76500000D03*
X326905000Y76500000D03*
X328175000Y76500000D03*
X329445000Y76500000D03*
D16*
X278300000Y78500000D03*
X278300000Y80300000D03*
X292300000Y80300000D03*
X292300000Y78500000D03*
X306300000Y78500000D03*
X306300000Y80300000D03*
X320400000Y80300000D03*
X320400000Y78500000D03*
X278300000Y83800000D03*
X278300000Y82000000D03*
X292300000Y82000000D03*
X292300000Y83800000D03*
X306300000Y83800000D03*
X306300000Y82000000D03*
X320400000Y82000000D03*
X320400000Y83800000D03*
X291360000Y50465000D03*
X291360000Y52265000D03*
D17*
X278260000Y53765000D03*
X280060000Y53765000D03*
X278260000Y51765000D03*
X280060000Y51765000D03*
X311300000Y71100000D03*
X313100000Y71100000D03*
D22*
X282358000Y52765000D03*
D23*
X288962000Y52765000D03*
X288962000Y50479000D03*
X288962000Y55051000D03*
D24*
X314795000Y76500000D03*
X316065000Y76500000D03*
X317335000Y76500000D03*
X318605000Y76500000D03*
X318605000Y71100000D03*
X317335000Y71100000D03*
X316065000Y71100000D03*
X314795000Y71100000D03*
D16*
X324400000Y69200000D03*
X324400000Y67400000D03*
D18*
X336715000Y50835000D03*
X335445000Y48295000D03*
X334175000Y50835000D03*
X332905000Y48295000D03*
X331635000Y50835000D03*
X330365000Y48295000D03*
X329095000Y50835000D03*
X327825000Y48295000D03*
X326555000Y50835000D03*
X325285000Y48295000D03*
X324015000Y50835000D03*
X322745000Y48295000D03*
X321475000Y50835000D03*
X320205000Y48295000D03*
D25*
X338115000Y49035000D03*
D10*
X337820000Y83820000D03*
D26*
X318200000Y82000000D03*
X332200000Y82000000D03*
X304200000Y82000000D03*
X290200000Y82000000D03*
X320555000Y69900000D03*
X321825000Y69900000D03*
X326600000Y78600000D03*
X318600000Y77700000D03*
X310400000Y71100000D03*
X277360000Y53765000D03*
X277360000Y51765000D03*
X291360000Y53165000D03*
X290360000Y55065000D03*
X215790000Y76000000D03*
X217790000Y76000000D03*
X223290000Y76000000D03*
X225290000Y76000000D03*
X229790000Y76000000D03*
X231790000Y76000000D03*
X239290000Y76000000D03*
X237290000Y76000000D03*
X245790000Y76000000D03*
X243790000Y76000000D03*
X251290000Y76000000D03*
X253290000Y76000000D03*
X257790000Y76000000D03*
X259790000Y76000000D03*
X265290000Y76000000D03*
X267290000Y76000000D03*
X319600000Y73800008D03*
X319600000Y76000000D03*
D27*
X324365000Y76500000D02*
X324365000Y76050000D01*
X325635000Y76050000D02*
X325635000Y76500000D01*
X326905000Y76050000D02*
X326905000Y76500000D01*
X328175000Y76500000D02*
X328175000Y76050000D01*
X223290000Y75100000D02*
X223140000Y75100000D01*
X229790000Y75100000D02*
X229640000Y75100000D01*
X237290000Y75100000D02*
X237280002Y75100000D01*
X243790000Y75100000D02*
X243640000Y75100000D01*
X251290000Y75100000D02*
X251280002Y75100000D01*
X257790000Y75100000D02*
X257640000Y75100000D01*
X265290000Y75100000D02*
X265280002Y75100000D01*
D28*
X317300000Y82000000D02*
X318200000Y82000000D01*
X331300000Y82000000D02*
X332200000Y82000000D01*
X303300000Y82000000D02*
X304200000Y82000000D01*
X289300000Y82000000D02*
X290200000Y82000000D01*
D27*
X320555000Y71100000D02*
X320555000Y69900000D01*
X321825000Y69800000D02*
X321825000Y69900000D01*
X321825000Y71100000D02*
X321825000Y69800000D01*
D28*
X327500000Y78600000D02*
X326600000Y78600000D01*
X318605000Y77595000D02*
X318600000Y77600000D01*
X318605000Y76500000D02*
X318605000Y77595000D01*
X318605000Y77695000D02*
X318600000Y77700000D01*
X318605000Y76500000D02*
X318605000Y77695000D01*
X311300000Y71100000D02*
X310400000Y71100000D01*
X278260000Y53765000D02*
X277360000Y53765000D01*
X278260000Y51765000D02*
X277360000Y51765000D01*
X291360000Y52265000D02*
X291360000Y53165000D01*
X290346000Y55051000D02*
X290360000Y55065000D01*
X288962000Y55051000D02*
X290346000Y55051000D01*
D29*
X215790000Y75100000D02*
X215790000Y76000000D01*
X217790000Y75100000D02*
X217790000Y76000000D01*
X223290000Y75100000D02*
X223290000Y76000000D01*
X225290000Y75100000D02*
X225290000Y76000000D01*
X229790000Y75100000D02*
X229790000Y76000000D01*
X231790000Y75100000D02*
X231790000Y76000000D01*
X239290000Y75100000D02*
X239290000Y76000000D01*
X237290000Y75100000D02*
X237290000Y76000000D01*
X245790000Y75100000D02*
X245790000Y76000000D01*
X243790000Y75100000D02*
X243790000Y76000000D01*
X251290000Y75100000D02*
X251290000Y76000000D01*
X253290000Y75100000D02*
X253290000Y76000000D01*
X257790000Y75100000D02*
X257790000Y76000000D01*
X259790000Y75100000D02*
X259790000Y76000000D01*
X265290000Y75100000D02*
X265290000Y76000000D01*
X267290000Y75100000D02*
X267290000Y76000000D01*
D27*
X215790000Y73300000D02*
X217790000Y73300000D01*
X217790000Y73300000D02*
X219790000Y73300000D01*
X215790000Y73300000D02*
X215640000Y73300000D01*
X223290000Y73300000D02*
X225290000Y73300000D01*
X226140000Y73300000D02*
X227290000Y73300000D01*
X225290000Y73300000D02*
X226140000Y73300000D01*
X223290000Y73300000D02*
X223290000Y72600000D01*
X230640000Y73300000D02*
X231790000Y73300000D01*
X229790000Y73300000D02*
X230640000Y73300000D01*
X231790000Y73300000D02*
X233790000Y73300000D01*
X229790000Y73300000D02*
X229545700Y73300000D01*
X241290000Y73300000D02*
X239290000Y73300000D01*
X239290000Y73300000D02*
X237290000Y73300000D01*
X237290000Y73300000D02*
X237140000Y73300000D01*
X243790000Y73300000D02*
X245790000Y73300000D01*
X245790000Y73300000D02*
X247790000Y73300000D01*
X243790000Y73300000D02*
X243640000Y73300000D01*
X255290000Y73300000D02*
X253290000Y73300000D01*
X253290000Y73300000D02*
X251290000Y73300000D01*
X251290000Y73300000D02*
X251140000Y73300000D01*
X250570000Y57250000D02*
X250570000Y58409720D01*
X257790000Y73300000D02*
X259790000Y73300000D01*
X259790000Y73300000D02*
X261790000Y73300000D01*
X257790000Y73300000D02*
X257545700Y73300000D01*
X266140000Y73300000D02*
X267290000Y73300000D01*
X265290000Y73300000D02*
X266140000Y73300000D01*
X268140000Y73300000D02*
X269290000Y73300000D01*
X267290000Y73300000D02*
X268140000Y73300000D01*
X265290000Y73300000D02*
X265140000Y73300000D01*
D28*
X287500000Y84000000D02*
X287500000Y82000000D01*
X287500000Y82000000D02*
X285540000Y82000000D01*
X299540000Y82000000D02*
X301500000Y82000000D01*
X301500000Y82000000D02*
X301500000Y84000000D01*
X315500000Y82000000D02*
X315500000Y84000000D01*
X315500000Y82000000D02*
X313540000Y82000000D01*
X327540000Y82000000D02*
X329500000Y82000000D01*
X329500000Y82000000D02*
X329500000Y83900000D01*
X333000000Y83900000D02*
X331300000Y83900000D01*
X333000000Y83900000D02*
X333000000Y89300000D01*
X333000000Y89300000D02*
X317300000Y89300000D01*
X317300000Y89300000D02*
X317300000Y84000000D01*
X317300000Y89300000D02*
X303300000Y89300000D01*
X303300000Y89300000D02*
X303300000Y84000000D01*
X303300000Y89300000D02*
X289300000Y89300000D01*
X289300000Y89300000D02*
X289300000Y84000000D01*
X278300000Y89300000D02*
X278300000Y83800000D01*
X289300000Y89300000D02*
X278300000Y89300000D01*
X292100000Y84000000D02*
X292300000Y83800000D01*
X289300000Y84000000D02*
X292100000Y84000000D01*
X320200000Y84000000D02*
X320400000Y83800000D01*
X317300000Y84000000D02*
X320200000Y84000000D01*
X306100000Y84000000D02*
X306300000Y83800000D01*
X303300000Y84000000D02*
X306100000Y84000000D01*
X333000000Y78600000D02*
X329300000Y78600000D01*
X333000000Y78600000D02*
X333000000Y83900000D01*
X313100000Y71100000D02*
X314795000Y71100000D01*
X278150000Y83800000D02*
X278300000Y83800000D01*
X280060000Y51765000D02*
X281358000Y51765000D01*
X288962000Y52765000D02*
X282358000Y52765000D01*
D29*
X329445000Y78455000D02*
X329300000Y78600000D01*
D28*
X329445000Y76500000D02*
X329445000Y78455000D01*
D27*
X219790000Y77450000D02*
X219840000Y77500000D01*
X219790000Y75100000D02*
X219790000Y77450000D01*
X227340000Y75150000D02*
X227290000Y75100000D01*
X227340000Y77500000D02*
X227340000Y75150000D01*
X233840000Y75150000D02*
X233790000Y75100000D01*
X233840000Y77500000D02*
X233840000Y75150000D01*
X241340000Y75150000D02*
X241290000Y75100000D01*
X241340000Y77500000D02*
X241340000Y75150000D01*
X247840000Y75150000D02*
X247790000Y75100000D01*
X247840000Y77500000D02*
X247840000Y75150000D01*
X255340000Y75150000D02*
X255290000Y75100000D01*
X255340000Y77500000D02*
X255340000Y75150000D01*
X261840000Y75150000D02*
X261790000Y75100000D01*
X261840000Y77500000D02*
X261840000Y75150000D01*
X269340000Y75150000D02*
X269290000Y75100000D01*
X269340000Y77500000D02*
X269340000Y75150000D01*
X324365000Y69235000D02*
X324400000Y69200000D01*
X324365000Y71100000D02*
X324365000Y69235000D01*
X317335000Y76025000D02*
X317960000Y75400000D01*
X317335000Y76500000D02*
X317335000Y76025000D01*
X320555000Y76050000D02*
X320555000Y76500000D01*
X319905000Y75400000D02*
X320555000Y76050000D01*
X317960000Y75400000D02*
X319905000Y75400000D01*
X320774990Y74999990D02*
X321825000Y76050000D01*
X317090010Y74999990D02*
X320774990Y74999990D01*
X316065000Y76025000D02*
X317090010Y74999990D01*
X321825000Y76050000D02*
X321825000Y76500000D01*
X316065000Y76500000D02*
X316065000Y76025000D01*
X316220020Y74599980D02*
X321644980Y74599980D01*
X314795000Y76025000D02*
X316220020Y74599980D01*
X323095000Y76050000D02*
X323095000Y76500000D01*
X321644980Y74599980D02*
X323095000Y76050000D01*
X314795000Y76500000D02*
X314795000Y76025000D01*
X325635000Y71550000D02*
X325635000Y71100000D01*
X324785000Y72400000D02*
X325635000Y71550000D01*
X278450000Y78500000D02*
X284550000Y72400000D01*
X284550000Y72400000D02*
X324785000Y72400000D01*
X278300000Y78500000D02*
X278450000Y78500000D01*
X278300000Y80300000D02*
X278300000Y82000000D01*
X278300000Y82000000D02*
X280460000Y82000000D01*
X294460000Y82000000D02*
X292300000Y82000000D01*
X292300000Y80300000D02*
X292300000Y82000000D01*
X326905000Y71550000D02*
X326905000Y71100000D01*
X325655000Y72800000D02*
X326905000Y71550000D01*
X292450000Y78500000D02*
X298150000Y72800000D01*
X298150000Y72800000D02*
X325655000Y72800000D01*
X292300000Y78500000D02*
X292450000Y78500000D01*
X328175000Y71550000D02*
X328175000Y71100000D01*
X326524992Y73200008D02*
X328175000Y71550000D01*
X311749992Y73200008D02*
X326524992Y73200008D01*
X306450000Y78500000D02*
X311749992Y73200008D01*
X306300000Y78500000D02*
X306450000Y78500000D01*
X307470051Y82000000D02*
X306300000Y82000000D01*
X308460000Y82000000D02*
X307470051Y82000000D01*
X306300000Y82000000D02*
X306300000Y80300000D01*
X322460000Y82000000D02*
X320400000Y82000000D01*
X320400000Y82000000D02*
X320400000Y80300000D01*
X329445000Y71550000D02*
X328600000Y72395000D01*
X328600000Y72395000D02*
X327905000Y72395000D01*
X329445000Y71100000D02*
X329445000Y71550000D01*
X326490691Y73800008D02*
X327290699Y73000000D01*
X319600000Y73800008D02*
X326490691Y73800008D01*
X327290699Y73000000D02*
X327300000Y73000000D01*
X327905000Y72395000D02*
X327300000Y73000000D01*
X320250000Y78500000D02*
X320400000Y78500000D01*
X319600000Y77850000D02*
X320250000Y78500000D01*
X319600000Y76000000D02*
X319600000Y77850000D01*
D28*
X291346000Y50479000D02*
X291360000Y50465000D01*
X288962000Y50479000D02*
X291346000Y50479000D01*
X294700000Y50465000D02*
X294760000Y50525000D01*
X291360000Y50465000D02*
X294700000Y50465000D01*
D27*
X324550000Y67400000D02*
X324400000Y67400000D01*
X258190000Y54710000D02*
X259250000Y54710000D01*
X231413601Y61826399D02*
X231413601Y56086399D01*
X231413601Y56086399D02*
X231926401Y55573599D01*
X219940000Y73300000D02*
X231413601Y61826399D01*
X231926401Y55573599D02*
X232790000Y54710000D01*
X219790000Y73300000D02*
X219940000Y73300000D01*
X235330000Y58471314D02*
X235330000Y57250000D01*
X235330000Y64560000D02*
X235330000Y58471314D01*
X227290000Y72600000D02*
X235330000Y64560000D01*
X227290000Y73300000D02*
X227290000Y72600000D01*
X239546401Y55573599D02*
X240410000Y54710000D01*
X239033601Y68206399D02*
X239033601Y56086399D01*
X233940000Y73300000D02*
X239033601Y68206399D01*
X239033601Y56086399D02*
X239546401Y55573599D01*
X233790000Y73300000D02*
X233940000Y73300000D01*
X241290000Y58910000D02*
X242950000Y57250000D01*
X241290000Y73300000D02*
X241290000Y58910000D01*
X249193601Y55873601D02*
X248893599Y55573599D01*
X248893599Y55573599D02*
X248030000Y54710000D01*
X249193601Y72046399D02*
X249193601Y55873601D01*
X247940000Y73300000D02*
X249193601Y72046399D01*
X247790000Y73300000D02*
X247940000Y73300000D01*
X251290000Y57970000D02*
X250570000Y57250000D01*
X251290000Y73300000D02*
X251290000Y57970000D01*
X254486399Y69296399D02*
X254486399Y56663601D01*
X254486399Y56663601D02*
X255650000Y55500000D01*
X257790000Y72600000D02*
X254486399Y69296399D01*
X255650000Y55500000D02*
X255650000Y54710000D01*
X257790000Y73300000D02*
X257790000Y72600000D01*
X259253600Y57250000D02*
X258190000Y57250000D01*
X265290000Y63286400D02*
X259253600Y57250000D01*
X265290000Y73300000D02*
X265290000Y63286400D01*
X289470000Y52765000D02*
X288962000Y52765000D01*
X291169999Y54464999D02*
X289470000Y52765000D01*
X313100000Y70950000D02*
X296614999Y54464999D01*
X296614999Y54464999D02*
X291169999Y54464999D01*
X313100000Y71100000D02*
X313100000Y70950000D01*
X280060000Y53915000D02*
X280060000Y53765000D01*
X277349999Y83699999D02*
X277349999Y56625001D01*
X277349999Y56625001D02*
X280060000Y53915000D01*
X277450000Y83800000D02*
X277349999Y83699999D01*
X278300000Y83800000D02*
X277450000Y83800000D01*
X280060000Y52915000D02*
X280060000Y51765000D01*
X280060000Y53765000D02*
X280060000Y52915000D01*
X310863599Y51388599D02*
X310000000Y50525000D01*
X311163601Y51688601D02*
X310863599Y51388599D01*
X311163601Y53353601D02*
X311163601Y51688601D01*
X317335000Y59525000D02*
X311163601Y53353601D01*
X317335000Y71100000D02*
X317335000Y59525000D01*
X308323599Y51388599D02*
X307460000Y50525000D01*
X308623601Y51688601D02*
X308323599Y51388599D01*
X308623601Y53410731D02*
X308623601Y51688601D01*
X316065000Y60852130D02*
X308623601Y53410731D01*
X316065000Y71100000D02*
X316065000Y60852130D01*
X324400000Y53760000D02*
X321475000Y50835000D01*
X324400000Y67400000D02*
X324400000Y53760000D01*
D30*
G36*
X274910000Y45365000D02*
G01*
X201365000Y45365000D01*
X201365000Y51124037D01*
X204990000Y51124037D01*
X204990000Y50475963D01*
X205116433Y49840342D01*
X205364440Y49241601D01*
X205724490Y48702747D01*
X206182747Y48244490D01*
X206721601Y47884440D01*
X207320342Y47636433D01*
X207955963Y47510000D01*
X208604037Y47510000D01*
X209239658Y47636433D01*
X209838399Y47884440D01*
X210377253Y48244490D01*
X210835510Y48702747D01*
X211195560Y49241601D01*
X211443567Y49840342D01*
X211570000Y50475963D01*
X211570000Y51124037D01*
X211443567Y51759658D01*
X211195560Y52358399D01*
X210835510Y52897253D01*
X210377253Y53355510D01*
X209838399Y53715560D01*
X209239658Y53963567D01*
X208604037Y54090000D01*
X207955963Y54090000D01*
X207320342Y53963567D01*
X206721601Y53715560D01*
X206182747Y53355510D01*
X205724490Y52897253D01*
X205364440Y52358399D01*
X205116433Y51759658D01*
X204990000Y51124037D01*
X201365000Y51124037D01*
X201365000Y54710000D01*
X226550819Y54710000D01*
X226573092Y54483855D01*
X226639056Y54266401D01*
X226746176Y54065994D01*
X226890335Y53890335D01*
X227065994Y53746176D01*
X227266401Y53639056D01*
X227483855Y53573092D01*
X227653334Y53556400D01*
X227766666Y53556400D01*
X227936145Y53573092D01*
X228153599Y53639056D01*
X228354006Y53746176D01*
X228529665Y53890335D01*
X228673824Y54065994D01*
X228780944Y54266401D01*
X228812185Y54369389D01*
X229147831Y54369389D01*
X229229794Y54171492D01*
X229354455Y53982807D01*
X229513531Y53822068D01*
X229700909Y53695451D01*
X229909388Y53607823D01*
X230086000Y53640609D01*
X230086000Y54546000D01*
X230414000Y54546000D01*
X230414000Y53640609D01*
X230590612Y53607823D01*
X230799091Y53695451D01*
X230986469Y53822068D01*
X231145545Y53982807D01*
X231270206Y54171492D01*
X231352169Y54369389D01*
X231318588Y54546000D01*
X230414000Y54546000D01*
X230086000Y54546000D01*
X229181412Y54546000D01*
X229147831Y54369389D01*
X228812185Y54369389D01*
X228846908Y54483855D01*
X228869181Y54710000D01*
X228846908Y54936145D01*
X228812186Y55050611D01*
X229147831Y55050611D01*
X229181412Y54874000D01*
X230086000Y54874000D01*
X230086000Y55779391D01*
X230414000Y55779391D01*
X230414000Y54874000D01*
X231318588Y54874000D01*
X231352169Y55050611D01*
X231270206Y55248508D01*
X231145545Y55437193D01*
X230986469Y55597932D01*
X230799091Y55724549D01*
X230590612Y55812177D01*
X230414000Y55779391D01*
X230086000Y55779391D01*
X229909388Y55812177D01*
X229700909Y55724549D01*
X229513531Y55597932D01*
X229354455Y55437193D01*
X229229794Y55248508D01*
X229147831Y55050611D01*
X228812186Y55050611D01*
X228780944Y55153599D01*
X228673824Y55354006D01*
X228529665Y55529665D01*
X228354006Y55673824D01*
X228153599Y55780944D01*
X227936145Y55846908D01*
X227766666Y55863600D01*
X227653334Y55863600D01*
X227483855Y55846908D01*
X227266401Y55780944D01*
X227065994Y55673824D01*
X226890335Y55529665D01*
X226746176Y55354006D01*
X226639056Y55153599D01*
X226573092Y54936145D01*
X226550819Y54710000D01*
X201365000Y54710000D01*
X201365000Y57250000D01*
X226550819Y57250000D01*
X226573092Y57023855D01*
X226639056Y56806401D01*
X226746176Y56605994D01*
X226890335Y56430335D01*
X227065994Y56286176D01*
X227266401Y56179056D01*
X227483855Y56113092D01*
X227653334Y56096400D01*
X227766666Y56096400D01*
X227936145Y56113092D01*
X228153599Y56179056D01*
X228354006Y56286176D01*
X228529665Y56430335D01*
X228673824Y56605994D01*
X228780944Y56806401D01*
X228812185Y56909389D01*
X229147831Y56909389D01*
X229229794Y56711492D01*
X229354455Y56522807D01*
X229513531Y56362068D01*
X229700909Y56235451D01*
X229909388Y56147823D01*
X230086000Y56180609D01*
X230086000Y57086000D01*
X229181412Y57086000D01*
X229147831Y56909389D01*
X228812185Y56909389D01*
X228846908Y57023855D01*
X228869181Y57250000D01*
X228846908Y57476145D01*
X228812186Y57590611D01*
X229147831Y57590611D01*
X229181412Y57414000D01*
X230086000Y57414000D01*
X230086000Y58319391D01*
X229909388Y58352177D01*
X229700909Y58264549D01*
X229513531Y58137932D01*
X229354455Y57977193D01*
X229229794Y57788508D01*
X229147831Y57590611D01*
X228812186Y57590611D01*
X228780944Y57693599D01*
X228673824Y57894006D01*
X228529665Y58069665D01*
X228354006Y58213824D01*
X228153599Y58320944D01*
X227936145Y58386908D01*
X227766666Y58403600D01*
X227653334Y58403600D01*
X227483855Y58386908D01*
X227266401Y58320944D01*
X227065994Y58213824D01*
X226890335Y58069665D01*
X226746176Y57894006D01*
X226639056Y57693599D01*
X226573092Y57476145D01*
X226550819Y57250000D01*
X201365000Y57250000D01*
X201365000Y73800000D01*
X214848597Y73800000D01*
X214848597Y72800000D01*
X214854196Y72743150D01*
X214870779Y72688485D01*
X214897707Y72638105D01*
X214933947Y72593947D01*
X214978105Y72557707D01*
X215028485Y72530779D01*
X215083150Y72514196D01*
X215140000Y72508597D01*
X216440000Y72508597D01*
X216496850Y72514196D01*
X216551515Y72530779D01*
X216601895Y72557707D01*
X216646053Y72593947D01*
X216682293Y72638105D01*
X216709221Y72688485D01*
X216725804Y72743150D01*
X216731403Y72800000D01*
X216731403Y72910000D01*
X216848597Y72910000D01*
X216848597Y72800000D01*
X216854196Y72743150D01*
X216870779Y72688485D01*
X216897707Y72638105D01*
X216933947Y72593947D01*
X216978105Y72557707D01*
X217028485Y72530779D01*
X217083150Y72514196D01*
X217140000Y72508597D01*
X218440000Y72508597D01*
X218496850Y72514196D01*
X218551515Y72530779D01*
X218601895Y72557707D01*
X218646053Y72593947D01*
X218682293Y72638105D01*
X218709221Y72688485D01*
X218725804Y72743150D01*
X218731403Y72800000D01*
X218731403Y72910000D01*
X218848597Y72910000D01*
X218848597Y72800000D01*
X218854196Y72743150D01*
X218870779Y72688485D01*
X218897707Y72638105D01*
X218933947Y72593947D01*
X218978105Y72557707D01*
X219028485Y72530779D01*
X219083150Y72514196D01*
X219140000Y72508597D01*
X220179860Y72508597D01*
X231023601Y61664855D01*
X231023602Y58100411D01*
X230986469Y58137932D01*
X230799091Y58264549D01*
X230590612Y58352177D01*
X230414000Y58319391D01*
X230414000Y57414000D01*
X230434000Y57414000D01*
X230434000Y57086000D01*
X230414000Y57086000D01*
X230414000Y56180609D01*
X230590612Y56147823D01*
X230799091Y56235451D01*
X230986469Y56362068D01*
X231023602Y56399589D01*
X231023602Y56105568D01*
X231021714Y56086399D01*
X231029244Y56009946D01*
X231051545Y55936431D01*
X231087760Y55868678D01*
X231124282Y55824175D01*
X231124286Y55824171D01*
X231136496Y55809293D01*
X231151374Y55797083D01*
X231745460Y55202997D01*
X231719056Y55153599D01*
X231653092Y54936145D01*
X231630819Y54710000D01*
X231653092Y54483855D01*
X231719056Y54266401D01*
X231826176Y54065994D01*
X231970335Y53890335D01*
X232145994Y53746176D01*
X232346401Y53639056D01*
X232563855Y53573092D01*
X232733334Y53556400D01*
X232846666Y53556400D01*
X233016145Y53573092D01*
X233233599Y53639056D01*
X233434006Y53746176D01*
X233609665Y53890335D01*
X233753824Y54065994D01*
X233860944Y54266401D01*
X233892185Y54369389D01*
X234227831Y54369389D01*
X234309794Y54171492D01*
X234434455Y53982807D01*
X234593531Y53822068D01*
X234780909Y53695451D01*
X234989388Y53607823D01*
X235166000Y53640609D01*
X235166000Y54546000D01*
X235494000Y54546000D01*
X235494000Y53640609D01*
X235670612Y53607823D01*
X235879091Y53695451D01*
X236066469Y53822068D01*
X236225545Y53982807D01*
X236350206Y54171492D01*
X236432169Y54369389D01*
X236767831Y54369389D01*
X236849794Y54171492D01*
X236974455Y53982807D01*
X237133531Y53822068D01*
X237320909Y53695451D01*
X237529388Y53607823D01*
X237706000Y53640609D01*
X237706000Y54546000D01*
X238034000Y54546000D01*
X238034000Y53640609D01*
X238210612Y53607823D01*
X238419091Y53695451D01*
X238606469Y53822068D01*
X238765545Y53982807D01*
X238890206Y54171492D01*
X238972169Y54369389D01*
X238938588Y54546000D01*
X238034000Y54546000D01*
X237706000Y54546000D01*
X236801412Y54546000D01*
X236767831Y54369389D01*
X236432169Y54369389D01*
X236398588Y54546000D01*
X235494000Y54546000D01*
X235166000Y54546000D01*
X234261412Y54546000D01*
X234227831Y54369389D01*
X233892185Y54369389D01*
X233926908Y54483855D01*
X233949181Y54710000D01*
X233926908Y54936145D01*
X233892186Y55050611D01*
X234227831Y55050611D01*
X234261412Y54874000D01*
X235166000Y54874000D01*
X235166000Y55779391D01*
X235494000Y55779391D01*
X235494000Y54874000D01*
X236398588Y54874000D01*
X236432169Y55050611D01*
X236767831Y55050611D01*
X236801412Y54874000D01*
X237706000Y54874000D01*
X237706000Y55779391D01*
X238034000Y55779391D01*
X238034000Y54874000D01*
X238938588Y54874000D01*
X238972169Y55050611D01*
X238890206Y55248508D01*
X238765545Y55437193D01*
X238606469Y55597932D01*
X238419091Y55724549D01*
X238210612Y55812177D01*
X238034000Y55779391D01*
X237706000Y55779391D01*
X237529388Y55812177D01*
X237320909Y55724549D01*
X237133531Y55597932D01*
X236974455Y55437193D01*
X236849794Y55248508D01*
X236767831Y55050611D01*
X236432169Y55050611D01*
X236350206Y55248508D01*
X236225545Y55437193D01*
X236066469Y55597932D01*
X235879091Y55724549D01*
X235670612Y55812177D01*
X235494000Y55779391D01*
X235166000Y55779391D01*
X234989388Y55812177D01*
X234780909Y55724549D01*
X234593531Y55597932D01*
X234434455Y55437193D01*
X234309794Y55248508D01*
X234227831Y55050611D01*
X233892186Y55050611D01*
X233860944Y55153599D01*
X233753824Y55354006D01*
X233609665Y55529665D01*
X233434006Y55673824D01*
X233233599Y55780944D01*
X233016145Y55846908D01*
X232846666Y55863600D01*
X232733334Y55863600D01*
X232563855Y55846908D01*
X232346401Y55780944D01*
X232297003Y55754540D01*
X231803601Y56247942D01*
X231803601Y56660322D01*
X231894455Y56522807D01*
X232053531Y56362068D01*
X232240909Y56235451D01*
X232449388Y56147823D01*
X232626000Y56180609D01*
X232626000Y57086000D01*
X232954000Y57086000D01*
X232954000Y56180609D01*
X233130612Y56147823D01*
X233339091Y56235451D01*
X233526469Y56362068D01*
X233685545Y56522807D01*
X233810206Y56711492D01*
X233892169Y56909389D01*
X233858588Y57086000D01*
X232954000Y57086000D01*
X232626000Y57086000D01*
X232606000Y57086000D01*
X232606000Y57414000D01*
X232626000Y57414000D01*
X232626000Y58319391D01*
X232954000Y58319391D01*
X232954000Y57414000D01*
X233858588Y57414000D01*
X233892169Y57590611D01*
X233810206Y57788508D01*
X233685545Y57977193D01*
X233526469Y58137932D01*
X233339091Y58264549D01*
X233130612Y58352177D01*
X232954000Y58319391D01*
X232626000Y58319391D01*
X232449388Y58352177D01*
X232240909Y58264549D01*
X232053531Y58137932D01*
X231894455Y57977193D01*
X231803601Y57839678D01*
X231803601Y61807251D01*
X231805487Y61826400D01*
X231803601Y61845549D01*
X231803601Y61845558D01*
X231797958Y61902852D01*
X231775657Y61976368D01*
X231739443Y62044120D01*
X231690707Y62103505D01*
X231675830Y62115714D01*
X220731403Y73060140D01*
X220731403Y73800000D01*
X222348597Y73800000D01*
X222348597Y72800000D01*
X222354196Y72743150D01*
X222370779Y72688485D01*
X222397707Y72638105D01*
X222433947Y72593947D01*
X222478105Y72557707D01*
X222528485Y72530779D01*
X222583150Y72514196D01*
X222640000Y72508597D01*
X222910179Y72508597D01*
X222927945Y72450031D01*
X222964159Y72382279D01*
X223012895Y72322894D01*
X223072280Y72274158D01*
X223140032Y72237944D01*
X223213548Y72215643D01*
X223290000Y72208113D01*
X223366453Y72215643D01*
X223439969Y72237944D01*
X223507721Y72274158D01*
X223567106Y72322894D01*
X223615842Y72382279D01*
X223652056Y72450031D01*
X223669822Y72508597D01*
X223940000Y72508597D01*
X223996850Y72514196D01*
X224051515Y72530779D01*
X224101895Y72557707D01*
X224146053Y72593947D01*
X224182293Y72638105D01*
X224209221Y72688485D01*
X224225804Y72743150D01*
X224231403Y72800000D01*
X224231403Y72910000D01*
X224348597Y72910000D01*
X224348597Y72800000D01*
X224354196Y72743150D01*
X224370779Y72688485D01*
X224397707Y72638105D01*
X224433947Y72593947D01*
X224478105Y72557707D01*
X224528485Y72530779D01*
X224583150Y72514196D01*
X224640000Y72508597D01*
X225940000Y72508597D01*
X225996850Y72514196D01*
X226051515Y72530779D01*
X226101895Y72557707D01*
X226146053Y72593947D01*
X226182293Y72638105D01*
X226209221Y72688485D01*
X226225804Y72743150D01*
X226231403Y72800000D01*
X226231403Y72910000D01*
X226348597Y72910000D01*
X226348597Y72800000D01*
X226354196Y72743150D01*
X226370779Y72688485D01*
X226397707Y72638105D01*
X226433947Y72593947D01*
X226478105Y72557707D01*
X226528485Y72530779D01*
X226583150Y72514196D01*
X226640000Y72508597D01*
X226910178Y72508597D01*
X226927944Y72450032D01*
X226964159Y72382279D01*
X227000681Y72337776D01*
X227000682Y72337775D01*
X227012895Y72322894D01*
X227027773Y72310684D01*
X234940000Y64398456D01*
X234940001Y58490482D01*
X234940000Y58490472D01*
X234940000Y58337203D01*
X234886401Y58320944D01*
X234685994Y58213824D01*
X234510335Y58069665D01*
X234366176Y57894006D01*
X234259056Y57693599D01*
X234193092Y57476145D01*
X234170819Y57250000D01*
X234193092Y57023855D01*
X234259056Y56806401D01*
X234366176Y56605994D01*
X234510335Y56430335D01*
X234685994Y56286176D01*
X234886401Y56179056D01*
X235103855Y56113092D01*
X235273334Y56096400D01*
X235386666Y56096400D01*
X235556145Y56113092D01*
X235773599Y56179056D01*
X235974006Y56286176D01*
X236149665Y56430335D01*
X236293824Y56605994D01*
X236400944Y56806401D01*
X236432185Y56909389D01*
X236767831Y56909389D01*
X236849794Y56711492D01*
X236974455Y56522807D01*
X237133531Y56362068D01*
X237320909Y56235451D01*
X237529388Y56147823D01*
X237706000Y56180609D01*
X237706000Y57086000D01*
X236801412Y57086000D01*
X236767831Y56909389D01*
X236432185Y56909389D01*
X236466908Y57023855D01*
X236489181Y57250000D01*
X236466908Y57476145D01*
X236432186Y57590611D01*
X236767831Y57590611D01*
X236801412Y57414000D01*
X237706000Y57414000D01*
X237706000Y58319391D01*
X237529388Y58352177D01*
X237320909Y58264549D01*
X237133531Y58137932D01*
X236974455Y57977193D01*
X236849794Y57788508D01*
X236767831Y57590611D01*
X236432186Y57590611D01*
X236400944Y57693599D01*
X236293824Y57894006D01*
X236149665Y58069665D01*
X235974006Y58213824D01*
X235773599Y58320944D01*
X235720000Y58337203D01*
X235720000Y64540842D01*
X235721887Y64560001D01*
X235714357Y64636454D01*
X235692056Y64709969D01*
X235655842Y64777721D01*
X235607106Y64837106D01*
X235592229Y64849315D01*
X227932946Y72508597D01*
X227940000Y72508597D01*
X227996850Y72514196D01*
X228051515Y72530779D01*
X228101895Y72557707D01*
X228146053Y72593947D01*
X228182293Y72638105D01*
X228209221Y72688485D01*
X228225804Y72743150D01*
X228231403Y72800000D01*
X228231403Y73800000D01*
X228848597Y73800000D01*
X228848597Y72800000D01*
X228854196Y72743150D01*
X228870779Y72688485D01*
X228897707Y72638105D01*
X228933947Y72593947D01*
X228978105Y72557707D01*
X229028485Y72530779D01*
X229083150Y72514196D01*
X229140000Y72508597D01*
X230440000Y72508597D01*
X230496850Y72514196D01*
X230551515Y72530779D01*
X230601895Y72557707D01*
X230646053Y72593947D01*
X230682293Y72638105D01*
X230709221Y72688485D01*
X230725804Y72743150D01*
X230731403Y72800000D01*
X230731403Y72910000D01*
X230848597Y72910000D01*
X230848597Y72800000D01*
X230854196Y72743150D01*
X230870779Y72688485D01*
X230897707Y72638105D01*
X230933947Y72593947D01*
X230978105Y72557707D01*
X231028485Y72530779D01*
X231083150Y72514196D01*
X231140000Y72508597D01*
X232440000Y72508597D01*
X232496850Y72514196D01*
X232551515Y72530779D01*
X232601895Y72557707D01*
X232646053Y72593947D01*
X232682293Y72638105D01*
X232709221Y72688485D01*
X232725804Y72743150D01*
X232731403Y72800000D01*
X232731403Y72910000D01*
X232848597Y72910000D01*
X232848597Y72800000D01*
X232854196Y72743150D01*
X232870779Y72688485D01*
X232897707Y72638105D01*
X232933947Y72593947D01*
X232978105Y72557707D01*
X233028485Y72530779D01*
X233083150Y72514196D01*
X233140000Y72508597D01*
X234179860Y72508597D01*
X238643601Y68044856D01*
X238643602Y58100411D01*
X238606469Y58137932D01*
X238419091Y58264549D01*
X238210612Y58352177D01*
X238034000Y58319391D01*
X238034000Y57414000D01*
X238054000Y57414000D01*
X238054000Y57086000D01*
X238034000Y57086000D01*
X238034000Y56180609D01*
X238210612Y56147823D01*
X238419091Y56235451D01*
X238606469Y56362068D01*
X238643602Y56399589D01*
X238643602Y56105568D01*
X238641714Y56086399D01*
X238649244Y56009946D01*
X238671545Y55936431D01*
X238707760Y55868678D01*
X238744282Y55824175D01*
X238744286Y55824171D01*
X238756496Y55809293D01*
X238771374Y55797083D01*
X239365460Y55202997D01*
X239339056Y55153599D01*
X239273092Y54936145D01*
X239250819Y54710000D01*
X239273092Y54483855D01*
X239339056Y54266401D01*
X239446176Y54065994D01*
X239590335Y53890335D01*
X239765994Y53746176D01*
X239966401Y53639056D01*
X240183855Y53573092D01*
X240353334Y53556400D01*
X240466666Y53556400D01*
X240636145Y53573092D01*
X240853599Y53639056D01*
X241054006Y53746176D01*
X241229665Y53890335D01*
X241373824Y54065994D01*
X241480944Y54266401D01*
X241512185Y54369389D01*
X241847831Y54369389D01*
X241929794Y54171492D01*
X242054455Y53982807D01*
X242213531Y53822068D01*
X242400909Y53695451D01*
X242609388Y53607823D01*
X242786000Y53640609D01*
X242786000Y54546000D01*
X243114000Y54546000D01*
X243114000Y53640609D01*
X243290612Y53607823D01*
X243499091Y53695451D01*
X243686469Y53822068D01*
X243845545Y53982807D01*
X243970206Y54171492D01*
X244052169Y54369389D01*
X244387831Y54369389D01*
X244469794Y54171492D01*
X244594455Y53982807D01*
X244753531Y53822068D01*
X244940909Y53695451D01*
X245149388Y53607823D01*
X245326000Y53640609D01*
X245326000Y54546000D01*
X245654000Y54546000D01*
X245654000Y53640609D01*
X245830612Y53607823D01*
X246039091Y53695451D01*
X246226469Y53822068D01*
X246385545Y53982807D01*
X246510206Y54171492D01*
X246592169Y54369389D01*
X246558588Y54546000D01*
X245654000Y54546000D01*
X245326000Y54546000D01*
X244421412Y54546000D01*
X244387831Y54369389D01*
X244052169Y54369389D01*
X244018588Y54546000D01*
X243114000Y54546000D01*
X242786000Y54546000D01*
X241881412Y54546000D01*
X241847831Y54369389D01*
X241512185Y54369389D01*
X241546908Y54483855D01*
X241569181Y54710000D01*
X241546908Y54936145D01*
X241512186Y55050611D01*
X241847831Y55050611D01*
X241881412Y54874000D01*
X242786000Y54874000D01*
X242786000Y55779391D01*
X243114000Y55779391D01*
X243114000Y54874000D01*
X244018588Y54874000D01*
X244052169Y55050611D01*
X244387831Y55050611D01*
X244421412Y54874000D01*
X245326000Y54874000D01*
X245326000Y55779391D01*
X245654000Y55779391D01*
X245654000Y54874000D01*
X246558588Y54874000D01*
X246592169Y55050611D01*
X246510206Y55248508D01*
X246385545Y55437193D01*
X246226469Y55597932D01*
X246039091Y55724549D01*
X245830612Y55812177D01*
X245654000Y55779391D01*
X245326000Y55779391D01*
X245149388Y55812177D01*
X244940909Y55724549D01*
X244753531Y55597932D01*
X244594455Y55437193D01*
X244469794Y55248508D01*
X244387831Y55050611D01*
X244052169Y55050611D01*
X243970206Y55248508D01*
X243845545Y55437193D01*
X243686469Y55597932D01*
X243499091Y55724549D01*
X243290612Y55812177D01*
X243114000Y55779391D01*
X242786000Y55779391D01*
X242609388Y55812177D01*
X242400909Y55724549D01*
X242213531Y55597932D01*
X242054455Y55437193D01*
X241929794Y55248508D01*
X241847831Y55050611D01*
X241512186Y55050611D01*
X241480944Y55153599D01*
X241373824Y55354006D01*
X241229665Y55529665D01*
X241054006Y55673824D01*
X240853599Y55780944D01*
X240636145Y55846908D01*
X240466666Y55863600D01*
X240353334Y55863600D01*
X240183855Y55846908D01*
X239966401Y55780944D01*
X239917003Y55754540D01*
X239423601Y56247942D01*
X239423601Y56660322D01*
X239514455Y56522807D01*
X239673531Y56362068D01*
X239860909Y56235451D01*
X240069388Y56147823D01*
X240246000Y56180609D01*
X240246000Y57086000D01*
X240574000Y57086000D01*
X240574000Y56180609D01*
X240750612Y56147823D01*
X240959091Y56235451D01*
X241146469Y56362068D01*
X241305545Y56522807D01*
X241430206Y56711492D01*
X241512169Y56909389D01*
X241478588Y57086000D01*
X240574000Y57086000D01*
X240246000Y57086000D01*
X240226000Y57086000D01*
X240226000Y57414000D01*
X240246000Y57414000D01*
X240246000Y58319391D01*
X240574000Y58319391D01*
X240574000Y57414000D01*
X241478588Y57414000D01*
X241512169Y57590611D01*
X241430206Y57788508D01*
X241305545Y57977193D01*
X241146469Y58137932D01*
X240959091Y58264549D01*
X240750612Y58352177D01*
X240574000Y58319391D01*
X240246000Y58319391D01*
X240069388Y58352177D01*
X239860909Y58264549D01*
X239673531Y58137932D01*
X239514455Y57977193D01*
X239423601Y57839678D01*
X239423601Y68187240D01*
X239425488Y68206399D01*
X239417958Y68282852D01*
X239395657Y68356367D01*
X239395657Y68356368D01*
X239359443Y68424120D01*
X239310707Y68483505D01*
X239295824Y68495719D01*
X234731403Y73060140D01*
X234731403Y73800000D01*
X236348597Y73800000D01*
X236348597Y72800000D01*
X236354196Y72743150D01*
X236370779Y72688485D01*
X236397707Y72638105D01*
X236433947Y72593947D01*
X236478105Y72557707D01*
X236528485Y72530779D01*
X236583150Y72514196D01*
X236640000Y72508597D01*
X237940000Y72508597D01*
X237996850Y72514196D01*
X238051515Y72530779D01*
X238101895Y72557707D01*
X238146053Y72593947D01*
X238182293Y72638105D01*
X238209221Y72688485D01*
X238225804Y72743150D01*
X238231403Y72800000D01*
X238231403Y72910000D01*
X238348597Y72910000D01*
X238348597Y72800000D01*
X238354196Y72743150D01*
X238370779Y72688485D01*
X238397707Y72638105D01*
X238433947Y72593947D01*
X238478105Y72557707D01*
X238528485Y72530779D01*
X238583150Y72514196D01*
X238640000Y72508597D01*
X239940000Y72508597D01*
X239996850Y72514196D01*
X240051515Y72530779D01*
X240101895Y72557707D01*
X240146053Y72593947D01*
X240182293Y72638105D01*
X240209221Y72688485D01*
X240225804Y72743150D01*
X240231403Y72800000D01*
X240231403Y72910000D01*
X240348597Y72910000D01*
X240348597Y72800000D01*
X240354196Y72743150D01*
X240370779Y72688485D01*
X240397707Y72638105D01*
X240433947Y72593947D01*
X240478105Y72557707D01*
X240528485Y72530779D01*
X240583150Y72514196D01*
X240640000Y72508597D01*
X240900000Y72508597D01*
X240900001Y58929169D01*
X240898113Y58910000D01*
X240905643Y58833547D01*
X240927944Y58760032D01*
X240964159Y58692279D01*
X241000681Y58647776D01*
X241000685Y58647772D01*
X241012895Y58632894D01*
X241027773Y58620684D01*
X241905460Y57742997D01*
X241879056Y57693599D01*
X241813092Y57476145D01*
X241790819Y57250000D01*
X241813092Y57023855D01*
X241879056Y56806401D01*
X241986176Y56605994D01*
X242130335Y56430335D01*
X242305994Y56286176D01*
X242506401Y56179056D01*
X242723855Y56113092D01*
X242893334Y56096400D01*
X243006666Y56096400D01*
X243176145Y56113092D01*
X243393599Y56179056D01*
X243594006Y56286176D01*
X243769665Y56430335D01*
X243913824Y56605994D01*
X244020944Y56806401D01*
X244052185Y56909389D01*
X244387831Y56909389D01*
X244469794Y56711492D01*
X244594455Y56522807D01*
X244753531Y56362068D01*
X244940909Y56235451D01*
X245149388Y56147823D01*
X245326000Y56180609D01*
X245326000Y57086000D01*
X245654000Y57086000D01*
X245654000Y56180609D01*
X245830612Y56147823D01*
X246039091Y56235451D01*
X246226469Y56362068D01*
X246385545Y56522807D01*
X246510206Y56711492D01*
X246592169Y56909389D01*
X246927831Y56909389D01*
X247009794Y56711492D01*
X247134455Y56522807D01*
X247293531Y56362068D01*
X247480909Y56235451D01*
X247689388Y56147823D01*
X247866000Y56180609D01*
X247866000Y57086000D01*
X246961412Y57086000D01*
X246927831Y56909389D01*
X246592169Y56909389D01*
X246558588Y57086000D01*
X245654000Y57086000D01*
X245326000Y57086000D01*
X244421412Y57086000D01*
X244387831Y56909389D01*
X244052185Y56909389D01*
X244086908Y57023855D01*
X244109181Y57250000D01*
X244086908Y57476145D01*
X244052186Y57590611D01*
X244387831Y57590611D01*
X244421412Y57414000D01*
X245326000Y57414000D01*
X245326000Y58319391D01*
X245654000Y58319391D01*
X245654000Y57414000D01*
X246558588Y57414000D01*
X246592169Y57590611D01*
X246927831Y57590611D01*
X246961412Y57414000D01*
X247866000Y57414000D01*
X247866000Y58319391D01*
X247689388Y58352177D01*
X247480909Y58264549D01*
X247293531Y58137932D01*
X247134455Y57977193D01*
X247009794Y57788508D01*
X246927831Y57590611D01*
X246592169Y57590611D01*
X246510206Y57788508D01*
X246385545Y57977193D01*
X246226469Y58137932D01*
X246039091Y58264549D01*
X245830612Y58352177D01*
X245654000Y58319391D01*
X245326000Y58319391D01*
X245149388Y58352177D01*
X244940909Y58264549D01*
X244753531Y58137932D01*
X244594455Y57977193D01*
X244469794Y57788508D01*
X244387831Y57590611D01*
X244052186Y57590611D01*
X244020944Y57693599D01*
X243913824Y57894006D01*
X243769665Y58069665D01*
X243594006Y58213824D01*
X243393599Y58320944D01*
X243176145Y58386908D01*
X243006666Y58403600D01*
X242893334Y58403600D01*
X242723855Y58386908D01*
X242506401Y58320944D01*
X242457003Y58294540D01*
X241680000Y59071543D01*
X241680000Y72508597D01*
X241940000Y72508597D01*
X241996850Y72514196D01*
X242051515Y72530779D01*
X242101895Y72557707D01*
X242146053Y72593947D01*
X242182293Y72638105D01*
X242209221Y72688485D01*
X242225804Y72743150D01*
X242231403Y72800000D01*
X242231403Y73800000D01*
X242848597Y73800000D01*
X242848597Y72800000D01*
X242854196Y72743150D01*
X242870779Y72688485D01*
X242897707Y72638105D01*
X242933947Y72593947D01*
X242978105Y72557707D01*
X243028485Y72530779D01*
X243083150Y72514196D01*
X243140000Y72508597D01*
X244440000Y72508597D01*
X244496850Y72514196D01*
X244551515Y72530779D01*
X244601895Y72557707D01*
X244646053Y72593947D01*
X244682293Y72638105D01*
X244709221Y72688485D01*
X244725804Y72743150D01*
X244731403Y72800000D01*
X244731403Y72910000D01*
X244848597Y72910000D01*
X244848597Y72800000D01*
X244854196Y72743150D01*
X244870779Y72688485D01*
X244897707Y72638105D01*
X244933947Y72593947D01*
X244978105Y72557707D01*
X245028485Y72530779D01*
X245083150Y72514196D01*
X245140000Y72508597D01*
X246440000Y72508597D01*
X246496850Y72514196D01*
X246551515Y72530779D01*
X246601895Y72557707D01*
X246646053Y72593947D01*
X246682293Y72638105D01*
X246709221Y72688485D01*
X246725804Y72743150D01*
X246731403Y72800000D01*
X246731403Y72910000D01*
X246848597Y72910000D01*
X246848597Y72800000D01*
X246854196Y72743150D01*
X246870779Y72688485D01*
X246897707Y72638105D01*
X246933947Y72593947D01*
X246978105Y72557707D01*
X247028485Y72530779D01*
X247083150Y72514196D01*
X247140000Y72508597D01*
X248179860Y72508597D01*
X248803601Y71884856D01*
X248803602Y58100411D01*
X248766469Y58137932D01*
X248579091Y58264549D01*
X248370612Y58352177D01*
X248194000Y58319391D01*
X248194000Y57414000D01*
X248214000Y57414000D01*
X248214000Y57086000D01*
X248194000Y57086000D01*
X248194000Y56180609D01*
X248370612Y56147823D01*
X248579091Y56235451D01*
X248766469Y56362068D01*
X248803602Y56399589D01*
X248803602Y56035146D01*
X248631375Y55862918D01*
X248522997Y55754540D01*
X248473599Y55780944D01*
X248256145Y55846908D01*
X248086666Y55863600D01*
X247973334Y55863600D01*
X247803855Y55846908D01*
X247586401Y55780944D01*
X247385994Y55673824D01*
X247210335Y55529665D01*
X247066176Y55354006D01*
X246959056Y55153599D01*
X246893092Y54936145D01*
X246870819Y54710000D01*
X246893092Y54483855D01*
X246959056Y54266401D01*
X247066176Y54065994D01*
X247210335Y53890335D01*
X247385994Y53746176D01*
X247586401Y53639056D01*
X247803855Y53573092D01*
X247973334Y53556400D01*
X248086666Y53556400D01*
X248256145Y53573092D01*
X248473599Y53639056D01*
X248674006Y53746176D01*
X248849665Y53890335D01*
X248993824Y54065994D01*
X249100944Y54266401D01*
X249132185Y54369389D01*
X249467831Y54369389D01*
X249549794Y54171492D01*
X249674455Y53982807D01*
X249833531Y53822068D01*
X250020909Y53695451D01*
X250229388Y53607823D01*
X250406000Y53640609D01*
X250406000Y54546000D01*
X250734000Y54546000D01*
X250734000Y53640609D01*
X250910612Y53607823D01*
X251119091Y53695451D01*
X251306469Y53822068D01*
X251465545Y53982807D01*
X251590206Y54171492D01*
X251672169Y54369389D01*
X252007831Y54369389D01*
X252089794Y54171492D01*
X252214455Y53982807D01*
X252373531Y53822068D01*
X252560909Y53695451D01*
X252769388Y53607823D01*
X252946000Y53640609D01*
X252946000Y54546000D01*
X253274000Y54546000D01*
X253274000Y53640609D01*
X253450612Y53607823D01*
X253659091Y53695451D01*
X253846469Y53822068D01*
X254005545Y53982807D01*
X254130206Y54171492D01*
X254212169Y54369389D01*
X254178588Y54546000D01*
X253274000Y54546000D01*
X252946000Y54546000D01*
X252041412Y54546000D01*
X252007831Y54369389D01*
X251672169Y54369389D01*
X251638588Y54546000D01*
X250734000Y54546000D01*
X250406000Y54546000D01*
X249501412Y54546000D01*
X249467831Y54369389D01*
X249132185Y54369389D01*
X249166908Y54483855D01*
X249189181Y54710000D01*
X249166908Y54936145D01*
X249132186Y55050611D01*
X249467831Y55050611D01*
X249501412Y54874000D01*
X250406000Y54874000D01*
X250406000Y55779391D01*
X250734000Y55779391D01*
X250734000Y54874000D01*
X251638588Y54874000D01*
X251672169Y55050611D01*
X252007831Y55050611D01*
X252041412Y54874000D01*
X252946000Y54874000D01*
X252946000Y55779391D01*
X253274000Y55779391D01*
X253274000Y54874000D01*
X254178588Y54874000D01*
X254212169Y55050611D01*
X254130206Y55248508D01*
X254005545Y55437193D01*
X253846469Y55597932D01*
X253659091Y55724549D01*
X253450612Y55812177D01*
X253274000Y55779391D01*
X252946000Y55779391D01*
X252769388Y55812177D01*
X252560909Y55724549D01*
X252373531Y55597932D01*
X252214455Y55437193D01*
X252089794Y55248508D01*
X252007831Y55050611D01*
X251672169Y55050611D01*
X251590206Y55248508D01*
X251465545Y55437193D01*
X251306469Y55597932D01*
X251119091Y55724549D01*
X250910612Y55812177D01*
X250734000Y55779391D01*
X250406000Y55779391D01*
X250229388Y55812177D01*
X250020909Y55724549D01*
X249833531Y55597932D01*
X249674455Y55437193D01*
X249549794Y55248508D01*
X249467831Y55050611D01*
X249132186Y55050611D01*
X249100944Y55153599D01*
X249074540Y55202997D01*
X249182918Y55311375D01*
X249455828Y55584284D01*
X249470707Y55596495D01*
X249519443Y55655880D01*
X249555657Y55723632D01*
X249567364Y55762225D01*
X249577958Y55797147D01*
X249585488Y55873601D01*
X249583601Y55892760D01*
X249583601Y56648229D01*
X249606176Y56605994D01*
X249750335Y56430335D01*
X249925994Y56286176D01*
X250126401Y56179056D01*
X250343855Y56113092D01*
X250513334Y56096400D01*
X250626666Y56096400D01*
X250796145Y56113092D01*
X251013599Y56179056D01*
X251214006Y56286176D01*
X251389665Y56430335D01*
X251533824Y56605994D01*
X251640944Y56806401D01*
X251672185Y56909389D01*
X252007831Y56909389D01*
X252089794Y56711492D01*
X252214455Y56522807D01*
X252373531Y56362068D01*
X252560909Y56235451D01*
X252769388Y56147823D01*
X252946000Y56180609D01*
X252946000Y57086000D01*
X252041412Y57086000D01*
X252007831Y56909389D01*
X251672185Y56909389D01*
X251706908Y57023855D01*
X251729181Y57250000D01*
X251706908Y57476145D01*
X251672186Y57590611D01*
X252007831Y57590611D01*
X252041412Y57414000D01*
X252946000Y57414000D01*
X252946000Y58319391D01*
X253274000Y58319391D01*
X253274000Y57414000D01*
X253294000Y57414000D01*
X253294000Y57086000D01*
X253274000Y57086000D01*
X253274000Y56180609D01*
X253450612Y56147823D01*
X253659091Y56235451D01*
X253846469Y56362068D01*
X254005545Y56522807D01*
X254095038Y56658262D01*
X254102042Y56587148D01*
X254124343Y56513633D01*
X254160558Y56445880D01*
X254197080Y56401377D01*
X254197084Y56401373D01*
X254209294Y56386495D01*
X254224172Y56374285D01*
X254961307Y55637150D01*
X254830335Y55529665D01*
X254686176Y55354006D01*
X254579056Y55153599D01*
X254513092Y54936145D01*
X254490819Y54710000D01*
X254513092Y54483855D01*
X254579056Y54266401D01*
X254686176Y54065994D01*
X254830335Y53890335D01*
X255005994Y53746176D01*
X255206401Y53639056D01*
X255423855Y53573092D01*
X255593334Y53556400D01*
X255706666Y53556400D01*
X255876145Y53573092D01*
X256093599Y53639056D01*
X256294006Y53746176D01*
X256469665Y53890335D01*
X256613824Y54065994D01*
X256720944Y54266401D01*
X256752185Y54369389D01*
X257087831Y54369389D01*
X257169794Y54171492D01*
X257294455Y53982807D01*
X257453531Y53822068D01*
X257640909Y53695451D01*
X257849388Y53607823D01*
X258026000Y53640609D01*
X258026000Y54546000D01*
X258354000Y54546000D01*
X258354000Y53640609D01*
X258530612Y53607823D01*
X258739091Y53695451D01*
X258926469Y53822068D01*
X259085545Y53982807D01*
X259210206Y54171492D01*
X259292169Y54369389D01*
X259258588Y54546000D01*
X258354000Y54546000D01*
X258026000Y54546000D01*
X257121412Y54546000D01*
X257087831Y54369389D01*
X256752185Y54369389D01*
X256786908Y54483855D01*
X256809181Y54710000D01*
X256786908Y54936145D01*
X256752186Y55050611D01*
X257087831Y55050611D01*
X257121412Y54874000D01*
X258026000Y54874000D01*
X258026000Y55779391D01*
X258354000Y55779391D01*
X258354000Y54874000D01*
X259258588Y54874000D01*
X259292169Y55050611D01*
X259210206Y55248508D01*
X259085545Y55437193D01*
X258926469Y55597932D01*
X258739091Y55724549D01*
X258530612Y55812177D01*
X258354000Y55779391D01*
X258026000Y55779391D01*
X257849388Y55812177D01*
X257640909Y55724549D01*
X257453531Y55597932D01*
X257294455Y55437193D01*
X257169794Y55248508D01*
X257087831Y55050611D01*
X256752186Y55050611D01*
X256720944Y55153599D01*
X256613824Y55354006D01*
X256469665Y55529665D01*
X256294006Y55673824D01*
X256093599Y55780944D01*
X255876145Y55846908D01*
X255852285Y55849258D01*
X255486000Y56215543D01*
X255486000Y57086000D01*
X255814000Y57086000D01*
X255814000Y56180609D01*
X255990612Y56147823D01*
X256199091Y56235451D01*
X256386469Y56362068D01*
X256545545Y56522807D01*
X256670206Y56711492D01*
X256752169Y56909389D01*
X256718588Y57086000D01*
X255814000Y57086000D01*
X255486000Y57086000D01*
X255466000Y57086000D01*
X255466000Y57414000D01*
X255486000Y57414000D01*
X255486000Y58319391D01*
X255814000Y58319391D01*
X255814000Y57414000D01*
X256718588Y57414000D01*
X256752169Y57590611D01*
X256670206Y57788508D01*
X256545545Y57977193D01*
X256410550Y58113600D01*
X257034997Y58113600D01*
X257034997Y56386400D01*
X257040596Y56329550D01*
X257057179Y56274885D01*
X257084107Y56224505D01*
X257120347Y56180347D01*
X257164505Y56144107D01*
X257214885Y56117179D01*
X257269550Y56100596D01*
X257326400Y56094997D01*
X259053600Y56094997D01*
X259110450Y56100596D01*
X259165115Y56117179D01*
X259215495Y56144107D01*
X259259653Y56180347D01*
X259295893Y56224505D01*
X259322821Y56274885D01*
X259339404Y56329550D01*
X259345003Y56386400D01*
X259345003Y56870178D01*
X259381739Y56881322D01*
X259403569Y56887944D01*
X259471321Y56924158D01*
X259530706Y56972894D01*
X259542921Y56987778D01*
X265552228Y62997084D01*
X265567106Y63009294D01*
X265615842Y63068679D01*
X265652056Y63136431D01*
X265674357Y63209947D01*
X265680000Y63267241D01*
X265681887Y63286400D01*
X265680000Y63305559D01*
X265680000Y72508597D01*
X265940000Y72508597D01*
X265996850Y72514196D01*
X266051515Y72530779D01*
X266101895Y72557707D01*
X266146053Y72593947D01*
X266182293Y72638105D01*
X266209221Y72688485D01*
X266225804Y72743150D01*
X266231403Y72800000D01*
X266231403Y72910000D01*
X266348597Y72910000D01*
X266348597Y72800000D01*
X266354196Y72743150D01*
X266370779Y72688485D01*
X266397707Y72638105D01*
X266433947Y72593947D01*
X266478105Y72557707D01*
X266528485Y72530779D01*
X266583150Y72514196D01*
X266640000Y72508597D01*
X267940000Y72508597D01*
X267996850Y72514196D01*
X268051515Y72530779D01*
X268101895Y72557707D01*
X268146053Y72593947D01*
X268182293Y72638105D01*
X268209221Y72688485D01*
X268225804Y72743150D01*
X268231403Y72800000D01*
X268231403Y72910000D01*
X268348597Y72910000D01*
X268348597Y72800000D01*
X268354196Y72743150D01*
X268370779Y72688485D01*
X268397707Y72638105D01*
X268433947Y72593947D01*
X268478105Y72557707D01*
X268528485Y72530779D01*
X268583150Y72514196D01*
X268640000Y72508597D01*
X269940000Y72508597D01*
X269996850Y72514196D01*
X270051515Y72530779D01*
X270101895Y72557707D01*
X270146053Y72593947D01*
X270182293Y72638105D01*
X270209221Y72688485D01*
X270225804Y72743150D01*
X270231403Y72800000D01*
X270231403Y73800000D01*
X270225804Y73856850D01*
X270209221Y73911515D01*
X270182293Y73961895D01*
X270146053Y74006053D01*
X270101895Y74042293D01*
X270051515Y74069221D01*
X269996850Y74085804D01*
X269940000Y74091403D01*
X268640000Y74091403D01*
X268583150Y74085804D01*
X268528485Y74069221D01*
X268478105Y74042293D01*
X268433947Y74006053D01*
X268397707Y73961895D01*
X268370779Y73911515D01*
X268354196Y73856850D01*
X268348597Y73800000D01*
X268348597Y73690000D01*
X268231403Y73690000D01*
X268231403Y73800000D01*
X268225804Y73856850D01*
X268209221Y73911515D01*
X268182293Y73961895D01*
X268146053Y74006053D01*
X268101895Y74042293D01*
X268051515Y74069221D01*
X267996850Y74085804D01*
X267940000Y74091403D01*
X266640000Y74091403D01*
X266583150Y74085804D01*
X266528485Y74069221D01*
X266478105Y74042293D01*
X266433947Y74006053D01*
X266397707Y73961895D01*
X266370779Y73911515D01*
X266354196Y73856850D01*
X266348597Y73800000D01*
X266348597Y73690000D01*
X266231403Y73690000D01*
X266231403Y73800000D01*
X266225804Y73856850D01*
X266209221Y73911515D01*
X266182293Y73961895D01*
X266146053Y74006053D01*
X266101895Y74042293D01*
X266051515Y74069221D01*
X265996850Y74085804D01*
X265940000Y74091403D01*
X264640000Y74091403D01*
X264583150Y74085804D01*
X264528485Y74069221D01*
X264478105Y74042293D01*
X264433947Y74006053D01*
X264397707Y73961895D01*
X264370779Y73911515D01*
X264354196Y73856850D01*
X264348597Y73800000D01*
X264348597Y72800000D01*
X264354196Y72743150D01*
X264370779Y72688485D01*
X264397707Y72638105D01*
X264433947Y72593947D01*
X264478105Y72557707D01*
X264528485Y72530779D01*
X264583150Y72514196D01*
X264640000Y72508597D01*
X264900000Y72508597D01*
X264900001Y63447945D01*
X259345003Y57892946D01*
X259345003Y58113600D01*
X259339404Y58170450D01*
X259322821Y58225115D01*
X259295893Y58275495D01*
X259259653Y58319653D01*
X259215495Y58355893D01*
X259165115Y58382821D01*
X259110450Y58399404D01*
X259053600Y58405003D01*
X257326400Y58405003D01*
X257269550Y58399404D01*
X257214885Y58382821D01*
X257164505Y58355893D01*
X257120347Y58319653D01*
X257084107Y58275495D01*
X257057179Y58225115D01*
X257040596Y58170450D01*
X257034997Y58113600D01*
X256410550Y58113600D01*
X256386469Y58137932D01*
X256199091Y58264549D01*
X255990612Y58352177D01*
X255814000Y58319391D01*
X255486000Y58319391D01*
X255309388Y58352177D01*
X255100909Y58264549D01*
X254913531Y58137932D01*
X254876399Y58100412D01*
X254876399Y69134856D01*
X258052222Y72310679D01*
X258067106Y72322894D01*
X258115842Y72382279D01*
X258152056Y72450031D01*
X258169822Y72508597D01*
X258440000Y72508597D01*
X258496850Y72514196D01*
X258551515Y72530779D01*
X258601895Y72557707D01*
X258646053Y72593947D01*
X258682293Y72638105D01*
X258709221Y72688485D01*
X258725804Y72743150D01*
X258731403Y72800000D01*
X258731403Y72910000D01*
X258848597Y72910000D01*
X258848597Y72800000D01*
X258854196Y72743150D01*
X258870779Y72688485D01*
X258897707Y72638105D01*
X258933947Y72593947D01*
X258978105Y72557707D01*
X259028485Y72530779D01*
X259083150Y72514196D01*
X259140000Y72508597D01*
X260440000Y72508597D01*
X260496850Y72514196D01*
X260551515Y72530779D01*
X260601895Y72557707D01*
X260646053Y72593947D01*
X260682293Y72638105D01*
X260709221Y72688485D01*
X260725804Y72743150D01*
X260731403Y72800000D01*
X260731403Y72910000D01*
X260848597Y72910000D01*
X260848597Y72800000D01*
X260854196Y72743150D01*
X260870779Y72688485D01*
X260897707Y72638105D01*
X260933947Y72593947D01*
X260978105Y72557707D01*
X261028485Y72530779D01*
X261083150Y72514196D01*
X261140000Y72508597D01*
X262440000Y72508597D01*
X262496850Y72514196D01*
X262551515Y72530779D01*
X262601895Y72557707D01*
X262646053Y72593947D01*
X262682293Y72638105D01*
X262709221Y72688485D01*
X262725804Y72743150D01*
X262731403Y72800000D01*
X262731403Y73800000D01*
X262725804Y73856850D01*
X262709221Y73911515D01*
X262682293Y73961895D01*
X262646053Y74006053D01*
X262601895Y74042293D01*
X262551515Y74069221D01*
X262496850Y74085804D01*
X262440000Y74091403D01*
X261140000Y74091403D01*
X261083150Y74085804D01*
X261028485Y74069221D01*
X260978105Y74042293D01*
X260933947Y74006053D01*
X260897707Y73961895D01*
X260870779Y73911515D01*
X260854196Y73856850D01*
X260848597Y73800000D01*
X260848597Y73690000D01*
X260731403Y73690000D01*
X260731403Y73800000D01*
X260725804Y73856850D01*
X260709221Y73911515D01*
X260682293Y73961895D01*
X260646053Y74006053D01*
X260601895Y74042293D01*
X260551515Y74069221D01*
X260496850Y74085804D01*
X260440000Y74091403D01*
X259140000Y74091403D01*
X259083150Y74085804D01*
X259028485Y74069221D01*
X258978105Y74042293D01*
X258933947Y74006053D01*
X258897707Y73961895D01*
X258870779Y73911515D01*
X258854196Y73856850D01*
X258848597Y73800000D01*
X258848597Y73690000D01*
X258731403Y73690000D01*
X258731403Y73800000D01*
X258725804Y73856850D01*
X258709221Y73911515D01*
X258682293Y73961895D01*
X258646053Y74006053D01*
X258601895Y74042293D01*
X258551515Y74069221D01*
X258496850Y74085804D01*
X258440000Y74091403D01*
X257140000Y74091403D01*
X257083150Y74085804D01*
X257028485Y74069221D01*
X256978105Y74042293D01*
X256933947Y74006053D01*
X256897707Y73961895D01*
X256870779Y73911515D01*
X256854196Y73856850D01*
X256848597Y73800000D01*
X256848597Y72800000D01*
X256854196Y72743150D01*
X256870779Y72688485D01*
X256897707Y72638105D01*
X256933947Y72593947D01*
X256978105Y72557707D01*
X257028485Y72530779D01*
X257083150Y72514196D01*
X257140000Y72508597D01*
X257147054Y72508597D01*
X254224177Y69585720D01*
X254209293Y69573505D01*
X254197080Y69558623D01*
X254160558Y69514120D01*
X254124343Y69446367D01*
X254102042Y69372852D01*
X254094512Y69296399D01*
X254096399Y69277240D01*
X254096400Y57839676D01*
X254005545Y57977193D01*
X253846469Y58137932D01*
X253659091Y58264549D01*
X253450612Y58352177D01*
X253274000Y58319391D01*
X252946000Y58319391D01*
X252769388Y58352177D01*
X252560909Y58264549D01*
X252373531Y58137932D01*
X252214455Y57977193D01*
X252089794Y57788508D01*
X252007831Y57590611D01*
X251672186Y57590611D01*
X251640944Y57693599D01*
X251612049Y57747657D01*
X251615842Y57752279D01*
X251652056Y57820031D01*
X251674357Y57893547D01*
X251680000Y57950841D01*
X251681887Y57970000D01*
X251680000Y57989159D01*
X251680000Y72508597D01*
X251940000Y72508597D01*
X251996850Y72514196D01*
X252051515Y72530779D01*
X252101895Y72557707D01*
X252146053Y72593947D01*
X252182293Y72638105D01*
X252209221Y72688485D01*
X252225804Y72743150D01*
X252231403Y72800000D01*
X252231403Y72910000D01*
X252348597Y72910000D01*
X252348597Y72800000D01*
X252354196Y72743150D01*
X252370779Y72688485D01*
X252397707Y72638105D01*
X252433947Y72593947D01*
X252478105Y72557707D01*
X252528485Y72530779D01*
X252583150Y72514196D01*
X252640000Y72508597D01*
X253940000Y72508597D01*
X253996850Y72514196D01*
X254051515Y72530779D01*
X254101895Y72557707D01*
X254146053Y72593947D01*
X254182293Y72638105D01*
X254209221Y72688485D01*
X254225804Y72743150D01*
X254231403Y72800000D01*
X254231403Y72910000D01*
X254348597Y72910000D01*
X254348597Y72800000D01*
X254354196Y72743150D01*
X254370779Y72688485D01*
X254397707Y72638105D01*
X254433947Y72593947D01*
X254478105Y72557707D01*
X254528485Y72530779D01*
X254583150Y72514196D01*
X254640000Y72508597D01*
X255940000Y72508597D01*
X255996850Y72514196D01*
X256051515Y72530779D01*
X256101895Y72557707D01*
X256146053Y72593947D01*
X256182293Y72638105D01*
X256209221Y72688485D01*
X256225804Y72743150D01*
X256231403Y72800000D01*
X256231403Y73800000D01*
X256225804Y73856850D01*
X256209221Y73911515D01*
X256182293Y73961895D01*
X256146053Y74006053D01*
X256101895Y74042293D01*
X256051515Y74069221D01*
X255996850Y74085804D01*
X255940000Y74091403D01*
X254640000Y74091403D01*
X254583150Y74085804D01*
X254528485Y74069221D01*
X254478105Y74042293D01*
X254433947Y74006053D01*
X254397707Y73961895D01*
X254370779Y73911515D01*
X254354196Y73856850D01*
X254348597Y73800000D01*
X254348597Y73690000D01*
X254231403Y73690000D01*
X254231403Y73800000D01*
X254225804Y73856850D01*
X254209221Y73911515D01*
X254182293Y73961895D01*
X254146053Y74006053D01*
X254101895Y74042293D01*
X254051515Y74069221D01*
X253996850Y74085804D01*
X253940000Y74091403D01*
X252640000Y74091403D01*
X252583150Y74085804D01*
X252528485Y74069221D01*
X252478105Y74042293D01*
X252433947Y74006053D01*
X252397707Y73961895D01*
X252370779Y73911515D01*
X252354196Y73856850D01*
X252348597Y73800000D01*
X252348597Y73690000D01*
X252231403Y73690000D01*
X252231403Y73800000D01*
X252225804Y73856850D01*
X252209221Y73911515D01*
X252182293Y73961895D01*
X252146053Y74006053D01*
X252101895Y74042293D01*
X252051515Y74069221D01*
X251996850Y74085804D01*
X251940000Y74091403D01*
X250640000Y74091403D01*
X250583150Y74085804D01*
X250528485Y74069221D01*
X250478105Y74042293D01*
X250433947Y74006053D01*
X250397707Y73961895D01*
X250370779Y73911515D01*
X250354196Y73856850D01*
X250348597Y73800000D01*
X250348597Y72800000D01*
X250354196Y72743150D01*
X250370779Y72688485D01*
X250397707Y72638105D01*
X250433947Y72593947D01*
X250478105Y72557707D01*
X250528485Y72530779D01*
X250583150Y72514196D01*
X250640000Y72508597D01*
X250900000Y72508597D01*
X250900001Y58619660D01*
X250895842Y58627441D01*
X250847106Y58686826D01*
X250787721Y58735562D01*
X250719969Y58771776D01*
X250646453Y58794077D01*
X250570000Y58801607D01*
X250493548Y58794077D01*
X250420032Y58771776D01*
X250352280Y58735562D01*
X250292895Y58686826D01*
X250244159Y58627441D01*
X250207945Y58559689D01*
X250185644Y58486173D01*
X250180001Y58428879D01*
X250180001Y58337203D01*
X250126401Y58320944D01*
X249925994Y58213824D01*
X249750335Y58069665D01*
X249606176Y57894006D01*
X249583601Y57851771D01*
X249583601Y72027240D01*
X249585488Y72046399D01*
X249577958Y72122852D01*
X249555657Y72196367D01*
X249555657Y72196368D01*
X249519443Y72264120D01*
X249470707Y72323505D01*
X249455824Y72335719D01*
X248731403Y73060140D01*
X248731403Y73800000D01*
X248725804Y73856850D01*
X248709221Y73911515D01*
X248682293Y73961895D01*
X248646053Y74006053D01*
X248601895Y74042293D01*
X248551515Y74069221D01*
X248496850Y74085804D01*
X248440000Y74091403D01*
X247140000Y74091403D01*
X247083150Y74085804D01*
X247028485Y74069221D01*
X246978105Y74042293D01*
X246933947Y74006053D01*
X246897707Y73961895D01*
X246870779Y73911515D01*
X246854196Y73856850D01*
X246848597Y73800000D01*
X246848597Y73690000D01*
X246731403Y73690000D01*
X246731403Y73800000D01*
X246725804Y73856850D01*
X246709221Y73911515D01*
X246682293Y73961895D01*
X246646053Y74006053D01*
X246601895Y74042293D01*
X246551515Y74069221D01*
X246496850Y74085804D01*
X246440000Y74091403D01*
X245140000Y74091403D01*
X245083150Y74085804D01*
X245028485Y74069221D01*
X244978105Y74042293D01*
X244933947Y74006053D01*
X244897707Y73961895D01*
X244870779Y73911515D01*
X244854196Y73856850D01*
X244848597Y73800000D01*
X244848597Y73690000D01*
X244731403Y73690000D01*
X244731403Y73800000D01*
X244725804Y73856850D01*
X244709221Y73911515D01*
X244682293Y73961895D01*
X244646053Y74006053D01*
X244601895Y74042293D01*
X244551515Y74069221D01*
X244496850Y74085804D01*
X244440000Y74091403D01*
X243140000Y74091403D01*
X243083150Y74085804D01*
X243028485Y74069221D01*
X242978105Y74042293D01*
X242933947Y74006053D01*
X242897707Y73961895D01*
X242870779Y73911515D01*
X242854196Y73856850D01*
X242848597Y73800000D01*
X242231403Y73800000D01*
X242225804Y73856850D01*
X242209221Y73911515D01*
X242182293Y73961895D01*
X242146053Y74006053D01*
X242101895Y74042293D01*
X242051515Y74069221D01*
X241996850Y74085804D01*
X241940000Y74091403D01*
X240640000Y74091403D01*
X240583150Y74085804D01*
X240528485Y74069221D01*
X240478105Y74042293D01*
X240433947Y74006053D01*
X240397707Y73961895D01*
X240370779Y73911515D01*
X240354196Y73856850D01*
X240348597Y73800000D01*
X240348597Y73690000D01*
X240231403Y73690000D01*
X240231403Y73800000D01*
X240225804Y73856850D01*
X240209221Y73911515D01*
X240182293Y73961895D01*
X240146053Y74006053D01*
X240101895Y74042293D01*
X240051515Y74069221D01*
X239996850Y74085804D01*
X239940000Y74091403D01*
X238640000Y74091403D01*
X238583150Y74085804D01*
X238528485Y74069221D01*
X238478105Y74042293D01*
X238433947Y74006053D01*
X238397707Y73961895D01*
X238370779Y73911515D01*
X238354196Y73856850D01*
X238348597Y73800000D01*
X238348597Y73690000D01*
X238231403Y73690000D01*
X238231403Y73800000D01*
X238225804Y73856850D01*
X238209221Y73911515D01*
X238182293Y73961895D01*
X238146053Y74006053D01*
X238101895Y74042293D01*
X238051515Y74069221D01*
X237996850Y74085804D01*
X237940000Y74091403D01*
X236640000Y74091403D01*
X236583150Y74085804D01*
X236528485Y74069221D01*
X236478105Y74042293D01*
X236433947Y74006053D01*
X236397707Y73961895D01*
X236370779Y73911515D01*
X236354196Y73856850D01*
X236348597Y73800000D01*
X234731403Y73800000D01*
X234725804Y73856850D01*
X234709221Y73911515D01*
X234682293Y73961895D01*
X234646053Y74006053D01*
X234601895Y74042293D01*
X234551515Y74069221D01*
X234496850Y74085804D01*
X234440000Y74091403D01*
X233140000Y74091403D01*
X233083150Y74085804D01*
X233028485Y74069221D01*
X232978105Y74042293D01*
X232933947Y74006053D01*
X232897707Y73961895D01*
X232870779Y73911515D01*
X232854196Y73856850D01*
X232848597Y73800000D01*
X232848597Y73690000D01*
X232731403Y73690000D01*
X232731403Y73800000D01*
X232725804Y73856850D01*
X232709221Y73911515D01*
X232682293Y73961895D01*
X232646053Y74006053D01*
X232601895Y74042293D01*
X232551515Y74069221D01*
X232496850Y74085804D01*
X232440000Y74091403D01*
X231140000Y74091403D01*
X231083150Y74085804D01*
X231028485Y74069221D01*
X230978105Y74042293D01*
X230933947Y74006053D01*
X230897707Y73961895D01*
X230870779Y73911515D01*
X230854196Y73856850D01*
X230848597Y73800000D01*
X230848597Y73690000D01*
X230731403Y73690000D01*
X230731403Y73800000D01*
X230725804Y73856850D01*
X230709221Y73911515D01*
X230682293Y73961895D01*
X230646053Y74006053D01*
X230601895Y74042293D01*
X230551515Y74069221D01*
X230496850Y74085804D01*
X230440000Y74091403D01*
X229140000Y74091403D01*
X229083150Y74085804D01*
X229028485Y74069221D01*
X228978105Y74042293D01*
X228933947Y74006053D01*
X228897707Y73961895D01*
X228870779Y73911515D01*
X228854196Y73856850D01*
X228848597Y73800000D01*
X228231403Y73800000D01*
X228225804Y73856850D01*
X228209221Y73911515D01*
X228182293Y73961895D01*
X228146053Y74006053D01*
X228101895Y74042293D01*
X228051515Y74069221D01*
X227996850Y74085804D01*
X227940000Y74091403D01*
X226640000Y74091403D01*
X226583150Y74085804D01*
X226528485Y74069221D01*
X226478105Y74042293D01*
X226433947Y74006053D01*
X226397707Y73961895D01*
X226370779Y73911515D01*
X226354196Y73856850D01*
X226348597Y73800000D01*
X226348597Y73690000D01*
X226231403Y73690000D01*
X226231403Y73800000D01*
X226225804Y73856850D01*
X226209221Y73911515D01*
X226182293Y73961895D01*
X226146053Y74006053D01*
X226101895Y74042293D01*
X226051515Y74069221D01*
X225996850Y74085804D01*
X225940000Y74091403D01*
X224640000Y74091403D01*
X224583150Y74085804D01*
X224528485Y74069221D01*
X224478105Y74042293D01*
X224433947Y74006053D01*
X224397707Y73961895D01*
X224370779Y73911515D01*
X224354196Y73856850D01*
X224348597Y73800000D01*
X224348597Y73690000D01*
X224231403Y73690000D01*
X224231403Y73800000D01*
X224225804Y73856850D01*
X224209221Y73911515D01*
X224182293Y73961895D01*
X224146053Y74006053D01*
X224101895Y74042293D01*
X224051515Y74069221D01*
X223996850Y74085804D01*
X223940000Y74091403D01*
X222640000Y74091403D01*
X222583150Y74085804D01*
X222528485Y74069221D01*
X222478105Y74042293D01*
X222433947Y74006053D01*
X222397707Y73961895D01*
X222370779Y73911515D01*
X222354196Y73856850D01*
X222348597Y73800000D01*
X220731403Y73800000D01*
X220725804Y73856850D01*
X220709221Y73911515D01*
X220682293Y73961895D01*
X220646053Y74006053D01*
X220601895Y74042293D01*
X220551515Y74069221D01*
X220496850Y74085804D01*
X220440000Y74091403D01*
X219140000Y74091403D01*
X219083150Y74085804D01*
X219028485Y74069221D01*
X218978105Y74042293D01*
X218933947Y74006053D01*
X218897707Y73961895D01*
X218870779Y73911515D01*
X218854196Y73856850D01*
X218848597Y73800000D01*
X218848597Y73690000D01*
X218731403Y73690000D01*
X218731403Y73800000D01*
X218725804Y73856850D01*
X218709221Y73911515D01*
X218682293Y73961895D01*
X218646053Y74006053D01*
X218601895Y74042293D01*
X218551515Y74069221D01*
X218496850Y74085804D01*
X218440000Y74091403D01*
X217140000Y74091403D01*
X217083150Y74085804D01*
X217028485Y74069221D01*
X216978105Y74042293D01*
X216933947Y74006053D01*
X216897707Y73961895D01*
X216870779Y73911515D01*
X216854196Y73856850D01*
X216848597Y73800000D01*
X216848597Y73690000D01*
X216731403Y73690000D01*
X216731403Y73800000D01*
X216725804Y73856850D01*
X216709221Y73911515D01*
X216682293Y73961895D01*
X216646053Y74006053D01*
X216601895Y74042293D01*
X216551515Y74069221D01*
X216496850Y74085804D01*
X216440000Y74091403D01*
X215140000Y74091403D01*
X215083150Y74085804D01*
X215028485Y74069221D01*
X214978105Y74042293D01*
X214933947Y74006053D01*
X214897707Y73961895D01*
X214870779Y73911515D01*
X214854196Y73856850D01*
X214848597Y73800000D01*
X201365000Y73800000D01*
X201365000Y77656601D01*
X218250000Y77656601D01*
X218250000Y77343399D01*
X218311103Y77036214D01*
X218430961Y76746853D01*
X218604967Y76486434D01*
X218826434Y76264967D01*
X219086853Y76090961D01*
X219376214Y75971103D01*
X219400000Y75966372D01*
X219400000Y75891403D01*
X219140000Y75891403D01*
X219083150Y75885804D01*
X219028485Y75869221D01*
X218978105Y75842293D01*
X218933947Y75806053D01*
X218897707Y75761895D01*
X218870779Y75711515D01*
X218854196Y75656850D01*
X218848597Y75600000D01*
X218848597Y74600000D01*
X218854196Y74543150D01*
X218870779Y74488485D01*
X218897707Y74438105D01*
X218933947Y74393947D01*
X218978105Y74357707D01*
X219028485Y74330779D01*
X219083150Y74314196D01*
X219140000Y74308597D01*
X220440000Y74308597D01*
X220496850Y74314196D01*
X220551515Y74330779D01*
X220601895Y74357707D01*
X220646053Y74393947D01*
X220682293Y74438105D01*
X220709221Y74488485D01*
X220725804Y74543150D01*
X220731403Y74600000D01*
X220731403Y75600000D01*
X220725804Y75656850D01*
X220709221Y75711515D01*
X220682293Y75761895D01*
X220646053Y75806053D01*
X220601895Y75842293D01*
X220551515Y75869221D01*
X220496850Y75885804D01*
X220440000Y75891403D01*
X220180000Y75891403D01*
X220180000Y75946480D01*
X220303786Y75971103D01*
X220593147Y76090961D01*
X220853566Y76264967D01*
X221075033Y76486434D01*
X221249039Y76746853D01*
X221368897Y77036214D01*
X221430000Y77343399D01*
X221430000Y77656601D01*
X225750000Y77656601D01*
X225750000Y77343399D01*
X225811103Y77036214D01*
X225930961Y76746853D01*
X226104967Y76486434D01*
X226326434Y76264967D01*
X226586853Y76090961D01*
X226876214Y75971103D01*
X226950001Y75956426D01*
X226950001Y75891403D01*
X226640000Y75891403D01*
X226583150Y75885804D01*
X226528485Y75869221D01*
X226478105Y75842293D01*
X226433947Y75806053D01*
X226397707Y75761895D01*
X226370779Y75711515D01*
X226354196Y75656850D01*
X226348597Y75600000D01*
X226348597Y74600000D01*
X226354196Y74543150D01*
X226370779Y74488485D01*
X226397707Y74438105D01*
X226433947Y74393947D01*
X226478105Y74357707D01*
X226528485Y74330779D01*
X226583150Y74314196D01*
X226640000Y74308597D01*
X227940000Y74308597D01*
X227996850Y74314196D01*
X228051515Y74330779D01*
X228101895Y74357707D01*
X228146053Y74393947D01*
X228182293Y74438105D01*
X228209221Y74488485D01*
X228225804Y74543150D01*
X228231403Y74600000D01*
X228231403Y75600000D01*
X228225804Y75656850D01*
X228209221Y75711515D01*
X228182293Y75761895D01*
X228146053Y75806053D01*
X228101895Y75842293D01*
X228051515Y75869221D01*
X227996850Y75885804D01*
X227940000Y75891403D01*
X227730000Y75891403D01*
X227730000Y75956426D01*
X227803786Y75971103D01*
X228093147Y76090961D01*
X228353566Y76264967D01*
X228575033Y76486434D01*
X228749039Y76746853D01*
X228868897Y77036214D01*
X228930000Y77343399D01*
X228930000Y77656601D01*
X232250000Y77656601D01*
X232250000Y77343399D01*
X232311103Y77036214D01*
X232430961Y76746853D01*
X232604967Y76486434D01*
X232826434Y76264967D01*
X233086853Y76090961D01*
X233376214Y75971103D01*
X233450001Y75956426D01*
X233450001Y75891403D01*
X233140000Y75891403D01*
X233083150Y75885804D01*
X233028485Y75869221D01*
X232978105Y75842293D01*
X232933947Y75806053D01*
X232897707Y75761895D01*
X232870779Y75711515D01*
X232854196Y75656850D01*
X232848597Y75600000D01*
X232848597Y74600000D01*
X232854196Y74543150D01*
X232870779Y74488485D01*
X232897707Y74438105D01*
X232933947Y74393947D01*
X232978105Y74357707D01*
X233028485Y74330779D01*
X233083150Y74314196D01*
X233140000Y74308597D01*
X234440000Y74308597D01*
X234496850Y74314196D01*
X234551515Y74330779D01*
X234601895Y74357707D01*
X234646053Y74393947D01*
X234682293Y74438105D01*
X234709221Y74488485D01*
X234725804Y74543150D01*
X234731403Y74600000D01*
X234731403Y75600000D01*
X234725804Y75656850D01*
X234709221Y75711515D01*
X234682293Y75761895D01*
X234646053Y75806053D01*
X234601895Y75842293D01*
X234551515Y75869221D01*
X234496850Y75885804D01*
X234440000Y75891403D01*
X234230000Y75891403D01*
X234230000Y75956426D01*
X234303786Y75971103D01*
X234593147Y76090961D01*
X234853566Y76264967D01*
X235075033Y76486434D01*
X235249039Y76746853D01*
X235368897Y77036214D01*
X235430000Y77343399D01*
X235430000Y77656601D01*
X239750000Y77656601D01*
X239750000Y77343399D01*
X239811103Y77036214D01*
X239930961Y76746853D01*
X240104967Y76486434D01*
X240326434Y76264967D01*
X240586853Y76090961D01*
X240876214Y75971103D01*
X240950001Y75956426D01*
X240950001Y75891403D01*
X240640000Y75891403D01*
X240583150Y75885804D01*
X240528485Y75869221D01*
X240478105Y75842293D01*
X240433947Y75806053D01*
X240397707Y75761895D01*
X240370779Y75711515D01*
X240354196Y75656850D01*
X240348597Y75600000D01*
X240348597Y74600000D01*
X240354196Y74543150D01*
X240370779Y74488485D01*
X240397707Y74438105D01*
X240433947Y74393947D01*
X240478105Y74357707D01*
X240528485Y74330779D01*
X240583150Y74314196D01*
X240640000Y74308597D01*
X241940000Y74308597D01*
X241996850Y74314196D01*
X242051515Y74330779D01*
X242101895Y74357707D01*
X242146053Y74393947D01*
X242182293Y74438105D01*
X242209221Y74488485D01*
X242225804Y74543150D01*
X242231403Y74600000D01*
X242231403Y75600000D01*
X242225804Y75656850D01*
X242209221Y75711515D01*
X242182293Y75761895D01*
X242146053Y75806053D01*
X242101895Y75842293D01*
X242051515Y75869221D01*
X241996850Y75885804D01*
X241940000Y75891403D01*
X241730000Y75891403D01*
X241730000Y75956426D01*
X241803786Y75971103D01*
X242093147Y76090961D01*
X242353566Y76264967D01*
X242575033Y76486434D01*
X242749039Y76746853D01*
X242868897Y77036214D01*
X242930000Y77343399D01*
X242930000Y77656601D01*
X246250000Y77656601D01*
X246250000Y77343399D01*
X246311103Y77036214D01*
X246430961Y76746853D01*
X246604967Y76486434D01*
X246826434Y76264967D01*
X247086853Y76090961D01*
X247376214Y75971103D01*
X247450001Y75956426D01*
X247450001Y75891403D01*
X247140000Y75891403D01*
X247083150Y75885804D01*
X247028485Y75869221D01*
X246978105Y75842293D01*
X246933947Y75806053D01*
X246897707Y75761895D01*
X246870779Y75711515D01*
X246854196Y75656850D01*
X246848597Y75600000D01*
X246848597Y74600000D01*
X246854196Y74543150D01*
X246870779Y74488485D01*
X246897707Y74438105D01*
X246933947Y74393947D01*
X246978105Y74357707D01*
X247028485Y74330779D01*
X247083150Y74314196D01*
X247140000Y74308597D01*
X248440000Y74308597D01*
X248496850Y74314196D01*
X248551515Y74330779D01*
X248601895Y74357707D01*
X248646053Y74393947D01*
X248682293Y74438105D01*
X248709221Y74488485D01*
X248725804Y74543150D01*
X248731403Y74600000D01*
X248731403Y75600000D01*
X248725804Y75656850D01*
X248709221Y75711515D01*
X248682293Y75761895D01*
X248646053Y75806053D01*
X248601895Y75842293D01*
X248551515Y75869221D01*
X248496850Y75885804D01*
X248440000Y75891403D01*
X248230000Y75891403D01*
X248230000Y75956426D01*
X248303786Y75971103D01*
X248593147Y76090961D01*
X248853566Y76264967D01*
X249075033Y76486434D01*
X249249039Y76746853D01*
X249368897Y77036214D01*
X249430000Y77343399D01*
X249430000Y77656601D01*
X253750000Y77656601D01*
X253750000Y77343399D01*
X253811103Y77036214D01*
X253930961Y76746853D01*
X254104967Y76486434D01*
X254326434Y76264967D01*
X254586853Y76090961D01*
X254876214Y75971103D01*
X254950001Y75956426D01*
X254950001Y75891403D01*
X254640000Y75891403D01*
X254583150Y75885804D01*
X254528485Y75869221D01*
X254478105Y75842293D01*
X254433947Y75806053D01*
X254397707Y75761895D01*
X254370779Y75711515D01*
X254354196Y75656850D01*
X254348597Y75600000D01*
X254348597Y74600000D01*
X254354196Y74543150D01*
X254370779Y74488485D01*
X254397707Y74438105D01*
X254433947Y74393947D01*
X254478105Y74357707D01*
X254528485Y74330779D01*
X254583150Y74314196D01*
X254640000Y74308597D01*
X255940000Y74308597D01*
X255996850Y74314196D01*
X256051515Y74330779D01*
X256101895Y74357707D01*
X256146053Y74393947D01*
X256182293Y74438105D01*
X256209221Y74488485D01*
X256225804Y74543150D01*
X256231403Y74600000D01*
X256231403Y75600000D01*
X256225804Y75656850D01*
X256209221Y75711515D01*
X256182293Y75761895D01*
X256146053Y75806053D01*
X256101895Y75842293D01*
X256051515Y75869221D01*
X255996850Y75885804D01*
X255940000Y75891403D01*
X255730000Y75891403D01*
X255730000Y75956426D01*
X255803786Y75971103D01*
X256093147Y76090961D01*
X256353566Y76264967D01*
X256575033Y76486434D01*
X256749039Y76746853D01*
X256868897Y77036214D01*
X256930000Y77343399D01*
X256930000Y77656601D01*
X260250000Y77656601D01*
X260250000Y77343399D01*
X260311103Y77036214D01*
X260430961Y76746853D01*
X260604967Y76486434D01*
X260826434Y76264967D01*
X261086853Y76090961D01*
X261376214Y75971103D01*
X261450001Y75956426D01*
X261450001Y75891403D01*
X261140000Y75891403D01*
X261083150Y75885804D01*
X261028485Y75869221D01*
X260978105Y75842293D01*
X260933947Y75806053D01*
X260897707Y75761895D01*
X260870779Y75711515D01*
X260854196Y75656850D01*
X260848597Y75600000D01*
X260848597Y74600000D01*
X260854196Y74543150D01*
X260870779Y74488485D01*
X260897707Y74438105D01*
X260933947Y74393947D01*
X260978105Y74357707D01*
X261028485Y74330779D01*
X261083150Y74314196D01*
X261140000Y74308597D01*
X262440000Y74308597D01*
X262496850Y74314196D01*
X262551515Y74330779D01*
X262601895Y74357707D01*
X262646053Y74393947D01*
X262682293Y74438105D01*
X262709221Y74488485D01*
X262725804Y74543150D01*
X262731403Y74600000D01*
X262731403Y75600000D01*
X262725804Y75656850D01*
X262709221Y75711515D01*
X262682293Y75761895D01*
X262646053Y75806053D01*
X262601895Y75842293D01*
X262551515Y75869221D01*
X262496850Y75885804D01*
X262440000Y75891403D01*
X262230000Y75891403D01*
X262230000Y75956426D01*
X262303786Y75971103D01*
X262593147Y76090961D01*
X262853566Y76264967D01*
X263075033Y76486434D01*
X263249039Y76746853D01*
X263368897Y77036214D01*
X263430000Y77343399D01*
X263430000Y77656601D01*
X267750000Y77656601D01*
X267750000Y77343399D01*
X267811103Y77036214D01*
X267930961Y76746853D01*
X268104967Y76486434D01*
X268326434Y76264967D01*
X268586853Y76090961D01*
X268876214Y75971103D01*
X268950001Y75956426D01*
X268950001Y75891403D01*
X268640000Y75891403D01*
X268583150Y75885804D01*
X268528485Y75869221D01*
X268478105Y75842293D01*
X268433947Y75806053D01*
X268397707Y75761895D01*
X268370779Y75711515D01*
X268354196Y75656850D01*
X268348597Y75600000D01*
X268348597Y74600000D01*
X268354196Y74543150D01*
X268370779Y74488485D01*
X268397707Y74438105D01*
X268433947Y74393947D01*
X268478105Y74357707D01*
X268528485Y74330779D01*
X268583150Y74314196D01*
X268640000Y74308597D01*
X269940000Y74308597D01*
X269996850Y74314196D01*
X270051515Y74330779D01*
X270101895Y74357707D01*
X270146053Y74393947D01*
X270182293Y74438105D01*
X270209221Y74488485D01*
X270225804Y74543150D01*
X270231403Y74600000D01*
X270231403Y75600000D01*
X270225804Y75656850D01*
X270209221Y75711515D01*
X270182293Y75761895D01*
X270146053Y75806053D01*
X270101895Y75842293D01*
X270051515Y75869221D01*
X269996850Y75885804D01*
X269940000Y75891403D01*
X269730000Y75891403D01*
X269730000Y75956426D01*
X269803786Y75971103D01*
X270093147Y76090961D01*
X270353566Y76264967D01*
X270575033Y76486434D01*
X270749039Y76746853D01*
X270868897Y77036214D01*
X270930000Y77343399D01*
X270930000Y77656601D01*
X270868897Y77963786D01*
X270749039Y78253147D01*
X270575033Y78513566D01*
X270353566Y78735033D01*
X270093147Y78909039D01*
X269803786Y79028897D01*
X269496601Y79090000D01*
X269183399Y79090000D01*
X268876214Y79028897D01*
X268586853Y78909039D01*
X268326434Y78735033D01*
X268104967Y78513566D01*
X267930961Y78253147D01*
X267811103Y77963786D01*
X267750000Y77656601D01*
X263430000Y77656601D01*
X263368897Y77963786D01*
X263249039Y78253147D01*
X263075033Y78513566D01*
X262853566Y78735033D01*
X262593147Y78909039D01*
X262303786Y79028897D01*
X261996601Y79090000D01*
X261683399Y79090000D01*
X261376214Y79028897D01*
X261086853Y78909039D01*
X260826434Y78735033D01*
X260604967Y78513566D01*
X260430961Y78253147D01*
X260311103Y77963786D01*
X260250000Y77656601D01*
X256930000Y77656601D01*
X256868897Y77963786D01*
X256749039Y78253147D01*
X256575033Y78513566D01*
X256353566Y78735033D01*
X256093147Y78909039D01*
X255803786Y79028897D01*
X255496601Y79090000D01*
X255183399Y79090000D01*
X254876214Y79028897D01*
X254586853Y78909039D01*
X254326434Y78735033D01*
X254104967Y78513566D01*
X253930961Y78253147D01*
X253811103Y77963786D01*
X253750000Y77656601D01*
X249430000Y77656601D01*
X249368897Y77963786D01*
X249249039Y78253147D01*
X249075033Y78513566D01*
X248853566Y78735033D01*
X248593147Y78909039D01*
X248303786Y79028897D01*
X247996601Y79090000D01*
X247683399Y79090000D01*
X247376214Y79028897D01*
X247086853Y78909039D01*
X246826434Y78735033D01*
X246604967Y78513566D01*
X246430961Y78253147D01*
X246311103Y77963786D01*
X246250000Y77656601D01*
X242930000Y77656601D01*
X242868897Y77963786D01*
X242749039Y78253147D01*
X242575033Y78513566D01*
X242353566Y78735033D01*
X242093147Y78909039D01*
X241803786Y79028897D01*
X241496601Y79090000D01*
X241183399Y79090000D01*
X240876214Y79028897D01*
X240586853Y78909039D01*
X240326434Y78735033D01*
X240104967Y78513566D01*
X239930961Y78253147D01*
X239811103Y77963786D01*
X239750000Y77656601D01*
X235430000Y77656601D01*
X235368897Y77963786D01*
X235249039Y78253147D01*
X235075033Y78513566D01*
X234853566Y78735033D01*
X234593147Y78909039D01*
X234303786Y79028897D01*
X233996601Y79090000D01*
X233683399Y79090000D01*
X233376214Y79028897D01*
X233086853Y78909039D01*
X232826434Y78735033D01*
X232604967Y78513566D01*
X232430961Y78253147D01*
X232311103Y77963786D01*
X232250000Y77656601D01*
X228930000Y77656601D01*
X228868897Y77963786D01*
X228749039Y78253147D01*
X228575033Y78513566D01*
X228353566Y78735033D01*
X228093147Y78909039D01*
X227803786Y79028897D01*
X227496601Y79090000D01*
X227183399Y79090000D01*
X226876214Y79028897D01*
X226586853Y78909039D01*
X226326434Y78735033D01*
X226104967Y78513566D01*
X225930961Y78253147D01*
X225811103Y77963786D01*
X225750000Y77656601D01*
X221430000Y77656601D01*
X221368897Y77963786D01*
X221249039Y78253147D01*
X221075033Y78513566D01*
X220853566Y78735033D01*
X220593147Y78909039D01*
X220303786Y79028897D01*
X219996601Y79090000D01*
X219683399Y79090000D01*
X219376214Y79028897D01*
X219086853Y78909039D01*
X218826434Y78735033D01*
X218604967Y78513566D01*
X218430961Y78253147D01*
X218311103Y77963786D01*
X218250000Y77656601D01*
X201365000Y77656601D01*
X201365000Y79681722D01*
X216050000Y79681722D01*
X216070113Y79477513D01*
X216149594Y79215497D01*
X216278666Y78974022D01*
X216452366Y78762367D01*
X216664021Y78588666D01*
X216905496Y78459594D01*
X217167512Y78380113D01*
X217440000Y78353275D01*
X217712487Y78380113D01*
X217974503Y78459594D01*
X218215978Y78588666D01*
X218427633Y78762366D01*
X218601334Y78974021D01*
X218730406Y79215496D01*
X218809887Y79477512D01*
X218830000Y79681721D01*
X218830000Y81962496D01*
X242300000Y81962496D01*
X242300000Y80537505D01*
X242333135Y80201083D01*
X242464079Y79769416D01*
X242676722Y79371589D01*
X242962891Y79022891D01*
X243311588Y78736722D01*
X243709415Y78524079D01*
X244141082Y78393135D01*
X244590000Y78348920D01*
X245038917Y78393135D01*
X245470584Y78524079D01*
X245868411Y78736722D01*
X246217109Y79022891D01*
X246503278Y79371588D01*
X246669048Y79681722D01*
X270350000Y79681722D01*
X270370113Y79477513D01*
X270449594Y79215497D01*
X270578666Y78974022D01*
X270752366Y78762367D01*
X270964021Y78588666D01*
X271205496Y78459594D01*
X271467512Y78380113D01*
X271740000Y78353275D01*
X272012487Y78380113D01*
X272274503Y78459594D01*
X272515978Y78588666D01*
X272727633Y78762366D01*
X272901334Y78974021D01*
X273030406Y79215496D01*
X273109887Y79477512D01*
X273130000Y79681721D01*
X273130000Y82818279D01*
X273109887Y83022488D01*
X273030406Y83284504D01*
X272901334Y83525979D01*
X272727634Y83737634D01*
X272515979Y83911334D01*
X272274504Y84040406D01*
X272012488Y84119887D01*
X271740000Y84146725D01*
X271467513Y84119887D01*
X271205497Y84040406D01*
X270964022Y83911334D01*
X270752367Y83737634D01*
X270578667Y83525979D01*
X270449595Y83284504D01*
X270370114Y83022488D01*
X270350001Y82818279D01*
X270350000Y79681722D01*
X246669048Y79681722D01*
X246715921Y79769415D01*
X246846865Y80201082D01*
X246880000Y80537504D01*
X246880000Y81962495D01*
X246846865Y82298917D01*
X246715921Y82730584D01*
X246503278Y83128412D01*
X246217109Y83477109D01*
X246113898Y83561813D01*
X246883744Y83561813D01*
X247038539Y83367870D01*
X247323579Y83238070D01*
X247628465Y83166372D01*
X247941480Y83155532D01*
X248250595Y83205967D01*
X248543931Y83315738D01*
X248641461Y83367870D01*
X248796256Y83561813D01*
X260883744Y83561813D01*
X261038539Y83367870D01*
X261323579Y83238070D01*
X261628465Y83166372D01*
X261941480Y83155532D01*
X262250595Y83205967D01*
X262543931Y83315738D01*
X262641461Y83367870D01*
X262796256Y83561813D01*
X261840000Y84518069D01*
X260883744Y83561813D01*
X248796256Y83561813D01*
X247840000Y84518069D01*
X246883744Y83561813D01*
X246113898Y83561813D01*
X245868412Y83763278D01*
X245470585Y83975921D01*
X245038918Y84106865D01*
X244590000Y84151080D01*
X244141083Y84106865D01*
X243709416Y83975921D01*
X243311589Y83763278D01*
X242962892Y83477109D01*
X242676723Y83128412D01*
X242464079Y82730585D01*
X242333135Y82298918D01*
X242300000Y81962496D01*
X218830000Y81962496D01*
X218830000Y82818279D01*
X218809887Y83022488D01*
X218730406Y83284504D01*
X218601334Y83525979D01*
X218571926Y83561813D01*
X218883744Y83561813D01*
X219038539Y83367870D01*
X219323579Y83238070D01*
X219628465Y83166372D01*
X219941480Y83155532D01*
X220250595Y83205967D01*
X220543931Y83315738D01*
X220641461Y83367870D01*
X220796256Y83561813D01*
X232883744Y83561813D01*
X233038539Y83367870D01*
X233323579Y83238070D01*
X233628465Y83166372D01*
X233941480Y83155532D01*
X234250595Y83205967D01*
X234543931Y83315738D01*
X234641461Y83367870D01*
X234796256Y83561813D01*
X233840000Y84518069D01*
X232883744Y83561813D01*
X220796256Y83561813D01*
X219840000Y84518069D01*
X218883744Y83561813D01*
X218571926Y83561813D01*
X218427634Y83737634D01*
X218215979Y83911334D01*
X217974504Y84040406D01*
X217712488Y84119887D01*
X217440000Y84146725D01*
X217167513Y84119887D01*
X216905497Y84040406D01*
X216664022Y83911334D01*
X216452367Y83737634D01*
X216278667Y83525979D01*
X216149595Y83284504D01*
X216070114Y83022488D01*
X216050001Y82818279D01*
X216050000Y79681722D01*
X201365000Y79681722D01*
X201365000Y84144037D01*
X204990000Y84144037D01*
X204990000Y83495963D01*
X205116433Y82860342D01*
X205364440Y82261601D01*
X205724490Y81722747D01*
X206182747Y81264490D01*
X206721601Y80904440D01*
X207320342Y80656433D01*
X207955963Y80530000D01*
X208604037Y80530000D01*
X209239658Y80656433D01*
X209838399Y80904440D01*
X210377253Y81264490D01*
X210835510Y81722747D01*
X211195560Y82261601D01*
X211443567Y82860342D01*
X211570000Y83495963D01*
X211570000Y84144037D01*
X211469652Y84648520D01*
X218245532Y84648520D01*
X218295967Y84339405D01*
X218405738Y84046069D01*
X218457870Y83948539D01*
X218651813Y83793744D01*
X219608069Y84750000D01*
X220071931Y84750000D01*
X221028187Y83793744D01*
X221222130Y83948539D01*
X221351930Y84233579D01*
X221423628Y84538465D01*
X221427439Y84648520D01*
X232245532Y84648520D01*
X232295967Y84339405D01*
X232405738Y84046069D01*
X232457870Y83948539D01*
X232651813Y83793744D01*
X233608069Y84750000D01*
X234071931Y84750000D01*
X235028187Y83793744D01*
X235222130Y83948539D01*
X235351930Y84233579D01*
X235423628Y84538465D01*
X235427439Y84648520D01*
X246245532Y84648520D01*
X246295967Y84339405D01*
X246405738Y84046069D01*
X246457870Y83948539D01*
X246651813Y83793744D01*
X247608069Y84750000D01*
X248071931Y84750000D01*
X249028187Y83793744D01*
X249222130Y83948539D01*
X249351930Y84233579D01*
X249423628Y84538465D01*
X249427439Y84648520D01*
X260245532Y84648520D01*
X260295967Y84339405D01*
X260405738Y84046069D01*
X260457870Y83948539D01*
X260651813Y83793744D01*
X261608069Y84750000D01*
X262071931Y84750000D01*
X263028187Y83793744D01*
X263222130Y83948539D01*
X263351930Y84233579D01*
X263423628Y84538465D01*
X263434468Y84851480D01*
X263384033Y85160595D01*
X263274262Y85453931D01*
X263222130Y85551461D01*
X263028187Y85706256D01*
X262071931Y84750000D01*
X261608069Y84750000D01*
X260651813Y85706256D01*
X260457870Y85551461D01*
X260328070Y85266421D01*
X260256372Y84961535D01*
X260245532Y84648520D01*
X249427439Y84648520D01*
X249434468Y84851480D01*
X249384033Y85160595D01*
X249274262Y85453931D01*
X249222130Y85551461D01*
X249028187Y85706256D01*
X248071931Y84750000D01*
X247608069Y84750000D01*
X246651813Y85706256D01*
X246457870Y85551461D01*
X246328070Y85266421D01*
X246256372Y84961535D01*
X246245532Y84648520D01*
X235427439Y84648520D01*
X235434468Y84851480D01*
X235384033Y85160595D01*
X235274262Y85453931D01*
X235222130Y85551461D01*
X235028187Y85706256D01*
X234071931Y84750000D01*
X233608069Y84750000D01*
X232651813Y85706256D01*
X232457870Y85551461D01*
X232328070Y85266421D01*
X232256372Y84961535D01*
X232245532Y84648520D01*
X221427439Y84648520D01*
X221434468Y84851480D01*
X221384033Y85160595D01*
X221274262Y85453931D01*
X221222130Y85551461D01*
X221028187Y85706256D01*
X220071931Y84750000D01*
X219608069Y84750000D01*
X218651813Y85706256D01*
X218457870Y85551461D01*
X218328070Y85266421D01*
X218256372Y84961535D01*
X218245532Y84648520D01*
X211469652Y84648520D01*
X211443567Y84779658D01*
X211195560Y85378399D01*
X210835510Y85917253D01*
X210814576Y85938187D01*
X218883744Y85938187D01*
X219840000Y84981931D01*
X220796256Y85938187D01*
X232883744Y85938187D01*
X233840000Y84981931D01*
X234796256Y85938187D01*
X246883744Y85938187D01*
X247840000Y84981931D01*
X248796256Y85938187D01*
X260883744Y85938187D01*
X261840000Y84981931D01*
X262796256Y85938187D01*
X262641461Y86132130D01*
X262356421Y86261930D01*
X262051535Y86333628D01*
X261738520Y86344468D01*
X261429405Y86294033D01*
X261136069Y86184262D01*
X261038539Y86132130D01*
X260883744Y85938187D01*
X248796256Y85938187D01*
X248641461Y86132130D01*
X248356421Y86261930D01*
X248051535Y86333628D01*
X247738520Y86344468D01*
X247429405Y86294033D01*
X247136069Y86184262D01*
X247038539Y86132130D01*
X246883744Y85938187D01*
X234796256Y85938187D01*
X234641461Y86132130D01*
X234356421Y86261930D01*
X234051535Y86333628D01*
X233738520Y86344468D01*
X233429405Y86294033D01*
X233136069Y86184262D01*
X233038539Y86132130D01*
X232883744Y85938187D01*
X220796256Y85938187D01*
X220641461Y86132130D01*
X220356421Y86261930D01*
X220051535Y86333628D01*
X219738520Y86344468D01*
X219429405Y86294033D01*
X219136069Y86184262D01*
X219038539Y86132130D01*
X218883744Y85938187D01*
X210814576Y85938187D01*
X210377253Y86375510D01*
X209838399Y86735560D01*
X209239658Y86983567D01*
X208604037Y87110000D01*
X207955963Y87110000D01*
X207320342Y86983567D01*
X206721601Y86735560D01*
X206182747Y86375510D01*
X205724490Y85917253D01*
X205364440Y85378399D01*
X205116433Y84779658D01*
X204990000Y84144037D01*
X201365000Y84144037D01*
X201365000Y89635000D01*
X274910000Y89635000D01*
X274910000Y45365000D01*
X274910000Y45365000D01*
G37*
X274910000Y45365000D02*
X201365000Y45365000D01*
X201365000Y51124037D01*
X204990000Y51124037D01*
X204990000Y50475963D01*
X205116433Y49840342D01*
X205364440Y49241601D01*
X205724490Y48702747D01*
X206182747Y48244490D01*
X206721601Y47884440D01*
X207320342Y47636433D01*
X207955963Y47510000D01*
X208604037Y47510000D01*
X209239658Y47636433D01*
X209838399Y47884440D01*
X210377253Y48244490D01*
X210835510Y48702747D01*
X211195560Y49241601D01*
X211443567Y49840342D01*
X211570000Y50475963D01*
X211570000Y51124037D01*
X211443567Y51759658D01*
X211195560Y52358399D01*
X210835510Y52897253D01*
X210377253Y53355510D01*
X209838399Y53715560D01*
X209239658Y53963567D01*
X208604037Y54090000D01*
X207955963Y54090000D01*
X207320342Y53963567D01*
X206721601Y53715560D01*
X206182747Y53355510D01*
X205724490Y52897253D01*
X205364440Y52358399D01*
X205116433Y51759658D01*
X204990000Y51124037D01*
X201365000Y51124037D01*
X201365000Y54710000D01*
X226550819Y54710000D01*
X226573092Y54483855D01*
X226639056Y54266401D01*
X226746176Y54065994D01*
X226890335Y53890335D01*
X227065994Y53746176D01*
X227266401Y53639056D01*
X227483855Y53573092D01*
X227653334Y53556400D01*
X227766666Y53556400D01*
X227936145Y53573092D01*
X228153599Y53639056D01*
X228354006Y53746176D01*
X228529665Y53890335D01*
X228673824Y54065994D01*
X228780944Y54266401D01*
X228812185Y54369389D01*
X229147831Y54369389D01*
X229229794Y54171492D01*
X229354455Y53982807D01*
X229513531Y53822068D01*
X229700909Y53695451D01*
X229909388Y53607823D01*
X230086000Y53640609D01*
X230086000Y54546000D01*
X230414000Y54546000D01*
X230414000Y53640609D01*
X230590612Y53607823D01*
X230799091Y53695451D01*
X230986469Y53822068D01*
X231145545Y53982807D01*
X231270206Y54171492D01*
X231352169Y54369389D01*
X231318588Y54546000D01*
X230414000Y54546000D01*
X230086000Y54546000D01*
X229181412Y54546000D01*
X229147831Y54369389D01*
X228812185Y54369389D01*
X228846908Y54483855D01*
X228869181Y54710000D01*
X228846908Y54936145D01*
X228812186Y55050611D01*
X229147831Y55050611D01*
X229181412Y54874000D01*
X230086000Y54874000D01*
X230086000Y55779391D01*
X230414000Y55779391D01*
X230414000Y54874000D01*
X231318588Y54874000D01*
X231352169Y55050611D01*
X231270206Y55248508D01*
X231145545Y55437193D01*
X230986469Y55597932D01*
X230799091Y55724549D01*
X230590612Y55812177D01*
X230414000Y55779391D01*
X230086000Y55779391D01*
X229909388Y55812177D01*
X229700909Y55724549D01*
X229513531Y55597932D01*
X229354455Y55437193D01*
X229229794Y55248508D01*
X229147831Y55050611D01*
X228812186Y55050611D01*
X228780944Y55153599D01*
X228673824Y55354006D01*
X228529665Y55529665D01*
X228354006Y55673824D01*
X228153599Y55780944D01*
X227936145Y55846908D01*
X227766666Y55863600D01*
X227653334Y55863600D01*
X227483855Y55846908D01*
X227266401Y55780944D01*
X227065994Y55673824D01*
X226890335Y55529665D01*
X226746176Y55354006D01*
X226639056Y55153599D01*
X226573092Y54936145D01*
X226550819Y54710000D01*
X201365000Y54710000D01*
X201365000Y57250000D01*
X226550819Y57250000D01*
X226573092Y57023855D01*
X226639056Y56806401D01*
X226746176Y56605994D01*
X226890335Y56430335D01*
X227065994Y56286176D01*
X227266401Y56179056D01*
X227483855Y56113092D01*
X227653334Y56096400D01*
X227766666Y56096400D01*
X227936145Y56113092D01*
X228153599Y56179056D01*
X228354006Y56286176D01*
X228529665Y56430335D01*
X228673824Y56605994D01*
X228780944Y56806401D01*
X228812185Y56909389D01*
X229147831Y56909389D01*
X229229794Y56711492D01*
X229354455Y56522807D01*
X229513531Y56362068D01*
X229700909Y56235451D01*
X229909388Y56147823D01*
X230086000Y56180609D01*
X230086000Y57086000D01*
X229181412Y57086000D01*
X229147831Y56909389D01*
X228812185Y56909389D01*
X228846908Y57023855D01*
X228869181Y57250000D01*
X228846908Y57476145D01*
X228812186Y57590611D01*
X229147831Y57590611D01*
X229181412Y57414000D01*
X230086000Y57414000D01*
X230086000Y58319391D01*
X229909388Y58352177D01*
X229700909Y58264549D01*
X229513531Y58137932D01*
X229354455Y57977193D01*
X229229794Y57788508D01*
X229147831Y57590611D01*
X228812186Y57590611D01*
X228780944Y57693599D01*
X228673824Y57894006D01*
X228529665Y58069665D01*
X228354006Y58213824D01*
X228153599Y58320944D01*
X227936145Y58386908D01*
X227766666Y58403600D01*
X227653334Y58403600D01*
X227483855Y58386908D01*
X227266401Y58320944D01*
X227065994Y58213824D01*
X226890335Y58069665D01*
X226746176Y57894006D01*
X226639056Y57693599D01*
X226573092Y57476145D01*
X226550819Y57250000D01*
X201365000Y57250000D01*
X201365000Y73800000D01*
X214848597Y73800000D01*
X214848597Y72800000D01*
X214854196Y72743150D01*
X214870779Y72688485D01*
X214897707Y72638105D01*
X214933947Y72593947D01*
X214978105Y72557707D01*
X215028485Y72530779D01*
X215083150Y72514196D01*
X215140000Y72508597D01*
X216440000Y72508597D01*
X216496850Y72514196D01*
X216551515Y72530779D01*
X216601895Y72557707D01*
X216646053Y72593947D01*
X216682293Y72638105D01*
X216709221Y72688485D01*
X216725804Y72743150D01*
X216731403Y72800000D01*
X216731403Y72910000D01*
X216848597Y72910000D01*
X216848597Y72800000D01*
X216854196Y72743150D01*
X216870779Y72688485D01*
X216897707Y72638105D01*
X216933947Y72593947D01*
X216978105Y72557707D01*
X217028485Y72530779D01*
X217083150Y72514196D01*
X217140000Y72508597D01*
X218440000Y72508597D01*
X218496850Y72514196D01*
X218551515Y72530779D01*
X218601895Y72557707D01*
X218646053Y72593947D01*
X218682293Y72638105D01*
X218709221Y72688485D01*
X218725804Y72743150D01*
X218731403Y72800000D01*
X218731403Y72910000D01*
X218848597Y72910000D01*
X218848597Y72800000D01*
X218854196Y72743150D01*
X218870779Y72688485D01*
X218897707Y72638105D01*
X218933947Y72593947D01*
X218978105Y72557707D01*
X219028485Y72530779D01*
X219083150Y72514196D01*
X219140000Y72508597D01*
X220179860Y72508597D01*
X231023601Y61664855D01*
X231023602Y58100411D01*
X230986469Y58137932D01*
X230799091Y58264549D01*
X230590612Y58352177D01*
X230414000Y58319391D01*
X230414000Y57414000D01*
X230434000Y57414000D01*
X230434000Y57086000D01*
X230414000Y57086000D01*
X230414000Y56180609D01*
X230590612Y56147823D01*
X230799091Y56235451D01*
X230986469Y56362068D01*
X231023602Y56399589D01*
X231023602Y56105568D01*
X231021714Y56086399D01*
X231029244Y56009946D01*
X231051545Y55936431D01*
X231087760Y55868678D01*
X231124282Y55824175D01*
X231124286Y55824171D01*
X231136496Y55809293D01*
X231151374Y55797083D01*
X231745460Y55202997D01*
X231719056Y55153599D01*
X231653092Y54936145D01*
X231630819Y54710000D01*
X231653092Y54483855D01*
X231719056Y54266401D01*
X231826176Y54065994D01*
X231970335Y53890335D01*
X232145994Y53746176D01*
X232346401Y53639056D01*
X232563855Y53573092D01*
X232733334Y53556400D01*
X232846666Y53556400D01*
X233016145Y53573092D01*
X233233599Y53639056D01*
X233434006Y53746176D01*
X233609665Y53890335D01*
X233753824Y54065994D01*
X233860944Y54266401D01*
X233892185Y54369389D01*
X234227831Y54369389D01*
X234309794Y54171492D01*
X234434455Y53982807D01*
X234593531Y53822068D01*
X234780909Y53695451D01*
X234989388Y53607823D01*
X235166000Y53640609D01*
X235166000Y54546000D01*
X235494000Y54546000D01*
X235494000Y53640609D01*
X235670612Y53607823D01*
X235879091Y53695451D01*
X236066469Y53822068D01*
X236225545Y53982807D01*
X236350206Y54171492D01*
X236432169Y54369389D01*
X236767831Y54369389D01*
X236849794Y54171492D01*
X236974455Y53982807D01*
X237133531Y53822068D01*
X237320909Y53695451D01*
X237529388Y53607823D01*
X237706000Y53640609D01*
X237706000Y54546000D01*
X238034000Y54546000D01*
X238034000Y53640609D01*
X238210612Y53607823D01*
X238419091Y53695451D01*
X238606469Y53822068D01*
X238765545Y53982807D01*
X238890206Y54171492D01*
X238972169Y54369389D01*
X238938588Y54546000D01*
X238034000Y54546000D01*
X237706000Y54546000D01*
X236801412Y54546000D01*
X236767831Y54369389D01*
X236432169Y54369389D01*
X236398588Y54546000D01*
X235494000Y54546000D01*
X235166000Y54546000D01*
X234261412Y54546000D01*
X234227831Y54369389D01*
X233892185Y54369389D01*
X233926908Y54483855D01*
X233949181Y54710000D01*
X233926908Y54936145D01*
X233892186Y55050611D01*
X234227831Y55050611D01*
X234261412Y54874000D01*
X235166000Y54874000D01*
X235166000Y55779391D01*
X235494000Y55779391D01*
X235494000Y54874000D01*
X236398588Y54874000D01*
X236432169Y55050611D01*
X236767831Y55050611D01*
X236801412Y54874000D01*
X237706000Y54874000D01*
X237706000Y55779391D01*
X238034000Y55779391D01*
X238034000Y54874000D01*
X238938588Y54874000D01*
X238972169Y55050611D01*
X238890206Y55248508D01*
X238765545Y55437193D01*
X238606469Y55597932D01*
X238419091Y55724549D01*
X238210612Y55812177D01*
X238034000Y55779391D01*
X237706000Y55779391D01*
X237529388Y55812177D01*
X237320909Y55724549D01*
X237133531Y55597932D01*
X236974455Y55437193D01*
X236849794Y55248508D01*
X236767831Y55050611D01*
X236432169Y55050611D01*
X236350206Y55248508D01*
X236225545Y55437193D01*
X236066469Y55597932D01*
X235879091Y55724549D01*
X235670612Y55812177D01*
X235494000Y55779391D01*
X235166000Y55779391D01*
X234989388Y55812177D01*
X234780909Y55724549D01*
X234593531Y55597932D01*
X234434455Y55437193D01*
X234309794Y55248508D01*
X234227831Y55050611D01*
X233892186Y55050611D01*
X233860944Y55153599D01*
X233753824Y55354006D01*
X233609665Y55529665D01*
X233434006Y55673824D01*
X233233599Y55780944D01*
X233016145Y55846908D01*
X232846666Y55863600D01*
X232733334Y55863600D01*
X232563855Y55846908D01*
X232346401Y55780944D01*
X232297003Y55754540D01*
X231803601Y56247942D01*
X231803601Y56660322D01*
X231894455Y56522807D01*
X232053531Y56362068D01*
X232240909Y56235451D01*
X232449388Y56147823D01*
X232626000Y56180609D01*
X232626000Y57086000D01*
X232954000Y57086000D01*
X232954000Y56180609D01*
X233130612Y56147823D01*
X233339091Y56235451D01*
X233526469Y56362068D01*
X233685545Y56522807D01*
X233810206Y56711492D01*
X233892169Y56909389D01*
X233858588Y57086000D01*
X232954000Y57086000D01*
X232626000Y57086000D01*
X232606000Y57086000D01*
X232606000Y57414000D01*
X232626000Y57414000D01*
X232626000Y58319391D01*
X232954000Y58319391D01*
X232954000Y57414000D01*
X233858588Y57414000D01*
X233892169Y57590611D01*
X233810206Y57788508D01*
X233685545Y57977193D01*
X233526469Y58137932D01*
X233339091Y58264549D01*
X233130612Y58352177D01*
X232954000Y58319391D01*
X232626000Y58319391D01*
X232449388Y58352177D01*
X232240909Y58264549D01*
X232053531Y58137932D01*
X231894455Y57977193D01*
X231803601Y57839678D01*
X231803601Y61807251D01*
X231805487Y61826400D01*
X231803601Y61845549D01*
X231803601Y61845558D01*
X231797958Y61902852D01*
X231775657Y61976368D01*
X231739443Y62044120D01*
X231690707Y62103505D01*
X231675830Y62115714D01*
X220731403Y73060140D01*
X220731403Y73800000D01*
X222348597Y73800000D01*
X222348597Y72800000D01*
X222354196Y72743150D01*
X222370779Y72688485D01*
X222397707Y72638105D01*
X222433947Y72593947D01*
X222478105Y72557707D01*
X222528485Y72530779D01*
X222583150Y72514196D01*
X222640000Y72508597D01*
X222910179Y72508597D01*
X222927945Y72450031D01*
X222964159Y72382279D01*
X223012895Y72322894D01*
X223072280Y72274158D01*
X223140032Y72237944D01*
X223213548Y72215643D01*
X223290000Y72208113D01*
X223366453Y72215643D01*
X223439969Y72237944D01*
X223507721Y72274158D01*
X223567106Y72322894D01*
X223615842Y72382279D01*
X223652056Y72450031D01*
X223669822Y72508597D01*
X223940000Y72508597D01*
X223996850Y72514196D01*
X224051515Y72530779D01*
X224101895Y72557707D01*
X224146053Y72593947D01*
X224182293Y72638105D01*
X224209221Y72688485D01*
X224225804Y72743150D01*
X224231403Y72800000D01*
X224231403Y72910000D01*
X224348597Y72910000D01*
X224348597Y72800000D01*
X224354196Y72743150D01*
X224370779Y72688485D01*
X224397707Y72638105D01*
X224433947Y72593947D01*
X224478105Y72557707D01*
X224528485Y72530779D01*
X224583150Y72514196D01*
X224640000Y72508597D01*
X225940000Y72508597D01*
X225996850Y72514196D01*
X226051515Y72530779D01*
X226101895Y72557707D01*
X226146053Y72593947D01*
X226182293Y72638105D01*
X226209221Y72688485D01*
X226225804Y72743150D01*
X226231403Y72800000D01*
X226231403Y72910000D01*
X226348597Y72910000D01*
X226348597Y72800000D01*
X226354196Y72743150D01*
X226370779Y72688485D01*
X226397707Y72638105D01*
X226433947Y72593947D01*
X226478105Y72557707D01*
X226528485Y72530779D01*
X226583150Y72514196D01*
X226640000Y72508597D01*
X226910178Y72508597D01*
X226927944Y72450032D01*
X226964159Y72382279D01*
X227000681Y72337776D01*
X227000682Y72337775D01*
X227012895Y72322894D01*
X227027773Y72310684D01*
X234940000Y64398456D01*
X234940001Y58490482D01*
X234940000Y58490472D01*
X234940000Y58337203D01*
X234886401Y58320944D01*
X234685994Y58213824D01*
X234510335Y58069665D01*
X234366176Y57894006D01*
X234259056Y57693599D01*
X234193092Y57476145D01*
X234170819Y57250000D01*
X234193092Y57023855D01*
X234259056Y56806401D01*
X234366176Y56605994D01*
X234510335Y56430335D01*
X234685994Y56286176D01*
X234886401Y56179056D01*
X235103855Y56113092D01*
X235273334Y56096400D01*
X235386666Y56096400D01*
X235556145Y56113092D01*
X235773599Y56179056D01*
X235974006Y56286176D01*
X236149665Y56430335D01*
X236293824Y56605994D01*
X236400944Y56806401D01*
X236432185Y56909389D01*
X236767831Y56909389D01*
X236849794Y56711492D01*
X236974455Y56522807D01*
X237133531Y56362068D01*
X237320909Y56235451D01*
X237529388Y56147823D01*
X237706000Y56180609D01*
X237706000Y57086000D01*
X236801412Y57086000D01*
X236767831Y56909389D01*
X236432185Y56909389D01*
X236466908Y57023855D01*
X236489181Y57250000D01*
X236466908Y57476145D01*
X236432186Y57590611D01*
X236767831Y57590611D01*
X236801412Y57414000D01*
X237706000Y57414000D01*
X237706000Y58319391D01*
X237529388Y58352177D01*
X237320909Y58264549D01*
X237133531Y58137932D01*
X236974455Y57977193D01*
X236849794Y57788508D01*
X236767831Y57590611D01*
X236432186Y57590611D01*
X236400944Y57693599D01*
X236293824Y57894006D01*
X236149665Y58069665D01*
X235974006Y58213824D01*
X235773599Y58320944D01*
X235720000Y58337203D01*
X235720000Y64540842D01*
X235721887Y64560001D01*
X235714357Y64636454D01*
X235692056Y64709969D01*
X235655842Y64777721D01*
X235607106Y64837106D01*
X235592229Y64849315D01*
X227932946Y72508597D01*
X227940000Y72508597D01*
X227996850Y72514196D01*
X228051515Y72530779D01*
X228101895Y72557707D01*
X228146053Y72593947D01*
X228182293Y72638105D01*
X228209221Y72688485D01*
X228225804Y72743150D01*
X228231403Y72800000D01*
X228231403Y73800000D01*
X228848597Y73800000D01*
X228848597Y72800000D01*
X228854196Y72743150D01*
X228870779Y72688485D01*
X228897707Y72638105D01*
X228933947Y72593947D01*
X228978105Y72557707D01*
X229028485Y72530779D01*
X229083150Y72514196D01*
X229140000Y72508597D01*
X230440000Y72508597D01*
X230496850Y72514196D01*
X230551515Y72530779D01*
X230601895Y72557707D01*
X230646053Y72593947D01*
X230682293Y72638105D01*
X230709221Y72688485D01*
X230725804Y72743150D01*
X230731403Y72800000D01*
X230731403Y72910000D01*
X230848597Y72910000D01*
X230848597Y72800000D01*
X230854196Y72743150D01*
X230870779Y72688485D01*
X230897707Y72638105D01*
X230933947Y72593947D01*
X230978105Y72557707D01*
X231028485Y72530779D01*
X231083150Y72514196D01*
X231140000Y72508597D01*
X232440000Y72508597D01*
X232496850Y72514196D01*
X232551515Y72530779D01*
X232601895Y72557707D01*
X232646053Y72593947D01*
X232682293Y72638105D01*
X232709221Y72688485D01*
X232725804Y72743150D01*
X232731403Y72800000D01*
X232731403Y72910000D01*
X232848597Y72910000D01*
X232848597Y72800000D01*
X232854196Y72743150D01*
X232870779Y72688485D01*
X232897707Y72638105D01*
X232933947Y72593947D01*
X232978105Y72557707D01*
X233028485Y72530779D01*
X233083150Y72514196D01*
X233140000Y72508597D01*
X234179860Y72508597D01*
X238643601Y68044856D01*
X238643602Y58100411D01*
X238606469Y58137932D01*
X238419091Y58264549D01*
X238210612Y58352177D01*
X238034000Y58319391D01*
X238034000Y57414000D01*
X238054000Y57414000D01*
X238054000Y57086000D01*
X238034000Y57086000D01*
X238034000Y56180609D01*
X238210612Y56147823D01*
X238419091Y56235451D01*
X238606469Y56362068D01*
X238643602Y56399589D01*
X238643602Y56105568D01*
X238641714Y56086399D01*
X238649244Y56009946D01*
X238671545Y55936431D01*
X238707760Y55868678D01*
X238744282Y55824175D01*
X238744286Y55824171D01*
X238756496Y55809293D01*
X238771374Y55797083D01*
X239365460Y55202997D01*
X239339056Y55153599D01*
X239273092Y54936145D01*
X239250819Y54710000D01*
X239273092Y54483855D01*
X239339056Y54266401D01*
X239446176Y54065994D01*
X239590335Y53890335D01*
X239765994Y53746176D01*
X239966401Y53639056D01*
X240183855Y53573092D01*
X240353334Y53556400D01*
X240466666Y53556400D01*
X240636145Y53573092D01*
X240853599Y53639056D01*
X241054006Y53746176D01*
X241229665Y53890335D01*
X241373824Y54065994D01*
X241480944Y54266401D01*
X241512185Y54369389D01*
X241847831Y54369389D01*
X241929794Y54171492D01*
X242054455Y53982807D01*
X242213531Y53822068D01*
X242400909Y53695451D01*
X242609388Y53607823D01*
X242786000Y53640609D01*
X242786000Y54546000D01*
X243114000Y54546000D01*
X243114000Y53640609D01*
X243290612Y53607823D01*
X243499091Y53695451D01*
X243686469Y53822068D01*
X243845545Y53982807D01*
X243970206Y54171492D01*
X244052169Y54369389D01*
X244387831Y54369389D01*
X244469794Y54171492D01*
X244594455Y53982807D01*
X244753531Y53822068D01*
X244940909Y53695451D01*
X245149388Y53607823D01*
X245326000Y53640609D01*
X245326000Y54546000D01*
X245654000Y54546000D01*
X245654000Y53640609D01*
X245830612Y53607823D01*
X246039091Y53695451D01*
X246226469Y53822068D01*
X246385545Y53982807D01*
X246510206Y54171492D01*
X246592169Y54369389D01*
X246558588Y54546000D01*
X245654000Y54546000D01*
X245326000Y54546000D01*
X244421412Y54546000D01*
X244387831Y54369389D01*
X244052169Y54369389D01*
X244018588Y54546000D01*
X243114000Y54546000D01*
X242786000Y54546000D01*
X241881412Y54546000D01*
X241847831Y54369389D01*
X241512185Y54369389D01*
X241546908Y54483855D01*
X241569181Y54710000D01*
X241546908Y54936145D01*
X241512186Y55050611D01*
X241847831Y55050611D01*
X241881412Y54874000D01*
X242786000Y54874000D01*
X242786000Y55779391D01*
X243114000Y55779391D01*
X243114000Y54874000D01*
X244018588Y54874000D01*
X244052169Y55050611D01*
X244387831Y55050611D01*
X244421412Y54874000D01*
X245326000Y54874000D01*
X245326000Y55779391D01*
X245654000Y55779391D01*
X245654000Y54874000D01*
X246558588Y54874000D01*
X246592169Y55050611D01*
X246510206Y55248508D01*
X246385545Y55437193D01*
X246226469Y55597932D01*
X246039091Y55724549D01*
X245830612Y55812177D01*
X245654000Y55779391D01*
X245326000Y55779391D01*
X245149388Y55812177D01*
X244940909Y55724549D01*
X244753531Y55597932D01*
X244594455Y55437193D01*
X244469794Y55248508D01*
X244387831Y55050611D01*
X244052169Y55050611D01*
X243970206Y55248508D01*
X243845545Y55437193D01*
X243686469Y55597932D01*
X243499091Y55724549D01*
X243290612Y55812177D01*
X243114000Y55779391D01*
X242786000Y55779391D01*
X242609388Y55812177D01*
X242400909Y55724549D01*
X242213531Y55597932D01*
X242054455Y55437193D01*
X241929794Y55248508D01*
X241847831Y55050611D01*
X241512186Y55050611D01*
X241480944Y55153599D01*
X241373824Y55354006D01*
X241229665Y55529665D01*
X241054006Y55673824D01*
X240853599Y55780944D01*
X240636145Y55846908D01*
X240466666Y55863600D01*
X240353334Y55863600D01*
X240183855Y55846908D01*
X239966401Y55780944D01*
X239917003Y55754540D01*
X239423601Y56247942D01*
X239423601Y56660322D01*
X239514455Y56522807D01*
X239673531Y56362068D01*
X239860909Y56235451D01*
X240069388Y56147823D01*
X240246000Y56180609D01*
X240246000Y57086000D01*
X240574000Y57086000D01*
X240574000Y56180609D01*
X240750612Y56147823D01*
X240959091Y56235451D01*
X241146469Y56362068D01*
X241305545Y56522807D01*
X241430206Y56711492D01*
X241512169Y56909389D01*
X241478588Y57086000D01*
X240574000Y57086000D01*
X240246000Y57086000D01*
X240226000Y57086000D01*
X240226000Y57414000D01*
X240246000Y57414000D01*
X240246000Y58319391D01*
X240574000Y58319391D01*
X240574000Y57414000D01*
X241478588Y57414000D01*
X241512169Y57590611D01*
X241430206Y57788508D01*
X241305545Y57977193D01*
X241146469Y58137932D01*
X240959091Y58264549D01*
X240750612Y58352177D01*
X240574000Y58319391D01*
X240246000Y58319391D01*
X240069388Y58352177D01*
X239860909Y58264549D01*
X239673531Y58137932D01*
X239514455Y57977193D01*
X239423601Y57839678D01*
X239423601Y68187240D01*
X239425488Y68206399D01*
X239417958Y68282852D01*
X239395657Y68356367D01*
X239395657Y68356368D01*
X239359443Y68424120D01*
X239310707Y68483505D01*
X239295824Y68495719D01*
X234731403Y73060140D01*
X234731403Y73800000D01*
X236348597Y73800000D01*
X236348597Y72800000D01*
X236354196Y72743150D01*
X236370779Y72688485D01*
X236397707Y72638105D01*
X236433947Y72593947D01*
X236478105Y72557707D01*
X236528485Y72530779D01*
X236583150Y72514196D01*
X236640000Y72508597D01*
X237940000Y72508597D01*
X237996850Y72514196D01*
X238051515Y72530779D01*
X238101895Y72557707D01*
X238146053Y72593947D01*
X238182293Y72638105D01*
X238209221Y72688485D01*
X238225804Y72743150D01*
X238231403Y72800000D01*
X238231403Y72910000D01*
X238348597Y72910000D01*
X238348597Y72800000D01*
X238354196Y72743150D01*
X238370779Y72688485D01*
X238397707Y72638105D01*
X238433947Y72593947D01*
X238478105Y72557707D01*
X238528485Y72530779D01*
X238583150Y72514196D01*
X238640000Y72508597D01*
X239940000Y72508597D01*
X239996850Y72514196D01*
X240051515Y72530779D01*
X240101895Y72557707D01*
X240146053Y72593947D01*
X240182293Y72638105D01*
X240209221Y72688485D01*
X240225804Y72743150D01*
X240231403Y72800000D01*
X240231403Y72910000D01*
X240348597Y72910000D01*
X240348597Y72800000D01*
X240354196Y72743150D01*
X240370779Y72688485D01*
X240397707Y72638105D01*
X240433947Y72593947D01*
X240478105Y72557707D01*
X240528485Y72530779D01*
X240583150Y72514196D01*
X240640000Y72508597D01*
X240900000Y72508597D01*
X240900001Y58929169D01*
X240898113Y58910000D01*
X240905643Y58833547D01*
X240927944Y58760032D01*
X240964159Y58692279D01*
X241000681Y58647776D01*
X241000685Y58647772D01*
X241012895Y58632894D01*
X241027773Y58620684D01*
X241905460Y57742997D01*
X241879056Y57693599D01*
X241813092Y57476145D01*
X241790819Y57250000D01*
X241813092Y57023855D01*
X241879056Y56806401D01*
X241986176Y56605994D01*
X242130335Y56430335D01*
X242305994Y56286176D01*
X242506401Y56179056D01*
X242723855Y56113092D01*
X242893334Y56096400D01*
X243006666Y56096400D01*
X243176145Y56113092D01*
X243393599Y56179056D01*
X243594006Y56286176D01*
X243769665Y56430335D01*
X243913824Y56605994D01*
X244020944Y56806401D01*
X244052185Y56909389D01*
X244387831Y56909389D01*
X244469794Y56711492D01*
X244594455Y56522807D01*
X244753531Y56362068D01*
X244940909Y56235451D01*
X245149388Y56147823D01*
X245326000Y56180609D01*
X245326000Y57086000D01*
X245654000Y57086000D01*
X245654000Y56180609D01*
X245830612Y56147823D01*
X246039091Y56235451D01*
X246226469Y56362068D01*
X246385545Y56522807D01*
X246510206Y56711492D01*
X246592169Y56909389D01*
X246927831Y56909389D01*
X247009794Y56711492D01*
X247134455Y56522807D01*
X247293531Y56362068D01*
X247480909Y56235451D01*
X247689388Y56147823D01*
X247866000Y56180609D01*
X247866000Y57086000D01*
X246961412Y57086000D01*
X246927831Y56909389D01*
X246592169Y56909389D01*
X246558588Y57086000D01*
X245654000Y57086000D01*
X245326000Y57086000D01*
X244421412Y57086000D01*
X244387831Y56909389D01*
X244052185Y56909389D01*
X244086908Y57023855D01*
X244109181Y57250000D01*
X244086908Y57476145D01*
X244052186Y57590611D01*
X244387831Y57590611D01*
X244421412Y57414000D01*
X245326000Y57414000D01*
X245326000Y58319391D01*
X245654000Y58319391D01*
X245654000Y57414000D01*
X246558588Y57414000D01*
X246592169Y57590611D01*
X246927831Y57590611D01*
X246961412Y57414000D01*
X247866000Y57414000D01*
X247866000Y58319391D01*
X247689388Y58352177D01*
X247480909Y58264549D01*
X247293531Y58137932D01*
X247134455Y57977193D01*
X247009794Y57788508D01*
X246927831Y57590611D01*
X246592169Y57590611D01*
X246510206Y57788508D01*
X246385545Y57977193D01*
X246226469Y58137932D01*
X246039091Y58264549D01*
X245830612Y58352177D01*
X245654000Y58319391D01*
X245326000Y58319391D01*
X245149388Y58352177D01*
X244940909Y58264549D01*
X244753531Y58137932D01*
X244594455Y57977193D01*
X244469794Y57788508D01*
X244387831Y57590611D01*
X244052186Y57590611D01*
X244020944Y57693599D01*
X243913824Y57894006D01*
X243769665Y58069665D01*
X243594006Y58213824D01*
X243393599Y58320944D01*
X243176145Y58386908D01*
X243006666Y58403600D01*
X242893334Y58403600D01*
X242723855Y58386908D01*
X242506401Y58320944D01*
X242457003Y58294540D01*
X241680000Y59071543D01*
X241680000Y72508597D01*
X241940000Y72508597D01*
X241996850Y72514196D01*
X242051515Y72530779D01*
X242101895Y72557707D01*
X242146053Y72593947D01*
X242182293Y72638105D01*
X242209221Y72688485D01*
X242225804Y72743150D01*
X242231403Y72800000D01*
X242231403Y73800000D01*
X242848597Y73800000D01*
X242848597Y72800000D01*
X242854196Y72743150D01*
X242870779Y72688485D01*
X242897707Y72638105D01*
X242933947Y72593947D01*
X242978105Y72557707D01*
X243028485Y72530779D01*
X243083150Y72514196D01*
X243140000Y72508597D01*
X244440000Y72508597D01*
X244496850Y72514196D01*
X244551515Y72530779D01*
X244601895Y72557707D01*
X244646053Y72593947D01*
X244682293Y72638105D01*
X244709221Y72688485D01*
X244725804Y72743150D01*
X244731403Y72800000D01*
X244731403Y72910000D01*
X244848597Y72910000D01*
X244848597Y72800000D01*
X244854196Y72743150D01*
X244870779Y72688485D01*
X244897707Y72638105D01*
X244933947Y72593947D01*
X244978105Y72557707D01*
X245028485Y72530779D01*
X245083150Y72514196D01*
X245140000Y72508597D01*
X246440000Y72508597D01*
X246496850Y72514196D01*
X246551515Y72530779D01*
X246601895Y72557707D01*
X246646053Y72593947D01*
X246682293Y72638105D01*
X246709221Y72688485D01*
X246725804Y72743150D01*
X246731403Y72800000D01*
X246731403Y72910000D01*
X246848597Y72910000D01*
X246848597Y72800000D01*
X246854196Y72743150D01*
X246870779Y72688485D01*
X246897707Y72638105D01*
X246933947Y72593947D01*
X246978105Y72557707D01*
X247028485Y72530779D01*
X247083150Y72514196D01*
X247140000Y72508597D01*
X248179860Y72508597D01*
X248803601Y71884856D01*
X248803602Y58100411D01*
X248766469Y58137932D01*
X248579091Y58264549D01*
X248370612Y58352177D01*
X248194000Y58319391D01*
X248194000Y57414000D01*
X248214000Y57414000D01*
X248214000Y57086000D01*
X248194000Y57086000D01*
X248194000Y56180609D01*
X248370612Y56147823D01*
X248579091Y56235451D01*
X248766469Y56362068D01*
X248803602Y56399589D01*
X248803602Y56035146D01*
X248631375Y55862918D01*
X248522997Y55754540D01*
X248473599Y55780944D01*
X248256145Y55846908D01*
X248086666Y55863600D01*
X247973334Y55863600D01*
X247803855Y55846908D01*
X247586401Y55780944D01*
X247385994Y55673824D01*
X247210335Y55529665D01*
X247066176Y55354006D01*
X246959056Y55153599D01*
X246893092Y54936145D01*
X246870819Y54710000D01*
X246893092Y54483855D01*
X246959056Y54266401D01*
X247066176Y54065994D01*
X247210335Y53890335D01*
X247385994Y53746176D01*
X247586401Y53639056D01*
X247803855Y53573092D01*
X247973334Y53556400D01*
X248086666Y53556400D01*
X248256145Y53573092D01*
X248473599Y53639056D01*
X248674006Y53746176D01*
X248849665Y53890335D01*
X248993824Y54065994D01*
X249100944Y54266401D01*
X249132185Y54369389D01*
X249467831Y54369389D01*
X249549794Y54171492D01*
X249674455Y53982807D01*
X249833531Y53822068D01*
X250020909Y53695451D01*
X250229388Y53607823D01*
X250406000Y53640609D01*
X250406000Y54546000D01*
X250734000Y54546000D01*
X250734000Y53640609D01*
X250910612Y53607823D01*
X251119091Y53695451D01*
X251306469Y53822068D01*
X251465545Y53982807D01*
X251590206Y54171492D01*
X251672169Y54369389D01*
X252007831Y54369389D01*
X252089794Y54171492D01*
X252214455Y53982807D01*
X252373531Y53822068D01*
X252560909Y53695451D01*
X252769388Y53607823D01*
X252946000Y53640609D01*
X252946000Y54546000D01*
X253274000Y54546000D01*
X253274000Y53640609D01*
X253450612Y53607823D01*
X253659091Y53695451D01*
X253846469Y53822068D01*
X254005545Y53982807D01*
X254130206Y54171492D01*
X254212169Y54369389D01*
X254178588Y54546000D01*
X253274000Y54546000D01*
X252946000Y54546000D01*
X252041412Y54546000D01*
X252007831Y54369389D01*
X251672169Y54369389D01*
X251638588Y54546000D01*
X250734000Y54546000D01*
X250406000Y54546000D01*
X249501412Y54546000D01*
X249467831Y54369389D01*
X249132185Y54369389D01*
X249166908Y54483855D01*
X249189181Y54710000D01*
X249166908Y54936145D01*
X249132186Y55050611D01*
X249467831Y55050611D01*
X249501412Y54874000D01*
X250406000Y54874000D01*
X250406000Y55779391D01*
X250734000Y55779391D01*
X250734000Y54874000D01*
X251638588Y54874000D01*
X251672169Y55050611D01*
X252007831Y55050611D01*
X252041412Y54874000D01*
X252946000Y54874000D01*
X252946000Y55779391D01*
X253274000Y55779391D01*
X253274000Y54874000D01*
X254178588Y54874000D01*
X254212169Y55050611D01*
X254130206Y55248508D01*
X254005545Y55437193D01*
X253846469Y55597932D01*
X253659091Y55724549D01*
X253450612Y55812177D01*
X253274000Y55779391D01*
X252946000Y55779391D01*
X252769388Y55812177D01*
X252560909Y55724549D01*
X252373531Y55597932D01*
X252214455Y55437193D01*
X252089794Y55248508D01*
X252007831Y55050611D01*
X251672169Y55050611D01*
X251590206Y55248508D01*
X251465545Y55437193D01*
X251306469Y55597932D01*
X251119091Y55724549D01*
X250910612Y55812177D01*
X250734000Y55779391D01*
X250406000Y55779391D01*
X250229388Y55812177D01*
X250020909Y55724549D01*
X249833531Y55597932D01*
X249674455Y55437193D01*
X249549794Y55248508D01*
X249467831Y55050611D01*
X249132186Y55050611D01*
X249100944Y55153599D01*
X249074540Y55202997D01*
X249182918Y55311375D01*
X249455828Y55584284D01*
X249470707Y55596495D01*
X249519443Y55655880D01*
X249555657Y55723632D01*
X249567364Y55762225D01*
X249577958Y55797147D01*
X249585488Y55873601D01*
X249583601Y55892760D01*
X249583601Y56648229D01*
X249606176Y56605994D01*
X249750335Y56430335D01*
X249925994Y56286176D01*
X250126401Y56179056D01*
X250343855Y56113092D01*
X250513334Y56096400D01*
X250626666Y56096400D01*
X250796145Y56113092D01*
X251013599Y56179056D01*
X251214006Y56286176D01*
X251389665Y56430335D01*
X251533824Y56605994D01*
X251640944Y56806401D01*
X251672185Y56909389D01*
X252007831Y56909389D01*
X252089794Y56711492D01*
X252214455Y56522807D01*
X252373531Y56362068D01*
X252560909Y56235451D01*
X252769388Y56147823D01*
X252946000Y56180609D01*
X252946000Y57086000D01*
X252041412Y57086000D01*
X252007831Y56909389D01*
X251672185Y56909389D01*
X251706908Y57023855D01*
X251729181Y57250000D01*
X251706908Y57476145D01*
X251672186Y57590611D01*
X252007831Y57590611D01*
X252041412Y57414000D01*
X252946000Y57414000D01*
X252946000Y58319391D01*
X253274000Y58319391D01*
X253274000Y57414000D01*
X253294000Y57414000D01*
X253294000Y57086000D01*
X253274000Y57086000D01*
X253274000Y56180609D01*
X253450612Y56147823D01*
X253659091Y56235451D01*
X253846469Y56362068D01*
X254005545Y56522807D01*
X254095038Y56658262D01*
X254102042Y56587148D01*
X254124343Y56513633D01*
X254160558Y56445880D01*
X254197080Y56401377D01*
X254197084Y56401373D01*
X254209294Y56386495D01*
X254224172Y56374285D01*
X254961307Y55637150D01*
X254830335Y55529665D01*
X254686176Y55354006D01*
X254579056Y55153599D01*
X254513092Y54936145D01*
X254490819Y54710000D01*
X254513092Y54483855D01*
X254579056Y54266401D01*
X254686176Y54065994D01*
X254830335Y53890335D01*
X255005994Y53746176D01*
X255206401Y53639056D01*
X255423855Y53573092D01*
X255593334Y53556400D01*
X255706666Y53556400D01*
X255876145Y53573092D01*
X256093599Y53639056D01*
X256294006Y53746176D01*
X256469665Y53890335D01*
X256613824Y54065994D01*
X256720944Y54266401D01*
X256752185Y54369389D01*
X257087831Y54369389D01*
X257169794Y54171492D01*
X257294455Y53982807D01*
X257453531Y53822068D01*
X257640909Y53695451D01*
X257849388Y53607823D01*
X258026000Y53640609D01*
X258026000Y54546000D01*
X258354000Y54546000D01*
X258354000Y53640609D01*
X258530612Y53607823D01*
X258739091Y53695451D01*
X258926469Y53822068D01*
X259085545Y53982807D01*
X259210206Y54171492D01*
X259292169Y54369389D01*
X259258588Y54546000D01*
X258354000Y54546000D01*
X258026000Y54546000D01*
X257121412Y54546000D01*
X257087831Y54369389D01*
X256752185Y54369389D01*
X256786908Y54483855D01*
X256809181Y54710000D01*
X256786908Y54936145D01*
X256752186Y55050611D01*
X257087831Y55050611D01*
X257121412Y54874000D01*
X258026000Y54874000D01*
X258026000Y55779391D01*
X258354000Y55779391D01*
X258354000Y54874000D01*
X259258588Y54874000D01*
X259292169Y55050611D01*
X259210206Y55248508D01*
X259085545Y55437193D01*
X258926469Y55597932D01*
X258739091Y55724549D01*
X258530612Y55812177D01*
X258354000Y55779391D01*
X258026000Y55779391D01*
X257849388Y55812177D01*
X257640909Y55724549D01*
X257453531Y55597932D01*
X257294455Y55437193D01*
X257169794Y55248508D01*
X257087831Y55050611D01*
X256752186Y55050611D01*
X256720944Y55153599D01*
X256613824Y55354006D01*
X256469665Y55529665D01*
X256294006Y55673824D01*
X256093599Y55780944D01*
X255876145Y55846908D01*
X255852285Y55849258D01*
X255486000Y56215543D01*
X255486000Y57086000D01*
X255814000Y57086000D01*
X255814000Y56180609D01*
X255990612Y56147823D01*
X256199091Y56235451D01*
X256386469Y56362068D01*
X256545545Y56522807D01*
X256670206Y56711492D01*
X256752169Y56909389D01*
X256718588Y57086000D01*
X255814000Y57086000D01*
X255486000Y57086000D01*
X255466000Y57086000D01*
X255466000Y57414000D01*
X255486000Y57414000D01*
X255486000Y58319391D01*
X255814000Y58319391D01*
X255814000Y57414000D01*
X256718588Y57414000D01*
X256752169Y57590611D01*
X256670206Y57788508D01*
X256545545Y57977193D01*
X256410550Y58113600D01*
X257034997Y58113600D01*
X257034997Y56386400D01*
X257040596Y56329550D01*
X257057179Y56274885D01*
X257084107Y56224505D01*
X257120347Y56180347D01*
X257164505Y56144107D01*
X257214885Y56117179D01*
X257269550Y56100596D01*
X257326400Y56094997D01*
X259053600Y56094997D01*
X259110450Y56100596D01*
X259165115Y56117179D01*
X259215495Y56144107D01*
X259259653Y56180347D01*
X259295893Y56224505D01*
X259322821Y56274885D01*
X259339404Y56329550D01*
X259345003Y56386400D01*
X259345003Y56870178D01*
X259381739Y56881322D01*
X259403569Y56887944D01*
X259471321Y56924158D01*
X259530706Y56972894D01*
X259542921Y56987778D01*
X265552228Y62997084D01*
X265567106Y63009294D01*
X265615842Y63068679D01*
X265652056Y63136431D01*
X265674357Y63209947D01*
X265680000Y63267241D01*
X265681887Y63286400D01*
X265680000Y63305559D01*
X265680000Y72508597D01*
X265940000Y72508597D01*
X265996850Y72514196D01*
X266051515Y72530779D01*
X266101895Y72557707D01*
X266146053Y72593947D01*
X266182293Y72638105D01*
X266209221Y72688485D01*
X266225804Y72743150D01*
X266231403Y72800000D01*
X266231403Y72910000D01*
X266348597Y72910000D01*
X266348597Y72800000D01*
X266354196Y72743150D01*
X266370779Y72688485D01*
X266397707Y72638105D01*
X266433947Y72593947D01*
X266478105Y72557707D01*
X266528485Y72530779D01*
X266583150Y72514196D01*
X266640000Y72508597D01*
X267940000Y72508597D01*
X267996850Y72514196D01*
X268051515Y72530779D01*
X268101895Y72557707D01*
X268146053Y72593947D01*
X268182293Y72638105D01*
X268209221Y72688485D01*
X268225804Y72743150D01*
X268231403Y72800000D01*
X268231403Y72910000D01*
X268348597Y72910000D01*
X268348597Y72800000D01*
X268354196Y72743150D01*
X268370779Y72688485D01*
X268397707Y72638105D01*
X268433947Y72593947D01*
X268478105Y72557707D01*
X268528485Y72530779D01*
X268583150Y72514196D01*
X268640000Y72508597D01*
X269940000Y72508597D01*
X269996850Y72514196D01*
X270051515Y72530779D01*
X270101895Y72557707D01*
X270146053Y72593947D01*
X270182293Y72638105D01*
X270209221Y72688485D01*
X270225804Y72743150D01*
X270231403Y72800000D01*
X270231403Y73800000D01*
X270225804Y73856850D01*
X270209221Y73911515D01*
X270182293Y73961895D01*
X270146053Y74006053D01*
X270101895Y74042293D01*
X270051515Y74069221D01*
X269996850Y74085804D01*
X269940000Y74091403D01*
X268640000Y74091403D01*
X268583150Y74085804D01*
X268528485Y74069221D01*
X268478105Y74042293D01*
X268433947Y74006053D01*
X268397707Y73961895D01*
X268370779Y73911515D01*
X268354196Y73856850D01*
X268348597Y73800000D01*
X268348597Y73690000D01*
X268231403Y73690000D01*
X268231403Y73800000D01*
X268225804Y73856850D01*
X268209221Y73911515D01*
X268182293Y73961895D01*
X268146053Y74006053D01*
X268101895Y74042293D01*
X268051515Y74069221D01*
X267996850Y74085804D01*
X267940000Y74091403D01*
X266640000Y74091403D01*
X266583150Y74085804D01*
X266528485Y74069221D01*
X266478105Y74042293D01*
X266433947Y74006053D01*
X266397707Y73961895D01*
X266370779Y73911515D01*
X266354196Y73856850D01*
X266348597Y73800000D01*
X266348597Y73690000D01*
X266231403Y73690000D01*
X266231403Y73800000D01*
X266225804Y73856850D01*
X266209221Y73911515D01*
X266182293Y73961895D01*
X266146053Y74006053D01*
X266101895Y74042293D01*
X266051515Y74069221D01*
X265996850Y74085804D01*
X265940000Y74091403D01*
X264640000Y74091403D01*
X264583150Y74085804D01*
X264528485Y74069221D01*
X264478105Y74042293D01*
X264433947Y74006053D01*
X264397707Y73961895D01*
X264370779Y73911515D01*
X264354196Y73856850D01*
X264348597Y73800000D01*
X264348597Y72800000D01*
X264354196Y72743150D01*
X264370779Y72688485D01*
X264397707Y72638105D01*
X264433947Y72593947D01*
X264478105Y72557707D01*
X264528485Y72530779D01*
X264583150Y72514196D01*
X264640000Y72508597D01*
X264900000Y72508597D01*
X264900001Y63447945D01*
X259345003Y57892946D01*
X259345003Y58113600D01*
X259339404Y58170450D01*
X259322821Y58225115D01*
X259295893Y58275495D01*
X259259653Y58319653D01*
X259215495Y58355893D01*
X259165115Y58382821D01*
X259110450Y58399404D01*
X259053600Y58405003D01*
X257326400Y58405003D01*
X257269550Y58399404D01*
X257214885Y58382821D01*
X257164505Y58355893D01*
X257120347Y58319653D01*
X257084107Y58275495D01*
X257057179Y58225115D01*
X257040596Y58170450D01*
X257034997Y58113600D01*
X256410550Y58113600D01*
X256386469Y58137932D01*
X256199091Y58264549D01*
X255990612Y58352177D01*
X255814000Y58319391D01*
X255486000Y58319391D01*
X255309388Y58352177D01*
X255100909Y58264549D01*
X254913531Y58137932D01*
X254876399Y58100412D01*
X254876399Y69134856D01*
X258052222Y72310679D01*
X258067106Y72322894D01*
X258115842Y72382279D01*
X258152056Y72450031D01*
X258169822Y72508597D01*
X258440000Y72508597D01*
X258496850Y72514196D01*
X258551515Y72530779D01*
X258601895Y72557707D01*
X258646053Y72593947D01*
X258682293Y72638105D01*
X258709221Y72688485D01*
X258725804Y72743150D01*
X258731403Y72800000D01*
X258731403Y72910000D01*
X258848597Y72910000D01*
X258848597Y72800000D01*
X258854196Y72743150D01*
X258870779Y72688485D01*
X258897707Y72638105D01*
X258933947Y72593947D01*
X258978105Y72557707D01*
X259028485Y72530779D01*
X259083150Y72514196D01*
X259140000Y72508597D01*
X260440000Y72508597D01*
X260496850Y72514196D01*
X260551515Y72530779D01*
X260601895Y72557707D01*
X260646053Y72593947D01*
X260682293Y72638105D01*
X260709221Y72688485D01*
X260725804Y72743150D01*
X260731403Y72800000D01*
X260731403Y72910000D01*
X260848597Y72910000D01*
X260848597Y72800000D01*
X260854196Y72743150D01*
X260870779Y72688485D01*
X260897707Y72638105D01*
X260933947Y72593947D01*
X260978105Y72557707D01*
X261028485Y72530779D01*
X261083150Y72514196D01*
X261140000Y72508597D01*
X262440000Y72508597D01*
X262496850Y72514196D01*
X262551515Y72530779D01*
X262601895Y72557707D01*
X262646053Y72593947D01*
X262682293Y72638105D01*
X262709221Y72688485D01*
X262725804Y72743150D01*
X262731403Y72800000D01*
X262731403Y73800000D01*
X262725804Y73856850D01*
X262709221Y73911515D01*
X262682293Y73961895D01*
X262646053Y74006053D01*
X262601895Y74042293D01*
X262551515Y74069221D01*
X262496850Y74085804D01*
X262440000Y74091403D01*
X261140000Y74091403D01*
X261083150Y74085804D01*
X261028485Y74069221D01*
X260978105Y74042293D01*
X260933947Y74006053D01*
X260897707Y73961895D01*
X260870779Y73911515D01*
X260854196Y73856850D01*
X260848597Y73800000D01*
X260848597Y73690000D01*
X260731403Y73690000D01*
X260731403Y73800000D01*
X260725804Y73856850D01*
X260709221Y73911515D01*
X260682293Y73961895D01*
X260646053Y74006053D01*
X260601895Y74042293D01*
X260551515Y74069221D01*
X260496850Y74085804D01*
X260440000Y74091403D01*
X259140000Y74091403D01*
X259083150Y74085804D01*
X259028485Y74069221D01*
X258978105Y74042293D01*
X258933947Y74006053D01*
X258897707Y73961895D01*
X258870779Y73911515D01*
X258854196Y73856850D01*
X258848597Y73800000D01*
X258848597Y73690000D01*
X258731403Y73690000D01*
X258731403Y73800000D01*
X258725804Y73856850D01*
X258709221Y73911515D01*
X258682293Y73961895D01*
X258646053Y74006053D01*
X258601895Y74042293D01*
X258551515Y74069221D01*
X258496850Y74085804D01*
X258440000Y74091403D01*
X257140000Y74091403D01*
X257083150Y74085804D01*
X257028485Y74069221D01*
X256978105Y74042293D01*
X256933947Y74006053D01*
X256897707Y73961895D01*
X256870779Y73911515D01*
X256854196Y73856850D01*
X256848597Y73800000D01*
X256848597Y72800000D01*
X256854196Y72743150D01*
X256870779Y72688485D01*
X256897707Y72638105D01*
X256933947Y72593947D01*
X256978105Y72557707D01*
X257028485Y72530779D01*
X257083150Y72514196D01*
X257140000Y72508597D01*
X257147054Y72508597D01*
X254224177Y69585720D01*
X254209293Y69573505D01*
X254197080Y69558623D01*
X254160558Y69514120D01*
X254124343Y69446367D01*
X254102042Y69372852D01*
X254094512Y69296399D01*
X254096399Y69277240D01*
X254096400Y57839676D01*
X254005545Y57977193D01*
X253846469Y58137932D01*
X253659091Y58264549D01*
X253450612Y58352177D01*
X253274000Y58319391D01*
X252946000Y58319391D01*
X252769388Y58352177D01*
X252560909Y58264549D01*
X252373531Y58137932D01*
X252214455Y57977193D01*
X252089794Y57788508D01*
X252007831Y57590611D01*
X251672186Y57590611D01*
X251640944Y57693599D01*
X251612049Y57747657D01*
X251615842Y57752279D01*
X251652056Y57820031D01*
X251674357Y57893547D01*
X251680000Y57950841D01*
X251681887Y57970000D01*
X251680000Y57989159D01*
X251680000Y72508597D01*
X251940000Y72508597D01*
X251996850Y72514196D01*
X252051515Y72530779D01*
X252101895Y72557707D01*
X252146053Y72593947D01*
X252182293Y72638105D01*
X252209221Y72688485D01*
X252225804Y72743150D01*
X252231403Y72800000D01*
X252231403Y72910000D01*
X252348597Y72910000D01*
X252348597Y72800000D01*
X252354196Y72743150D01*
X252370779Y72688485D01*
X252397707Y72638105D01*
X252433947Y72593947D01*
X252478105Y72557707D01*
X252528485Y72530779D01*
X252583150Y72514196D01*
X252640000Y72508597D01*
X253940000Y72508597D01*
X253996850Y72514196D01*
X254051515Y72530779D01*
X254101895Y72557707D01*
X254146053Y72593947D01*
X254182293Y72638105D01*
X254209221Y72688485D01*
X254225804Y72743150D01*
X254231403Y72800000D01*
X254231403Y72910000D01*
X254348597Y72910000D01*
X254348597Y72800000D01*
X254354196Y72743150D01*
X254370779Y72688485D01*
X254397707Y72638105D01*
X254433947Y72593947D01*
X254478105Y72557707D01*
X254528485Y72530779D01*
X254583150Y72514196D01*
X254640000Y72508597D01*
X255940000Y72508597D01*
X255996850Y72514196D01*
X256051515Y72530779D01*
X256101895Y72557707D01*
X256146053Y72593947D01*
X256182293Y72638105D01*
X256209221Y72688485D01*
X256225804Y72743150D01*
X256231403Y72800000D01*
X256231403Y73800000D01*
X256225804Y73856850D01*
X256209221Y73911515D01*
X256182293Y73961895D01*
X256146053Y74006053D01*
X256101895Y74042293D01*
X256051515Y74069221D01*
X255996850Y74085804D01*
X255940000Y74091403D01*
X254640000Y74091403D01*
X254583150Y74085804D01*
X254528485Y74069221D01*
X254478105Y74042293D01*
X254433947Y74006053D01*
X254397707Y73961895D01*
X254370779Y73911515D01*
X254354196Y73856850D01*
X254348597Y73800000D01*
X254348597Y73690000D01*
X254231403Y73690000D01*
X254231403Y73800000D01*
X254225804Y73856850D01*
X254209221Y73911515D01*
X254182293Y73961895D01*
X254146053Y74006053D01*
X254101895Y74042293D01*
X254051515Y74069221D01*
X253996850Y74085804D01*
X253940000Y74091403D01*
X252640000Y74091403D01*
X252583150Y74085804D01*
X252528485Y74069221D01*
X252478105Y74042293D01*
X252433947Y74006053D01*
X252397707Y73961895D01*
X252370779Y73911515D01*
X252354196Y73856850D01*
X252348597Y73800000D01*
X252348597Y73690000D01*
X252231403Y73690000D01*
X252231403Y73800000D01*
X252225804Y73856850D01*
X252209221Y73911515D01*
X252182293Y73961895D01*
X252146053Y74006053D01*
X252101895Y74042293D01*
X252051515Y74069221D01*
X251996850Y74085804D01*
X251940000Y74091403D01*
X250640000Y74091403D01*
X250583150Y74085804D01*
X250528485Y74069221D01*
X250478105Y74042293D01*
X250433947Y74006053D01*
X250397707Y73961895D01*
X250370779Y73911515D01*
X250354196Y73856850D01*
X250348597Y73800000D01*
X250348597Y72800000D01*
X250354196Y72743150D01*
X250370779Y72688485D01*
X250397707Y72638105D01*
X250433947Y72593947D01*
X250478105Y72557707D01*
X250528485Y72530779D01*
X250583150Y72514196D01*
X250640000Y72508597D01*
X250900000Y72508597D01*
X250900001Y58619660D01*
X250895842Y58627441D01*
X250847106Y58686826D01*
X250787721Y58735562D01*
X250719969Y58771776D01*
X250646453Y58794077D01*
X250570000Y58801607D01*
X250493548Y58794077D01*
X250420032Y58771776D01*
X250352280Y58735562D01*
X250292895Y58686826D01*
X250244159Y58627441D01*
X250207945Y58559689D01*
X250185644Y58486173D01*
X250180001Y58428879D01*
X250180001Y58337203D01*
X250126401Y58320944D01*
X249925994Y58213824D01*
X249750335Y58069665D01*
X249606176Y57894006D01*
X249583601Y57851771D01*
X249583601Y72027240D01*
X249585488Y72046399D01*
X249577958Y72122852D01*
X249555657Y72196367D01*
X249555657Y72196368D01*
X249519443Y72264120D01*
X249470707Y72323505D01*
X249455824Y72335719D01*
X248731403Y73060140D01*
X248731403Y73800000D01*
X248725804Y73856850D01*
X248709221Y73911515D01*
X248682293Y73961895D01*
X248646053Y74006053D01*
X248601895Y74042293D01*
X248551515Y74069221D01*
X248496850Y74085804D01*
X248440000Y74091403D01*
X247140000Y74091403D01*
X247083150Y74085804D01*
X247028485Y74069221D01*
X246978105Y74042293D01*
X246933947Y74006053D01*
X246897707Y73961895D01*
X246870779Y73911515D01*
X246854196Y73856850D01*
X246848597Y73800000D01*
X246848597Y73690000D01*
X246731403Y73690000D01*
X246731403Y73800000D01*
X246725804Y73856850D01*
X246709221Y73911515D01*
X246682293Y73961895D01*
X246646053Y74006053D01*
X246601895Y74042293D01*
X246551515Y74069221D01*
X246496850Y74085804D01*
X246440000Y74091403D01*
X245140000Y74091403D01*
X245083150Y74085804D01*
X245028485Y74069221D01*
X244978105Y74042293D01*
X244933947Y74006053D01*
X244897707Y73961895D01*
X244870779Y73911515D01*
X244854196Y73856850D01*
X244848597Y73800000D01*
X244848597Y73690000D01*
X244731403Y73690000D01*
X244731403Y73800000D01*
X244725804Y73856850D01*
X244709221Y73911515D01*
X244682293Y73961895D01*
X244646053Y74006053D01*
X244601895Y74042293D01*
X244551515Y74069221D01*
X244496850Y74085804D01*
X244440000Y74091403D01*
X243140000Y74091403D01*
X243083150Y74085804D01*
X243028485Y74069221D01*
X242978105Y74042293D01*
X242933947Y74006053D01*
X242897707Y73961895D01*
X242870779Y73911515D01*
X242854196Y73856850D01*
X242848597Y73800000D01*
X242231403Y73800000D01*
X242225804Y73856850D01*
X242209221Y73911515D01*
X242182293Y73961895D01*
X242146053Y74006053D01*
X242101895Y74042293D01*
X242051515Y74069221D01*
X241996850Y74085804D01*
X241940000Y74091403D01*
X240640000Y74091403D01*
X240583150Y74085804D01*
X240528485Y74069221D01*
X240478105Y74042293D01*
X240433947Y74006053D01*
X240397707Y73961895D01*
X240370779Y73911515D01*
X240354196Y73856850D01*
X240348597Y73800000D01*
X240348597Y73690000D01*
X240231403Y73690000D01*
X240231403Y73800000D01*
X240225804Y73856850D01*
X240209221Y73911515D01*
X240182293Y73961895D01*
X240146053Y74006053D01*
X240101895Y74042293D01*
X240051515Y74069221D01*
X239996850Y74085804D01*
X239940000Y74091403D01*
X238640000Y74091403D01*
X238583150Y74085804D01*
X238528485Y74069221D01*
X238478105Y74042293D01*
X238433947Y74006053D01*
X238397707Y73961895D01*
X238370779Y73911515D01*
X238354196Y73856850D01*
X238348597Y73800000D01*
X238348597Y73690000D01*
X238231403Y73690000D01*
X238231403Y73800000D01*
X238225804Y73856850D01*
X238209221Y73911515D01*
X238182293Y73961895D01*
X238146053Y74006053D01*
X238101895Y74042293D01*
X238051515Y74069221D01*
X237996850Y74085804D01*
X237940000Y74091403D01*
X236640000Y74091403D01*
X236583150Y74085804D01*
X236528485Y74069221D01*
X236478105Y74042293D01*
X236433947Y74006053D01*
X236397707Y73961895D01*
X236370779Y73911515D01*
X236354196Y73856850D01*
X236348597Y73800000D01*
X234731403Y73800000D01*
X234725804Y73856850D01*
X234709221Y73911515D01*
X234682293Y73961895D01*
X234646053Y74006053D01*
X234601895Y74042293D01*
X234551515Y74069221D01*
X234496850Y74085804D01*
X234440000Y74091403D01*
X233140000Y74091403D01*
X233083150Y74085804D01*
X233028485Y74069221D01*
X232978105Y74042293D01*
X232933947Y74006053D01*
X232897707Y73961895D01*
X232870779Y73911515D01*
X232854196Y73856850D01*
X232848597Y73800000D01*
X232848597Y73690000D01*
X232731403Y73690000D01*
X232731403Y73800000D01*
X232725804Y73856850D01*
X232709221Y73911515D01*
X232682293Y73961895D01*
X232646053Y74006053D01*
X232601895Y74042293D01*
X232551515Y74069221D01*
X232496850Y74085804D01*
X232440000Y74091403D01*
X231140000Y74091403D01*
X231083150Y74085804D01*
X231028485Y74069221D01*
X230978105Y74042293D01*
X230933947Y74006053D01*
X230897707Y73961895D01*
X230870779Y73911515D01*
X230854196Y73856850D01*
X230848597Y73800000D01*
X230848597Y73690000D01*
X230731403Y73690000D01*
X230731403Y73800000D01*
X230725804Y73856850D01*
X230709221Y73911515D01*
X230682293Y73961895D01*
X230646053Y74006053D01*
X230601895Y74042293D01*
X230551515Y74069221D01*
X230496850Y74085804D01*
X230440000Y74091403D01*
X229140000Y74091403D01*
X229083150Y74085804D01*
X229028485Y74069221D01*
X228978105Y74042293D01*
X228933947Y74006053D01*
X228897707Y73961895D01*
X228870779Y73911515D01*
X228854196Y73856850D01*
X228848597Y73800000D01*
X228231403Y73800000D01*
X228225804Y73856850D01*
X228209221Y73911515D01*
X228182293Y73961895D01*
X228146053Y74006053D01*
X228101895Y74042293D01*
X228051515Y74069221D01*
X227996850Y74085804D01*
X227940000Y74091403D01*
X226640000Y74091403D01*
X226583150Y74085804D01*
X226528485Y74069221D01*
X226478105Y74042293D01*
X226433947Y74006053D01*
X226397707Y73961895D01*
X226370779Y73911515D01*
X226354196Y73856850D01*
X226348597Y73800000D01*
X226348597Y73690000D01*
X226231403Y73690000D01*
X226231403Y73800000D01*
X226225804Y73856850D01*
X226209221Y73911515D01*
X226182293Y73961895D01*
X226146053Y74006053D01*
X226101895Y74042293D01*
X226051515Y74069221D01*
X225996850Y74085804D01*
X225940000Y74091403D01*
X224640000Y74091403D01*
X224583150Y74085804D01*
X224528485Y74069221D01*
X224478105Y74042293D01*
X224433947Y74006053D01*
X224397707Y73961895D01*
X224370779Y73911515D01*
X224354196Y73856850D01*
X224348597Y73800000D01*
X224348597Y73690000D01*
X224231403Y73690000D01*
X224231403Y73800000D01*
X224225804Y73856850D01*
X224209221Y73911515D01*
X224182293Y73961895D01*
X224146053Y74006053D01*
X224101895Y74042293D01*
X224051515Y74069221D01*
X223996850Y74085804D01*
X223940000Y74091403D01*
X222640000Y74091403D01*
X222583150Y74085804D01*
X222528485Y74069221D01*
X222478105Y74042293D01*
X222433947Y74006053D01*
X222397707Y73961895D01*
X222370779Y73911515D01*
X222354196Y73856850D01*
X222348597Y73800000D01*
X220731403Y73800000D01*
X220725804Y73856850D01*
X220709221Y73911515D01*
X220682293Y73961895D01*
X220646053Y74006053D01*
X220601895Y74042293D01*
X220551515Y74069221D01*
X220496850Y74085804D01*
X220440000Y74091403D01*
X219140000Y74091403D01*
X219083150Y74085804D01*
X219028485Y74069221D01*
X218978105Y74042293D01*
X218933947Y74006053D01*
X218897707Y73961895D01*
X218870779Y73911515D01*
X218854196Y73856850D01*
X218848597Y73800000D01*
X218848597Y73690000D01*
X218731403Y73690000D01*
X218731403Y73800000D01*
X218725804Y73856850D01*
X218709221Y73911515D01*
X218682293Y73961895D01*
X218646053Y74006053D01*
X218601895Y74042293D01*
X218551515Y74069221D01*
X218496850Y74085804D01*
X218440000Y74091403D01*
X217140000Y74091403D01*
X217083150Y74085804D01*
X217028485Y74069221D01*
X216978105Y74042293D01*
X216933947Y74006053D01*
X216897707Y73961895D01*
X216870779Y73911515D01*
X216854196Y73856850D01*
X216848597Y73800000D01*
X216848597Y73690000D01*
X216731403Y73690000D01*
X216731403Y73800000D01*
X216725804Y73856850D01*
X216709221Y73911515D01*
X216682293Y73961895D01*
X216646053Y74006053D01*
X216601895Y74042293D01*
X216551515Y74069221D01*
X216496850Y74085804D01*
X216440000Y74091403D01*
X215140000Y74091403D01*
X215083150Y74085804D01*
X215028485Y74069221D01*
X214978105Y74042293D01*
X214933947Y74006053D01*
X214897707Y73961895D01*
X214870779Y73911515D01*
X214854196Y73856850D01*
X214848597Y73800000D01*
X201365000Y73800000D01*
X201365000Y77656601D01*
X218250000Y77656601D01*
X218250000Y77343399D01*
X218311103Y77036214D01*
X218430961Y76746853D01*
X218604967Y76486434D01*
X218826434Y76264967D01*
X219086853Y76090961D01*
X219376214Y75971103D01*
X219400000Y75966372D01*
X219400000Y75891403D01*
X219140000Y75891403D01*
X219083150Y75885804D01*
X219028485Y75869221D01*
X218978105Y75842293D01*
X218933947Y75806053D01*
X218897707Y75761895D01*
X218870779Y75711515D01*
X218854196Y75656850D01*
X218848597Y75600000D01*
X218848597Y74600000D01*
X218854196Y74543150D01*
X218870779Y74488485D01*
X218897707Y74438105D01*
X218933947Y74393947D01*
X218978105Y74357707D01*
X219028485Y74330779D01*
X219083150Y74314196D01*
X219140000Y74308597D01*
X220440000Y74308597D01*
X220496850Y74314196D01*
X220551515Y74330779D01*
X220601895Y74357707D01*
X220646053Y74393947D01*
X220682293Y74438105D01*
X220709221Y74488485D01*
X220725804Y74543150D01*
X220731403Y74600000D01*
X220731403Y75600000D01*
X220725804Y75656850D01*
X220709221Y75711515D01*
X220682293Y75761895D01*
X220646053Y75806053D01*
X220601895Y75842293D01*
X220551515Y75869221D01*
X220496850Y75885804D01*
X220440000Y75891403D01*
X220180000Y75891403D01*
X220180000Y75946480D01*
X220303786Y75971103D01*
X220593147Y76090961D01*
X220853566Y76264967D01*
X221075033Y76486434D01*
X221249039Y76746853D01*
X221368897Y77036214D01*
X221430000Y77343399D01*
X221430000Y77656601D01*
X225750000Y77656601D01*
X225750000Y77343399D01*
X225811103Y77036214D01*
X225930961Y76746853D01*
X226104967Y76486434D01*
X226326434Y76264967D01*
X226586853Y76090961D01*
X226876214Y75971103D01*
X226950001Y75956426D01*
X226950001Y75891403D01*
X226640000Y75891403D01*
X226583150Y75885804D01*
X226528485Y75869221D01*
X226478105Y75842293D01*
X226433947Y75806053D01*
X226397707Y75761895D01*
X226370779Y75711515D01*
X226354196Y75656850D01*
X226348597Y75600000D01*
X226348597Y74600000D01*
X226354196Y74543150D01*
X226370779Y74488485D01*
X226397707Y74438105D01*
X226433947Y74393947D01*
X226478105Y74357707D01*
X226528485Y74330779D01*
X226583150Y74314196D01*
X226640000Y74308597D01*
X227940000Y74308597D01*
X227996850Y74314196D01*
X228051515Y74330779D01*
X228101895Y74357707D01*
X228146053Y74393947D01*
X228182293Y74438105D01*
X228209221Y74488485D01*
X228225804Y74543150D01*
X228231403Y74600000D01*
X228231403Y75600000D01*
X228225804Y75656850D01*
X228209221Y75711515D01*
X228182293Y75761895D01*
X228146053Y75806053D01*
X228101895Y75842293D01*
X228051515Y75869221D01*
X227996850Y75885804D01*
X227940000Y75891403D01*
X227730000Y75891403D01*
X227730000Y75956426D01*
X227803786Y75971103D01*
X228093147Y76090961D01*
X228353566Y76264967D01*
X228575033Y76486434D01*
X228749039Y76746853D01*
X228868897Y77036214D01*
X228930000Y77343399D01*
X228930000Y77656601D01*
X232250000Y77656601D01*
X232250000Y77343399D01*
X232311103Y77036214D01*
X232430961Y76746853D01*
X232604967Y76486434D01*
X232826434Y76264967D01*
X233086853Y76090961D01*
X233376214Y75971103D01*
X233450001Y75956426D01*
X233450001Y75891403D01*
X233140000Y75891403D01*
X233083150Y75885804D01*
X233028485Y75869221D01*
X232978105Y75842293D01*
X232933947Y75806053D01*
X232897707Y75761895D01*
X232870779Y75711515D01*
X232854196Y75656850D01*
X232848597Y75600000D01*
X232848597Y74600000D01*
X232854196Y74543150D01*
X232870779Y74488485D01*
X232897707Y74438105D01*
X232933947Y74393947D01*
X232978105Y74357707D01*
X233028485Y74330779D01*
X233083150Y74314196D01*
X233140000Y74308597D01*
X234440000Y74308597D01*
X234496850Y74314196D01*
X234551515Y74330779D01*
X234601895Y74357707D01*
X234646053Y74393947D01*
X234682293Y74438105D01*
X234709221Y74488485D01*
X234725804Y74543150D01*
X234731403Y74600000D01*
X234731403Y75600000D01*
X234725804Y75656850D01*
X234709221Y75711515D01*
X234682293Y75761895D01*
X234646053Y75806053D01*
X234601895Y75842293D01*
X234551515Y75869221D01*
X234496850Y75885804D01*
X234440000Y75891403D01*
X234230000Y75891403D01*
X234230000Y75956426D01*
X234303786Y75971103D01*
X234593147Y76090961D01*
X234853566Y76264967D01*
X235075033Y76486434D01*
X235249039Y76746853D01*
X235368897Y77036214D01*
X235430000Y77343399D01*
X235430000Y77656601D01*
X239750000Y77656601D01*
X239750000Y77343399D01*
X239811103Y77036214D01*
X239930961Y76746853D01*
X240104967Y76486434D01*
X240326434Y76264967D01*
X240586853Y76090961D01*
X240876214Y75971103D01*
X240950001Y75956426D01*
X240950001Y75891403D01*
X240640000Y75891403D01*
X240583150Y75885804D01*
X240528485Y75869221D01*
X240478105Y75842293D01*
X240433947Y75806053D01*
X240397707Y75761895D01*
X240370779Y75711515D01*
X240354196Y75656850D01*
X240348597Y75600000D01*
X240348597Y74600000D01*
X240354196Y74543150D01*
X240370779Y74488485D01*
X240397707Y74438105D01*
X240433947Y74393947D01*
X240478105Y74357707D01*
X240528485Y74330779D01*
X240583150Y74314196D01*
X240640000Y74308597D01*
X241940000Y74308597D01*
X241996850Y74314196D01*
X242051515Y74330779D01*
X242101895Y74357707D01*
X242146053Y74393947D01*
X242182293Y74438105D01*
X242209221Y74488485D01*
X242225804Y74543150D01*
X242231403Y74600000D01*
X242231403Y75600000D01*
X242225804Y75656850D01*
X242209221Y75711515D01*
X242182293Y75761895D01*
X242146053Y75806053D01*
X242101895Y75842293D01*
X242051515Y75869221D01*
X241996850Y75885804D01*
X241940000Y75891403D01*
X241730000Y75891403D01*
X241730000Y75956426D01*
X241803786Y75971103D01*
X242093147Y76090961D01*
X242353566Y76264967D01*
X242575033Y76486434D01*
X242749039Y76746853D01*
X242868897Y77036214D01*
X242930000Y77343399D01*
X242930000Y77656601D01*
X246250000Y77656601D01*
X246250000Y77343399D01*
X246311103Y77036214D01*
X246430961Y76746853D01*
X246604967Y76486434D01*
X246826434Y76264967D01*
X247086853Y76090961D01*
X247376214Y75971103D01*
X247450001Y75956426D01*
X247450001Y75891403D01*
X247140000Y75891403D01*
X247083150Y75885804D01*
X247028485Y75869221D01*
X246978105Y75842293D01*
X246933947Y75806053D01*
X246897707Y75761895D01*
X246870779Y75711515D01*
X246854196Y75656850D01*
X246848597Y75600000D01*
X246848597Y74600000D01*
X246854196Y74543150D01*
X246870779Y74488485D01*
X246897707Y74438105D01*
X246933947Y74393947D01*
X246978105Y74357707D01*
X247028485Y74330779D01*
X247083150Y74314196D01*
X247140000Y74308597D01*
X248440000Y74308597D01*
X248496850Y74314196D01*
X248551515Y74330779D01*
X248601895Y74357707D01*
X248646053Y74393947D01*
X248682293Y74438105D01*
X248709221Y74488485D01*
X248725804Y74543150D01*
X248731403Y74600000D01*
X248731403Y75600000D01*
X248725804Y75656850D01*
X248709221Y75711515D01*
X248682293Y75761895D01*
X248646053Y75806053D01*
X248601895Y75842293D01*
X248551515Y75869221D01*
X248496850Y75885804D01*
X248440000Y75891403D01*
X248230000Y75891403D01*
X248230000Y75956426D01*
X248303786Y75971103D01*
X248593147Y76090961D01*
X248853566Y76264967D01*
X249075033Y76486434D01*
X249249039Y76746853D01*
X249368897Y77036214D01*
X249430000Y77343399D01*
X249430000Y77656601D01*
X253750000Y77656601D01*
X253750000Y77343399D01*
X253811103Y77036214D01*
X253930961Y76746853D01*
X254104967Y76486434D01*
X254326434Y76264967D01*
X254586853Y76090961D01*
X254876214Y75971103D01*
X254950001Y75956426D01*
X254950001Y75891403D01*
X254640000Y75891403D01*
X254583150Y75885804D01*
X254528485Y75869221D01*
X254478105Y75842293D01*
X254433947Y75806053D01*
X254397707Y75761895D01*
X254370779Y75711515D01*
X254354196Y75656850D01*
X254348597Y75600000D01*
X254348597Y74600000D01*
X254354196Y74543150D01*
X254370779Y74488485D01*
X254397707Y74438105D01*
X254433947Y74393947D01*
X254478105Y74357707D01*
X254528485Y74330779D01*
X254583150Y74314196D01*
X254640000Y74308597D01*
X255940000Y74308597D01*
X255996850Y74314196D01*
X256051515Y74330779D01*
X256101895Y74357707D01*
X256146053Y74393947D01*
X256182293Y74438105D01*
X256209221Y74488485D01*
X256225804Y74543150D01*
X256231403Y74600000D01*
X256231403Y75600000D01*
X256225804Y75656850D01*
X256209221Y75711515D01*
X256182293Y75761895D01*
X256146053Y75806053D01*
X256101895Y75842293D01*
X256051515Y75869221D01*
X255996850Y75885804D01*
X255940000Y75891403D01*
X255730000Y75891403D01*
X255730000Y75956426D01*
X255803786Y75971103D01*
X256093147Y76090961D01*
X256353566Y76264967D01*
X256575033Y76486434D01*
X256749039Y76746853D01*
X256868897Y77036214D01*
X256930000Y77343399D01*
X256930000Y77656601D01*
X260250000Y77656601D01*
X260250000Y77343399D01*
X260311103Y77036214D01*
X260430961Y76746853D01*
X260604967Y76486434D01*
X260826434Y76264967D01*
X261086853Y76090961D01*
X261376214Y75971103D01*
X261450001Y75956426D01*
X261450001Y75891403D01*
X261140000Y75891403D01*
X261083150Y75885804D01*
X261028485Y75869221D01*
X260978105Y75842293D01*
X260933947Y75806053D01*
X260897707Y75761895D01*
X260870779Y75711515D01*
X260854196Y75656850D01*
X260848597Y75600000D01*
X260848597Y74600000D01*
X260854196Y74543150D01*
X260870779Y74488485D01*
X260897707Y74438105D01*
X260933947Y74393947D01*
X260978105Y74357707D01*
X261028485Y74330779D01*
X261083150Y74314196D01*
X261140000Y74308597D01*
X262440000Y74308597D01*
X262496850Y74314196D01*
X262551515Y74330779D01*
X262601895Y74357707D01*
X262646053Y74393947D01*
X262682293Y74438105D01*
X262709221Y74488485D01*
X262725804Y74543150D01*
X262731403Y74600000D01*
X262731403Y75600000D01*
X262725804Y75656850D01*
X262709221Y75711515D01*
X262682293Y75761895D01*
X262646053Y75806053D01*
X262601895Y75842293D01*
X262551515Y75869221D01*
X262496850Y75885804D01*
X262440000Y75891403D01*
X262230000Y75891403D01*
X262230000Y75956426D01*
X262303786Y75971103D01*
X262593147Y76090961D01*
X262853566Y76264967D01*
X263075033Y76486434D01*
X263249039Y76746853D01*
X263368897Y77036214D01*
X263430000Y77343399D01*
X263430000Y77656601D01*
X267750000Y77656601D01*
X267750000Y77343399D01*
X267811103Y77036214D01*
X267930961Y76746853D01*
X268104967Y76486434D01*
X268326434Y76264967D01*
X268586853Y76090961D01*
X268876214Y75971103D01*
X268950001Y75956426D01*
X268950001Y75891403D01*
X268640000Y75891403D01*
X268583150Y75885804D01*
X268528485Y75869221D01*
X268478105Y75842293D01*
X268433947Y75806053D01*
X268397707Y75761895D01*
X268370779Y75711515D01*
X268354196Y75656850D01*
X268348597Y75600000D01*
X268348597Y74600000D01*
X268354196Y74543150D01*
X268370779Y74488485D01*
X268397707Y74438105D01*
X268433947Y74393947D01*
X268478105Y74357707D01*
X268528485Y74330779D01*
X268583150Y74314196D01*
X268640000Y74308597D01*
X269940000Y74308597D01*
X269996850Y74314196D01*
X270051515Y74330779D01*
X270101895Y74357707D01*
X270146053Y74393947D01*
X270182293Y74438105D01*
X270209221Y74488485D01*
X270225804Y74543150D01*
X270231403Y74600000D01*
X270231403Y75600000D01*
X270225804Y75656850D01*
X270209221Y75711515D01*
X270182293Y75761895D01*
X270146053Y75806053D01*
X270101895Y75842293D01*
X270051515Y75869221D01*
X269996850Y75885804D01*
X269940000Y75891403D01*
X269730000Y75891403D01*
X269730000Y75956426D01*
X269803786Y75971103D01*
X270093147Y76090961D01*
X270353566Y76264967D01*
X270575033Y76486434D01*
X270749039Y76746853D01*
X270868897Y77036214D01*
X270930000Y77343399D01*
X270930000Y77656601D01*
X270868897Y77963786D01*
X270749039Y78253147D01*
X270575033Y78513566D01*
X270353566Y78735033D01*
X270093147Y78909039D01*
X269803786Y79028897D01*
X269496601Y79090000D01*
X269183399Y79090000D01*
X268876214Y79028897D01*
X268586853Y78909039D01*
X268326434Y78735033D01*
X268104967Y78513566D01*
X267930961Y78253147D01*
X267811103Y77963786D01*
X267750000Y77656601D01*
X263430000Y77656601D01*
X263368897Y77963786D01*
X263249039Y78253147D01*
X263075033Y78513566D01*
X262853566Y78735033D01*
X262593147Y78909039D01*
X262303786Y79028897D01*
X261996601Y79090000D01*
X261683399Y79090000D01*
X261376214Y79028897D01*
X261086853Y78909039D01*
X260826434Y78735033D01*
X260604967Y78513566D01*
X260430961Y78253147D01*
X260311103Y77963786D01*
X260250000Y77656601D01*
X256930000Y77656601D01*
X256868897Y77963786D01*
X256749039Y78253147D01*
X256575033Y78513566D01*
X256353566Y78735033D01*
X256093147Y78909039D01*
X255803786Y79028897D01*
X255496601Y79090000D01*
X255183399Y79090000D01*
X254876214Y79028897D01*
X254586853Y78909039D01*
X254326434Y78735033D01*
X254104967Y78513566D01*
X253930961Y78253147D01*
X253811103Y77963786D01*
X253750000Y77656601D01*
X249430000Y77656601D01*
X249368897Y77963786D01*
X249249039Y78253147D01*
X249075033Y78513566D01*
X248853566Y78735033D01*
X248593147Y78909039D01*
X248303786Y79028897D01*
X247996601Y79090000D01*
X247683399Y79090000D01*
X247376214Y79028897D01*
X247086853Y78909039D01*
X246826434Y78735033D01*
X246604967Y78513566D01*
X246430961Y78253147D01*
X246311103Y77963786D01*
X246250000Y77656601D01*
X242930000Y77656601D01*
X242868897Y77963786D01*
X242749039Y78253147D01*
X242575033Y78513566D01*
X242353566Y78735033D01*
X242093147Y78909039D01*
X241803786Y79028897D01*
X241496601Y79090000D01*
X241183399Y79090000D01*
X240876214Y79028897D01*
X240586853Y78909039D01*
X240326434Y78735033D01*
X240104967Y78513566D01*
X239930961Y78253147D01*
X239811103Y77963786D01*
X239750000Y77656601D01*
X235430000Y77656601D01*
X235368897Y77963786D01*
X235249039Y78253147D01*
X235075033Y78513566D01*
X234853566Y78735033D01*
X234593147Y78909039D01*
X234303786Y79028897D01*
X233996601Y79090000D01*
X233683399Y79090000D01*
X233376214Y79028897D01*
X233086853Y78909039D01*
X232826434Y78735033D01*
X232604967Y78513566D01*
X232430961Y78253147D01*
X232311103Y77963786D01*
X232250000Y77656601D01*
X228930000Y77656601D01*
X228868897Y77963786D01*
X228749039Y78253147D01*
X228575033Y78513566D01*
X228353566Y78735033D01*
X228093147Y78909039D01*
X227803786Y79028897D01*
X227496601Y79090000D01*
X227183399Y79090000D01*
X226876214Y79028897D01*
X226586853Y78909039D01*
X226326434Y78735033D01*
X226104967Y78513566D01*
X225930961Y78253147D01*
X225811103Y77963786D01*
X225750000Y77656601D01*
X221430000Y77656601D01*
X221368897Y77963786D01*
X221249039Y78253147D01*
X221075033Y78513566D01*
X220853566Y78735033D01*
X220593147Y78909039D01*
X220303786Y79028897D01*
X219996601Y79090000D01*
X219683399Y79090000D01*
X219376214Y79028897D01*
X219086853Y78909039D01*
X218826434Y78735033D01*
X218604967Y78513566D01*
X218430961Y78253147D01*
X218311103Y77963786D01*
X218250000Y77656601D01*
X201365000Y77656601D01*
X201365000Y79681722D01*
X216050000Y79681722D01*
X216070113Y79477513D01*
X216149594Y79215497D01*
X216278666Y78974022D01*
X216452366Y78762367D01*
X216664021Y78588666D01*
X216905496Y78459594D01*
X217167512Y78380113D01*
X217440000Y78353275D01*
X217712487Y78380113D01*
X217974503Y78459594D01*
X218215978Y78588666D01*
X218427633Y78762366D01*
X218601334Y78974021D01*
X218730406Y79215496D01*
X218809887Y79477512D01*
X218830000Y79681721D01*
X218830000Y81962496D01*
X242300000Y81962496D01*
X242300000Y80537505D01*
X242333135Y80201083D01*
X242464079Y79769416D01*
X242676722Y79371589D01*
X242962891Y79022891D01*
X243311588Y78736722D01*
X243709415Y78524079D01*
X244141082Y78393135D01*
X244590000Y78348920D01*
X245038917Y78393135D01*
X245470584Y78524079D01*
X245868411Y78736722D01*
X246217109Y79022891D01*
X246503278Y79371588D01*
X246669048Y79681722D01*
X270350000Y79681722D01*
X270370113Y79477513D01*
X270449594Y79215497D01*
X270578666Y78974022D01*
X270752366Y78762367D01*
X270964021Y78588666D01*
X271205496Y78459594D01*
X271467512Y78380113D01*
X271740000Y78353275D01*
X272012487Y78380113D01*
X272274503Y78459594D01*
X272515978Y78588666D01*
X272727633Y78762366D01*
X272901334Y78974021D01*
X273030406Y79215496D01*
X273109887Y79477512D01*
X273130000Y79681721D01*
X273130000Y82818279D01*
X273109887Y83022488D01*
X273030406Y83284504D01*
X272901334Y83525979D01*
X272727634Y83737634D01*
X272515979Y83911334D01*
X272274504Y84040406D01*
X272012488Y84119887D01*
X271740000Y84146725D01*
X271467513Y84119887D01*
X271205497Y84040406D01*
X270964022Y83911334D01*
X270752367Y83737634D01*
X270578667Y83525979D01*
X270449595Y83284504D01*
X270370114Y83022488D01*
X270350001Y82818279D01*
X270350000Y79681722D01*
X246669048Y79681722D01*
X246715921Y79769415D01*
X246846865Y80201082D01*
X246880000Y80537504D01*
X246880000Y81962495D01*
X246846865Y82298917D01*
X246715921Y82730584D01*
X246503278Y83128412D01*
X246217109Y83477109D01*
X246113898Y83561813D01*
X246883744Y83561813D01*
X247038539Y83367870D01*
X247323579Y83238070D01*
X247628465Y83166372D01*
X247941480Y83155532D01*
X248250595Y83205967D01*
X248543931Y83315738D01*
X248641461Y83367870D01*
X248796256Y83561813D01*
X260883744Y83561813D01*
X261038539Y83367870D01*
X261323579Y83238070D01*
X261628465Y83166372D01*
X261941480Y83155532D01*
X262250595Y83205967D01*
X262543931Y83315738D01*
X262641461Y83367870D01*
X262796256Y83561813D01*
X261840000Y84518069D01*
X260883744Y83561813D01*
X248796256Y83561813D01*
X247840000Y84518069D01*
X246883744Y83561813D01*
X246113898Y83561813D01*
X245868412Y83763278D01*
X245470585Y83975921D01*
X245038918Y84106865D01*
X244590000Y84151080D01*
X244141083Y84106865D01*
X243709416Y83975921D01*
X243311589Y83763278D01*
X242962892Y83477109D01*
X242676723Y83128412D01*
X242464079Y82730585D01*
X242333135Y82298918D01*
X242300000Y81962496D01*
X218830000Y81962496D01*
X218830000Y82818279D01*
X218809887Y83022488D01*
X218730406Y83284504D01*
X218601334Y83525979D01*
X218571926Y83561813D01*
X218883744Y83561813D01*
X219038539Y83367870D01*
X219323579Y83238070D01*
X219628465Y83166372D01*
X219941480Y83155532D01*
X220250595Y83205967D01*
X220543931Y83315738D01*
X220641461Y83367870D01*
X220796256Y83561813D01*
X232883744Y83561813D01*
X233038539Y83367870D01*
X233323579Y83238070D01*
X233628465Y83166372D01*
X233941480Y83155532D01*
X234250595Y83205967D01*
X234543931Y83315738D01*
X234641461Y83367870D01*
X234796256Y83561813D01*
X233840000Y84518069D01*
X232883744Y83561813D01*
X220796256Y83561813D01*
X219840000Y84518069D01*
X218883744Y83561813D01*
X218571926Y83561813D01*
X218427634Y83737634D01*
X218215979Y83911334D01*
X217974504Y84040406D01*
X217712488Y84119887D01*
X217440000Y84146725D01*
X217167513Y84119887D01*
X216905497Y84040406D01*
X216664022Y83911334D01*
X216452367Y83737634D01*
X216278667Y83525979D01*
X216149595Y83284504D01*
X216070114Y83022488D01*
X216050001Y82818279D01*
X216050000Y79681722D01*
X201365000Y79681722D01*
X201365000Y84144037D01*
X204990000Y84144037D01*
X204990000Y83495963D01*
X205116433Y82860342D01*
X205364440Y82261601D01*
X205724490Y81722747D01*
X206182747Y81264490D01*
X206721601Y80904440D01*
X207320342Y80656433D01*
X207955963Y80530000D01*
X208604037Y80530000D01*
X209239658Y80656433D01*
X209838399Y80904440D01*
X210377253Y81264490D01*
X210835510Y81722747D01*
X211195560Y82261601D01*
X211443567Y82860342D01*
X211570000Y83495963D01*
X211570000Y84144037D01*
X211469652Y84648520D01*
X218245532Y84648520D01*
X218295967Y84339405D01*
X218405738Y84046069D01*
X218457870Y83948539D01*
X218651813Y83793744D01*
X219608069Y84750000D01*
X220071931Y84750000D01*
X221028187Y83793744D01*
X221222130Y83948539D01*
X221351930Y84233579D01*
X221423628Y84538465D01*
X221427439Y84648520D01*
X232245532Y84648520D01*
X232295967Y84339405D01*
X232405738Y84046069D01*
X232457870Y83948539D01*
X232651813Y83793744D01*
X233608069Y84750000D01*
X234071931Y84750000D01*
X235028187Y83793744D01*
X235222130Y83948539D01*
X235351930Y84233579D01*
X235423628Y84538465D01*
X235427439Y84648520D01*
X246245532Y84648520D01*
X246295967Y84339405D01*
X246405738Y84046069D01*
X246457870Y83948539D01*
X246651813Y83793744D01*
X247608069Y84750000D01*
X248071931Y84750000D01*
X249028187Y83793744D01*
X249222130Y83948539D01*
X249351930Y84233579D01*
X249423628Y84538465D01*
X249427439Y84648520D01*
X260245532Y84648520D01*
X260295967Y84339405D01*
X260405738Y84046069D01*
X260457870Y83948539D01*
X260651813Y83793744D01*
X261608069Y84750000D01*
X262071931Y84750000D01*
X263028187Y83793744D01*
X263222130Y83948539D01*
X263351930Y84233579D01*
X263423628Y84538465D01*
X263434468Y84851480D01*
X263384033Y85160595D01*
X263274262Y85453931D01*
X263222130Y85551461D01*
X263028187Y85706256D01*
X262071931Y84750000D01*
X261608069Y84750000D01*
X260651813Y85706256D01*
X260457870Y85551461D01*
X260328070Y85266421D01*
X260256372Y84961535D01*
X260245532Y84648520D01*
X249427439Y84648520D01*
X249434468Y84851480D01*
X249384033Y85160595D01*
X249274262Y85453931D01*
X249222130Y85551461D01*
X249028187Y85706256D01*
X248071931Y84750000D01*
X247608069Y84750000D01*
X246651813Y85706256D01*
X246457870Y85551461D01*
X246328070Y85266421D01*
X246256372Y84961535D01*
X246245532Y84648520D01*
X235427439Y84648520D01*
X235434468Y84851480D01*
X235384033Y85160595D01*
X235274262Y85453931D01*
X235222130Y85551461D01*
X235028187Y85706256D01*
X234071931Y84750000D01*
X233608069Y84750000D01*
X232651813Y85706256D01*
X232457870Y85551461D01*
X232328070Y85266421D01*
X232256372Y84961535D01*
X232245532Y84648520D01*
X221427439Y84648520D01*
X221434468Y84851480D01*
X221384033Y85160595D01*
X221274262Y85453931D01*
X221222130Y85551461D01*
X221028187Y85706256D01*
X220071931Y84750000D01*
X219608069Y84750000D01*
X218651813Y85706256D01*
X218457870Y85551461D01*
X218328070Y85266421D01*
X218256372Y84961535D01*
X218245532Y84648520D01*
X211469652Y84648520D01*
X211443567Y84779658D01*
X211195560Y85378399D01*
X210835510Y85917253D01*
X210814576Y85938187D01*
X218883744Y85938187D01*
X219840000Y84981931D01*
X220796256Y85938187D01*
X232883744Y85938187D01*
X233840000Y84981931D01*
X234796256Y85938187D01*
X246883744Y85938187D01*
X247840000Y84981931D01*
X248796256Y85938187D01*
X260883744Y85938187D01*
X261840000Y84981931D01*
X262796256Y85938187D01*
X262641461Y86132130D01*
X262356421Y86261930D01*
X262051535Y86333628D01*
X261738520Y86344468D01*
X261429405Y86294033D01*
X261136069Y86184262D01*
X261038539Y86132130D01*
X260883744Y85938187D01*
X248796256Y85938187D01*
X248641461Y86132130D01*
X248356421Y86261930D01*
X248051535Y86333628D01*
X247738520Y86344468D01*
X247429405Y86294033D01*
X247136069Y86184262D01*
X247038539Y86132130D01*
X246883744Y85938187D01*
X234796256Y85938187D01*
X234641461Y86132130D01*
X234356421Y86261930D01*
X234051535Y86333628D01*
X233738520Y86344468D01*
X233429405Y86294033D01*
X233136069Y86184262D01*
X233038539Y86132130D01*
X232883744Y85938187D01*
X220796256Y85938187D01*
X220641461Y86132130D01*
X220356421Y86261930D01*
X220051535Y86333628D01*
X219738520Y86344468D01*
X219429405Y86294033D01*
X219136069Y86184262D01*
X219038539Y86132130D01*
X218883744Y85938187D01*
X210814576Y85938187D01*
X210377253Y86375510D01*
X209838399Y86735560D01*
X209239658Y86983567D01*
X208604037Y87110000D01*
X207955963Y87110000D01*
X207320342Y86983567D01*
X206721601Y86735560D01*
X206182747Y86375510D01*
X205724490Y85917253D01*
X205364440Y85378399D01*
X205116433Y84779658D01*
X204990000Y84144037D01*
X201365000Y84144037D01*
X201365000Y89635000D01*
X274910000Y89635000D01*
X274910000Y45365000D01*
M02*
