G04 #@! TF.GenerationSoftware,KiCad,Pcbnew,(5.1.2-1)-1*
G04 #@! TF.CreationDate,2019-07-24T21:32:52+02:00*
G04 #@! TF.ProjectId,AddOnB,4164644f-6e42-42e6-9b69-6361645f7063,rev?*
G04 #@! TF.SameCoordinates,Original*
G04 #@! TF.FileFunction,Copper,L1,Top*
G04 #@! TF.FilePolarity,Positive*
%FSLAX46Y46*%
G04 Gerber Fmt 4.6, Leading zero omitted, Abs format (unit mm)*
G04 Created by KiCad (PCBNEW (5.1.2-1)-1) date 2019-07-24 21:32:52*
%MOMM*%
%LPD*%
G04 APERTURE LIST*
%ADD10C,6.000000*%
%ADD11C,1.727200*%
%ADD12R,1.727200X1.727200*%
%ADD13O,4.000000X5.200000*%
%ADD14O,2.200000X5.200000*%
%ADD15C,2.600000*%
%ADD16C,1.600000*%
%ADD17C,1.400000*%
%ADD18O,1.727200X1.727200*%
%ADD19C,1.500000*%
%ADD20C,0.600000*%
%ADD21C,0.200000*%
G04 APERTURE END LIST*
D10*
X208280000Y83820000D03*
X208280000Y50800000D03*
X337820000Y58420000D03*
D11*
X312540000Y53065000D03*
X312540000Y50525000D03*
X310000000Y53065000D03*
X310000000Y50525000D03*
X307460000Y53065000D03*
X307460000Y50525000D03*
X304920000Y53065000D03*
X304920000Y50525000D03*
X302380000Y53065000D03*
X302380000Y50525000D03*
X299840000Y53065000D03*
X299840000Y50525000D03*
X297300000Y53065000D03*
X297300000Y50525000D03*
X294760000Y53065000D03*
D12*
X294760000Y50525000D03*
D13*
X244590000Y81250000D03*
D14*
X217440000Y81250000D03*
X271740000Y81250000D03*
D15*
X227340000Y77500000D03*
X219840000Y77500000D03*
X219840000Y84750000D03*
X233840000Y77500000D03*
X233840000Y84750000D03*
X241340000Y77500000D03*
X247840000Y84750000D03*
X247840000Y77500000D03*
X255340000Y77500000D03*
X261840000Y84750000D03*
X261840000Y77500000D03*
X269340000Y77500000D03*
D16*
X280460000Y84630000D03*
X285540000Y84630000D03*
D17*
X280460000Y82000000D03*
X283000000Y82000000D03*
X285540000Y82000000D03*
X299540000Y82000000D03*
X297000000Y82000000D03*
X294460000Y82000000D03*
D16*
X299540000Y84630000D03*
X294460000Y84630000D03*
X308460000Y84630000D03*
X313540000Y84630000D03*
D17*
X308460000Y82000000D03*
X311000000Y82000000D03*
X313540000Y82000000D03*
X327540000Y82000000D03*
X325000000Y82000000D03*
X322460000Y82000000D03*
D16*
X327540000Y84630000D03*
X322460000Y84630000D03*
D18*
X227710000Y54710000D03*
X227710000Y57250000D03*
X230250000Y54710000D03*
X230250000Y57250000D03*
X232790000Y54710000D03*
X232790000Y57250000D03*
X235330000Y54710000D03*
X235330000Y57250000D03*
X237870000Y54710000D03*
X237870000Y57250000D03*
X240410000Y54710000D03*
X240410000Y57250000D03*
X242950000Y54710000D03*
X242950000Y57250000D03*
X245490000Y54710000D03*
X245490000Y57250000D03*
X248030000Y54710000D03*
X248030000Y57250000D03*
X250570000Y54710000D03*
X250570000Y57250000D03*
X253110000Y54710000D03*
X253110000Y57250000D03*
X255650000Y54710000D03*
X255650000Y57250000D03*
X258190000Y54710000D03*
D12*
X258190000Y57250000D03*
D16*
X336715000Y50835000D03*
X335445000Y48295000D03*
X334175000Y50835000D03*
X332905000Y48295000D03*
X331635000Y50835000D03*
X330365000Y48295000D03*
X329095000Y50835000D03*
X327825000Y48295000D03*
X326555000Y50835000D03*
X325285000Y48295000D03*
X324015000Y50835000D03*
X322745000Y48295000D03*
X321475000Y50835000D03*
X320205000Y48295000D03*
D19*
X338115000Y49035000D03*
D10*
X337820000Y83820000D03*
D20*
X318200000Y82000000D03*
X332200000Y82000000D03*
X304200000Y82000000D03*
X290200000Y82000000D03*
X320555000Y69900000D03*
X321825000Y69900000D03*
X326600000Y78600000D03*
X318600000Y77700000D03*
X310400000Y71100000D03*
X277360000Y53765000D03*
X277360000Y51765000D03*
X291360000Y53165000D03*
X290360000Y55065000D03*
X215790000Y76000000D03*
X217790000Y76000000D03*
X223290000Y76000000D03*
X225290000Y76000000D03*
X229790000Y76000000D03*
X231790000Y76000000D03*
X239290000Y76000000D03*
X237290000Y76000000D03*
X245790000Y76000000D03*
X243790000Y76000000D03*
X251290000Y76000000D03*
X253290000Y76000000D03*
X257790000Y76000000D03*
X259790000Y76000000D03*
X265290000Y76000000D03*
X267290000Y76000000D03*
X319600000Y73800008D03*
X319600000Y76000000D03*
D21*
X319600000Y73800008D02*
X319600000Y76000000D01*
G36*
X274900000Y45375000D02*
G01*
X201375000Y45375000D01*
X201375000Y51125022D01*
X204980000Y51125022D01*
X204980000Y50474978D01*
X205106817Y49837426D01*
X205355578Y49236864D01*
X205716723Y48696373D01*
X206176373Y48236723D01*
X206716864Y47875578D01*
X207317426Y47626817D01*
X207954978Y47500000D01*
X208605022Y47500000D01*
X209242574Y47626817D01*
X209843136Y47875578D01*
X210383627Y48236723D01*
X210843277Y48696373D01*
X211204422Y49236864D01*
X211453183Y49837426D01*
X211580000Y50474978D01*
X211580000Y51125022D01*
X211453183Y51762574D01*
X211204422Y52363136D01*
X210843277Y52903627D01*
X210383627Y53363277D01*
X209843136Y53724422D01*
X209242574Y53973183D01*
X208605022Y54100000D01*
X207954978Y54100000D01*
X207317426Y53973183D01*
X206716864Y53724422D01*
X206176373Y53363277D01*
X205716723Y52903627D01*
X205355578Y52363136D01*
X205106817Y51762574D01*
X204980000Y51125022D01*
X201375000Y51125022D01*
X201375000Y57250000D01*
X226540770Y57250000D01*
X226563236Y57021895D01*
X226629772Y56802555D01*
X226737821Y56600411D01*
X226883230Y56423230D01*
X227060411Y56277821D01*
X227262555Y56169772D01*
X227481895Y56103236D01*
X227652837Y56086400D01*
X227767163Y56086400D01*
X227938105Y56103236D01*
X228157445Y56169772D01*
X228359589Y56277821D01*
X228536770Y56423230D01*
X228682179Y56600411D01*
X228790228Y56802555D01*
X228856764Y57021895D01*
X228864062Y57095998D01*
X228939416Y57095998D01*
X228828589Y56868951D01*
X228856435Y56777135D01*
X228975463Y56514350D01*
X229143471Y56279835D01*
X229354003Y56082603D01*
X229518958Y55980000D01*
X229354003Y55877397D01*
X229143471Y55680165D01*
X228975463Y55445650D01*
X228856435Y55182865D01*
X228828589Y55091049D01*
X228939416Y54864002D01*
X228864062Y54864002D01*
X228856764Y54938105D01*
X228790228Y55157445D01*
X228682179Y55359589D01*
X228536770Y55536770D01*
X228359589Y55682179D01*
X228157445Y55790228D01*
X227938105Y55856764D01*
X227767163Y55873600D01*
X227652837Y55873600D01*
X227481895Y55856764D01*
X227262555Y55790228D01*
X227060411Y55682179D01*
X226883230Y55536770D01*
X226737821Y55359589D01*
X226629772Y55157445D01*
X226563236Y54938105D01*
X226540770Y54710000D01*
X226563236Y54481895D01*
X226629772Y54262555D01*
X226737821Y54060411D01*
X226883230Y53883230D01*
X227060411Y53737821D01*
X227262555Y53629772D01*
X227481895Y53563236D01*
X227652837Y53546400D01*
X227767163Y53546400D01*
X227938105Y53563236D01*
X228157445Y53629772D01*
X228359589Y53737821D01*
X228536770Y53883230D01*
X228682179Y54060411D01*
X228790228Y54262555D01*
X228856764Y54481895D01*
X228864062Y54555998D01*
X228939416Y54555998D01*
X228828589Y54328951D01*
X228856435Y54237135D01*
X228975463Y53974350D01*
X229143471Y53739835D01*
X229354003Y53542603D01*
X229598967Y53390234D01*
X229868950Y53288583D01*
X230096000Y53398474D01*
X230096000Y54556000D01*
X230076000Y54556000D01*
X230076000Y54864000D01*
X230096000Y54864000D01*
X230096000Y57096000D01*
X230404000Y57096000D01*
X230404000Y54864000D01*
X230424000Y54864000D01*
X230424000Y54556000D01*
X230404000Y54556000D01*
X230404000Y53398474D01*
X230631050Y53288583D01*
X230901033Y53390234D01*
X231145997Y53542603D01*
X231356529Y53739835D01*
X231524537Y53974350D01*
X231643565Y54237135D01*
X231671411Y54328951D01*
X231560584Y54555998D01*
X231635938Y54555998D01*
X231643236Y54481895D01*
X231709772Y54262555D01*
X231817821Y54060411D01*
X231963230Y53883230D01*
X232140411Y53737821D01*
X232342555Y53629772D01*
X232561895Y53563236D01*
X232732837Y53546400D01*
X232847163Y53546400D01*
X233018105Y53563236D01*
X233237445Y53629772D01*
X233439589Y53737821D01*
X233616770Y53883230D01*
X233762179Y54060411D01*
X233870228Y54262555D01*
X233936764Y54481895D01*
X233944062Y54555998D01*
X234019416Y54555998D01*
X233908589Y54328951D01*
X233936435Y54237135D01*
X234055463Y53974350D01*
X234223471Y53739835D01*
X234434003Y53542603D01*
X234678967Y53390234D01*
X234948950Y53288583D01*
X235176000Y53398474D01*
X235176000Y54556000D01*
X235484000Y54556000D01*
X235484000Y53398474D01*
X235711050Y53288583D01*
X235981033Y53390234D01*
X236225997Y53542603D01*
X236436529Y53739835D01*
X236600000Y53968017D01*
X236763471Y53739835D01*
X236974003Y53542603D01*
X237218967Y53390234D01*
X237488950Y53288583D01*
X237716000Y53398474D01*
X237716000Y54556000D01*
X235484000Y54556000D01*
X235176000Y54556000D01*
X235156000Y54556000D01*
X235156000Y54864000D01*
X235176000Y54864000D01*
X235176000Y54884000D01*
X235484000Y54884000D01*
X235484000Y54864000D01*
X237716000Y54864000D01*
X237716000Y57096000D01*
X238024000Y57096000D01*
X238024000Y54864000D01*
X238044000Y54864000D01*
X238044000Y54556000D01*
X238024000Y54556000D01*
X238024000Y53398474D01*
X238251050Y53288583D01*
X238521033Y53390234D01*
X238765997Y53542603D01*
X238976529Y53739835D01*
X239144537Y53974350D01*
X239263565Y54237135D01*
X239291411Y54328951D01*
X239180584Y54555998D01*
X239255938Y54555998D01*
X239263236Y54481895D01*
X239329772Y54262555D01*
X239437821Y54060411D01*
X239583230Y53883230D01*
X239760411Y53737821D01*
X239962555Y53629772D01*
X240181895Y53563236D01*
X240352837Y53546400D01*
X240467163Y53546400D01*
X240638105Y53563236D01*
X240857445Y53629772D01*
X241059589Y53737821D01*
X241236770Y53883230D01*
X241382179Y54060411D01*
X241490228Y54262555D01*
X241556764Y54481895D01*
X241564062Y54555998D01*
X241639416Y54555998D01*
X241528589Y54328951D01*
X241556435Y54237135D01*
X241675463Y53974350D01*
X241843471Y53739835D01*
X242054003Y53542603D01*
X242298967Y53390234D01*
X242568950Y53288583D01*
X242796000Y53398474D01*
X242796000Y54556000D01*
X243104000Y54556000D01*
X243104000Y53398474D01*
X243331050Y53288583D01*
X243601033Y53390234D01*
X243845997Y53542603D01*
X244056529Y53739835D01*
X244220000Y53968017D01*
X244383471Y53739835D01*
X244594003Y53542603D01*
X244838967Y53390234D01*
X245108950Y53288583D01*
X245336000Y53398474D01*
X245336000Y54556000D01*
X243104000Y54556000D01*
X242796000Y54556000D01*
X242776000Y54556000D01*
X242776000Y54864000D01*
X242796000Y54864000D01*
X242796000Y54884000D01*
X243104000Y54884000D01*
X243104000Y54864000D01*
X245336000Y54864000D01*
X245336000Y57096000D01*
X245644000Y57096000D01*
X245644000Y54864000D01*
X245664000Y54864000D01*
X245664000Y54556000D01*
X245644000Y54556000D01*
X245644000Y53398474D01*
X245871050Y53288583D01*
X246141033Y53390234D01*
X246385997Y53542603D01*
X246596529Y53739835D01*
X246764537Y53974350D01*
X246883565Y54237135D01*
X246911411Y54328951D01*
X246800584Y54555998D01*
X246875938Y54555998D01*
X246883236Y54481895D01*
X246949772Y54262555D01*
X247057821Y54060411D01*
X247203230Y53883230D01*
X247380411Y53737821D01*
X247582555Y53629772D01*
X247801895Y53563236D01*
X247972837Y53546400D01*
X248087163Y53546400D01*
X248258105Y53563236D01*
X248477445Y53629772D01*
X248679589Y53737821D01*
X248856770Y53883230D01*
X249002179Y54060411D01*
X249110228Y54262555D01*
X249176764Y54481895D01*
X249184062Y54555998D01*
X249259416Y54555998D01*
X249148589Y54328951D01*
X249176435Y54237135D01*
X249295463Y53974350D01*
X249463471Y53739835D01*
X249674003Y53542603D01*
X249918967Y53390234D01*
X250188950Y53288583D01*
X250416000Y53398474D01*
X250416000Y54556000D01*
X250724000Y54556000D01*
X250724000Y53398474D01*
X250951050Y53288583D01*
X251221033Y53390234D01*
X251465997Y53542603D01*
X251676529Y53739835D01*
X251840000Y53968017D01*
X252003471Y53739835D01*
X252214003Y53542603D01*
X252458967Y53390234D01*
X252728950Y53288583D01*
X252956000Y53398474D01*
X252956000Y54556000D01*
X250724000Y54556000D01*
X250416000Y54556000D01*
X250396000Y54556000D01*
X250396000Y54864000D01*
X250416000Y54864000D01*
X250416000Y54884000D01*
X250724000Y54884000D01*
X250724000Y54864000D01*
X252956000Y54864000D01*
X252956000Y57096000D01*
X253264000Y57096000D01*
X253264000Y54864000D01*
X253284000Y54864000D01*
X253284000Y54556000D01*
X253264000Y54556000D01*
X253264000Y53398474D01*
X253491050Y53288583D01*
X253761033Y53390234D01*
X254005997Y53542603D01*
X254216529Y53739835D01*
X254384537Y53974350D01*
X254503565Y54237135D01*
X254531411Y54328951D01*
X254420584Y54555998D01*
X254495938Y54555998D01*
X254503236Y54481895D01*
X254569772Y54262555D01*
X254677821Y54060411D01*
X254823230Y53883230D01*
X255000411Y53737821D01*
X255202555Y53629772D01*
X255421895Y53563236D01*
X255592837Y53546400D01*
X255707163Y53546400D01*
X255878105Y53563236D01*
X256097445Y53629772D01*
X256299589Y53737821D01*
X256476770Y53883230D01*
X256622179Y54060411D01*
X256730228Y54262555D01*
X256796764Y54481895D01*
X256804062Y54555998D01*
X256879416Y54555998D01*
X256768589Y54328951D01*
X256796435Y54237135D01*
X256915463Y53974350D01*
X257083471Y53739835D01*
X257294003Y53542603D01*
X257538967Y53390234D01*
X257808950Y53288583D01*
X258036000Y53398474D01*
X258036000Y54556000D01*
X258344000Y54556000D01*
X258344000Y53398474D01*
X258571050Y53288583D01*
X258841033Y53390234D01*
X259085997Y53542603D01*
X259296529Y53739835D01*
X259464537Y53974350D01*
X259583565Y54237135D01*
X259611411Y54328951D01*
X259500583Y54556000D01*
X258344000Y54556000D01*
X258036000Y54556000D01*
X258016000Y54556000D01*
X258016000Y54864000D01*
X258036000Y54864000D01*
X258036000Y54884000D01*
X258344000Y54884000D01*
X258344000Y54864000D01*
X259500583Y54864000D01*
X259611411Y55091049D01*
X259583565Y55182865D01*
X259464537Y55445650D01*
X259296529Y55680165D01*
X259085997Y55877397D01*
X258841033Y56029766D01*
X258694468Y56084949D01*
X259053600Y56084949D01*
X259112410Y56090741D01*
X259168960Y56107896D01*
X259221077Y56135753D01*
X259266758Y56173242D01*
X259304247Y56218923D01*
X259332104Y56271040D01*
X259349259Y56327590D01*
X259355051Y56386400D01*
X259355051Y58113600D01*
X259349259Y58172410D01*
X259332104Y58228960D01*
X259304247Y58281077D01*
X259266758Y58326758D01*
X259221077Y58364247D01*
X259168960Y58392104D01*
X259112410Y58409259D01*
X259053600Y58415051D01*
X257326400Y58415051D01*
X257267590Y58409259D01*
X257211040Y58392104D01*
X257158923Y58364247D01*
X257113242Y58326758D01*
X257075753Y58281077D01*
X257047896Y58228960D01*
X257030741Y58172410D01*
X257024949Y58113600D01*
X257024949Y57763965D01*
X256924537Y57985650D01*
X256756529Y58220165D01*
X256545997Y58417397D01*
X256301033Y58569766D01*
X256031050Y58671417D01*
X255804000Y58561526D01*
X255804000Y57404000D01*
X255824000Y57404000D01*
X255824000Y57096000D01*
X255804000Y57096000D01*
X255804000Y57076000D01*
X255496000Y57076000D01*
X255496000Y57096000D01*
X253264000Y57096000D01*
X252956000Y57096000D01*
X252936000Y57096000D01*
X252936000Y57404000D01*
X252956000Y57404000D01*
X252956000Y58561526D01*
X253264000Y58561526D01*
X253264000Y57404000D01*
X255496000Y57404000D01*
X255496000Y58561526D01*
X255268950Y58671417D01*
X254998967Y58569766D01*
X254754003Y58417397D01*
X254543471Y58220165D01*
X254380000Y57991983D01*
X254216529Y58220165D01*
X254005997Y58417397D01*
X253761033Y58569766D01*
X253491050Y58671417D01*
X253264000Y58561526D01*
X252956000Y58561526D01*
X252728950Y58671417D01*
X252458967Y58569766D01*
X252214003Y58417397D01*
X252003471Y58220165D01*
X251835463Y57985650D01*
X251716435Y57722865D01*
X251688589Y57631049D01*
X251799416Y57404002D01*
X251724062Y57404002D01*
X251716764Y57478105D01*
X251650228Y57697445D01*
X251542179Y57899589D01*
X251396770Y58076770D01*
X251219589Y58222179D01*
X251017445Y58330228D01*
X250798105Y58396764D01*
X250627163Y58413600D01*
X250512837Y58413600D01*
X250341895Y58396764D01*
X250122555Y58330228D01*
X249920411Y58222179D01*
X249743230Y58076770D01*
X249597821Y57899589D01*
X249489772Y57697445D01*
X249423236Y57478105D01*
X249415938Y57404002D01*
X249340584Y57404002D01*
X249451411Y57631049D01*
X249423565Y57722865D01*
X249304537Y57985650D01*
X249136529Y58220165D01*
X248925997Y58417397D01*
X248681033Y58569766D01*
X248411050Y58671417D01*
X248184000Y58561526D01*
X248184000Y57404000D01*
X248204000Y57404000D01*
X248204000Y57096000D01*
X248184000Y57096000D01*
X248184000Y57076000D01*
X247876000Y57076000D01*
X247876000Y57096000D01*
X245644000Y57096000D01*
X245336000Y57096000D01*
X245316000Y57096000D01*
X245316000Y57404000D01*
X245336000Y57404000D01*
X245336000Y58561526D01*
X245644000Y58561526D01*
X245644000Y57404000D01*
X247876000Y57404000D01*
X247876000Y58561526D01*
X247648950Y58671417D01*
X247378967Y58569766D01*
X247134003Y58417397D01*
X246923471Y58220165D01*
X246760000Y57991983D01*
X246596529Y58220165D01*
X246385997Y58417397D01*
X246141033Y58569766D01*
X245871050Y58671417D01*
X245644000Y58561526D01*
X245336000Y58561526D01*
X245108950Y58671417D01*
X244838967Y58569766D01*
X244594003Y58417397D01*
X244383471Y58220165D01*
X244215463Y57985650D01*
X244096435Y57722865D01*
X244068589Y57631049D01*
X244179416Y57404002D01*
X244104062Y57404002D01*
X244096764Y57478105D01*
X244030228Y57697445D01*
X243922179Y57899589D01*
X243776770Y58076770D01*
X243599589Y58222179D01*
X243397445Y58330228D01*
X243178105Y58396764D01*
X243007163Y58413600D01*
X242892837Y58413600D01*
X242721895Y58396764D01*
X242502555Y58330228D01*
X242300411Y58222179D01*
X242123230Y58076770D01*
X241977821Y57899589D01*
X241869772Y57697445D01*
X241803236Y57478105D01*
X241795938Y57404002D01*
X241720584Y57404002D01*
X241831411Y57631049D01*
X241803565Y57722865D01*
X241684537Y57985650D01*
X241516529Y58220165D01*
X241305997Y58417397D01*
X241061033Y58569766D01*
X240791050Y58671417D01*
X240564000Y58561526D01*
X240564000Y57404000D01*
X240584000Y57404000D01*
X240584000Y57096000D01*
X240564000Y57096000D01*
X240564000Y57076000D01*
X240256000Y57076000D01*
X240256000Y57096000D01*
X238024000Y57096000D01*
X237716000Y57096000D01*
X237696000Y57096000D01*
X237696000Y57404000D01*
X237716000Y57404000D01*
X237716000Y58561526D01*
X238024000Y58561526D01*
X238024000Y57404000D01*
X240256000Y57404000D01*
X240256000Y58561526D01*
X240028950Y58671417D01*
X239758967Y58569766D01*
X239514003Y58417397D01*
X239303471Y58220165D01*
X239140000Y57991983D01*
X238976529Y58220165D01*
X238765997Y58417397D01*
X238521033Y58569766D01*
X238251050Y58671417D01*
X238024000Y58561526D01*
X237716000Y58561526D01*
X237488950Y58671417D01*
X237218967Y58569766D01*
X236974003Y58417397D01*
X236763471Y58220165D01*
X236595463Y57985650D01*
X236476435Y57722865D01*
X236448589Y57631049D01*
X236559416Y57404002D01*
X236484062Y57404002D01*
X236476764Y57478105D01*
X236410228Y57697445D01*
X236302179Y57899589D01*
X236156770Y58076770D01*
X235979589Y58222179D01*
X235777445Y58330228D01*
X235558105Y58396764D01*
X235387163Y58413600D01*
X235272837Y58413600D01*
X235101895Y58396764D01*
X234882555Y58330228D01*
X234680411Y58222179D01*
X234503230Y58076770D01*
X234357821Y57899589D01*
X234249772Y57697445D01*
X234183236Y57478105D01*
X234175938Y57404002D01*
X234100584Y57404002D01*
X234211411Y57631049D01*
X234183565Y57722865D01*
X234064537Y57985650D01*
X233896529Y58220165D01*
X233685997Y58417397D01*
X233441033Y58569766D01*
X233171050Y58671417D01*
X232944000Y58561526D01*
X232944000Y57404000D01*
X232964000Y57404000D01*
X232964000Y57096000D01*
X232944000Y57096000D01*
X232944000Y57076000D01*
X232636000Y57076000D01*
X232636000Y57096000D01*
X230404000Y57096000D01*
X230096000Y57096000D01*
X230076000Y57096000D01*
X230076000Y57404000D01*
X230096000Y57404000D01*
X230096000Y58561526D01*
X230404000Y58561526D01*
X230404000Y57404000D01*
X232636000Y57404000D01*
X232636000Y58561526D01*
X232408950Y58671417D01*
X232138967Y58569766D01*
X231894003Y58417397D01*
X231683471Y58220165D01*
X231520000Y57991983D01*
X231356529Y58220165D01*
X231145997Y58417397D01*
X230901033Y58569766D01*
X230631050Y58671417D01*
X230404000Y58561526D01*
X230096000Y58561526D01*
X229868950Y58671417D01*
X229598967Y58569766D01*
X229354003Y58417397D01*
X229143471Y58220165D01*
X228975463Y57985650D01*
X228856435Y57722865D01*
X228828589Y57631049D01*
X228939416Y57404002D01*
X228864062Y57404002D01*
X228856764Y57478105D01*
X228790228Y57697445D01*
X228682179Y57899589D01*
X228536770Y58076770D01*
X228359589Y58222179D01*
X228157445Y58330228D01*
X227938105Y58396764D01*
X227767163Y58413600D01*
X227652837Y58413600D01*
X227481895Y58396764D01*
X227262555Y58330228D01*
X227060411Y58222179D01*
X226883230Y58076770D01*
X226737821Y57899589D01*
X226629772Y57697445D01*
X226563236Y57478105D01*
X226540770Y57250000D01*
X201375000Y57250000D01*
X201375000Y77657586D01*
X218240000Y77657586D01*
X218240000Y77342414D01*
X218301487Y77033297D01*
X218422098Y76742116D01*
X218597199Y76480059D01*
X218820059Y76257199D01*
X219082116Y76082098D01*
X219373297Y75961487D01*
X219682414Y75900000D01*
X219997586Y75900000D01*
X220306703Y75961487D01*
X220597884Y76082098D01*
X220859941Y76257199D01*
X221082801Y76480059D01*
X221257902Y76742116D01*
X221378513Y77033297D01*
X221440000Y77342414D01*
X221440000Y77657586D01*
X225740000Y77657586D01*
X225740000Y77342414D01*
X225801487Y77033297D01*
X225922098Y76742116D01*
X226097199Y76480059D01*
X226320059Y76257199D01*
X226582116Y76082098D01*
X226873297Y75961487D01*
X227182414Y75900000D01*
X227497586Y75900000D01*
X227806703Y75961487D01*
X228097884Y76082098D01*
X228359941Y76257199D01*
X228582801Y76480059D01*
X228757902Y76742116D01*
X228878513Y77033297D01*
X228940000Y77342414D01*
X228940000Y77657586D01*
X232240000Y77657586D01*
X232240000Y77342414D01*
X232301487Y77033297D01*
X232422098Y76742116D01*
X232597199Y76480059D01*
X232820059Y76257199D01*
X233082116Y76082098D01*
X233373297Y75961487D01*
X233682414Y75900000D01*
X233997586Y75900000D01*
X234306703Y75961487D01*
X234597884Y76082098D01*
X234859941Y76257199D01*
X235082801Y76480059D01*
X235257902Y76742116D01*
X235378513Y77033297D01*
X235440000Y77342414D01*
X235440000Y77657586D01*
X239740000Y77657586D01*
X239740000Y77342414D01*
X239801487Y77033297D01*
X239922098Y76742116D01*
X240097199Y76480059D01*
X240320059Y76257199D01*
X240582116Y76082098D01*
X240873297Y75961487D01*
X241182414Y75900000D01*
X241497586Y75900000D01*
X241806703Y75961487D01*
X242097884Y76082098D01*
X242359941Y76257199D01*
X242582801Y76480059D01*
X242757902Y76742116D01*
X242878513Y77033297D01*
X242940000Y77342414D01*
X242940000Y77657586D01*
X246240000Y77657586D01*
X246240000Y77342414D01*
X246301487Y77033297D01*
X246422098Y76742116D01*
X246597199Y76480059D01*
X246820059Y76257199D01*
X247082116Y76082098D01*
X247373297Y75961487D01*
X247682414Y75900000D01*
X247997586Y75900000D01*
X248306703Y75961487D01*
X248597884Y76082098D01*
X248859941Y76257199D01*
X249082801Y76480059D01*
X249257902Y76742116D01*
X249378513Y77033297D01*
X249440000Y77342414D01*
X249440000Y77657586D01*
X253740000Y77657586D01*
X253740000Y77342414D01*
X253801487Y77033297D01*
X253922098Y76742116D01*
X254097199Y76480059D01*
X254320059Y76257199D01*
X254582116Y76082098D01*
X254873297Y75961487D01*
X255182414Y75900000D01*
X255497586Y75900000D01*
X255806703Y75961487D01*
X256097884Y76082098D01*
X256359941Y76257199D01*
X256582801Y76480059D01*
X256757902Y76742116D01*
X256878513Y77033297D01*
X256940000Y77342414D01*
X256940000Y77657586D01*
X260240000Y77657586D01*
X260240000Y77342414D01*
X260301487Y77033297D01*
X260422098Y76742116D01*
X260597199Y76480059D01*
X260820059Y76257199D01*
X261082116Y76082098D01*
X261373297Y75961487D01*
X261682414Y75900000D01*
X261997586Y75900000D01*
X262306703Y75961487D01*
X262597884Y76082098D01*
X262859941Y76257199D01*
X263082801Y76480059D01*
X263257902Y76742116D01*
X263378513Y77033297D01*
X263440000Y77342414D01*
X263440000Y77657586D01*
X267740000Y77657586D01*
X267740000Y77342414D01*
X267801487Y77033297D01*
X267922098Y76742116D01*
X268097199Y76480059D01*
X268320059Y76257199D01*
X268582116Y76082098D01*
X268873297Y75961487D01*
X269182414Y75900000D01*
X269497586Y75900000D01*
X269806703Y75961487D01*
X270097884Y76082098D01*
X270359941Y76257199D01*
X270582801Y76480059D01*
X270757902Y76742116D01*
X270878513Y77033297D01*
X270940000Y77342414D01*
X270940000Y77657586D01*
X270878513Y77966703D01*
X270757902Y78257884D01*
X270582801Y78519941D01*
X270359941Y78742801D01*
X270097884Y78917902D01*
X269806703Y79038513D01*
X269497586Y79100000D01*
X269182414Y79100000D01*
X268873297Y79038513D01*
X268582116Y78917902D01*
X268320059Y78742801D01*
X268097199Y78519941D01*
X267922098Y78257884D01*
X267801487Y77966703D01*
X267740000Y77657586D01*
X263440000Y77657586D01*
X263378513Y77966703D01*
X263257902Y78257884D01*
X263082801Y78519941D01*
X262859941Y78742801D01*
X262597884Y78917902D01*
X262306703Y79038513D01*
X261997586Y79100000D01*
X261682414Y79100000D01*
X261373297Y79038513D01*
X261082116Y78917902D01*
X260820059Y78742801D01*
X260597199Y78519941D01*
X260422098Y78257884D01*
X260301487Y77966703D01*
X260240000Y77657586D01*
X256940000Y77657586D01*
X256878513Y77966703D01*
X256757902Y78257884D01*
X256582801Y78519941D01*
X256359941Y78742801D01*
X256097884Y78917902D01*
X255806703Y79038513D01*
X255497586Y79100000D01*
X255182414Y79100000D01*
X254873297Y79038513D01*
X254582116Y78917902D01*
X254320059Y78742801D01*
X254097199Y78519941D01*
X253922098Y78257884D01*
X253801487Y77966703D01*
X253740000Y77657586D01*
X249440000Y77657586D01*
X249378513Y77966703D01*
X249257902Y78257884D01*
X249082801Y78519941D01*
X248859941Y78742801D01*
X248597884Y78917902D01*
X248306703Y79038513D01*
X247997586Y79100000D01*
X247682414Y79100000D01*
X247373297Y79038513D01*
X247082116Y78917902D01*
X246820059Y78742801D01*
X246597199Y78519941D01*
X246422098Y78257884D01*
X246301487Y77966703D01*
X246240000Y77657586D01*
X242940000Y77657586D01*
X242878513Y77966703D01*
X242757902Y78257884D01*
X242582801Y78519941D01*
X242359941Y78742801D01*
X242097884Y78917902D01*
X241806703Y79038513D01*
X241497586Y79100000D01*
X241182414Y79100000D01*
X240873297Y79038513D01*
X240582116Y78917902D01*
X240320059Y78742801D01*
X240097199Y78519941D01*
X239922098Y78257884D01*
X239801487Y77966703D01*
X239740000Y77657586D01*
X235440000Y77657586D01*
X235378513Y77966703D01*
X235257902Y78257884D01*
X235082801Y78519941D01*
X234859941Y78742801D01*
X234597884Y78917902D01*
X234306703Y79038513D01*
X233997586Y79100000D01*
X233682414Y79100000D01*
X233373297Y79038513D01*
X233082116Y78917902D01*
X232820059Y78742801D01*
X232597199Y78519941D01*
X232422098Y78257884D01*
X232301487Y77966703D01*
X232240000Y77657586D01*
X228940000Y77657586D01*
X228878513Y77966703D01*
X228757902Y78257884D01*
X228582801Y78519941D01*
X228359941Y78742801D01*
X228097884Y78917902D01*
X227806703Y79038513D01*
X227497586Y79100000D01*
X227182414Y79100000D01*
X226873297Y79038513D01*
X226582116Y78917902D01*
X226320059Y78742801D01*
X226097199Y78519941D01*
X225922098Y78257884D01*
X225801487Y77966703D01*
X225740000Y77657586D01*
X221440000Y77657586D01*
X221378513Y77966703D01*
X221257902Y78257884D01*
X221082801Y78519941D01*
X220859941Y78742801D01*
X220597884Y78917902D01*
X220306703Y79038513D01*
X219997586Y79100000D01*
X219682414Y79100000D01*
X219373297Y79038513D01*
X219082116Y78917902D01*
X218820059Y78742801D01*
X218597199Y78519941D01*
X218422098Y78257884D01*
X218301487Y77966703D01*
X218240000Y77657586D01*
X201375000Y77657586D01*
X201375000Y79681224D01*
X216040000Y79681224D01*
X216060257Y79475553D01*
X216140310Y79211652D01*
X216270310Y78968439D01*
X216445261Y78755262D01*
X216658438Y78580310D01*
X216901651Y78450310D01*
X217165552Y78370257D01*
X217440000Y78343226D01*
X217714447Y78370257D01*
X217978348Y78450310D01*
X218221561Y78580310D01*
X218434738Y78755261D01*
X218609690Y78968438D01*
X218739690Y79211651D01*
X218819743Y79475552D01*
X218840000Y79681223D01*
X218840000Y81962984D01*
X242290000Y81962984D01*
X242290000Y80537017D01*
X242323280Y80199122D01*
X242454796Y79765571D01*
X242668367Y79366007D01*
X242955786Y79015786D01*
X243306006Y78728367D01*
X243705570Y78514796D01*
X244139121Y78383280D01*
X244590000Y78338872D01*
X245040878Y78383280D01*
X245474429Y78514796D01*
X245873993Y78728367D01*
X246224214Y79015786D01*
X246511633Y79366006D01*
X246680120Y79681224D01*
X270340000Y79681224D01*
X270360257Y79475553D01*
X270440310Y79211652D01*
X270570310Y78968439D01*
X270745261Y78755262D01*
X270958438Y78580310D01*
X271201651Y78450310D01*
X271465552Y78370257D01*
X271740000Y78343226D01*
X272014447Y78370257D01*
X272278348Y78450310D01*
X272521561Y78580310D01*
X272734738Y78755261D01*
X272909690Y78968438D01*
X273039690Y79211651D01*
X273119743Y79475552D01*
X273140000Y79681223D01*
X273140000Y82818777D01*
X273119743Y83024448D01*
X273039690Y83288349D01*
X272909690Y83531562D01*
X272734739Y83744739D01*
X272521562Y83919690D01*
X272278349Y84049690D01*
X272014448Y84129743D01*
X271740000Y84156774D01*
X271465553Y84129743D01*
X271201652Y84049690D01*
X270958439Y83919690D01*
X270745262Y83744739D01*
X270570311Y83531562D01*
X270440311Y83288349D01*
X270360258Y83024448D01*
X270340001Y82818777D01*
X270340000Y79681224D01*
X246680120Y79681224D01*
X246725204Y79765570D01*
X246856720Y80199121D01*
X246890000Y80537016D01*
X246890000Y81962983D01*
X246856720Y82300878D01*
X246725204Y82734429D01*
X246511633Y83133994D01*
X246295250Y83397657D01*
X246705446Y83397657D01*
X246841309Y83113420D01*
X247179780Y82950031D01*
X247543623Y82855814D01*
X247918854Y82834390D01*
X248291056Y82886582D01*
X248645924Y83010383D01*
X248838691Y83113420D01*
X248974554Y83397657D01*
X260705446Y83397657D01*
X260841309Y83113420D01*
X261179780Y82950031D01*
X261543623Y82855814D01*
X261918854Y82834390D01*
X262291056Y82886582D01*
X262645924Y83010383D01*
X262838691Y83113420D01*
X262974554Y83397657D01*
X261840000Y84532211D01*
X260705446Y83397657D01*
X248974554Y83397657D01*
X247840000Y84532211D01*
X246705446Y83397657D01*
X246295250Y83397657D01*
X246224214Y83484214D01*
X245873994Y83771633D01*
X245474430Y83985204D01*
X245040879Y84116720D01*
X244590000Y84161128D01*
X244139122Y84116720D01*
X243705571Y83985204D01*
X243306007Y83771633D01*
X242955787Y83484214D01*
X242668368Y83133994D01*
X242454796Y82734430D01*
X242323280Y82300879D01*
X242290000Y81962984D01*
X218840000Y81962984D01*
X218840000Y82818777D01*
X218819743Y83024448D01*
X218739690Y83288349D01*
X218689688Y83381897D01*
X218705447Y83397656D01*
X218841309Y83113420D01*
X219179780Y82950031D01*
X219543623Y82855814D01*
X219918854Y82834390D01*
X220291056Y82886582D01*
X220645924Y83010383D01*
X220838691Y83113420D01*
X220974554Y83397657D01*
X232705446Y83397657D01*
X232841309Y83113420D01*
X233179780Y82950031D01*
X233543623Y82855814D01*
X233918854Y82834390D01*
X234291056Y82886582D01*
X234645924Y83010383D01*
X234838691Y83113420D01*
X234974554Y83397657D01*
X233840000Y84532211D01*
X232705446Y83397657D01*
X220974554Y83397657D01*
X219840000Y84532211D01*
X219825858Y84518069D01*
X219608069Y84735858D01*
X219622211Y84750000D01*
X220057789Y84750000D01*
X221192343Y83615446D01*
X221476580Y83751309D01*
X221639969Y84089780D01*
X221734186Y84453623D01*
X221746605Y84671146D01*
X231924390Y84671146D01*
X231976582Y84298944D01*
X232100383Y83944076D01*
X232203420Y83751309D01*
X232487657Y83615446D01*
X233622211Y84750000D01*
X234057789Y84750000D01*
X235192343Y83615446D01*
X235476580Y83751309D01*
X235639969Y84089780D01*
X235734186Y84453623D01*
X235746605Y84671146D01*
X245924390Y84671146D01*
X245976582Y84298944D01*
X246100383Y83944076D01*
X246203420Y83751309D01*
X246487657Y83615446D01*
X247622211Y84750000D01*
X248057789Y84750000D01*
X249192343Y83615446D01*
X249476580Y83751309D01*
X249639969Y84089780D01*
X249734186Y84453623D01*
X249746605Y84671146D01*
X259924390Y84671146D01*
X259976582Y84298944D01*
X260100383Y83944076D01*
X260203420Y83751309D01*
X260487657Y83615446D01*
X261622211Y84750000D01*
X262057789Y84750000D01*
X263192343Y83615446D01*
X263476580Y83751309D01*
X263639969Y84089780D01*
X263734186Y84453623D01*
X263755610Y84828854D01*
X263703418Y85201056D01*
X263579617Y85555924D01*
X263476580Y85748691D01*
X263192343Y85884554D01*
X262057789Y84750000D01*
X261622211Y84750000D01*
X260487657Y85884554D01*
X260203420Y85748691D01*
X260040031Y85410220D01*
X259945814Y85046377D01*
X259924390Y84671146D01*
X249746605Y84671146D01*
X249755610Y84828854D01*
X249703418Y85201056D01*
X249579617Y85555924D01*
X249476580Y85748691D01*
X249192343Y85884554D01*
X248057789Y84750000D01*
X247622211Y84750000D01*
X246487657Y85884554D01*
X246203420Y85748691D01*
X246040031Y85410220D01*
X245945814Y85046377D01*
X245924390Y84671146D01*
X235746605Y84671146D01*
X235755610Y84828854D01*
X235703418Y85201056D01*
X235579617Y85555924D01*
X235476580Y85748691D01*
X235192343Y85884554D01*
X234057789Y84750000D01*
X233622211Y84750000D01*
X232487657Y85884554D01*
X232203420Y85748691D01*
X232040031Y85410220D01*
X231945814Y85046377D01*
X231924390Y84671146D01*
X221746605Y84671146D01*
X221755610Y84828854D01*
X221703418Y85201056D01*
X221579617Y85555924D01*
X221476580Y85748691D01*
X221192343Y85884554D01*
X220057789Y84750000D01*
X219622211Y84750000D01*
X218487657Y85884554D01*
X218203420Y85748691D01*
X218040031Y85410220D01*
X217945814Y85046377D01*
X217924390Y84671146D01*
X217976582Y84298944D01*
X218083064Y83993718D01*
X217978349Y84049690D01*
X217714448Y84129743D01*
X217440000Y84156774D01*
X217165553Y84129743D01*
X216901652Y84049690D01*
X216658439Y83919690D01*
X216445262Y83744739D01*
X216270311Y83531562D01*
X216140311Y83288349D01*
X216060258Y83024448D01*
X216040001Y82818777D01*
X216040000Y79681224D01*
X201375000Y79681224D01*
X201375000Y84145022D01*
X204980000Y84145022D01*
X204980000Y83494978D01*
X205106817Y82857426D01*
X205355578Y82256864D01*
X205716723Y81716373D01*
X206176373Y81256723D01*
X206716864Y80895578D01*
X207317426Y80646817D01*
X207954978Y80520000D01*
X208605022Y80520000D01*
X209242574Y80646817D01*
X209843136Y80895578D01*
X210383627Y81256723D01*
X210843277Y81716373D01*
X211204422Y82256864D01*
X211453183Y82857426D01*
X211580000Y83494978D01*
X211580000Y84145022D01*
X211453183Y84782574D01*
X211204422Y85383136D01*
X210843277Y85923627D01*
X210664561Y86102343D01*
X218705446Y86102343D01*
X219840000Y84967789D01*
X220974554Y86102343D01*
X232705446Y86102343D01*
X233840000Y84967789D01*
X234974554Y86102343D01*
X246705446Y86102343D01*
X247840000Y84967789D01*
X248974554Y86102343D01*
X260705446Y86102343D01*
X261840000Y84967789D01*
X262974554Y86102343D01*
X262838691Y86386580D01*
X262500220Y86549969D01*
X262136377Y86644186D01*
X261761146Y86665610D01*
X261388944Y86613418D01*
X261034076Y86489617D01*
X260841309Y86386580D01*
X260705446Y86102343D01*
X248974554Y86102343D01*
X248838691Y86386580D01*
X248500220Y86549969D01*
X248136377Y86644186D01*
X247761146Y86665610D01*
X247388944Y86613418D01*
X247034076Y86489617D01*
X246841309Y86386580D01*
X246705446Y86102343D01*
X234974554Y86102343D01*
X234838691Y86386580D01*
X234500220Y86549969D01*
X234136377Y86644186D01*
X233761146Y86665610D01*
X233388944Y86613418D01*
X233034076Y86489617D01*
X232841309Y86386580D01*
X232705446Y86102343D01*
X220974554Y86102343D01*
X220838691Y86386580D01*
X220500220Y86549969D01*
X220136377Y86644186D01*
X219761146Y86665610D01*
X219388944Y86613418D01*
X219034076Y86489617D01*
X218841309Y86386580D01*
X218705446Y86102343D01*
X210664561Y86102343D01*
X210383627Y86383277D01*
X209843136Y86744422D01*
X209242574Y86993183D01*
X208605022Y87120000D01*
X207954978Y87120000D01*
X207317426Y86993183D01*
X206716864Y86744422D01*
X206176373Y86383277D01*
X205716723Y85923627D01*
X205355578Y85383136D01*
X205106817Y84782574D01*
X204980000Y84145022D01*
X201375000Y84145022D01*
X201375000Y89625000D01*
X274900000Y89625000D01*
X274900000Y45375000D01*
X274900000Y45375000D01*
G37*
X274900000Y45375000D02*
X201375000Y45375000D01*
X201375000Y51125022D01*
X204980000Y51125022D01*
X204980000Y50474978D01*
X205106817Y49837426D01*
X205355578Y49236864D01*
X205716723Y48696373D01*
X206176373Y48236723D01*
X206716864Y47875578D01*
X207317426Y47626817D01*
X207954978Y47500000D01*
X208605022Y47500000D01*
X209242574Y47626817D01*
X209843136Y47875578D01*
X210383627Y48236723D01*
X210843277Y48696373D01*
X211204422Y49236864D01*
X211453183Y49837426D01*
X211580000Y50474978D01*
X211580000Y51125022D01*
X211453183Y51762574D01*
X211204422Y52363136D01*
X210843277Y52903627D01*
X210383627Y53363277D01*
X209843136Y53724422D01*
X209242574Y53973183D01*
X208605022Y54100000D01*
X207954978Y54100000D01*
X207317426Y53973183D01*
X206716864Y53724422D01*
X206176373Y53363277D01*
X205716723Y52903627D01*
X205355578Y52363136D01*
X205106817Y51762574D01*
X204980000Y51125022D01*
X201375000Y51125022D01*
X201375000Y57250000D01*
X226540770Y57250000D01*
X226563236Y57021895D01*
X226629772Y56802555D01*
X226737821Y56600411D01*
X226883230Y56423230D01*
X227060411Y56277821D01*
X227262555Y56169772D01*
X227481895Y56103236D01*
X227652837Y56086400D01*
X227767163Y56086400D01*
X227938105Y56103236D01*
X228157445Y56169772D01*
X228359589Y56277821D01*
X228536770Y56423230D01*
X228682179Y56600411D01*
X228790228Y56802555D01*
X228856764Y57021895D01*
X228864062Y57095998D01*
X228939416Y57095998D01*
X228828589Y56868951D01*
X228856435Y56777135D01*
X228975463Y56514350D01*
X229143471Y56279835D01*
X229354003Y56082603D01*
X229518958Y55980000D01*
X229354003Y55877397D01*
X229143471Y55680165D01*
X228975463Y55445650D01*
X228856435Y55182865D01*
X228828589Y55091049D01*
X228939416Y54864002D01*
X228864062Y54864002D01*
X228856764Y54938105D01*
X228790228Y55157445D01*
X228682179Y55359589D01*
X228536770Y55536770D01*
X228359589Y55682179D01*
X228157445Y55790228D01*
X227938105Y55856764D01*
X227767163Y55873600D01*
X227652837Y55873600D01*
X227481895Y55856764D01*
X227262555Y55790228D01*
X227060411Y55682179D01*
X226883230Y55536770D01*
X226737821Y55359589D01*
X226629772Y55157445D01*
X226563236Y54938105D01*
X226540770Y54710000D01*
X226563236Y54481895D01*
X226629772Y54262555D01*
X226737821Y54060411D01*
X226883230Y53883230D01*
X227060411Y53737821D01*
X227262555Y53629772D01*
X227481895Y53563236D01*
X227652837Y53546400D01*
X227767163Y53546400D01*
X227938105Y53563236D01*
X228157445Y53629772D01*
X228359589Y53737821D01*
X228536770Y53883230D01*
X228682179Y54060411D01*
X228790228Y54262555D01*
X228856764Y54481895D01*
X228864062Y54555998D01*
X228939416Y54555998D01*
X228828589Y54328951D01*
X228856435Y54237135D01*
X228975463Y53974350D01*
X229143471Y53739835D01*
X229354003Y53542603D01*
X229598967Y53390234D01*
X229868950Y53288583D01*
X230096000Y53398474D01*
X230096000Y54556000D01*
X230076000Y54556000D01*
X230076000Y54864000D01*
X230096000Y54864000D01*
X230096000Y57096000D01*
X230404000Y57096000D01*
X230404000Y54864000D01*
X230424000Y54864000D01*
X230424000Y54556000D01*
X230404000Y54556000D01*
X230404000Y53398474D01*
X230631050Y53288583D01*
X230901033Y53390234D01*
X231145997Y53542603D01*
X231356529Y53739835D01*
X231524537Y53974350D01*
X231643565Y54237135D01*
X231671411Y54328951D01*
X231560584Y54555998D01*
X231635938Y54555998D01*
X231643236Y54481895D01*
X231709772Y54262555D01*
X231817821Y54060411D01*
X231963230Y53883230D01*
X232140411Y53737821D01*
X232342555Y53629772D01*
X232561895Y53563236D01*
X232732837Y53546400D01*
X232847163Y53546400D01*
X233018105Y53563236D01*
X233237445Y53629772D01*
X233439589Y53737821D01*
X233616770Y53883230D01*
X233762179Y54060411D01*
X233870228Y54262555D01*
X233936764Y54481895D01*
X233944062Y54555998D01*
X234019416Y54555998D01*
X233908589Y54328951D01*
X233936435Y54237135D01*
X234055463Y53974350D01*
X234223471Y53739835D01*
X234434003Y53542603D01*
X234678967Y53390234D01*
X234948950Y53288583D01*
X235176000Y53398474D01*
X235176000Y54556000D01*
X235484000Y54556000D01*
X235484000Y53398474D01*
X235711050Y53288583D01*
X235981033Y53390234D01*
X236225997Y53542603D01*
X236436529Y53739835D01*
X236600000Y53968017D01*
X236763471Y53739835D01*
X236974003Y53542603D01*
X237218967Y53390234D01*
X237488950Y53288583D01*
X237716000Y53398474D01*
X237716000Y54556000D01*
X235484000Y54556000D01*
X235176000Y54556000D01*
X235156000Y54556000D01*
X235156000Y54864000D01*
X235176000Y54864000D01*
X235176000Y54884000D01*
X235484000Y54884000D01*
X235484000Y54864000D01*
X237716000Y54864000D01*
X237716000Y57096000D01*
X238024000Y57096000D01*
X238024000Y54864000D01*
X238044000Y54864000D01*
X238044000Y54556000D01*
X238024000Y54556000D01*
X238024000Y53398474D01*
X238251050Y53288583D01*
X238521033Y53390234D01*
X238765997Y53542603D01*
X238976529Y53739835D01*
X239144537Y53974350D01*
X239263565Y54237135D01*
X239291411Y54328951D01*
X239180584Y54555998D01*
X239255938Y54555998D01*
X239263236Y54481895D01*
X239329772Y54262555D01*
X239437821Y54060411D01*
X239583230Y53883230D01*
X239760411Y53737821D01*
X239962555Y53629772D01*
X240181895Y53563236D01*
X240352837Y53546400D01*
X240467163Y53546400D01*
X240638105Y53563236D01*
X240857445Y53629772D01*
X241059589Y53737821D01*
X241236770Y53883230D01*
X241382179Y54060411D01*
X241490228Y54262555D01*
X241556764Y54481895D01*
X241564062Y54555998D01*
X241639416Y54555998D01*
X241528589Y54328951D01*
X241556435Y54237135D01*
X241675463Y53974350D01*
X241843471Y53739835D01*
X242054003Y53542603D01*
X242298967Y53390234D01*
X242568950Y53288583D01*
X242796000Y53398474D01*
X242796000Y54556000D01*
X243104000Y54556000D01*
X243104000Y53398474D01*
X243331050Y53288583D01*
X243601033Y53390234D01*
X243845997Y53542603D01*
X244056529Y53739835D01*
X244220000Y53968017D01*
X244383471Y53739835D01*
X244594003Y53542603D01*
X244838967Y53390234D01*
X245108950Y53288583D01*
X245336000Y53398474D01*
X245336000Y54556000D01*
X243104000Y54556000D01*
X242796000Y54556000D01*
X242776000Y54556000D01*
X242776000Y54864000D01*
X242796000Y54864000D01*
X242796000Y54884000D01*
X243104000Y54884000D01*
X243104000Y54864000D01*
X245336000Y54864000D01*
X245336000Y57096000D01*
X245644000Y57096000D01*
X245644000Y54864000D01*
X245664000Y54864000D01*
X245664000Y54556000D01*
X245644000Y54556000D01*
X245644000Y53398474D01*
X245871050Y53288583D01*
X246141033Y53390234D01*
X246385997Y53542603D01*
X246596529Y53739835D01*
X246764537Y53974350D01*
X246883565Y54237135D01*
X246911411Y54328951D01*
X246800584Y54555998D01*
X246875938Y54555998D01*
X246883236Y54481895D01*
X246949772Y54262555D01*
X247057821Y54060411D01*
X247203230Y53883230D01*
X247380411Y53737821D01*
X247582555Y53629772D01*
X247801895Y53563236D01*
X247972837Y53546400D01*
X248087163Y53546400D01*
X248258105Y53563236D01*
X248477445Y53629772D01*
X248679589Y53737821D01*
X248856770Y53883230D01*
X249002179Y54060411D01*
X249110228Y54262555D01*
X249176764Y54481895D01*
X249184062Y54555998D01*
X249259416Y54555998D01*
X249148589Y54328951D01*
X249176435Y54237135D01*
X249295463Y53974350D01*
X249463471Y53739835D01*
X249674003Y53542603D01*
X249918967Y53390234D01*
X250188950Y53288583D01*
X250416000Y53398474D01*
X250416000Y54556000D01*
X250724000Y54556000D01*
X250724000Y53398474D01*
X250951050Y53288583D01*
X251221033Y53390234D01*
X251465997Y53542603D01*
X251676529Y53739835D01*
X251840000Y53968017D01*
X252003471Y53739835D01*
X252214003Y53542603D01*
X252458967Y53390234D01*
X252728950Y53288583D01*
X252956000Y53398474D01*
X252956000Y54556000D01*
X250724000Y54556000D01*
X250416000Y54556000D01*
X250396000Y54556000D01*
X250396000Y54864000D01*
X250416000Y54864000D01*
X250416000Y54884000D01*
X250724000Y54884000D01*
X250724000Y54864000D01*
X252956000Y54864000D01*
X252956000Y57096000D01*
X253264000Y57096000D01*
X253264000Y54864000D01*
X253284000Y54864000D01*
X253284000Y54556000D01*
X253264000Y54556000D01*
X253264000Y53398474D01*
X253491050Y53288583D01*
X253761033Y53390234D01*
X254005997Y53542603D01*
X254216529Y53739835D01*
X254384537Y53974350D01*
X254503565Y54237135D01*
X254531411Y54328951D01*
X254420584Y54555998D01*
X254495938Y54555998D01*
X254503236Y54481895D01*
X254569772Y54262555D01*
X254677821Y54060411D01*
X254823230Y53883230D01*
X255000411Y53737821D01*
X255202555Y53629772D01*
X255421895Y53563236D01*
X255592837Y53546400D01*
X255707163Y53546400D01*
X255878105Y53563236D01*
X256097445Y53629772D01*
X256299589Y53737821D01*
X256476770Y53883230D01*
X256622179Y54060411D01*
X256730228Y54262555D01*
X256796764Y54481895D01*
X256804062Y54555998D01*
X256879416Y54555998D01*
X256768589Y54328951D01*
X256796435Y54237135D01*
X256915463Y53974350D01*
X257083471Y53739835D01*
X257294003Y53542603D01*
X257538967Y53390234D01*
X257808950Y53288583D01*
X258036000Y53398474D01*
X258036000Y54556000D01*
X258344000Y54556000D01*
X258344000Y53398474D01*
X258571050Y53288583D01*
X258841033Y53390234D01*
X259085997Y53542603D01*
X259296529Y53739835D01*
X259464537Y53974350D01*
X259583565Y54237135D01*
X259611411Y54328951D01*
X259500583Y54556000D01*
X258344000Y54556000D01*
X258036000Y54556000D01*
X258016000Y54556000D01*
X258016000Y54864000D01*
X258036000Y54864000D01*
X258036000Y54884000D01*
X258344000Y54884000D01*
X258344000Y54864000D01*
X259500583Y54864000D01*
X259611411Y55091049D01*
X259583565Y55182865D01*
X259464537Y55445650D01*
X259296529Y55680165D01*
X259085997Y55877397D01*
X258841033Y56029766D01*
X258694468Y56084949D01*
X259053600Y56084949D01*
X259112410Y56090741D01*
X259168960Y56107896D01*
X259221077Y56135753D01*
X259266758Y56173242D01*
X259304247Y56218923D01*
X259332104Y56271040D01*
X259349259Y56327590D01*
X259355051Y56386400D01*
X259355051Y58113600D01*
X259349259Y58172410D01*
X259332104Y58228960D01*
X259304247Y58281077D01*
X259266758Y58326758D01*
X259221077Y58364247D01*
X259168960Y58392104D01*
X259112410Y58409259D01*
X259053600Y58415051D01*
X257326400Y58415051D01*
X257267590Y58409259D01*
X257211040Y58392104D01*
X257158923Y58364247D01*
X257113242Y58326758D01*
X257075753Y58281077D01*
X257047896Y58228960D01*
X257030741Y58172410D01*
X257024949Y58113600D01*
X257024949Y57763965D01*
X256924537Y57985650D01*
X256756529Y58220165D01*
X256545997Y58417397D01*
X256301033Y58569766D01*
X256031050Y58671417D01*
X255804000Y58561526D01*
X255804000Y57404000D01*
X255824000Y57404000D01*
X255824000Y57096000D01*
X255804000Y57096000D01*
X255804000Y57076000D01*
X255496000Y57076000D01*
X255496000Y57096000D01*
X253264000Y57096000D01*
X252956000Y57096000D01*
X252936000Y57096000D01*
X252936000Y57404000D01*
X252956000Y57404000D01*
X252956000Y58561526D01*
X253264000Y58561526D01*
X253264000Y57404000D01*
X255496000Y57404000D01*
X255496000Y58561526D01*
X255268950Y58671417D01*
X254998967Y58569766D01*
X254754003Y58417397D01*
X254543471Y58220165D01*
X254380000Y57991983D01*
X254216529Y58220165D01*
X254005997Y58417397D01*
X253761033Y58569766D01*
X253491050Y58671417D01*
X253264000Y58561526D01*
X252956000Y58561526D01*
X252728950Y58671417D01*
X252458967Y58569766D01*
X252214003Y58417397D01*
X252003471Y58220165D01*
X251835463Y57985650D01*
X251716435Y57722865D01*
X251688589Y57631049D01*
X251799416Y57404002D01*
X251724062Y57404002D01*
X251716764Y57478105D01*
X251650228Y57697445D01*
X251542179Y57899589D01*
X251396770Y58076770D01*
X251219589Y58222179D01*
X251017445Y58330228D01*
X250798105Y58396764D01*
X250627163Y58413600D01*
X250512837Y58413600D01*
X250341895Y58396764D01*
X250122555Y58330228D01*
X249920411Y58222179D01*
X249743230Y58076770D01*
X249597821Y57899589D01*
X249489772Y57697445D01*
X249423236Y57478105D01*
X249415938Y57404002D01*
X249340584Y57404002D01*
X249451411Y57631049D01*
X249423565Y57722865D01*
X249304537Y57985650D01*
X249136529Y58220165D01*
X248925997Y58417397D01*
X248681033Y58569766D01*
X248411050Y58671417D01*
X248184000Y58561526D01*
X248184000Y57404000D01*
X248204000Y57404000D01*
X248204000Y57096000D01*
X248184000Y57096000D01*
X248184000Y57076000D01*
X247876000Y57076000D01*
X247876000Y57096000D01*
X245644000Y57096000D01*
X245336000Y57096000D01*
X245316000Y57096000D01*
X245316000Y57404000D01*
X245336000Y57404000D01*
X245336000Y58561526D01*
X245644000Y58561526D01*
X245644000Y57404000D01*
X247876000Y57404000D01*
X247876000Y58561526D01*
X247648950Y58671417D01*
X247378967Y58569766D01*
X247134003Y58417397D01*
X246923471Y58220165D01*
X246760000Y57991983D01*
X246596529Y58220165D01*
X246385997Y58417397D01*
X246141033Y58569766D01*
X245871050Y58671417D01*
X245644000Y58561526D01*
X245336000Y58561526D01*
X245108950Y58671417D01*
X244838967Y58569766D01*
X244594003Y58417397D01*
X244383471Y58220165D01*
X244215463Y57985650D01*
X244096435Y57722865D01*
X244068589Y57631049D01*
X244179416Y57404002D01*
X244104062Y57404002D01*
X244096764Y57478105D01*
X244030228Y57697445D01*
X243922179Y57899589D01*
X243776770Y58076770D01*
X243599589Y58222179D01*
X243397445Y58330228D01*
X243178105Y58396764D01*
X243007163Y58413600D01*
X242892837Y58413600D01*
X242721895Y58396764D01*
X242502555Y58330228D01*
X242300411Y58222179D01*
X242123230Y58076770D01*
X241977821Y57899589D01*
X241869772Y57697445D01*
X241803236Y57478105D01*
X241795938Y57404002D01*
X241720584Y57404002D01*
X241831411Y57631049D01*
X241803565Y57722865D01*
X241684537Y57985650D01*
X241516529Y58220165D01*
X241305997Y58417397D01*
X241061033Y58569766D01*
X240791050Y58671417D01*
X240564000Y58561526D01*
X240564000Y57404000D01*
X240584000Y57404000D01*
X240584000Y57096000D01*
X240564000Y57096000D01*
X240564000Y57076000D01*
X240256000Y57076000D01*
X240256000Y57096000D01*
X238024000Y57096000D01*
X237716000Y57096000D01*
X237696000Y57096000D01*
X237696000Y57404000D01*
X237716000Y57404000D01*
X237716000Y58561526D01*
X238024000Y58561526D01*
X238024000Y57404000D01*
X240256000Y57404000D01*
X240256000Y58561526D01*
X240028950Y58671417D01*
X239758967Y58569766D01*
X239514003Y58417397D01*
X239303471Y58220165D01*
X239140000Y57991983D01*
X238976529Y58220165D01*
X238765997Y58417397D01*
X238521033Y58569766D01*
X238251050Y58671417D01*
X238024000Y58561526D01*
X237716000Y58561526D01*
X237488950Y58671417D01*
X237218967Y58569766D01*
X236974003Y58417397D01*
X236763471Y58220165D01*
X236595463Y57985650D01*
X236476435Y57722865D01*
X236448589Y57631049D01*
X236559416Y57404002D01*
X236484062Y57404002D01*
X236476764Y57478105D01*
X236410228Y57697445D01*
X236302179Y57899589D01*
X236156770Y58076770D01*
X235979589Y58222179D01*
X235777445Y58330228D01*
X235558105Y58396764D01*
X235387163Y58413600D01*
X235272837Y58413600D01*
X235101895Y58396764D01*
X234882555Y58330228D01*
X234680411Y58222179D01*
X234503230Y58076770D01*
X234357821Y57899589D01*
X234249772Y57697445D01*
X234183236Y57478105D01*
X234175938Y57404002D01*
X234100584Y57404002D01*
X234211411Y57631049D01*
X234183565Y57722865D01*
X234064537Y57985650D01*
X233896529Y58220165D01*
X233685997Y58417397D01*
X233441033Y58569766D01*
X233171050Y58671417D01*
X232944000Y58561526D01*
X232944000Y57404000D01*
X232964000Y57404000D01*
X232964000Y57096000D01*
X232944000Y57096000D01*
X232944000Y57076000D01*
X232636000Y57076000D01*
X232636000Y57096000D01*
X230404000Y57096000D01*
X230096000Y57096000D01*
X230076000Y57096000D01*
X230076000Y57404000D01*
X230096000Y57404000D01*
X230096000Y58561526D01*
X230404000Y58561526D01*
X230404000Y57404000D01*
X232636000Y57404000D01*
X232636000Y58561526D01*
X232408950Y58671417D01*
X232138967Y58569766D01*
X231894003Y58417397D01*
X231683471Y58220165D01*
X231520000Y57991983D01*
X231356529Y58220165D01*
X231145997Y58417397D01*
X230901033Y58569766D01*
X230631050Y58671417D01*
X230404000Y58561526D01*
X230096000Y58561526D01*
X229868950Y58671417D01*
X229598967Y58569766D01*
X229354003Y58417397D01*
X229143471Y58220165D01*
X228975463Y57985650D01*
X228856435Y57722865D01*
X228828589Y57631049D01*
X228939416Y57404002D01*
X228864062Y57404002D01*
X228856764Y57478105D01*
X228790228Y57697445D01*
X228682179Y57899589D01*
X228536770Y58076770D01*
X228359589Y58222179D01*
X228157445Y58330228D01*
X227938105Y58396764D01*
X227767163Y58413600D01*
X227652837Y58413600D01*
X227481895Y58396764D01*
X227262555Y58330228D01*
X227060411Y58222179D01*
X226883230Y58076770D01*
X226737821Y57899589D01*
X226629772Y57697445D01*
X226563236Y57478105D01*
X226540770Y57250000D01*
X201375000Y57250000D01*
X201375000Y77657586D01*
X218240000Y77657586D01*
X218240000Y77342414D01*
X218301487Y77033297D01*
X218422098Y76742116D01*
X218597199Y76480059D01*
X218820059Y76257199D01*
X219082116Y76082098D01*
X219373297Y75961487D01*
X219682414Y75900000D01*
X219997586Y75900000D01*
X220306703Y75961487D01*
X220597884Y76082098D01*
X220859941Y76257199D01*
X221082801Y76480059D01*
X221257902Y76742116D01*
X221378513Y77033297D01*
X221440000Y77342414D01*
X221440000Y77657586D01*
X225740000Y77657586D01*
X225740000Y77342414D01*
X225801487Y77033297D01*
X225922098Y76742116D01*
X226097199Y76480059D01*
X226320059Y76257199D01*
X226582116Y76082098D01*
X226873297Y75961487D01*
X227182414Y75900000D01*
X227497586Y75900000D01*
X227806703Y75961487D01*
X228097884Y76082098D01*
X228359941Y76257199D01*
X228582801Y76480059D01*
X228757902Y76742116D01*
X228878513Y77033297D01*
X228940000Y77342414D01*
X228940000Y77657586D01*
X232240000Y77657586D01*
X232240000Y77342414D01*
X232301487Y77033297D01*
X232422098Y76742116D01*
X232597199Y76480059D01*
X232820059Y76257199D01*
X233082116Y76082098D01*
X233373297Y75961487D01*
X233682414Y75900000D01*
X233997586Y75900000D01*
X234306703Y75961487D01*
X234597884Y76082098D01*
X234859941Y76257199D01*
X235082801Y76480059D01*
X235257902Y76742116D01*
X235378513Y77033297D01*
X235440000Y77342414D01*
X235440000Y77657586D01*
X239740000Y77657586D01*
X239740000Y77342414D01*
X239801487Y77033297D01*
X239922098Y76742116D01*
X240097199Y76480059D01*
X240320059Y76257199D01*
X240582116Y76082098D01*
X240873297Y75961487D01*
X241182414Y75900000D01*
X241497586Y75900000D01*
X241806703Y75961487D01*
X242097884Y76082098D01*
X242359941Y76257199D01*
X242582801Y76480059D01*
X242757902Y76742116D01*
X242878513Y77033297D01*
X242940000Y77342414D01*
X242940000Y77657586D01*
X246240000Y77657586D01*
X246240000Y77342414D01*
X246301487Y77033297D01*
X246422098Y76742116D01*
X246597199Y76480059D01*
X246820059Y76257199D01*
X247082116Y76082098D01*
X247373297Y75961487D01*
X247682414Y75900000D01*
X247997586Y75900000D01*
X248306703Y75961487D01*
X248597884Y76082098D01*
X248859941Y76257199D01*
X249082801Y76480059D01*
X249257902Y76742116D01*
X249378513Y77033297D01*
X249440000Y77342414D01*
X249440000Y77657586D01*
X253740000Y77657586D01*
X253740000Y77342414D01*
X253801487Y77033297D01*
X253922098Y76742116D01*
X254097199Y76480059D01*
X254320059Y76257199D01*
X254582116Y76082098D01*
X254873297Y75961487D01*
X255182414Y75900000D01*
X255497586Y75900000D01*
X255806703Y75961487D01*
X256097884Y76082098D01*
X256359941Y76257199D01*
X256582801Y76480059D01*
X256757902Y76742116D01*
X256878513Y77033297D01*
X256940000Y77342414D01*
X256940000Y77657586D01*
X260240000Y77657586D01*
X260240000Y77342414D01*
X260301487Y77033297D01*
X260422098Y76742116D01*
X260597199Y76480059D01*
X260820059Y76257199D01*
X261082116Y76082098D01*
X261373297Y75961487D01*
X261682414Y75900000D01*
X261997586Y75900000D01*
X262306703Y75961487D01*
X262597884Y76082098D01*
X262859941Y76257199D01*
X263082801Y76480059D01*
X263257902Y76742116D01*
X263378513Y77033297D01*
X263440000Y77342414D01*
X263440000Y77657586D01*
X267740000Y77657586D01*
X267740000Y77342414D01*
X267801487Y77033297D01*
X267922098Y76742116D01*
X268097199Y76480059D01*
X268320059Y76257199D01*
X268582116Y76082098D01*
X268873297Y75961487D01*
X269182414Y75900000D01*
X269497586Y75900000D01*
X269806703Y75961487D01*
X270097884Y76082098D01*
X270359941Y76257199D01*
X270582801Y76480059D01*
X270757902Y76742116D01*
X270878513Y77033297D01*
X270940000Y77342414D01*
X270940000Y77657586D01*
X270878513Y77966703D01*
X270757902Y78257884D01*
X270582801Y78519941D01*
X270359941Y78742801D01*
X270097884Y78917902D01*
X269806703Y79038513D01*
X269497586Y79100000D01*
X269182414Y79100000D01*
X268873297Y79038513D01*
X268582116Y78917902D01*
X268320059Y78742801D01*
X268097199Y78519941D01*
X267922098Y78257884D01*
X267801487Y77966703D01*
X267740000Y77657586D01*
X263440000Y77657586D01*
X263378513Y77966703D01*
X263257902Y78257884D01*
X263082801Y78519941D01*
X262859941Y78742801D01*
X262597884Y78917902D01*
X262306703Y79038513D01*
X261997586Y79100000D01*
X261682414Y79100000D01*
X261373297Y79038513D01*
X261082116Y78917902D01*
X260820059Y78742801D01*
X260597199Y78519941D01*
X260422098Y78257884D01*
X260301487Y77966703D01*
X260240000Y77657586D01*
X256940000Y77657586D01*
X256878513Y77966703D01*
X256757902Y78257884D01*
X256582801Y78519941D01*
X256359941Y78742801D01*
X256097884Y78917902D01*
X255806703Y79038513D01*
X255497586Y79100000D01*
X255182414Y79100000D01*
X254873297Y79038513D01*
X254582116Y78917902D01*
X254320059Y78742801D01*
X254097199Y78519941D01*
X253922098Y78257884D01*
X253801487Y77966703D01*
X253740000Y77657586D01*
X249440000Y77657586D01*
X249378513Y77966703D01*
X249257902Y78257884D01*
X249082801Y78519941D01*
X248859941Y78742801D01*
X248597884Y78917902D01*
X248306703Y79038513D01*
X247997586Y79100000D01*
X247682414Y79100000D01*
X247373297Y79038513D01*
X247082116Y78917902D01*
X246820059Y78742801D01*
X246597199Y78519941D01*
X246422098Y78257884D01*
X246301487Y77966703D01*
X246240000Y77657586D01*
X242940000Y77657586D01*
X242878513Y77966703D01*
X242757902Y78257884D01*
X242582801Y78519941D01*
X242359941Y78742801D01*
X242097884Y78917902D01*
X241806703Y79038513D01*
X241497586Y79100000D01*
X241182414Y79100000D01*
X240873297Y79038513D01*
X240582116Y78917902D01*
X240320059Y78742801D01*
X240097199Y78519941D01*
X239922098Y78257884D01*
X239801487Y77966703D01*
X239740000Y77657586D01*
X235440000Y77657586D01*
X235378513Y77966703D01*
X235257902Y78257884D01*
X235082801Y78519941D01*
X234859941Y78742801D01*
X234597884Y78917902D01*
X234306703Y79038513D01*
X233997586Y79100000D01*
X233682414Y79100000D01*
X233373297Y79038513D01*
X233082116Y78917902D01*
X232820059Y78742801D01*
X232597199Y78519941D01*
X232422098Y78257884D01*
X232301487Y77966703D01*
X232240000Y77657586D01*
X228940000Y77657586D01*
X228878513Y77966703D01*
X228757902Y78257884D01*
X228582801Y78519941D01*
X228359941Y78742801D01*
X228097884Y78917902D01*
X227806703Y79038513D01*
X227497586Y79100000D01*
X227182414Y79100000D01*
X226873297Y79038513D01*
X226582116Y78917902D01*
X226320059Y78742801D01*
X226097199Y78519941D01*
X225922098Y78257884D01*
X225801487Y77966703D01*
X225740000Y77657586D01*
X221440000Y77657586D01*
X221378513Y77966703D01*
X221257902Y78257884D01*
X221082801Y78519941D01*
X220859941Y78742801D01*
X220597884Y78917902D01*
X220306703Y79038513D01*
X219997586Y79100000D01*
X219682414Y79100000D01*
X219373297Y79038513D01*
X219082116Y78917902D01*
X218820059Y78742801D01*
X218597199Y78519941D01*
X218422098Y78257884D01*
X218301487Y77966703D01*
X218240000Y77657586D01*
X201375000Y77657586D01*
X201375000Y79681224D01*
X216040000Y79681224D01*
X216060257Y79475553D01*
X216140310Y79211652D01*
X216270310Y78968439D01*
X216445261Y78755262D01*
X216658438Y78580310D01*
X216901651Y78450310D01*
X217165552Y78370257D01*
X217440000Y78343226D01*
X217714447Y78370257D01*
X217978348Y78450310D01*
X218221561Y78580310D01*
X218434738Y78755261D01*
X218609690Y78968438D01*
X218739690Y79211651D01*
X218819743Y79475552D01*
X218840000Y79681223D01*
X218840000Y81962984D01*
X242290000Y81962984D01*
X242290000Y80537017D01*
X242323280Y80199122D01*
X242454796Y79765571D01*
X242668367Y79366007D01*
X242955786Y79015786D01*
X243306006Y78728367D01*
X243705570Y78514796D01*
X244139121Y78383280D01*
X244590000Y78338872D01*
X245040878Y78383280D01*
X245474429Y78514796D01*
X245873993Y78728367D01*
X246224214Y79015786D01*
X246511633Y79366006D01*
X246680120Y79681224D01*
X270340000Y79681224D01*
X270360257Y79475553D01*
X270440310Y79211652D01*
X270570310Y78968439D01*
X270745261Y78755262D01*
X270958438Y78580310D01*
X271201651Y78450310D01*
X271465552Y78370257D01*
X271740000Y78343226D01*
X272014447Y78370257D01*
X272278348Y78450310D01*
X272521561Y78580310D01*
X272734738Y78755261D01*
X272909690Y78968438D01*
X273039690Y79211651D01*
X273119743Y79475552D01*
X273140000Y79681223D01*
X273140000Y82818777D01*
X273119743Y83024448D01*
X273039690Y83288349D01*
X272909690Y83531562D01*
X272734739Y83744739D01*
X272521562Y83919690D01*
X272278349Y84049690D01*
X272014448Y84129743D01*
X271740000Y84156774D01*
X271465553Y84129743D01*
X271201652Y84049690D01*
X270958439Y83919690D01*
X270745262Y83744739D01*
X270570311Y83531562D01*
X270440311Y83288349D01*
X270360258Y83024448D01*
X270340001Y82818777D01*
X270340000Y79681224D01*
X246680120Y79681224D01*
X246725204Y79765570D01*
X246856720Y80199121D01*
X246890000Y80537016D01*
X246890000Y81962983D01*
X246856720Y82300878D01*
X246725204Y82734429D01*
X246511633Y83133994D01*
X246295250Y83397657D01*
X246705446Y83397657D01*
X246841309Y83113420D01*
X247179780Y82950031D01*
X247543623Y82855814D01*
X247918854Y82834390D01*
X248291056Y82886582D01*
X248645924Y83010383D01*
X248838691Y83113420D01*
X248974554Y83397657D01*
X260705446Y83397657D01*
X260841309Y83113420D01*
X261179780Y82950031D01*
X261543623Y82855814D01*
X261918854Y82834390D01*
X262291056Y82886582D01*
X262645924Y83010383D01*
X262838691Y83113420D01*
X262974554Y83397657D01*
X261840000Y84532211D01*
X260705446Y83397657D01*
X248974554Y83397657D01*
X247840000Y84532211D01*
X246705446Y83397657D01*
X246295250Y83397657D01*
X246224214Y83484214D01*
X245873994Y83771633D01*
X245474430Y83985204D01*
X245040879Y84116720D01*
X244590000Y84161128D01*
X244139122Y84116720D01*
X243705571Y83985204D01*
X243306007Y83771633D01*
X242955787Y83484214D01*
X242668368Y83133994D01*
X242454796Y82734430D01*
X242323280Y82300879D01*
X242290000Y81962984D01*
X218840000Y81962984D01*
X218840000Y82818777D01*
X218819743Y83024448D01*
X218739690Y83288349D01*
X218689688Y83381897D01*
X218705447Y83397656D01*
X218841309Y83113420D01*
X219179780Y82950031D01*
X219543623Y82855814D01*
X219918854Y82834390D01*
X220291056Y82886582D01*
X220645924Y83010383D01*
X220838691Y83113420D01*
X220974554Y83397657D01*
X232705446Y83397657D01*
X232841309Y83113420D01*
X233179780Y82950031D01*
X233543623Y82855814D01*
X233918854Y82834390D01*
X234291056Y82886582D01*
X234645924Y83010383D01*
X234838691Y83113420D01*
X234974554Y83397657D01*
X233840000Y84532211D01*
X232705446Y83397657D01*
X220974554Y83397657D01*
X219840000Y84532211D01*
X219825858Y84518069D01*
X219608069Y84735858D01*
X219622211Y84750000D01*
X220057789Y84750000D01*
X221192343Y83615446D01*
X221476580Y83751309D01*
X221639969Y84089780D01*
X221734186Y84453623D01*
X221746605Y84671146D01*
X231924390Y84671146D01*
X231976582Y84298944D01*
X232100383Y83944076D01*
X232203420Y83751309D01*
X232487657Y83615446D01*
X233622211Y84750000D01*
X234057789Y84750000D01*
X235192343Y83615446D01*
X235476580Y83751309D01*
X235639969Y84089780D01*
X235734186Y84453623D01*
X235746605Y84671146D01*
X245924390Y84671146D01*
X245976582Y84298944D01*
X246100383Y83944076D01*
X246203420Y83751309D01*
X246487657Y83615446D01*
X247622211Y84750000D01*
X248057789Y84750000D01*
X249192343Y83615446D01*
X249476580Y83751309D01*
X249639969Y84089780D01*
X249734186Y84453623D01*
X249746605Y84671146D01*
X259924390Y84671146D01*
X259976582Y84298944D01*
X260100383Y83944076D01*
X260203420Y83751309D01*
X260487657Y83615446D01*
X261622211Y84750000D01*
X262057789Y84750000D01*
X263192343Y83615446D01*
X263476580Y83751309D01*
X263639969Y84089780D01*
X263734186Y84453623D01*
X263755610Y84828854D01*
X263703418Y85201056D01*
X263579617Y85555924D01*
X263476580Y85748691D01*
X263192343Y85884554D01*
X262057789Y84750000D01*
X261622211Y84750000D01*
X260487657Y85884554D01*
X260203420Y85748691D01*
X260040031Y85410220D01*
X259945814Y85046377D01*
X259924390Y84671146D01*
X249746605Y84671146D01*
X249755610Y84828854D01*
X249703418Y85201056D01*
X249579617Y85555924D01*
X249476580Y85748691D01*
X249192343Y85884554D01*
X248057789Y84750000D01*
X247622211Y84750000D01*
X246487657Y85884554D01*
X246203420Y85748691D01*
X246040031Y85410220D01*
X245945814Y85046377D01*
X245924390Y84671146D01*
X235746605Y84671146D01*
X235755610Y84828854D01*
X235703418Y85201056D01*
X235579617Y85555924D01*
X235476580Y85748691D01*
X235192343Y85884554D01*
X234057789Y84750000D01*
X233622211Y84750000D01*
X232487657Y85884554D01*
X232203420Y85748691D01*
X232040031Y85410220D01*
X231945814Y85046377D01*
X231924390Y84671146D01*
X221746605Y84671146D01*
X221755610Y84828854D01*
X221703418Y85201056D01*
X221579617Y85555924D01*
X221476580Y85748691D01*
X221192343Y85884554D01*
X220057789Y84750000D01*
X219622211Y84750000D01*
X218487657Y85884554D01*
X218203420Y85748691D01*
X218040031Y85410220D01*
X217945814Y85046377D01*
X217924390Y84671146D01*
X217976582Y84298944D01*
X218083064Y83993718D01*
X217978349Y84049690D01*
X217714448Y84129743D01*
X217440000Y84156774D01*
X217165553Y84129743D01*
X216901652Y84049690D01*
X216658439Y83919690D01*
X216445262Y83744739D01*
X216270311Y83531562D01*
X216140311Y83288349D01*
X216060258Y83024448D01*
X216040001Y82818777D01*
X216040000Y79681224D01*
X201375000Y79681224D01*
X201375000Y84145022D01*
X204980000Y84145022D01*
X204980000Y83494978D01*
X205106817Y82857426D01*
X205355578Y82256864D01*
X205716723Y81716373D01*
X206176373Y81256723D01*
X206716864Y80895578D01*
X207317426Y80646817D01*
X207954978Y80520000D01*
X208605022Y80520000D01*
X209242574Y80646817D01*
X209843136Y80895578D01*
X210383627Y81256723D01*
X210843277Y81716373D01*
X211204422Y82256864D01*
X211453183Y82857426D01*
X211580000Y83494978D01*
X211580000Y84145022D01*
X211453183Y84782574D01*
X211204422Y85383136D01*
X210843277Y85923627D01*
X210664561Y86102343D01*
X218705446Y86102343D01*
X219840000Y84967789D01*
X220974554Y86102343D01*
X232705446Y86102343D01*
X233840000Y84967789D01*
X234974554Y86102343D01*
X246705446Y86102343D01*
X247840000Y84967789D01*
X248974554Y86102343D01*
X260705446Y86102343D01*
X261840000Y84967789D01*
X262974554Y86102343D01*
X262838691Y86386580D01*
X262500220Y86549969D01*
X262136377Y86644186D01*
X261761146Y86665610D01*
X261388944Y86613418D01*
X261034076Y86489617D01*
X260841309Y86386580D01*
X260705446Y86102343D01*
X248974554Y86102343D01*
X248838691Y86386580D01*
X248500220Y86549969D01*
X248136377Y86644186D01*
X247761146Y86665610D01*
X247388944Y86613418D01*
X247034076Y86489617D01*
X246841309Y86386580D01*
X246705446Y86102343D01*
X234974554Y86102343D01*
X234838691Y86386580D01*
X234500220Y86549969D01*
X234136377Y86644186D01*
X233761146Y86665610D01*
X233388944Y86613418D01*
X233034076Y86489617D01*
X232841309Y86386580D01*
X232705446Y86102343D01*
X220974554Y86102343D01*
X220838691Y86386580D01*
X220500220Y86549969D01*
X220136377Y86644186D01*
X219761146Y86665610D01*
X219388944Y86613418D01*
X219034076Y86489617D01*
X218841309Y86386580D01*
X218705446Y86102343D01*
X210664561Y86102343D01*
X210383627Y86383277D01*
X209843136Y86744422D01*
X209242574Y86993183D01*
X208605022Y87120000D01*
X207954978Y87120000D01*
X207317426Y86993183D01*
X206716864Y86744422D01*
X206176373Y86383277D01*
X205716723Y85923627D01*
X205355578Y85383136D01*
X205106817Y84782574D01*
X204980000Y84145022D01*
X201375000Y84145022D01*
X201375000Y89625000D01*
X274900000Y89625000D01*
X274900000Y45375000D01*
G36*
X346625001Y45375000D02*
G01*
X276100000Y45375000D01*
X276100000Y47465742D01*
X319593531Y47465742D01*
X319686234Y47318979D01*
X319886615Y47236527D01*
X320099230Y47194751D01*
X320315910Y47195257D01*
X320528328Y47238026D01*
X320723766Y47318979D01*
X320816469Y47465742D01*
X322133531Y47465742D01*
X322226234Y47318979D01*
X322426615Y47236527D01*
X322639230Y47194751D01*
X322855910Y47195257D01*
X323068328Y47238026D01*
X323263766Y47318979D01*
X323356469Y47465742D01*
X324673531Y47465742D01*
X324766234Y47318979D01*
X324966615Y47236527D01*
X325179230Y47194751D01*
X325395910Y47195257D01*
X325608328Y47238026D01*
X325803766Y47318979D01*
X325896469Y47465742D01*
X327213531Y47465742D01*
X327306234Y47318979D01*
X327506615Y47236527D01*
X327719230Y47194751D01*
X327935910Y47195257D01*
X328148328Y47238026D01*
X328343766Y47318979D01*
X328436469Y47465742D01*
X329753531Y47465742D01*
X329846234Y47318979D01*
X330046615Y47236527D01*
X330259230Y47194751D01*
X330475910Y47195257D01*
X330688328Y47238026D01*
X330883766Y47318979D01*
X330976469Y47465742D01*
X332293531Y47465742D01*
X332386234Y47318979D01*
X332586615Y47236527D01*
X332799230Y47194751D01*
X333015910Y47195257D01*
X333228328Y47238026D01*
X333423766Y47318979D01*
X333516469Y47465742D01*
X332905000Y48077211D01*
X332293531Y47465742D01*
X330976469Y47465742D01*
X330365000Y48077211D01*
X329753531Y47465742D01*
X328436469Y47465742D01*
X327825000Y48077211D01*
X327213531Y47465742D01*
X325896469Y47465742D01*
X325285000Y48077211D01*
X324673531Y47465742D01*
X323356469Y47465742D01*
X322745000Y48077211D01*
X322133531Y47465742D01*
X320816469Y47465742D01*
X320205000Y48077211D01*
X319593531Y47465742D01*
X276100000Y47465742D01*
X276100000Y48400770D01*
X319104751Y48400770D01*
X319105257Y48184090D01*
X319148026Y47971672D01*
X319228979Y47776234D01*
X319375742Y47683531D01*
X319987211Y48295000D01*
X320422789Y48295000D01*
X321034258Y47683531D01*
X321181021Y47776234D01*
X321263473Y47976615D01*
X321305249Y48189230D01*
X321304756Y48400770D01*
X321644751Y48400770D01*
X321645257Y48184090D01*
X321688026Y47971672D01*
X321768979Y47776234D01*
X321915742Y47683531D01*
X322527211Y48295000D01*
X322962789Y48295000D01*
X323574258Y47683531D01*
X323721021Y47776234D01*
X323803473Y47976615D01*
X323845249Y48189230D01*
X323844756Y48400770D01*
X324184751Y48400770D01*
X324185257Y48184090D01*
X324228026Y47971672D01*
X324308979Y47776234D01*
X324455742Y47683531D01*
X325067211Y48295000D01*
X325502789Y48295000D01*
X326114258Y47683531D01*
X326261021Y47776234D01*
X326343473Y47976615D01*
X326385249Y48189230D01*
X326384756Y48400770D01*
X326724751Y48400770D01*
X326725257Y48184090D01*
X326768026Y47971672D01*
X326848979Y47776234D01*
X326995742Y47683531D01*
X327607211Y48295000D01*
X328042789Y48295000D01*
X328654258Y47683531D01*
X328801021Y47776234D01*
X328883473Y47976615D01*
X328925249Y48189230D01*
X328924756Y48400770D01*
X329264751Y48400770D01*
X329265257Y48184090D01*
X329308026Y47971672D01*
X329388979Y47776234D01*
X329535742Y47683531D01*
X330147211Y48295000D01*
X330582789Y48295000D01*
X331194258Y47683531D01*
X331341021Y47776234D01*
X331423473Y47976615D01*
X331465249Y48189230D01*
X331464756Y48400770D01*
X331804751Y48400770D01*
X331805257Y48184090D01*
X331848026Y47971672D01*
X331928979Y47776234D01*
X332075742Y47683531D01*
X332687211Y48295000D01*
X333122789Y48295000D01*
X333734258Y47683531D01*
X333881021Y47776234D01*
X333963473Y47976615D01*
X334005249Y48189230D01*
X334004749Y48403341D01*
X334345000Y48403341D01*
X334345000Y48186659D01*
X334387273Y47974142D01*
X334470193Y47773955D01*
X334590575Y47593791D01*
X334743791Y47440575D01*
X334923955Y47320193D01*
X335124142Y47237273D01*
X335336659Y47195000D01*
X335553341Y47195000D01*
X335765858Y47237273D01*
X335966045Y47320193D01*
X336146209Y47440575D01*
X336299425Y47593791D01*
X336419807Y47773955D01*
X336502727Y47974142D01*
X336545000Y48186659D01*
X336545000Y48403341D01*
X336502727Y48615858D01*
X336419807Y48816045D01*
X336299425Y48996209D01*
X336157218Y49138416D01*
X337065000Y49138416D01*
X337065000Y48931584D01*
X337105350Y48728726D01*
X337184502Y48537638D01*
X337299411Y48365664D01*
X337445664Y48219411D01*
X337617638Y48104502D01*
X337808726Y48025350D01*
X338011584Y47985000D01*
X338218416Y47985000D01*
X338421274Y48025350D01*
X338612362Y48104502D01*
X338784336Y48219411D01*
X338930589Y48365664D01*
X339045498Y48537638D01*
X339124650Y48728726D01*
X339165000Y48931584D01*
X339165000Y49138416D01*
X339124650Y49341274D01*
X339045498Y49532362D01*
X338930589Y49704336D01*
X338784336Y49850589D01*
X338612362Y49965498D01*
X338421274Y50044650D01*
X338218416Y50085000D01*
X338011584Y50085000D01*
X337808726Y50044650D01*
X337617638Y49965498D01*
X337445664Y49850589D01*
X337299411Y49704336D01*
X337184502Y49532362D01*
X337105350Y49341274D01*
X337065000Y49138416D01*
X336157218Y49138416D01*
X336146209Y49149425D01*
X335966045Y49269807D01*
X335765858Y49352727D01*
X335553341Y49395000D01*
X335336659Y49395000D01*
X335124142Y49352727D01*
X334923955Y49269807D01*
X334743791Y49149425D01*
X334590575Y48996209D01*
X334470193Y48816045D01*
X334387273Y48615858D01*
X334345000Y48403341D01*
X334004749Y48403341D01*
X334004743Y48405910D01*
X333961974Y48618328D01*
X333881021Y48813766D01*
X333734258Y48906469D01*
X333122789Y48295000D01*
X332687211Y48295000D01*
X332075742Y48906469D01*
X331928979Y48813766D01*
X331846527Y48613385D01*
X331804751Y48400770D01*
X331464756Y48400770D01*
X331464743Y48405910D01*
X331421974Y48618328D01*
X331341021Y48813766D01*
X331194258Y48906469D01*
X330582789Y48295000D01*
X330147211Y48295000D01*
X329535742Y48906469D01*
X329388979Y48813766D01*
X329306527Y48613385D01*
X329264751Y48400770D01*
X328924756Y48400770D01*
X328924743Y48405910D01*
X328881974Y48618328D01*
X328801021Y48813766D01*
X328654258Y48906469D01*
X328042789Y48295000D01*
X327607211Y48295000D01*
X326995742Y48906469D01*
X326848979Y48813766D01*
X326766527Y48613385D01*
X326724751Y48400770D01*
X326384756Y48400770D01*
X326384743Y48405910D01*
X326341974Y48618328D01*
X326261021Y48813766D01*
X326114258Y48906469D01*
X325502789Y48295000D01*
X325067211Y48295000D01*
X324455742Y48906469D01*
X324308979Y48813766D01*
X324226527Y48613385D01*
X324184751Y48400770D01*
X323844756Y48400770D01*
X323844743Y48405910D01*
X323801974Y48618328D01*
X323721021Y48813766D01*
X323574258Y48906469D01*
X322962789Y48295000D01*
X322527211Y48295000D01*
X321915742Y48906469D01*
X321768979Y48813766D01*
X321686527Y48613385D01*
X321644751Y48400770D01*
X321304756Y48400770D01*
X321304743Y48405910D01*
X321261974Y48618328D01*
X321181021Y48813766D01*
X321034258Y48906469D01*
X320422789Y48295000D01*
X319987211Y48295000D01*
X319375742Y48906469D01*
X319228979Y48813766D01*
X319146527Y48613385D01*
X319104751Y48400770D01*
X276100000Y48400770D01*
X276100000Y49124258D01*
X319593531Y49124258D01*
X320205000Y48512789D01*
X320816469Y49124258D01*
X322133531Y49124258D01*
X322745000Y48512789D01*
X323356469Y49124258D01*
X324673531Y49124258D01*
X325285000Y48512789D01*
X325896469Y49124258D01*
X327213531Y49124258D01*
X327825000Y48512789D01*
X328436469Y49124258D01*
X329753531Y49124258D01*
X330365000Y48512789D01*
X330976469Y49124258D01*
X332293531Y49124258D01*
X332905000Y48512789D01*
X333516469Y49124258D01*
X333423766Y49271021D01*
X333223385Y49353473D01*
X333010770Y49395249D01*
X332794090Y49394743D01*
X332581672Y49351974D01*
X332386234Y49271021D01*
X332293531Y49124258D01*
X330976469Y49124258D01*
X330883766Y49271021D01*
X330683385Y49353473D01*
X330470770Y49395249D01*
X330254090Y49394743D01*
X330041672Y49351974D01*
X329846234Y49271021D01*
X329753531Y49124258D01*
X328436469Y49124258D01*
X328343766Y49271021D01*
X328143385Y49353473D01*
X327930770Y49395249D01*
X327714090Y49394743D01*
X327501672Y49351974D01*
X327306234Y49271021D01*
X327213531Y49124258D01*
X325896469Y49124258D01*
X325803766Y49271021D01*
X325603385Y49353473D01*
X325390770Y49395249D01*
X325174090Y49394743D01*
X324961672Y49351974D01*
X324766234Y49271021D01*
X324673531Y49124258D01*
X323356469Y49124258D01*
X323263766Y49271021D01*
X323063385Y49353473D01*
X322850770Y49395249D01*
X322634090Y49394743D01*
X322421672Y49351974D01*
X322226234Y49271021D01*
X322133531Y49124258D01*
X320816469Y49124258D01*
X320723766Y49271021D01*
X320523385Y49353473D01*
X320310770Y49395249D01*
X320094090Y49394743D01*
X319881672Y49351974D01*
X319686234Y49271021D01*
X319593531Y49124258D01*
X276100000Y49124258D01*
X276100000Y51388600D01*
X293594949Y51388600D01*
X293594949Y49661400D01*
X293600741Y49602590D01*
X293617896Y49546040D01*
X293645753Y49493923D01*
X293683242Y49448242D01*
X293728923Y49410753D01*
X293781040Y49382896D01*
X293837590Y49365741D01*
X293896400Y49359949D01*
X295623600Y49359949D01*
X295682410Y49365741D01*
X295738960Y49382896D01*
X295791077Y49410753D01*
X295836758Y49448242D01*
X295874247Y49493923D01*
X295902104Y49546040D01*
X295919259Y49602590D01*
X295925051Y49661400D01*
X295925051Y50639605D01*
X296136400Y50639605D01*
X296136400Y50410395D01*
X296181117Y50185590D01*
X296268831Y49973829D01*
X296396173Y49783248D01*
X296558248Y49621173D01*
X296748829Y49493831D01*
X296960590Y49406117D01*
X297185395Y49361400D01*
X297414605Y49361400D01*
X297639410Y49406117D01*
X297851171Y49493831D01*
X298041752Y49621173D01*
X298203827Y49783248D01*
X298331169Y49973829D01*
X298418883Y50185590D01*
X298463600Y50410395D01*
X298463600Y50639605D01*
X298676400Y50639605D01*
X298676400Y50410395D01*
X298721117Y50185590D01*
X298808831Y49973829D01*
X298936173Y49783248D01*
X299098248Y49621173D01*
X299288829Y49493831D01*
X299500590Y49406117D01*
X299725395Y49361400D01*
X299954605Y49361400D01*
X300179410Y49406117D01*
X300391171Y49493831D01*
X300581752Y49621173D01*
X300743827Y49783248D01*
X300871169Y49973829D01*
X300958883Y50185590D01*
X301003600Y50410395D01*
X301003600Y50639605D01*
X301216400Y50639605D01*
X301216400Y50410395D01*
X301261117Y50185590D01*
X301348831Y49973829D01*
X301476173Y49783248D01*
X301638248Y49621173D01*
X301828829Y49493831D01*
X302040590Y49406117D01*
X302265395Y49361400D01*
X302494605Y49361400D01*
X302719410Y49406117D01*
X302931171Y49493831D01*
X303121752Y49621173D01*
X303283827Y49783248D01*
X303411169Y49973829D01*
X303498883Y50185590D01*
X303543600Y50410395D01*
X303543600Y50639605D01*
X303756400Y50639605D01*
X303756400Y50410395D01*
X303801117Y50185590D01*
X303888831Y49973829D01*
X304016173Y49783248D01*
X304178248Y49621173D01*
X304368829Y49493831D01*
X304580590Y49406117D01*
X304805395Y49361400D01*
X305034605Y49361400D01*
X305259410Y49406117D01*
X305471171Y49493831D01*
X305661752Y49621173D01*
X305823827Y49783248D01*
X305951169Y49973829D01*
X306038883Y50185590D01*
X306083600Y50410395D01*
X306083600Y50639605D01*
X306296400Y50639605D01*
X306296400Y50410395D01*
X306341117Y50185590D01*
X306428831Y49973829D01*
X306556173Y49783248D01*
X306718248Y49621173D01*
X306908829Y49493831D01*
X307120590Y49406117D01*
X307345395Y49361400D01*
X307574605Y49361400D01*
X307799410Y49406117D01*
X308011171Y49493831D01*
X308201752Y49621173D01*
X308363827Y49783248D01*
X308491169Y49973829D01*
X308578883Y50185590D01*
X308623600Y50410395D01*
X308623600Y50639605D01*
X308836400Y50639605D01*
X308836400Y50410395D01*
X308881117Y50185590D01*
X308968831Y49973829D01*
X309096173Y49783248D01*
X309258248Y49621173D01*
X309448829Y49493831D01*
X309660590Y49406117D01*
X309885395Y49361400D01*
X310114605Y49361400D01*
X310339410Y49406117D01*
X310551171Y49493831D01*
X310741752Y49621173D01*
X310903827Y49783248D01*
X311031169Y49973829D01*
X311118883Y50185590D01*
X311163600Y50410395D01*
X311163600Y50639605D01*
X311376400Y50639605D01*
X311376400Y50410395D01*
X311421117Y50185590D01*
X311508831Y49973829D01*
X311636173Y49783248D01*
X311798248Y49621173D01*
X311988829Y49493831D01*
X312200590Y49406117D01*
X312425395Y49361400D01*
X312654605Y49361400D01*
X312879410Y49406117D01*
X313091171Y49493831D01*
X313281752Y49621173D01*
X313443827Y49783248D01*
X313571169Y49973829D01*
X313658883Y50185590D01*
X313703600Y50410395D01*
X313703600Y50639605D01*
X313658883Y50864410D01*
X313626189Y50943341D01*
X320375000Y50943341D01*
X320375000Y50726659D01*
X320417273Y50514142D01*
X320500193Y50313955D01*
X320620575Y50133791D01*
X320773791Y49980575D01*
X320953955Y49860193D01*
X321154142Y49777273D01*
X321366659Y49735000D01*
X321583341Y49735000D01*
X321795858Y49777273D01*
X321996045Y49860193D01*
X322176209Y49980575D01*
X322329425Y50133791D01*
X322449807Y50313955D01*
X322532727Y50514142D01*
X322575000Y50726659D01*
X322575000Y50943341D01*
X322915000Y50943341D01*
X322915000Y50726659D01*
X322957273Y50514142D01*
X323040193Y50313955D01*
X323160575Y50133791D01*
X323313791Y49980575D01*
X323493955Y49860193D01*
X323694142Y49777273D01*
X323906659Y49735000D01*
X324123341Y49735000D01*
X324335858Y49777273D01*
X324536045Y49860193D01*
X324716209Y49980575D01*
X324869425Y50133791D01*
X324989807Y50313955D01*
X325072727Y50514142D01*
X325115000Y50726659D01*
X325115000Y50943341D01*
X325455000Y50943341D01*
X325455000Y50726659D01*
X325497273Y50514142D01*
X325580193Y50313955D01*
X325700575Y50133791D01*
X325853791Y49980575D01*
X326033955Y49860193D01*
X326234142Y49777273D01*
X326446659Y49735000D01*
X326663341Y49735000D01*
X326875858Y49777273D01*
X327076045Y49860193D01*
X327256209Y49980575D01*
X327409425Y50133791D01*
X327529807Y50313955D01*
X327612727Y50514142D01*
X327655000Y50726659D01*
X327655000Y50943341D01*
X327995000Y50943341D01*
X327995000Y50726659D01*
X328037273Y50514142D01*
X328120193Y50313955D01*
X328240575Y50133791D01*
X328393791Y49980575D01*
X328573955Y49860193D01*
X328774142Y49777273D01*
X328986659Y49735000D01*
X329203341Y49735000D01*
X329415858Y49777273D01*
X329616045Y49860193D01*
X329796209Y49980575D01*
X329949425Y50133791D01*
X330069807Y50313955D01*
X330152727Y50514142D01*
X330195000Y50726659D01*
X330195000Y50943341D01*
X330535000Y50943341D01*
X330535000Y50726659D01*
X330577273Y50514142D01*
X330660193Y50313955D01*
X330780575Y50133791D01*
X330933791Y49980575D01*
X331113955Y49860193D01*
X331314142Y49777273D01*
X331526659Y49735000D01*
X331743341Y49735000D01*
X331955858Y49777273D01*
X332156045Y49860193D01*
X332336209Y49980575D01*
X332489425Y50133791D01*
X332609807Y50313955D01*
X332692727Y50514142D01*
X332735000Y50726659D01*
X332735000Y50943341D01*
X333075000Y50943341D01*
X333075000Y50726659D01*
X333117273Y50514142D01*
X333200193Y50313955D01*
X333320575Y50133791D01*
X333473791Y49980575D01*
X333653955Y49860193D01*
X333854142Y49777273D01*
X334066659Y49735000D01*
X334283341Y49735000D01*
X334495858Y49777273D01*
X334696045Y49860193D01*
X334876209Y49980575D01*
X335029425Y50133791D01*
X335149807Y50313955D01*
X335232727Y50514142D01*
X335275000Y50726659D01*
X335275000Y50943341D01*
X335615000Y50943341D01*
X335615000Y50726659D01*
X335657273Y50514142D01*
X335740193Y50313955D01*
X335860575Y50133791D01*
X336013791Y49980575D01*
X336193955Y49860193D01*
X336394142Y49777273D01*
X336606659Y49735000D01*
X336823341Y49735000D01*
X337035858Y49777273D01*
X337236045Y49860193D01*
X337416209Y49980575D01*
X337569425Y50133791D01*
X337689807Y50313955D01*
X337772727Y50514142D01*
X337815000Y50726659D01*
X337815000Y50943341D01*
X337772727Y51155858D01*
X337689807Y51356045D01*
X337569425Y51536209D01*
X337416209Y51689425D01*
X337236045Y51809807D01*
X337035858Y51892727D01*
X336823341Y51935000D01*
X336606659Y51935000D01*
X336394142Y51892727D01*
X336193955Y51809807D01*
X336013791Y51689425D01*
X335860575Y51536209D01*
X335740193Y51356045D01*
X335657273Y51155858D01*
X335615000Y50943341D01*
X335275000Y50943341D01*
X335232727Y51155858D01*
X335149807Y51356045D01*
X335029425Y51536209D01*
X334876209Y51689425D01*
X334696045Y51809807D01*
X334495858Y51892727D01*
X334283341Y51935000D01*
X334066659Y51935000D01*
X333854142Y51892727D01*
X333653955Y51809807D01*
X333473791Y51689425D01*
X333320575Y51536209D01*
X333200193Y51356045D01*
X333117273Y51155858D01*
X333075000Y50943341D01*
X332735000Y50943341D01*
X332692727Y51155858D01*
X332609807Y51356045D01*
X332489425Y51536209D01*
X332336209Y51689425D01*
X332156045Y51809807D01*
X331955858Y51892727D01*
X331743341Y51935000D01*
X331526659Y51935000D01*
X331314142Y51892727D01*
X331113955Y51809807D01*
X330933791Y51689425D01*
X330780575Y51536209D01*
X330660193Y51356045D01*
X330577273Y51155858D01*
X330535000Y50943341D01*
X330195000Y50943341D01*
X330152727Y51155858D01*
X330069807Y51356045D01*
X329949425Y51536209D01*
X329796209Y51689425D01*
X329616045Y51809807D01*
X329415858Y51892727D01*
X329203341Y51935000D01*
X328986659Y51935000D01*
X328774142Y51892727D01*
X328573955Y51809807D01*
X328393791Y51689425D01*
X328240575Y51536209D01*
X328120193Y51356045D01*
X328037273Y51155858D01*
X327995000Y50943341D01*
X327655000Y50943341D01*
X327612727Y51155858D01*
X327529807Y51356045D01*
X327409425Y51536209D01*
X327256209Y51689425D01*
X327076045Y51809807D01*
X326875858Y51892727D01*
X326663341Y51935000D01*
X326446659Y51935000D01*
X326234142Y51892727D01*
X326033955Y51809807D01*
X325853791Y51689425D01*
X325700575Y51536209D01*
X325580193Y51356045D01*
X325497273Y51155858D01*
X325455000Y50943341D01*
X325115000Y50943341D01*
X325072727Y51155858D01*
X324989807Y51356045D01*
X324869425Y51536209D01*
X324716209Y51689425D01*
X324536045Y51809807D01*
X324335858Y51892727D01*
X324123341Y51935000D01*
X323906659Y51935000D01*
X323694142Y51892727D01*
X323493955Y51809807D01*
X323313791Y51689425D01*
X323160575Y51536209D01*
X323040193Y51356045D01*
X322957273Y51155858D01*
X322915000Y50943341D01*
X322575000Y50943341D01*
X322532727Y51155858D01*
X322449807Y51356045D01*
X322329425Y51536209D01*
X322176209Y51689425D01*
X321996045Y51809807D01*
X321795858Y51892727D01*
X321583341Y51935000D01*
X321366659Y51935000D01*
X321154142Y51892727D01*
X320953955Y51809807D01*
X320773791Y51689425D01*
X320620575Y51536209D01*
X320500193Y51356045D01*
X320417273Y51155858D01*
X320375000Y50943341D01*
X313626189Y50943341D01*
X313571169Y51076171D01*
X313443827Y51266752D01*
X313281752Y51428827D01*
X313091171Y51556169D01*
X312879410Y51643883D01*
X312654605Y51688600D01*
X312425395Y51688600D01*
X312200590Y51643883D01*
X311988829Y51556169D01*
X311798248Y51428827D01*
X311636173Y51266752D01*
X311508831Y51076171D01*
X311421117Y50864410D01*
X311376400Y50639605D01*
X311163600Y50639605D01*
X311118883Y50864410D01*
X311031169Y51076171D01*
X310903827Y51266752D01*
X310741752Y51428827D01*
X310551171Y51556169D01*
X310339410Y51643883D01*
X310114605Y51688600D01*
X309885395Y51688600D01*
X309660590Y51643883D01*
X309448829Y51556169D01*
X309258248Y51428827D01*
X309096173Y51266752D01*
X308968831Y51076171D01*
X308881117Y50864410D01*
X308836400Y50639605D01*
X308623600Y50639605D01*
X308578883Y50864410D01*
X308491169Y51076171D01*
X308363827Y51266752D01*
X308201752Y51428827D01*
X308011171Y51556169D01*
X307799410Y51643883D01*
X307574605Y51688600D01*
X307345395Y51688600D01*
X307120590Y51643883D01*
X306908829Y51556169D01*
X306718248Y51428827D01*
X306556173Y51266752D01*
X306428831Y51076171D01*
X306341117Y50864410D01*
X306296400Y50639605D01*
X306083600Y50639605D01*
X306038883Y50864410D01*
X305951169Y51076171D01*
X305823827Y51266752D01*
X305661752Y51428827D01*
X305471171Y51556169D01*
X305259410Y51643883D01*
X305034605Y51688600D01*
X304805395Y51688600D01*
X304580590Y51643883D01*
X304368829Y51556169D01*
X304178248Y51428827D01*
X304016173Y51266752D01*
X303888831Y51076171D01*
X303801117Y50864410D01*
X303756400Y50639605D01*
X303543600Y50639605D01*
X303498883Y50864410D01*
X303411169Y51076171D01*
X303283827Y51266752D01*
X303121752Y51428827D01*
X302931171Y51556169D01*
X302719410Y51643883D01*
X302494605Y51688600D01*
X302265395Y51688600D01*
X302040590Y51643883D01*
X301828829Y51556169D01*
X301638248Y51428827D01*
X301476173Y51266752D01*
X301348831Y51076171D01*
X301261117Y50864410D01*
X301216400Y50639605D01*
X301003600Y50639605D01*
X300958883Y50864410D01*
X300871169Y51076171D01*
X300743827Y51266752D01*
X300581752Y51428827D01*
X300391171Y51556169D01*
X300179410Y51643883D01*
X299954605Y51688600D01*
X299725395Y51688600D01*
X299500590Y51643883D01*
X299288829Y51556169D01*
X299098248Y51428827D01*
X298936173Y51266752D01*
X298808831Y51076171D01*
X298721117Y50864410D01*
X298676400Y50639605D01*
X298463600Y50639605D01*
X298418883Y50864410D01*
X298331169Y51076171D01*
X298203827Y51266752D01*
X298041752Y51428827D01*
X297851171Y51556169D01*
X297639410Y51643883D01*
X297414605Y51688600D01*
X297185395Y51688600D01*
X296960590Y51643883D01*
X296748829Y51556169D01*
X296558248Y51428827D01*
X296396173Y51266752D01*
X296268831Y51076171D01*
X296181117Y50864410D01*
X296136400Y50639605D01*
X295925051Y50639605D01*
X295925051Y51388600D01*
X295919259Y51447410D01*
X295902104Y51503960D01*
X295874247Y51556077D01*
X295836758Y51601758D01*
X295791077Y51639247D01*
X295738960Y51667104D01*
X295682410Y51684259D01*
X295623600Y51690051D01*
X293896400Y51690051D01*
X293837590Y51684259D01*
X293781040Y51667104D01*
X293728923Y51639247D01*
X293683242Y51601758D01*
X293645753Y51556077D01*
X293617896Y51503960D01*
X293600741Y51447410D01*
X293594949Y51388600D01*
X276100000Y51388600D01*
X276100000Y52190069D01*
X294102858Y52190069D01*
X294203320Y52036795D01*
X294414609Y51947949D01*
X294639171Y51902030D01*
X294868377Y51900804D01*
X295093418Y51944316D01*
X295305645Y52030897D01*
X295316680Y52036795D01*
X295417142Y52190069D01*
X296642858Y52190069D01*
X296743320Y52036795D01*
X296954609Y51947949D01*
X297179171Y51902030D01*
X297408377Y51900804D01*
X297633418Y51944316D01*
X297845645Y52030897D01*
X297856680Y52036795D01*
X297957142Y52190069D01*
X299182858Y52190069D01*
X299283320Y52036795D01*
X299494609Y51947949D01*
X299719171Y51902030D01*
X299948377Y51900804D01*
X300173418Y51944316D01*
X300385645Y52030897D01*
X300396680Y52036795D01*
X300497142Y52190069D01*
X301722858Y52190069D01*
X301823320Y52036795D01*
X302034609Y51947949D01*
X302259171Y51902030D01*
X302488377Y51900804D01*
X302713418Y51944316D01*
X302925645Y52030897D01*
X302936680Y52036795D01*
X303037142Y52190069D01*
X304262858Y52190069D01*
X304363320Y52036795D01*
X304574609Y51947949D01*
X304799171Y51902030D01*
X305028377Y51900804D01*
X305253418Y51944316D01*
X305465645Y52030897D01*
X305476680Y52036795D01*
X305577142Y52190069D01*
X306802858Y52190069D01*
X306903320Y52036795D01*
X307114609Y51947949D01*
X307339171Y51902030D01*
X307568377Y51900804D01*
X307793418Y51944316D01*
X308005645Y52030897D01*
X308016680Y52036795D01*
X308117142Y52190069D01*
X309342858Y52190069D01*
X309443320Y52036795D01*
X309654609Y51947949D01*
X309879171Y51902030D01*
X310108377Y51900804D01*
X310333418Y51944316D01*
X310545645Y52030897D01*
X310556680Y52036795D01*
X310657142Y52190069D01*
X311882858Y52190069D01*
X311983320Y52036795D01*
X312194609Y51947949D01*
X312419171Y51902030D01*
X312648377Y51900804D01*
X312873418Y51944316D01*
X313085645Y52030897D01*
X313096680Y52036795D01*
X313197142Y52190069D01*
X312540000Y52847211D01*
X311882858Y52190069D01*
X310657142Y52190069D01*
X310000000Y52847211D01*
X309342858Y52190069D01*
X308117142Y52190069D01*
X307460000Y52847211D01*
X306802858Y52190069D01*
X305577142Y52190069D01*
X304920000Y52847211D01*
X304262858Y52190069D01*
X303037142Y52190069D01*
X302380000Y52847211D01*
X301722858Y52190069D01*
X300497142Y52190069D01*
X299840000Y52847211D01*
X299182858Y52190069D01*
X297957142Y52190069D01*
X297300000Y52847211D01*
X296642858Y52190069D01*
X295417142Y52190069D01*
X294760000Y52847211D01*
X294102858Y52190069D01*
X276100000Y52190069D01*
X276100000Y52956623D01*
X293595804Y52956623D01*
X293639316Y52731582D01*
X293725897Y52519355D01*
X293731795Y52508320D01*
X293885069Y52407858D01*
X294542211Y53065000D01*
X294977789Y53065000D01*
X295634931Y52407858D01*
X295788205Y52508320D01*
X295877051Y52719609D01*
X295922970Y52944171D01*
X295923036Y52956623D01*
X296135804Y52956623D01*
X296179316Y52731582D01*
X296265897Y52519355D01*
X296271795Y52508320D01*
X296425069Y52407858D01*
X297082211Y53065000D01*
X297517789Y53065000D01*
X298174931Y52407858D01*
X298328205Y52508320D01*
X298417051Y52719609D01*
X298462970Y52944171D01*
X298463036Y52956623D01*
X298675804Y52956623D01*
X298719316Y52731582D01*
X298805897Y52519355D01*
X298811795Y52508320D01*
X298965069Y52407858D01*
X299622211Y53065000D01*
X300057789Y53065000D01*
X300714931Y52407858D01*
X300868205Y52508320D01*
X300957051Y52719609D01*
X301002970Y52944171D01*
X301003036Y52956623D01*
X301215804Y52956623D01*
X301259316Y52731582D01*
X301345897Y52519355D01*
X301351795Y52508320D01*
X301505069Y52407858D01*
X302162211Y53065000D01*
X302597789Y53065000D01*
X303254931Y52407858D01*
X303408205Y52508320D01*
X303497051Y52719609D01*
X303542970Y52944171D01*
X303543036Y52956623D01*
X303755804Y52956623D01*
X303799316Y52731582D01*
X303885897Y52519355D01*
X303891795Y52508320D01*
X304045069Y52407858D01*
X304702211Y53065000D01*
X305137789Y53065000D01*
X305794931Y52407858D01*
X305948205Y52508320D01*
X306037051Y52719609D01*
X306082970Y52944171D01*
X306083036Y52956623D01*
X306295804Y52956623D01*
X306339316Y52731582D01*
X306425897Y52519355D01*
X306431795Y52508320D01*
X306585069Y52407858D01*
X307242211Y53065000D01*
X307677789Y53065000D01*
X308334931Y52407858D01*
X308488205Y52508320D01*
X308577051Y52719609D01*
X308622970Y52944171D01*
X308623036Y52956623D01*
X308835804Y52956623D01*
X308879316Y52731582D01*
X308965897Y52519355D01*
X308971795Y52508320D01*
X309125069Y52407858D01*
X309782211Y53065000D01*
X310217789Y53065000D01*
X310874931Y52407858D01*
X311028205Y52508320D01*
X311117051Y52719609D01*
X311162970Y52944171D01*
X311163036Y52956623D01*
X311375804Y52956623D01*
X311419316Y52731582D01*
X311505897Y52519355D01*
X311511795Y52508320D01*
X311665069Y52407858D01*
X312322211Y53065000D01*
X312757789Y53065000D01*
X313414931Y52407858D01*
X313568205Y52508320D01*
X313657051Y52719609D01*
X313702970Y52944171D01*
X313704196Y53173377D01*
X313660684Y53398418D01*
X313574103Y53610645D01*
X313568205Y53621680D01*
X313414931Y53722142D01*
X312757789Y53065000D01*
X312322211Y53065000D01*
X311665069Y53722142D01*
X311511795Y53621680D01*
X311422949Y53410391D01*
X311377030Y53185829D01*
X311375804Y52956623D01*
X311163036Y52956623D01*
X311164196Y53173377D01*
X311120684Y53398418D01*
X311034103Y53610645D01*
X311028205Y53621680D01*
X310874931Y53722142D01*
X310217789Y53065000D01*
X309782211Y53065000D01*
X309125069Y53722142D01*
X308971795Y53621680D01*
X308882949Y53410391D01*
X308837030Y53185829D01*
X308835804Y52956623D01*
X308623036Y52956623D01*
X308624196Y53173377D01*
X308580684Y53398418D01*
X308494103Y53610645D01*
X308488205Y53621680D01*
X308334931Y53722142D01*
X307677789Y53065000D01*
X307242211Y53065000D01*
X306585069Y53722142D01*
X306431795Y53621680D01*
X306342949Y53410391D01*
X306297030Y53185829D01*
X306295804Y52956623D01*
X306083036Y52956623D01*
X306084196Y53173377D01*
X306040684Y53398418D01*
X305954103Y53610645D01*
X305948205Y53621680D01*
X305794931Y53722142D01*
X305137789Y53065000D01*
X304702211Y53065000D01*
X304045069Y53722142D01*
X303891795Y53621680D01*
X303802949Y53410391D01*
X303757030Y53185829D01*
X303755804Y52956623D01*
X303543036Y52956623D01*
X303544196Y53173377D01*
X303500684Y53398418D01*
X303414103Y53610645D01*
X303408205Y53621680D01*
X303254931Y53722142D01*
X302597789Y53065000D01*
X302162211Y53065000D01*
X301505069Y53722142D01*
X301351795Y53621680D01*
X301262949Y53410391D01*
X301217030Y53185829D01*
X301215804Y52956623D01*
X301003036Y52956623D01*
X301004196Y53173377D01*
X300960684Y53398418D01*
X300874103Y53610645D01*
X300868205Y53621680D01*
X300714931Y53722142D01*
X300057789Y53065000D01*
X299622211Y53065000D01*
X298965069Y53722142D01*
X298811795Y53621680D01*
X298722949Y53410391D01*
X298677030Y53185829D01*
X298675804Y52956623D01*
X298463036Y52956623D01*
X298464196Y53173377D01*
X298420684Y53398418D01*
X298334103Y53610645D01*
X298328205Y53621680D01*
X298174931Y53722142D01*
X297517789Y53065000D01*
X297082211Y53065000D01*
X296425069Y53722142D01*
X296271795Y53621680D01*
X296182949Y53410391D01*
X296137030Y53185829D01*
X296135804Y52956623D01*
X295923036Y52956623D01*
X295924196Y53173377D01*
X295880684Y53398418D01*
X295794103Y53610645D01*
X295788205Y53621680D01*
X295634931Y53722142D01*
X294977789Y53065000D01*
X294542211Y53065000D01*
X293885069Y53722142D01*
X293731795Y53621680D01*
X293642949Y53410391D01*
X293597030Y53185829D01*
X293595804Y52956623D01*
X276100000Y52956623D01*
X276100000Y53939931D01*
X294102858Y53939931D01*
X294760000Y53282789D01*
X295417142Y53939931D01*
X296642858Y53939931D01*
X297300000Y53282789D01*
X297957142Y53939931D01*
X299182858Y53939931D01*
X299840000Y53282789D01*
X300497142Y53939931D01*
X301722858Y53939931D01*
X302380000Y53282789D01*
X303037142Y53939931D01*
X304262858Y53939931D01*
X304920000Y53282789D01*
X305577142Y53939931D01*
X306802858Y53939931D01*
X307460000Y53282789D01*
X308117142Y53939931D01*
X309342858Y53939931D01*
X310000000Y53282789D01*
X310657142Y53939931D01*
X311882858Y53939931D01*
X312540000Y53282789D01*
X313197142Y53939931D01*
X313096680Y54093205D01*
X312885391Y54182051D01*
X312660829Y54227970D01*
X312431623Y54229196D01*
X312206582Y54185684D01*
X311994355Y54099103D01*
X311983320Y54093205D01*
X311882858Y53939931D01*
X310657142Y53939931D01*
X310556680Y54093205D01*
X310345391Y54182051D01*
X310120829Y54227970D01*
X309891623Y54229196D01*
X309666582Y54185684D01*
X309454355Y54099103D01*
X309443320Y54093205D01*
X309342858Y53939931D01*
X308117142Y53939931D01*
X308016680Y54093205D01*
X307805391Y54182051D01*
X307580829Y54227970D01*
X307351623Y54229196D01*
X307126582Y54185684D01*
X306914355Y54099103D01*
X306903320Y54093205D01*
X306802858Y53939931D01*
X305577142Y53939931D01*
X305476680Y54093205D01*
X305265391Y54182051D01*
X305040829Y54227970D01*
X304811623Y54229196D01*
X304586582Y54185684D01*
X304374355Y54099103D01*
X304363320Y54093205D01*
X304262858Y53939931D01*
X303037142Y53939931D01*
X302936680Y54093205D01*
X302725391Y54182051D01*
X302500829Y54227970D01*
X302271623Y54229196D01*
X302046582Y54185684D01*
X301834355Y54099103D01*
X301823320Y54093205D01*
X301722858Y53939931D01*
X300497142Y53939931D01*
X300396680Y54093205D01*
X300185391Y54182051D01*
X299960829Y54227970D01*
X299731623Y54229196D01*
X299506582Y54185684D01*
X299294355Y54099103D01*
X299283320Y54093205D01*
X299182858Y53939931D01*
X297957142Y53939931D01*
X297856680Y54093205D01*
X297645391Y54182051D01*
X297420829Y54227970D01*
X297191623Y54229196D01*
X296966582Y54185684D01*
X296754355Y54099103D01*
X296743320Y54093205D01*
X296642858Y53939931D01*
X295417142Y53939931D01*
X295316680Y54093205D01*
X295105391Y54182051D01*
X294880829Y54227970D01*
X294651623Y54229196D01*
X294426582Y54185684D01*
X294214355Y54099103D01*
X294203320Y54093205D01*
X294102858Y53939931D01*
X276100000Y53939931D01*
X276100000Y58745022D01*
X334520000Y58745022D01*
X334520000Y58094978D01*
X334646817Y57457426D01*
X334895578Y56856864D01*
X335256723Y56316373D01*
X335716373Y55856723D01*
X336256864Y55495578D01*
X336857426Y55246817D01*
X337494978Y55120000D01*
X338145022Y55120000D01*
X338782574Y55246817D01*
X339383136Y55495578D01*
X339923627Y55856723D01*
X340383277Y56316373D01*
X340744422Y56856864D01*
X340993183Y57457426D01*
X341120000Y58094978D01*
X341120000Y58745022D01*
X340993183Y59382574D01*
X340744422Y59983136D01*
X340383277Y60523627D01*
X339923627Y60983277D01*
X339383136Y61344422D01*
X338782574Y61593183D01*
X338145022Y61720000D01*
X337494978Y61720000D01*
X336857426Y61593183D01*
X336256864Y61344422D01*
X335716373Y60983277D01*
X335256723Y60523627D01*
X334895578Y59983136D01*
X334646817Y59382574D01*
X334520000Y58745022D01*
X276100000Y58745022D01*
X276100000Y76059095D01*
X319000000Y76059095D01*
X319000000Y75940905D01*
X319023058Y75824986D01*
X319068287Y75715793D01*
X319133950Y75617522D01*
X319200001Y75551471D01*
X319200000Y74248536D01*
X319133950Y74182486D01*
X319068287Y74084215D01*
X319023058Y73975022D01*
X319000000Y73859103D01*
X319000000Y73740913D01*
X319023058Y73624994D01*
X319068287Y73515801D01*
X319133950Y73417530D01*
X319217522Y73333958D01*
X319315793Y73268295D01*
X319424986Y73223066D01*
X319540905Y73200008D01*
X319659095Y73200008D01*
X319775014Y73223066D01*
X319884207Y73268295D01*
X319982478Y73333958D01*
X320066050Y73417530D01*
X320131713Y73515801D01*
X320176942Y73624994D01*
X320200000Y73740913D01*
X320200000Y73859103D01*
X320176942Y73975022D01*
X320131713Y74084215D01*
X320066050Y74182486D01*
X320000000Y74248536D01*
X320000000Y75551472D01*
X320066050Y75617522D01*
X320131713Y75715793D01*
X320176942Y75824986D01*
X320200000Y75940905D01*
X320200000Y76059095D01*
X320176942Y76175014D01*
X320131713Y76284207D01*
X320066050Y76382478D01*
X319982478Y76466050D01*
X319884207Y76531713D01*
X319775014Y76576942D01*
X319659095Y76600000D01*
X319540905Y76600000D01*
X319424986Y76576942D01*
X319315793Y76531713D01*
X319217522Y76466050D01*
X319133950Y76382478D01*
X319068287Y76284207D01*
X319023058Y76175014D01*
X319000000Y76059095D01*
X276100000Y76059095D01*
X276100000Y82098491D01*
X279460000Y82098491D01*
X279460000Y81901509D01*
X279498429Y81708311D01*
X279573811Y81526322D01*
X279683249Y81362537D01*
X279822537Y81223249D01*
X279986322Y81113811D01*
X280168311Y81038429D01*
X280361509Y81000000D01*
X280558491Y81000000D01*
X280751689Y81038429D01*
X280933678Y81113811D01*
X281097463Y81223249D01*
X281116904Y81242690D01*
X282460479Y81242690D01*
X282540936Y81106153D01*
X282724138Y81033770D01*
X282917940Y80998518D01*
X283114896Y81001752D01*
X283307437Y81043348D01*
X283459064Y81106153D01*
X283539521Y81242690D01*
X283000000Y81782211D01*
X282460479Y81242690D01*
X281116904Y81242690D01*
X281236751Y81362537D01*
X281346189Y81526322D01*
X281421571Y81708311D01*
X281460000Y81901509D01*
X281460000Y82082060D01*
X281998518Y82082060D01*
X282001752Y81885104D01*
X282043348Y81692563D01*
X282106153Y81540936D01*
X282242690Y81460479D01*
X282782211Y82000000D01*
X283217789Y82000000D01*
X283757310Y81460479D01*
X283893847Y81540936D01*
X283966230Y81724138D01*
X284001482Y81917940D01*
X283998518Y82098491D01*
X284540000Y82098491D01*
X284540000Y81901509D01*
X284578429Y81708311D01*
X284653811Y81526322D01*
X284763249Y81362537D01*
X284902537Y81223249D01*
X285066322Y81113811D01*
X285248311Y81038429D01*
X285441509Y81000000D01*
X285638491Y81000000D01*
X285831689Y81038429D01*
X286013678Y81113811D01*
X286177463Y81223249D01*
X286316751Y81362537D01*
X286426189Y81526322D01*
X286501571Y81708311D01*
X286540000Y81901509D01*
X286540000Y82098491D01*
X293460000Y82098491D01*
X293460000Y81901509D01*
X293498429Y81708311D01*
X293573811Y81526322D01*
X293683249Y81362537D01*
X293822537Y81223249D01*
X293986322Y81113811D01*
X294168311Y81038429D01*
X294361509Y81000000D01*
X294558491Y81000000D01*
X294751689Y81038429D01*
X294933678Y81113811D01*
X295097463Y81223249D01*
X295116904Y81242690D01*
X296460479Y81242690D01*
X296540936Y81106153D01*
X296724138Y81033770D01*
X296917940Y80998518D01*
X297114896Y81001752D01*
X297307437Y81043348D01*
X297459064Y81106153D01*
X297539521Y81242690D01*
X297000000Y81782211D01*
X296460479Y81242690D01*
X295116904Y81242690D01*
X295236751Y81362537D01*
X295346189Y81526322D01*
X295421571Y81708311D01*
X295460000Y81901509D01*
X295460000Y82082060D01*
X295998518Y82082060D01*
X296001752Y81885104D01*
X296043348Y81692563D01*
X296106153Y81540936D01*
X296242690Y81460479D01*
X296782211Y82000000D01*
X297217789Y82000000D01*
X297757310Y81460479D01*
X297893847Y81540936D01*
X297966230Y81724138D01*
X298001482Y81917940D01*
X297998518Y82098491D01*
X298540000Y82098491D01*
X298540000Y81901509D01*
X298578429Y81708311D01*
X298653811Y81526322D01*
X298763249Y81362537D01*
X298902537Y81223249D01*
X299066322Y81113811D01*
X299248311Y81038429D01*
X299441509Y81000000D01*
X299638491Y81000000D01*
X299831689Y81038429D01*
X300013678Y81113811D01*
X300177463Y81223249D01*
X300316751Y81362537D01*
X300426189Y81526322D01*
X300501571Y81708311D01*
X300540000Y81901509D01*
X300540000Y82098491D01*
X307460000Y82098491D01*
X307460000Y81901509D01*
X307498429Y81708311D01*
X307573811Y81526322D01*
X307683249Y81362537D01*
X307822537Y81223249D01*
X307986322Y81113811D01*
X308168311Y81038429D01*
X308361509Y81000000D01*
X308558491Y81000000D01*
X308751689Y81038429D01*
X308933678Y81113811D01*
X309097463Y81223249D01*
X309116904Y81242690D01*
X310460479Y81242690D01*
X310540936Y81106153D01*
X310724138Y81033770D01*
X310917940Y80998518D01*
X311114896Y81001752D01*
X311307437Y81043348D01*
X311459064Y81106153D01*
X311539521Y81242690D01*
X311000000Y81782211D01*
X310460479Y81242690D01*
X309116904Y81242690D01*
X309236751Y81362537D01*
X309346189Y81526322D01*
X309421571Y81708311D01*
X309460000Y81901509D01*
X309460000Y82082060D01*
X309998518Y82082060D01*
X310001752Y81885104D01*
X310043348Y81692563D01*
X310106153Y81540936D01*
X310242690Y81460479D01*
X310782211Y82000000D01*
X311217789Y82000000D01*
X311757310Y81460479D01*
X311893847Y81540936D01*
X311966230Y81724138D01*
X312001482Y81917940D01*
X311998518Y82098491D01*
X312540000Y82098491D01*
X312540000Y81901509D01*
X312578429Y81708311D01*
X312653811Y81526322D01*
X312763249Y81362537D01*
X312902537Y81223249D01*
X313066322Y81113811D01*
X313248311Y81038429D01*
X313441509Y81000000D01*
X313638491Y81000000D01*
X313831689Y81038429D01*
X314013678Y81113811D01*
X314177463Y81223249D01*
X314316751Y81362537D01*
X314426189Y81526322D01*
X314501571Y81708311D01*
X314540000Y81901509D01*
X314540000Y82098491D01*
X321460000Y82098491D01*
X321460000Y81901509D01*
X321498429Y81708311D01*
X321573811Y81526322D01*
X321683249Y81362537D01*
X321822537Y81223249D01*
X321986322Y81113811D01*
X322168311Y81038429D01*
X322361509Y81000000D01*
X322558491Y81000000D01*
X322751689Y81038429D01*
X322933678Y81113811D01*
X323097463Y81223249D01*
X323116904Y81242690D01*
X324460479Y81242690D01*
X324540936Y81106153D01*
X324724138Y81033770D01*
X324917940Y80998518D01*
X325114896Y81001752D01*
X325307437Y81043348D01*
X325459064Y81106153D01*
X325539521Y81242690D01*
X325000000Y81782211D01*
X324460479Y81242690D01*
X323116904Y81242690D01*
X323236751Y81362537D01*
X323346189Y81526322D01*
X323421571Y81708311D01*
X323460000Y81901509D01*
X323460000Y82082060D01*
X323998518Y82082060D01*
X324001752Y81885104D01*
X324043348Y81692563D01*
X324106153Y81540936D01*
X324242690Y81460479D01*
X324782211Y82000000D01*
X325217789Y82000000D01*
X325757310Y81460479D01*
X325893847Y81540936D01*
X325966230Y81724138D01*
X326001482Y81917940D01*
X325998518Y82098491D01*
X326540000Y82098491D01*
X326540000Y81901509D01*
X326578429Y81708311D01*
X326653811Y81526322D01*
X326763249Y81362537D01*
X326902537Y81223249D01*
X327066322Y81113811D01*
X327248311Y81038429D01*
X327441509Y81000000D01*
X327638491Y81000000D01*
X327831689Y81038429D01*
X328013678Y81113811D01*
X328177463Y81223249D01*
X328316751Y81362537D01*
X328426189Y81526322D01*
X328501571Y81708311D01*
X328540000Y81901509D01*
X328540000Y82098491D01*
X328501571Y82291689D01*
X328426189Y82473678D01*
X328316751Y82637463D01*
X328177463Y82776751D01*
X328013678Y82886189D01*
X327831689Y82961571D01*
X327638491Y83000000D01*
X327441509Y83000000D01*
X327248311Y82961571D01*
X327066322Y82886189D01*
X326902537Y82776751D01*
X326763249Y82637463D01*
X326653811Y82473678D01*
X326578429Y82291689D01*
X326540000Y82098491D01*
X325998518Y82098491D01*
X325998248Y82114896D01*
X325956652Y82307437D01*
X325893847Y82459064D01*
X325757310Y82539521D01*
X325217789Y82000000D01*
X324782211Y82000000D01*
X324242690Y82539521D01*
X324106153Y82459064D01*
X324033770Y82275862D01*
X323998518Y82082060D01*
X323460000Y82082060D01*
X323460000Y82098491D01*
X323421571Y82291689D01*
X323346189Y82473678D01*
X323236751Y82637463D01*
X323116904Y82757310D01*
X324460479Y82757310D01*
X325000000Y82217789D01*
X325539521Y82757310D01*
X325459064Y82893847D01*
X325275862Y82966230D01*
X325082060Y83001482D01*
X324885104Y82998248D01*
X324692563Y82956652D01*
X324540936Y82893847D01*
X324460479Y82757310D01*
X323116904Y82757310D01*
X323097463Y82776751D01*
X322933678Y82886189D01*
X322751689Y82961571D01*
X322558491Y83000000D01*
X322361509Y83000000D01*
X322168311Y82961571D01*
X321986322Y82886189D01*
X321822537Y82776751D01*
X321683249Y82637463D01*
X321573811Y82473678D01*
X321498429Y82291689D01*
X321460000Y82098491D01*
X314540000Y82098491D01*
X314501571Y82291689D01*
X314426189Y82473678D01*
X314316751Y82637463D01*
X314177463Y82776751D01*
X314013678Y82886189D01*
X313831689Y82961571D01*
X313638491Y83000000D01*
X313441509Y83000000D01*
X313248311Y82961571D01*
X313066322Y82886189D01*
X312902537Y82776751D01*
X312763249Y82637463D01*
X312653811Y82473678D01*
X312578429Y82291689D01*
X312540000Y82098491D01*
X311998518Y82098491D01*
X311998248Y82114896D01*
X311956652Y82307437D01*
X311893847Y82459064D01*
X311757310Y82539521D01*
X311217789Y82000000D01*
X310782211Y82000000D01*
X310242690Y82539521D01*
X310106153Y82459064D01*
X310033770Y82275862D01*
X309998518Y82082060D01*
X309460000Y82082060D01*
X309460000Y82098491D01*
X309421571Y82291689D01*
X309346189Y82473678D01*
X309236751Y82637463D01*
X309116904Y82757310D01*
X310460479Y82757310D01*
X311000000Y82217789D01*
X311539521Y82757310D01*
X311459064Y82893847D01*
X311275862Y82966230D01*
X311082060Y83001482D01*
X310885104Y82998248D01*
X310692563Y82956652D01*
X310540936Y82893847D01*
X310460479Y82757310D01*
X309116904Y82757310D01*
X309097463Y82776751D01*
X308933678Y82886189D01*
X308751689Y82961571D01*
X308558491Y83000000D01*
X308361509Y83000000D01*
X308168311Y82961571D01*
X307986322Y82886189D01*
X307822537Y82776751D01*
X307683249Y82637463D01*
X307573811Y82473678D01*
X307498429Y82291689D01*
X307460000Y82098491D01*
X300540000Y82098491D01*
X300501571Y82291689D01*
X300426189Y82473678D01*
X300316751Y82637463D01*
X300177463Y82776751D01*
X300013678Y82886189D01*
X299831689Y82961571D01*
X299638491Y83000000D01*
X299441509Y83000000D01*
X299248311Y82961571D01*
X299066322Y82886189D01*
X298902537Y82776751D01*
X298763249Y82637463D01*
X298653811Y82473678D01*
X298578429Y82291689D01*
X298540000Y82098491D01*
X297998518Y82098491D01*
X297998248Y82114896D01*
X297956652Y82307437D01*
X297893847Y82459064D01*
X297757310Y82539521D01*
X297217789Y82000000D01*
X296782211Y82000000D01*
X296242690Y82539521D01*
X296106153Y82459064D01*
X296033770Y82275862D01*
X295998518Y82082060D01*
X295460000Y82082060D01*
X295460000Y82098491D01*
X295421571Y82291689D01*
X295346189Y82473678D01*
X295236751Y82637463D01*
X295116904Y82757310D01*
X296460479Y82757310D01*
X297000000Y82217789D01*
X297539521Y82757310D01*
X297459064Y82893847D01*
X297275862Y82966230D01*
X297082060Y83001482D01*
X296885104Y82998248D01*
X296692563Y82956652D01*
X296540936Y82893847D01*
X296460479Y82757310D01*
X295116904Y82757310D01*
X295097463Y82776751D01*
X294933678Y82886189D01*
X294751689Y82961571D01*
X294558491Y83000000D01*
X294361509Y83000000D01*
X294168311Y82961571D01*
X293986322Y82886189D01*
X293822537Y82776751D01*
X293683249Y82637463D01*
X293573811Y82473678D01*
X293498429Y82291689D01*
X293460000Y82098491D01*
X286540000Y82098491D01*
X286501571Y82291689D01*
X286426189Y82473678D01*
X286316751Y82637463D01*
X286177463Y82776751D01*
X286013678Y82886189D01*
X285831689Y82961571D01*
X285638491Y83000000D01*
X285441509Y83000000D01*
X285248311Y82961571D01*
X285066322Y82886189D01*
X284902537Y82776751D01*
X284763249Y82637463D01*
X284653811Y82473678D01*
X284578429Y82291689D01*
X284540000Y82098491D01*
X283998518Y82098491D01*
X283998248Y82114896D01*
X283956652Y82307437D01*
X283893847Y82459064D01*
X283757310Y82539521D01*
X283217789Y82000000D01*
X282782211Y82000000D01*
X282242690Y82539521D01*
X282106153Y82459064D01*
X282033770Y82275862D01*
X281998518Y82082060D01*
X281460000Y82082060D01*
X281460000Y82098491D01*
X281421571Y82291689D01*
X281346189Y82473678D01*
X281236751Y82637463D01*
X281116904Y82757310D01*
X282460479Y82757310D01*
X283000000Y82217789D01*
X283539521Y82757310D01*
X283459064Y82893847D01*
X283275862Y82966230D01*
X283082060Y83001482D01*
X282885104Y82998248D01*
X282692563Y82956652D01*
X282540936Y82893847D01*
X282460479Y82757310D01*
X281116904Y82757310D01*
X281097463Y82776751D01*
X280933678Y82886189D01*
X280751689Y82961571D01*
X280558491Y83000000D01*
X280361509Y83000000D01*
X280168311Y82961571D01*
X279986322Y82886189D01*
X279822537Y82776751D01*
X279683249Y82637463D01*
X279573811Y82473678D01*
X279498429Y82291689D01*
X279460000Y82098491D01*
X276100000Y82098491D01*
X276100000Y84738341D01*
X279360000Y84738341D01*
X279360000Y84521659D01*
X279402273Y84309142D01*
X279485193Y84108955D01*
X279605575Y83928791D01*
X279758791Y83775575D01*
X279938955Y83655193D01*
X280139142Y83572273D01*
X280351659Y83530000D01*
X280568341Y83530000D01*
X280780858Y83572273D01*
X280981045Y83655193D01*
X281161209Y83775575D01*
X281314425Y83928791D01*
X281434807Y84108955D01*
X281517727Y84309142D01*
X281560000Y84521659D01*
X281560000Y84738341D01*
X284440000Y84738341D01*
X284440000Y84521659D01*
X284482273Y84309142D01*
X284565193Y84108955D01*
X284685575Y83928791D01*
X284838791Y83775575D01*
X285018955Y83655193D01*
X285219142Y83572273D01*
X285431659Y83530000D01*
X285648341Y83530000D01*
X285860858Y83572273D01*
X286061045Y83655193D01*
X286241209Y83775575D01*
X286394425Y83928791D01*
X286514807Y84108955D01*
X286597727Y84309142D01*
X286640000Y84521659D01*
X286640000Y84738341D01*
X293360000Y84738341D01*
X293360000Y84521659D01*
X293402273Y84309142D01*
X293485193Y84108955D01*
X293605575Y83928791D01*
X293758791Y83775575D01*
X293938955Y83655193D01*
X294139142Y83572273D01*
X294351659Y83530000D01*
X294568341Y83530000D01*
X294780858Y83572273D01*
X294981045Y83655193D01*
X295161209Y83775575D01*
X295314425Y83928791D01*
X295434807Y84108955D01*
X295517727Y84309142D01*
X295560000Y84521659D01*
X295560000Y84738341D01*
X298440000Y84738341D01*
X298440000Y84521659D01*
X298482273Y84309142D01*
X298565193Y84108955D01*
X298685575Y83928791D01*
X298838791Y83775575D01*
X299018955Y83655193D01*
X299219142Y83572273D01*
X299431659Y83530000D01*
X299648341Y83530000D01*
X299860858Y83572273D01*
X300061045Y83655193D01*
X300241209Y83775575D01*
X300394425Y83928791D01*
X300514807Y84108955D01*
X300597727Y84309142D01*
X300640000Y84521659D01*
X300640000Y84738341D01*
X307360000Y84738341D01*
X307360000Y84521659D01*
X307402273Y84309142D01*
X307485193Y84108955D01*
X307605575Y83928791D01*
X307758791Y83775575D01*
X307938955Y83655193D01*
X308139142Y83572273D01*
X308351659Y83530000D01*
X308568341Y83530000D01*
X308780858Y83572273D01*
X308981045Y83655193D01*
X309161209Y83775575D01*
X309314425Y83928791D01*
X309434807Y84108955D01*
X309517727Y84309142D01*
X309560000Y84521659D01*
X309560000Y84738341D01*
X312440000Y84738341D01*
X312440000Y84521659D01*
X312482273Y84309142D01*
X312565193Y84108955D01*
X312685575Y83928791D01*
X312838791Y83775575D01*
X313018955Y83655193D01*
X313219142Y83572273D01*
X313431659Y83530000D01*
X313648341Y83530000D01*
X313860858Y83572273D01*
X314061045Y83655193D01*
X314241209Y83775575D01*
X314394425Y83928791D01*
X314514807Y84108955D01*
X314597727Y84309142D01*
X314640000Y84521659D01*
X314640000Y84738341D01*
X321360000Y84738341D01*
X321360000Y84521659D01*
X321402273Y84309142D01*
X321485193Y84108955D01*
X321605575Y83928791D01*
X321758791Y83775575D01*
X321938955Y83655193D01*
X322139142Y83572273D01*
X322351659Y83530000D01*
X322568341Y83530000D01*
X322780858Y83572273D01*
X322981045Y83655193D01*
X323161209Y83775575D01*
X323314425Y83928791D01*
X323434807Y84108955D01*
X323517727Y84309142D01*
X323560000Y84521659D01*
X323560000Y84738341D01*
X326440000Y84738341D01*
X326440000Y84521659D01*
X326482273Y84309142D01*
X326565193Y84108955D01*
X326685575Y83928791D01*
X326838791Y83775575D01*
X327018955Y83655193D01*
X327219142Y83572273D01*
X327431659Y83530000D01*
X327648341Y83530000D01*
X327860858Y83572273D01*
X328061045Y83655193D01*
X328241209Y83775575D01*
X328394425Y83928791D01*
X328514807Y84108955D01*
X328529746Y84145022D01*
X334520000Y84145022D01*
X334520000Y83494978D01*
X334646817Y82857426D01*
X334895578Y82256864D01*
X335256723Y81716373D01*
X335716373Y81256723D01*
X336256864Y80895578D01*
X336857426Y80646817D01*
X337494978Y80520000D01*
X338145022Y80520000D01*
X338782574Y80646817D01*
X339383136Y80895578D01*
X339923627Y81256723D01*
X340383277Y81716373D01*
X340744422Y82256864D01*
X340993183Y82857426D01*
X341120000Y83494978D01*
X341120000Y84145022D01*
X340993183Y84782574D01*
X340744422Y85383136D01*
X340383277Y85923627D01*
X339923627Y86383277D01*
X339383136Y86744422D01*
X338782574Y86993183D01*
X338145022Y87120000D01*
X337494978Y87120000D01*
X336857426Y86993183D01*
X336256864Y86744422D01*
X335716373Y86383277D01*
X335256723Y85923627D01*
X334895578Y85383136D01*
X334646817Y84782574D01*
X334520000Y84145022D01*
X328529746Y84145022D01*
X328597727Y84309142D01*
X328640000Y84521659D01*
X328640000Y84738341D01*
X328597727Y84950858D01*
X328514807Y85151045D01*
X328394425Y85331209D01*
X328241209Y85484425D01*
X328061045Y85604807D01*
X327860858Y85687727D01*
X327648341Y85730000D01*
X327431659Y85730000D01*
X327219142Y85687727D01*
X327018955Y85604807D01*
X326838791Y85484425D01*
X326685575Y85331209D01*
X326565193Y85151045D01*
X326482273Y84950858D01*
X326440000Y84738341D01*
X323560000Y84738341D01*
X323517727Y84950858D01*
X323434807Y85151045D01*
X323314425Y85331209D01*
X323161209Y85484425D01*
X322981045Y85604807D01*
X322780858Y85687727D01*
X322568341Y85730000D01*
X322351659Y85730000D01*
X322139142Y85687727D01*
X321938955Y85604807D01*
X321758791Y85484425D01*
X321605575Y85331209D01*
X321485193Y85151045D01*
X321402273Y84950858D01*
X321360000Y84738341D01*
X314640000Y84738341D01*
X314597727Y84950858D01*
X314514807Y85151045D01*
X314394425Y85331209D01*
X314241209Y85484425D01*
X314061045Y85604807D01*
X313860858Y85687727D01*
X313648341Y85730000D01*
X313431659Y85730000D01*
X313219142Y85687727D01*
X313018955Y85604807D01*
X312838791Y85484425D01*
X312685575Y85331209D01*
X312565193Y85151045D01*
X312482273Y84950858D01*
X312440000Y84738341D01*
X309560000Y84738341D01*
X309517727Y84950858D01*
X309434807Y85151045D01*
X309314425Y85331209D01*
X309161209Y85484425D01*
X308981045Y85604807D01*
X308780858Y85687727D01*
X308568341Y85730000D01*
X308351659Y85730000D01*
X308139142Y85687727D01*
X307938955Y85604807D01*
X307758791Y85484425D01*
X307605575Y85331209D01*
X307485193Y85151045D01*
X307402273Y84950858D01*
X307360000Y84738341D01*
X300640000Y84738341D01*
X300597727Y84950858D01*
X300514807Y85151045D01*
X300394425Y85331209D01*
X300241209Y85484425D01*
X300061045Y85604807D01*
X299860858Y85687727D01*
X299648341Y85730000D01*
X299431659Y85730000D01*
X299219142Y85687727D01*
X299018955Y85604807D01*
X298838791Y85484425D01*
X298685575Y85331209D01*
X298565193Y85151045D01*
X298482273Y84950858D01*
X298440000Y84738341D01*
X295560000Y84738341D01*
X295517727Y84950858D01*
X295434807Y85151045D01*
X295314425Y85331209D01*
X295161209Y85484425D01*
X294981045Y85604807D01*
X294780858Y85687727D01*
X294568341Y85730000D01*
X294351659Y85730000D01*
X294139142Y85687727D01*
X293938955Y85604807D01*
X293758791Y85484425D01*
X293605575Y85331209D01*
X293485193Y85151045D01*
X293402273Y84950858D01*
X293360000Y84738341D01*
X286640000Y84738341D01*
X286597727Y84950858D01*
X286514807Y85151045D01*
X286394425Y85331209D01*
X286241209Y85484425D01*
X286061045Y85604807D01*
X285860858Y85687727D01*
X285648341Y85730000D01*
X285431659Y85730000D01*
X285219142Y85687727D01*
X285018955Y85604807D01*
X284838791Y85484425D01*
X284685575Y85331209D01*
X284565193Y85151045D01*
X284482273Y84950858D01*
X284440000Y84738341D01*
X281560000Y84738341D01*
X281517727Y84950858D01*
X281434807Y85151045D01*
X281314425Y85331209D01*
X281161209Y85484425D01*
X280981045Y85604807D01*
X280780858Y85687727D01*
X280568341Y85730000D01*
X280351659Y85730000D01*
X280139142Y85687727D01*
X279938955Y85604807D01*
X279758791Y85484425D01*
X279605575Y85331209D01*
X279485193Y85151045D01*
X279402273Y84950858D01*
X279360000Y84738341D01*
X276100000Y84738341D01*
X276100000Y89625000D01*
X346625000Y89625000D01*
X346625001Y45375000D01*
X346625001Y45375000D01*
G37*
X346625001Y45375000D02*
X276100000Y45375000D01*
X276100000Y47465742D01*
X319593531Y47465742D01*
X319686234Y47318979D01*
X319886615Y47236527D01*
X320099230Y47194751D01*
X320315910Y47195257D01*
X320528328Y47238026D01*
X320723766Y47318979D01*
X320816469Y47465742D01*
X322133531Y47465742D01*
X322226234Y47318979D01*
X322426615Y47236527D01*
X322639230Y47194751D01*
X322855910Y47195257D01*
X323068328Y47238026D01*
X323263766Y47318979D01*
X323356469Y47465742D01*
X324673531Y47465742D01*
X324766234Y47318979D01*
X324966615Y47236527D01*
X325179230Y47194751D01*
X325395910Y47195257D01*
X325608328Y47238026D01*
X325803766Y47318979D01*
X325896469Y47465742D01*
X327213531Y47465742D01*
X327306234Y47318979D01*
X327506615Y47236527D01*
X327719230Y47194751D01*
X327935910Y47195257D01*
X328148328Y47238026D01*
X328343766Y47318979D01*
X328436469Y47465742D01*
X329753531Y47465742D01*
X329846234Y47318979D01*
X330046615Y47236527D01*
X330259230Y47194751D01*
X330475910Y47195257D01*
X330688328Y47238026D01*
X330883766Y47318979D01*
X330976469Y47465742D01*
X332293531Y47465742D01*
X332386234Y47318979D01*
X332586615Y47236527D01*
X332799230Y47194751D01*
X333015910Y47195257D01*
X333228328Y47238026D01*
X333423766Y47318979D01*
X333516469Y47465742D01*
X332905000Y48077211D01*
X332293531Y47465742D01*
X330976469Y47465742D01*
X330365000Y48077211D01*
X329753531Y47465742D01*
X328436469Y47465742D01*
X327825000Y48077211D01*
X327213531Y47465742D01*
X325896469Y47465742D01*
X325285000Y48077211D01*
X324673531Y47465742D01*
X323356469Y47465742D01*
X322745000Y48077211D01*
X322133531Y47465742D01*
X320816469Y47465742D01*
X320205000Y48077211D01*
X319593531Y47465742D01*
X276100000Y47465742D01*
X276100000Y48400770D01*
X319104751Y48400770D01*
X319105257Y48184090D01*
X319148026Y47971672D01*
X319228979Y47776234D01*
X319375742Y47683531D01*
X319987211Y48295000D01*
X320422789Y48295000D01*
X321034258Y47683531D01*
X321181021Y47776234D01*
X321263473Y47976615D01*
X321305249Y48189230D01*
X321304756Y48400770D01*
X321644751Y48400770D01*
X321645257Y48184090D01*
X321688026Y47971672D01*
X321768979Y47776234D01*
X321915742Y47683531D01*
X322527211Y48295000D01*
X322962789Y48295000D01*
X323574258Y47683531D01*
X323721021Y47776234D01*
X323803473Y47976615D01*
X323845249Y48189230D01*
X323844756Y48400770D01*
X324184751Y48400770D01*
X324185257Y48184090D01*
X324228026Y47971672D01*
X324308979Y47776234D01*
X324455742Y47683531D01*
X325067211Y48295000D01*
X325502789Y48295000D01*
X326114258Y47683531D01*
X326261021Y47776234D01*
X326343473Y47976615D01*
X326385249Y48189230D01*
X326384756Y48400770D01*
X326724751Y48400770D01*
X326725257Y48184090D01*
X326768026Y47971672D01*
X326848979Y47776234D01*
X326995742Y47683531D01*
X327607211Y48295000D01*
X328042789Y48295000D01*
X328654258Y47683531D01*
X328801021Y47776234D01*
X328883473Y47976615D01*
X328925249Y48189230D01*
X328924756Y48400770D01*
X329264751Y48400770D01*
X329265257Y48184090D01*
X329308026Y47971672D01*
X329388979Y47776234D01*
X329535742Y47683531D01*
X330147211Y48295000D01*
X330582789Y48295000D01*
X331194258Y47683531D01*
X331341021Y47776234D01*
X331423473Y47976615D01*
X331465249Y48189230D01*
X331464756Y48400770D01*
X331804751Y48400770D01*
X331805257Y48184090D01*
X331848026Y47971672D01*
X331928979Y47776234D01*
X332075742Y47683531D01*
X332687211Y48295000D01*
X333122789Y48295000D01*
X333734258Y47683531D01*
X333881021Y47776234D01*
X333963473Y47976615D01*
X334005249Y48189230D01*
X334004749Y48403341D01*
X334345000Y48403341D01*
X334345000Y48186659D01*
X334387273Y47974142D01*
X334470193Y47773955D01*
X334590575Y47593791D01*
X334743791Y47440575D01*
X334923955Y47320193D01*
X335124142Y47237273D01*
X335336659Y47195000D01*
X335553341Y47195000D01*
X335765858Y47237273D01*
X335966045Y47320193D01*
X336146209Y47440575D01*
X336299425Y47593791D01*
X336419807Y47773955D01*
X336502727Y47974142D01*
X336545000Y48186659D01*
X336545000Y48403341D01*
X336502727Y48615858D01*
X336419807Y48816045D01*
X336299425Y48996209D01*
X336157218Y49138416D01*
X337065000Y49138416D01*
X337065000Y48931584D01*
X337105350Y48728726D01*
X337184502Y48537638D01*
X337299411Y48365664D01*
X337445664Y48219411D01*
X337617638Y48104502D01*
X337808726Y48025350D01*
X338011584Y47985000D01*
X338218416Y47985000D01*
X338421274Y48025350D01*
X338612362Y48104502D01*
X338784336Y48219411D01*
X338930589Y48365664D01*
X339045498Y48537638D01*
X339124650Y48728726D01*
X339165000Y48931584D01*
X339165000Y49138416D01*
X339124650Y49341274D01*
X339045498Y49532362D01*
X338930589Y49704336D01*
X338784336Y49850589D01*
X338612362Y49965498D01*
X338421274Y50044650D01*
X338218416Y50085000D01*
X338011584Y50085000D01*
X337808726Y50044650D01*
X337617638Y49965498D01*
X337445664Y49850589D01*
X337299411Y49704336D01*
X337184502Y49532362D01*
X337105350Y49341274D01*
X337065000Y49138416D01*
X336157218Y49138416D01*
X336146209Y49149425D01*
X335966045Y49269807D01*
X335765858Y49352727D01*
X335553341Y49395000D01*
X335336659Y49395000D01*
X335124142Y49352727D01*
X334923955Y49269807D01*
X334743791Y49149425D01*
X334590575Y48996209D01*
X334470193Y48816045D01*
X334387273Y48615858D01*
X334345000Y48403341D01*
X334004749Y48403341D01*
X334004743Y48405910D01*
X333961974Y48618328D01*
X333881021Y48813766D01*
X333734258Y48906469D01*
X333122789Y48295000D01*
X332687211Y48295000D01*
X332075742Y48906469D01*
X331928979Y48813766D01*
X331846527Y48613385D01*
X331804751Y48400770D01*
X331464756Y48400770D01*
X331464743Y48405910D01*
X331421974Y48618328D01*
X331341021Y48813766D01*
X331194258Y48906469D01*
X330582789Y48295000D01*
X330147211Y48295000D01*
X329535742Y48906469D01*
X329388979Y48813766D01*
X329306527Y48613385D01*
X329264751Y48400770D01*
X328924756Y48400770D01*
X328924743Y48405910D01*
X328881974Y48618328D01*
X328801021Y48813766D01*
X328654258Y48906469D01*
X328042789Y48295000D01*
X327607211Y48295000D01*
X326995742Y48906469D01*
X326848979Y48813766D01*
X326766527Y48613385D01*
X326724751Y48400770D01*
X326384756Y48400770D01*
X326384743Y48405910D01*
X326341974Y48618328D01*
X326261021Y48813766D01*
X326114258Y48906469D01*
X325502789Y48295000D01*
X325067211Y48295000D01*
X324455742Y48906469D01*
X324308979Y48813766D01*
X324226527Y48613385D01*
X324184751Y48400770D01*
X323844756Y48400770D01*
X323844743Y48405910D01*
X323801974Y48618328D01*
X323721021Y48813766D01*
X323574258Y48906469D01*
X322962789Y48295000D01*
X322527211Y48295000D01*
X321915742Y48906469D01*
X321768979Y48813766D01*
X321686527Y48613385D01*
X321644751Y48400770D01*
X321304756Y48400770D01*
X321304743Y48405910D01*
X321261974Y48618328D01*
X321181021Y48813766D01*
X321034258Y48906469D01*
X320422789Y48295000D01*
X319987211Y48295000D01*
X319375742Y48906469D01*
X319228979Y48813766D01*
X319146527Y48613385D01*
X319104751Y48400770D01*
X276100000Y48400770D01*
X276100000Y49124258D01*
X319593531Y49124258D01*
X320205000Y48512789D01*
X320816469Y49124258D01*
X322133531Y49124258D01*
X322745000Y48512789D01*
X323356469Y49124258D01*
X324673531Y49124258D01*
X325285000Y48512789D01*
X325896469Y49124258D01*
X327213531Y49124258D01*
X327825000Y48512789D01*
X328436469Y49124258D01*
X329753531Y49124258D01*
X330365000Y48512789D01*
X330976469Y49124258D01*
X332293531Y49124258D01*
X332905000Y48512789D01*
X333516469Y49124258D01*
X333423766Y49271021D01*
X333223385Y49353473D01*
X333010770Y49395249D01*
X332794090Y49394743D01*
X332581672Y49351974D01*
X332386234Y49271021D01*
X332293531Y49124258D01*
X330976469Y49124258D01*
X330883766Y49271021D01*
X330683385Y49353473D01*
X330470770Y49395249D01*
X330254090Y49394743D01*
X330041672Y49351974D01*
X329846234Y49271021D01*
X329753531Y49124258D01*
X328436469Y49124258D01*
X328343766Y49271021D01*
X328143385Y49353473D01*
X327930770Y49395249D01*
X327714090Y49394743D01*
X327501672Y49351974D01*
X327306234Y49271021D01*
X327213531Y49124258D01*
X325896469Y49124258D01*
X325803766Y49271021D01*
X325603385Y49353473D01*
X325390770Y49395249D01*
X325174090Y49394743D01*
X324961672Y49351974D01*
X324766234Y49271021D01*
X324673531Y49124258D01*
X323356469Y49124258D01*
X323263766Y49271021D01*
X323063385Y49353473D01*
X322850770Y49395249D01*
X322634090Y49394743D01*
X322421672Y49351974D01*
X322226234Y49271021D01*
X322133531Y49124258D01*
X320816469Y49124258D01*
X320723766Y49271021D01*
X320523385Y49353473D01*
X320310770Y49395249D01*
X320094090Y49394743D01*
X319881672Y49351974D01*
X319686234Y49271021D01*
X319593531Y49124258D01*
X276100000Y49124258D01*
X276100000Y51388600D01*
X293594949Y51388600D01*
X293594949Y49661400D01*
X293600741Y49602590D01*
X293617896Y49546040D01*
X293645753Y49493923D01*
X293683242Y49448242D01*
X293728923Y49410753D01*
X293781040Y49382896D01*
X293837590Y49365741D01*
X293896400Y49359949D01*
X295623600Y49359949D01*
X295682410Y49365741D01*
X295738960Y49382896D01*
X295791077Y49410753D01*
X295836758Y49448242D01*
X295874247Y49493923D01*
X295902104Y49546040D01*
X295919259Y49602590D01*
X295925051Y49661400D01*
X295925051Y50639605D01*
X296136400Y50639605D01*
X296136400Y50410395D01*
X296181117Y50185590D01*
X296268831Y49973829D01*
X296396173Y49783248D01*
X296558248Y49621173D01*
X296748829Y49493831D01*
X296960590Y49406117D01*
X297185395Y49361400D01*
X297414605Y49361400D01*
X297639410Y49406117D01*
X297851171Y49493831D01*
X298041752Y49621173D01*
X298203827Y49783248D01*
X298331169Y49973829D01*
X298418883Y50185590D01*
X298463600Y50410395D01*
X298463600Y50639605D01*
X298676400Y50639605D01*
X298676400Y50410395D01*
X298721117Y50185590D01*
X298808831Y49973829D01*
X298936173Y49783248D01*
X299098248Y49621173D01*
X299288829Y49493831D01*
X299500590Y49406117D01*
X299725395Y49361400D01*
X299954605Y49361400D01*
X300179410Y49406117D01*
X300391171Y49493831D01*
X300581752Y49621173D01*
X300743827Y49783248D01*
X300871169Y49973829D01*
X300958883Y50185590D01*
X301003600Y50410395D01*
X301003600Y50639605D01*
X301216400Y50639605D01*
X301216400Y50410395D01*
X301261117Y50185590D01*
X301348831Y49973829D01*
X301476173Y49783248D01*
X301638248Y49621173D01*
X301828829Y49493831D01*
X302040590Y49406117D01*
X302265395Y49361400D01*
X302494605Y49361400D01*
X302719410Y49406117D01*
X302931171Y49493831D01*
X303121752Y49621173D01*
X303283827Y49783248D01*
X303411169Y49973829D01*
X303498883Y50185590D01*
X303543600Y50410395D01*
X303543600Y50639605D01*
X303756400Y50639605D01*
X303756400Y50410395D01*
X303801117Y50185590D01*
X303888831Y49973829D01*
X304016173Y49783248D01*
X304178248Y49621173D01*
X304368829Y49493831D01*
X304580590Y49406117D01*
X304805395Y49361400D01*
X305034605Y49361400D01*
X305259410Y49406117D01*
X305471171Y49493831D01*
X305661752Y49621173D01*
X305823827Y49783248D01*
X305951169Y49973829D01*
X306038883Y50185590D01*
X306083600Y50410395D01*
X306083600Y50639605D01*
X306296400Y50639605D01*
X306296400Y50410395D01*
X306341117Y50185590D01*
X306428831Y49973829D01*
X306556173Y49783248D01*
X306718248Y49621173D01*
X306908829Y49493831D01*
X307120590Y49406117D01*
X307345395Y49361400D01*
X307574605Y49361400D01*
X307799410Y49406117D01*
X308011171Y49493831D01*
X308201752Y49621173D01*
X308363827Y49783248D01*
X308491169Y49973829D01*
X308578883Y50185590D01*
X308623600Y50410395D01*
X308623600Y50639605D01*
X308836400Y50639605D01*
X308836400Y50410395D01*
X308881117Y50185590D01*
X308968831Y49973829D01*
X309096173Y49783248D01*
X309258248Y49621173D01*
X309448829Y49493831D01*
X309660590Y49406117D01*
X309885395Y49361400D01*
X310114605Y49361400D01*
X310339410Y49406117D01*
X310551171Y49493831D01*
X310741752Y49621173D01*
X310903827Y49783248D01*
X311031169Y49973829D01*
X311118883Y50185590D01*
X311163600Y50410395D01*
X311163600Y50639605D01*
X311376400Y50639605D01*
X311376400Y50410395D01*
X311421117Y50185590D01*
X311508831Y49973829D01*
X311636173Y49783248D01*
X311798248Y49621173D01*
X311988829Y49493831D01*
X312200590Y49406117D01*
X312425395Y49361400D01*
X312654605Y49361400D01*
X312879410Y49406117D01*
X313091171Y49493831D01*
X313281752Y49621173D01*
X313443827Y49783248D01*
X313571169Y49973829D01*
X313658883Y50185590D01*
X313703600Y50410395D01*
X313703600Y50639605D01*
X313658883Y50864410D01*
X313626189Y50943341D01*
X320375000Y50943341D01*
X320375000Y50726659D01*
X320417273Y50514142D01*
X320500193Y50313955D01*
X320620575Y50133791D01*
X320773791Y49980575D01*
X320953955Y49860193D01*
X321154142Y49777273D01*
X321366659Y49735000D01*
X321583341Y49735000D01*
X321795858Y49777273D01*
X321996045Y49860193D01*
X322176209Y49980575D01*
X322329425Y50133791D01*
X322449807Y50313955D01*
X322532727Y50514142D01*
X322575000Y50726659D01*
X322575000Y50943341D01*
X322915000Y50943341D01*
X322915000Y50726659D01*
X322957273Y50514142D01*
X323040193Y50313955D01*
X323160575Y50133791D01*
X323313791Y49980575D01*
X323493955Y49860193D01*
X323694142Y49777273D01*
X323906659Y49735000D01*
X324123341Y49735000D01*
X324335858Y49777273D01*
X324536045Y49860193D01*
X324716209Y49980575D01*
X324869425Y50133791D01*
X324989807Y50313955D01*
X325072727Y50514142D01*
X325115000Y50726659D01*
X325115000Y50943341D01*
X325455000Y50943341D01*
X325455000Y50726659D01*
X325497273Y50514142D01*
X325580193Y50313955D01*
X325700575Y50133791D01*
X325853791Y49980575D01*
X326033955Y49860193D01*
X326234142Y49777273D01*
X326446659Y49735000D01*
X326663341Y49735000D01*
X326875858Y49777273D01*
X327076045Y49860193D01*
X327256209Y49980575D01*
X327409425Y50133791D01*
X327529807Y50313955D01*
X327612727Y50514142D01*
X327655000Y50726659D01*
X327655000Y50943341D01*
X327995000Y50943341D01*
X327995000Y50726659D01*
X328037273Y50514142D01*
X328120193Y50313955D01*
X328240575Y50133791D01*
X328393791Y49980575D01*
X328573955Y49860193D01*
X328774142Y49777273D01*
X328986659Y49735000D01*
X329203341Y49735000D01*
X329415858Y49777273D01*
X329616045Y49860193D01*
X329796209Y49980575D01*
X329949425Y50133791D01*
X330069807Y50313955D01*
X330152727Y50514142D01*
X330195000Y50726659D01*
X330195000Y50943341D01*
X330535000Y50943341D01*
X330535000Y50726659D01*
X330577273Y50514142D01*
X330660193Y50313955D01*
X330780575Y50133791D01*
X330933791Y49980575D01*
X331113955Y49860193D01*
X331314142Y49777273D01*
X331526659Y49735000D01*
X331743341Y49735000D01*
X331955858Y49777273D01*
X332156045Y49860193D01*
X332336209Y49980575D01*
X332489425Y50133791D01*
X332609807Y50313955D01*
X332692727Y50514142D01*
X332735000Y50726659D01*
X332735000Y50943341D01*
X333075000Y50943341D01*
X333075000Y50726659D01*
X333117273Y50514142D01*
X333200193Y50313955D01*
X333320575Y50133791D01*
X333473791Y49980575D01*
X333653955Y49860193D01*
X333854142Y49777273D01*
X334066659Y49735000D01*
X334283341Y49735000D01*
X334495858Y49777273D01*
X334696045Y49860193D01*
X334876209Y49980575D01*
X335029425Y50133791D01*
X335149807Y50313955D01*
X335232727Y50514142D01*
X335275000Y50726659D01*
X335275000Y50943341D01*
X335615000Y50943341D01*
X335615000Y50726659D01*
X335657273Y50514142D01*
X335740193Y50313955D01*
X335860575Y50133791D01*
X336013791Y49980575D01*
X336193955Y49860193D01*
X336394142Y49777273D01*
X336606659Y49735000D01*
X336823341Y49735000D01*
X337035858Y49777273D01*
X337236045Y49860193D01*
X337416209Y49980575D01*
X337569425Y50133791D01*
X337689807Y50313955D01*
X337772727Y50514142D01*
X337815000Y50726659D01*
X337815000Y50943341D01*
X337772727Y51155858D01*
X337689807Y51356045D01*
X337569425Y51536209D01*
X337416209Y51689425D01*
X337236045Y51809807D01*
X337035858Y51892727D01*
X336823341Y51935000D01*
X336606659Y51935000D01*
X336394142Y51892727D01*
X336193955Y51809807D01*
X336013791Y51689425D01*
X335860575Y51536209D01*
X335740193Y51356045D01*
X335657273Y51155858D01*
X335615000Y50943341D01*
X335275000Y50943341D01*
X335232727Y51155858D01*
X335149807Y51356045D01*
X335029425Y51536209D01*
X334876209Y51689425D01*
X334696045Y51809807D01*
X334495858Y51892727D01*
X334283341Y51935000D01*
X334066659Y51935000D01*
X333854142Y51892727D01*
X333653955Y51809807D01*
X333473791Y51689425D01*
X333320575Y51536209D01*
X333200193Y51356045D01*
X333117273Y51155858D01*
X333075000Y50943341D01*
X332735000Y50943341D01*
X332692727Y51155858D01*
X332609807Y51356045D01*
X332489425Y51536209D01*
X332336209Y51689425D01*
X332156045Y51809807D01*
X331955858Y51892727D01*
X331743341Y51935000D01*
X331526659Y51935000D01*
X331314142Y51892727D01*
X331113955Y51809807D01*
X330933791Y51689425D01*
X330780575Y51536209D01*
X330660193Y51356045D01*
X330577273Y51155858D01*
X330535000Y50943341D01*
X330195000Y50943341D01*
X330152727Y51155858D01*
X330069807Y51356045D01*
X329949425Y51536209D01*
X329796209Y51689425D01*
X329616045Y51809807D01*
X329415858Y51892727D01*
X329203341Y51935000D01*
X328986659Y51935000D01*
X328774142Y51892727D01*
X328573955Y51809807D01*
X328393791Y51689425D01*
X328240575Y51536209D01*
X328120193Y51356045D01*
X328037273Y51155858D01*
X327995000Y50943341D01*
X327655000Y50943341D01*
X327612727Y51155858D01*
X327529807Y51356045D01*
X327409425Y51536209D01*
X327256209Y51689425D01*
X327076045Y51809807D01*
X326875858Y51892727D01*
X326663341Y51935000D01*
X326446659Y51935000D01*
X326234142Y51892727D01*
X326033955Y51809807D01*
X325853791Y51689425D01*
X325700575Y51536209D01*
X325580193Y51356045D01*
X325497273Y51155858D01*
X325455000Y50943341D01*
X325115000Y50943341D01*
X325072727Y51155858D01*
X324989807Y51356045D01*
X324869425Y51536209D01*
X324716209Y51689425D01*
X324536045Y51809807D01*
X324335858Y51892727D01*
X324123341Y51935000D01*
X323906659Y51935000D01*
X323694142Y51892727D01*
X323493955Y51809807D01*
X323313791Y51689425D01*
X323160575Y51536209D01*
X323040193Y51356045D01*
X322957273Y51155858D01*
X322915000Y50943341D01*
X322575000Y50943341D01*
X322532727Y51155858D01*
X322449807Y51356045D01*
X322329425Y51536209D01*
X322176209Y51689425D01*
X321996045Y51809807D01*
X321795858Y51892727D01*
X321583341Y51935000D01*
X321366659Y51935000D01*
X321154142Y51892727D01*
X320953955Y51809807D01*
X320773791Y51689425D01*
X320620575Y51536209D01*
X320500193Y51356045D01*
X320417273Y51155858D01*
X320375000Y50943341D01*
X313626189Y50943341D01*
X313571169Y51076171D01*
X313443827Y51266752D01*
X313281752Y51428827D01*
X313091171Y51556169D01*
X312879410Y51643883D01*
X312654605Y51688600D01*
X312425395Y51688600D01*
X312200590Y51643883D01*
X311988829Y51556169D01*
X311798248Y51428827D01*
X311636173Y51266752D01*
X311508831Y51076171D01*
X311421117Y50864410D01*
X311376400Y50639605D01*
X311163600Y50639605D01*
X311118883Y50864410D01*
X311031169Y51076171D01*
X310903827Y51266752D01*
X310741752Y51428827D01*
X310551171Y51556169D01*
X310339410Y51643883D01*
X310114605Y51688600D01*
X309885395Y51688600D01*
X309660590Y51643883D01*
X309448829Y51556169D01*
X309258248Y51428827D01*
X309096173Y51266752D01*
X308968831Y51076171D01*
X308881117Y50864410D01*
X308836400Y50639605D01*
X308623600Y50639605D01*
X308578883Y50864410D01*
X308491169Y51076171D01*
X308363827Y51266752D01*
X308201752Y51428827D01*
X308011171Y51556169D01*
X307799410Y51643883D01*
X307574605Y51688600D01*
X307345395Y51688600D01*
X307120590Y51643883D01*
X306908829Y51556169D01*
X306718248Y51428827D01*
X306556173Y51266752D01*
X306428831Y51076171D01*
X306341117Y50864410D01*
X306296400Y50639605D01*
X306083600Y50639605D01*
X306038883Y50864410D01*
X305951169Y51076171D01*
X305823827Y51266752D01*
X305661752Y51428827D01*
X305471171Y51556169D01*
X305259410Y51643883D01*
X305034605Y51688600D01*
X304805395Y51688600D01*
X304580590Y51643883D01*
X304368829Y51556169D01*
X304178248Y51428827D01*
X304016173Y51266752D01*
X303888831Y51076171D01*
X303801117Y50864410D01*
X303756400Y50639605D01*
X303543600Y50639605D01*
X303498883Y50864410D01*
X303411169Y51076171D01*
X303283827Y51266752D01*
X303121752Y51428827D01*
X302931171Y51556169D01*
X302719410Y51643883D01*
X302494605Y51688600D01*
X302265395Y51688600D01*
X302040590Y51643883D01*
X301828829Y51556169D01*
X301638248Y51428827D01*
X301476173Y51266752D01*
X301348831Y51076171D01*
X301261117Y50864410D01*
X301216400Y50639605D01*
X301003600Y50639605D01*
X300958883Y50864410D01*
X300871169Y51076171D01*
X300743827Y51266752D01*
X300581752Y51428827D01*
X300391171Y51556169D01*
X300179410Y51643883D01*
X299954605Y51688600D01*
X299725395Y51688600D01*
X299500590Y51643883D01*
X299288829Y51556169D01*
X299098248Y51428827D01*
X298936173Y51266752D01*
X298808831Y51076171D01*
X298721117Y50864410D01*
X298676400Y50639605D01*
X298463600Y50639605D01*
X298418883Y50864410D01*
X298331169Y51076171D01*
X298203827Y51266752D01*
X298041752Y51428827D01*
X297851171Y51556169D01*
X297639410Y51643883D01*
X297414605Y51688600D01*
X297185395Y51688600D01*
X296960590Y51643883D01*
X296748829Y51556169D01*
X296558248Y51428827D01*
X296396173Y51266752D01*
X296268831Y51076171D01*
X296181117Y50864410D01*
X296136400Y50639605D01*
X295925051Y50639605D01*
X295925051Y51388600D01*
X295919259Y51447410D01*
X295902104Y51503960D01*
X295874247Y51556077D01*
X295836758Y51601758D01*
X295791077Y51639247D01*
X295738960Y51667104D01*
X295682410Y51684259D01*
X295623600Y51690051D01*
X293896400Y51690051D01*
X293837590Y51684259D01*
X293781040Y51667104D01*
X293728923Y51639247D01*
X293683242Y51601758D01*
X293645753Y51556077D01*
X293617896Y51503960D01*
X293600741Y51447410D01*
X293594949Y51388600D01*
X276100000Y51388600D01*
X276100000Y52190069D01*
X294102858Y52190069D01*
X294203320Y52036795D01*
X294414609Y51947949D01*
X294639171Y51902030D01*
X294868377Y51900804D01*
X295093418Y51944316D01*
X295305645Y52030897D01*
X295316680Y52036795D01*
X295417142Y52190069D01*
X296642858Y52190069D01*
X296743320Y52036795D01*
X296954609Y51947949D01*
X297179171Y51902030D01*
X297408377Y51900804D01*
X297633418Y51944316D01*
X297845645Y52030897D01*
X297856680Y52036795D01*
X297957142Y52190069D01*
X299182858Y52190069D01*
X299283320Y52036795D01*
X299494609Y51947949D01*
X299719171Y51902030D01*
X299948377Y51900804D01*
X300173418Y51944316D01*
X300385645Y52030897D01*
X300396680Y52036795D01*
X300497142Y52190069D01*
X301722858Y52190069D01*
X301823320Y52036795D01*
X302034609Y51947949D01*
X302259171Y51902030D01*
X302488377Y51900804D01*
X302713418Y51944316D01*
X302925645Y52030897D01*
X302936680Y52036795D01*
X303037142Y52190069D01*
X304262858Y52190069D01*
X304363320Y52036795D01*
X304574609Y51947949D01*
X304799171Y51902030D01*
X305028377Y51900804D01*
X305253418Y51944316D01*
X305465645Y52030897D01*
X305476680Y52036795D01*
X305577142Y52190069D01*
X306802858Y52190069D01*
X306903320Y52036795D01*
X307114609Y51947949D01*
X307339171Y51902030D01*
X307568377Y51900804D01*
X307793418Y51944316D01*
X308005645Y52030897D01*
X308016680Y52036795D01*
X308117142Y52190069D01*
X309342858Y52190069D01*
X309443320Y52036795D01*
X309654609Y51947949D01*
X309879171Y51902030D01*
X310108377Y51900804D01*
X310333418Y51944316D01*
X310545645Y52030897D01*
X310556680Y52036795D01*
X310657142Y52190069D01*
X311882858Y52190069D01*
X311983320Y52036795D01*
X312194609Y51947949D01*
X312419171Y51902030D01*
X312648377Y51900804D01*
X312873418Y51944316D01*
X313085645Y52030897D01*
X313096680Y52036795D01*
X313197142Y52190069D01*
X312540000Y52847211D01*
X311882858Y52190069D01*
X310657142Y52190069D01*
X310000000Y52847211D01*
X309342858Y52190069D01*
X308117142Y52190069D01*
X307460000Y52847211D01*
X306802858Y52190069D01*
X305577142Y52190069D01*
X304920000Y52847211D01*
X304262858Y52190069D01*
X303037142Y52190069D01*
X302380000Y52847211D01*
X301722858Y52190069D01*
X300497142Y52190069D01*
X299840000Y52847211D01*
X299182858Y52190069D01*
X297957142Y52190069D01*
X297300000Y52847211D01*
X296642858Y52190069D01*
X295417142Y52190069D01*
X294760000Y52847211D01*
X294102858Y52190069D01*
X276100000Y52190069D01*
X276100000Y52956623D01*
X293595804Y52956623D01*
X293639316Y52731582D01*
X293725897Y52519355D01*
X293731795Y52508320D01*
X293885069Y52407858D01*
X294542211Y53065000D01*
X294977789Y53065000D01*
X295634931Y52407858D01*
X295788205Y52508320D01*
X295877051Y52719609D01*
X295922970Y52944171D01*
X295923036Y52956623D01*
X296135804Y52956623D01*
X296179316Y52731582D01*
X296265897Y52519355D01*
X296271795Y52508320D01*
X296425069Y52407858D01*
X297082211Y53065000D01*
X297517789Y53065000D01*
X298174931Y52407858D01*
X298328205Y52508320D01*
X298417051Y52719609D01*
X298462970Y52944171D01*
X298463036Y52956623D01*
X298675804Y52956623D01*
X298719316Y52731582D01*
X298805897Y52519355D01*
X298811795Y52508320D01*
X298965069Y52407858D01*
X299622211Y53065000D01*
X300057789Y53065000D01*
X300714931Y52407858D01*
X300868205Y52508320D01*
X300957051Y52719609D01*
X301002970Y52944171D01*
X301003036Y52956623D01*
X301215804Y52956623D01*
X301259316Y52731582D01*
X301345897Y52519355D01*
X301351795Y52508320D01*
X301505069Y52407858D01*
X302162211Y53065000D01*
X302597789Y53065000D01*
X303254931Y52407858D01*
X303408205Y52508320D01*
X303497051Y52719609D01*
X303542970Y52944171D01*
X303543036Y52956623D01*
X303755804Y52956623D01*
X303799316Y52731582D01*
X303885897Y52519355D01*
X303891795Y52508320D01*
X304045069Y52407858D01*
X304702211Y53065000D01*
X305137789Y53065000D01*
X305794931Y52407858D01*
X305948205Y52508320D01*
X306037051Y52719609D01*
X306082970Y52944171D01*
X306083036Y52956623D01*
X306295804Y52956623D01*
X306339316Y52731582D01*
X306425897Y52519355D01*
X306431795Y52508320D01*
X306585069Y52407858D01*
X307242211Y53065000D01*
X307677789Y53065000D01*
X308334931Y52407858D01*
X308488205Y52508320D01*
X308577051Y52719609D01*
X308622970Y52944171D01*
X308623036Y52956623D01*
X308835804Y52956623D01*
X308879316Y52731582D01*
X308965897Y52519355D01*
X308971795Y52508320D01*
X309125069Y52407858D01*
X309782211Y53065000D01*
X310217789Y53065000D01*
X310874931Y52407858D01*
X311028205Y52508320D01*
X311117051Y52719609D01*
X311162970Y52944171D01*
X311163036Y52956623D01*
X311375804Y52956623D01*
X311419316Y52731582D01*
X311505897Y52519355D01*
X311511795Y52508320D01*
X311665069Y52407858D01*
X312322211Y53065000D01*
X312757789Y53065000D01*
X313414931Y52407858D01*
X313568205Y52508320D01*
X313657051Y52719609D01*
X313702970Y52944171D01*
X313704196Y53173377D01*
X313660684Y53398418D01*
X313574103Y53610645D01*
X313568205Y53621680D01*
X313414931Y53722142D01*
X312757789Y53065000D01*
X312322211Y53065000D01*
X311665069Y53722142D01*
X311511795Y53621680D01*
X311422949Y53410391D01*
X311377030Y53185829D01*
X311375804Y52956623D01*
X311163036Y52956623D01*
X311164196Y53173377D01*
X311120684Y53398418D01*
X311034103Y53610645D01*
X311028205Y53621680D01*
X310874931Y53722142D01*
X310217789Y53065000D01*
X309782211Y53065000D01*
X309125069Y53722142D01*
X308971795Y53621680D01*
X308882949Y53410391D01*
X308837030Y53185829D01*
X308835804Y52956623D01*
X308623036Y52956623D01*
X308624196Y53173377D01*
X308580684Y53398418D01*
X308494103Y53610645D01*
X308488205Y53621680D01*
X308334931Y53722142D01*
X307677789Y53065000D01*
X307242211Y53065000D01*
X306585069Y53722142D01*
X306431795Y53621680D01*
X306342949Y53410391D01*
X306297030Y53185829D01*
X306295804Y52956623D01*
X306083036Y52956623D01*
X306084196Y53173377D01*
X306040684Y53398418D01*
X305954103Y53610645D01*
X305948205Y53621680D01*
X305794931Y53722142D01*
X305137789Y53065000D01*
X304702211Y53065000D01*
X304045069Y53722142D01*
X303891795Y53621680D01*
X303802949Y53410391D01*
X303757030Y53185829D01*
X303755804Y52956623D01*
X303543036Y52956623D01*
X303544196Y53173377D01*
X303500684Y53398418D01*
X303414103Y53610645D01*
X303408205Y53621680D01*
X303254931Y53722142D01*
X302597789Y53065000D01*
X302162211Y53065000D01*
X301505069Y53722142D01*
X301351795Y53621680D01*
X301262949Y53410391D01*
X301217030Y53185829D01*
X301215804Y52956623D01*
X301003036Y52956623D01*
X301004196Y53173377D01*
X300960684Y53398418D01*
X300874103Y53610645D01*
X300868205Y53621680D01*
X300714931Y53722142D01*
X300057789Y53065000D01*
X299622211Y53065000D01*
X298965069Y53722142D01*
X298811795Y53621680D01*
X298722949Y53410391D01*
X298677030Y53185829D01*
X298675804Y52956623D01*
X298463036Y52956623D01*
X298464196Y53173377D01*
X298420684Y53398418D01*
X298334103Y53610645D01*
X298328205Y53621680D01*
X298174931Y53722142D01*
X297517789Y53065000D01*
X297082211Y53065000D01*
X296425069Y53722142D01*
X296271795Y53621680D01*
X296182949Y53410391D01*
X296137030Y53185829D01*
X296135804Y52956623D01*
X295923036Y52956623D01*
X295924196Y53173377D01*
X295880684Y53398418D01*
X295794103Y53610645D01*
X295788205Y53621680D01*
X295634931Y53722142D01*
X294977789Y53065000D01*
X294542211Y53065000D01*
X293885069Y53722142D01*
X293731795Y53621680D01*
X293642949Y53410391D01*
X293597030Y53185829D01*
X293595804Y52956623D01*
X276100000Y52956623D01*
X276100000Y53939931D01*
X294102858Y53939931D01*
X294760000Y53282789D01*
X295417142Y53939931D01*
X296642858Y53939931D01*
X297300000Y53282789D01*
X297957142Y53939931D01*
X299182858Y53939931D01*
X299840000Y53282789D01*
X300497142Y53939931D01*
X301722858Y53939931D01*
X302380000Y53282789D01*
X303037142Y53939931D01*
X304262858Y53939931D01*
X304920000Y53282789D01*
X305577142Y53939931D01*
X306802858Y53939931D01*
X307460000Y53282789D01*
X308117142Y53939931D01*
X309342858Y53939931D01*
X310000000Y53282789D01*
X310657142Y53939931D01*
X311882858Y53939931D01*
X312540000Y53282789D01*
X313197142Y53939931D01*
X313096680Y54093205D01*
X312885391Y54182051D01*
X312660829Y54227970D01*
X312431623Y54229196D01*
X312206582Y54185684D01*
X311994355Y54099103D01*
X311983320Y54093205D01*
X311882858Y53939931D01*
X310657142Y53939931D01*
X310556680Y54093205D01*
X310345391Y54182051D01*
X310120829Y54227970D01*
X309891623Y54229196D01*
X309666582Y54185684D01*
X309454355Y54099103D01*
X309443320Y54093205D01*
X309342858Y53939931D01*
X308117142Y53939931D01*
X308016680Y54093205D01*
X307805391Y54182051D01*
X307580829Y54227970D01*
X307351623Y54229196D01*
X307126582Y54185684D01*
X306914355Y54099103D01*
X306903320Y54093205D01*
X306802858Y53939931D01*
X305577142Y53939931D01*
X305476680Y54093205D01*
X305265391Y54182051D01*
X305040829Y54227970D01*
X304811623Y54229196D01*
X304586582Y54185684D01*
X304374355Y54099103D01*
X304363320Y54093205D01*
X304262858Y53939931D01*
X303037142Y53939931D01*
X302936680Y54093205D01*
X302725391Y54182051D01*
X302500829Y54227970D01*
X302271623Y54229196D01*
X302046582Y54185684D01*
X301834355Y54099103D01*
X301823320Y54093205D01*
X301722858Y53939931D01*
X300497142Y53939931D01*
X300396680Y54093205D01*
X300185391Y54182051D01*
X299960829Y54227970D01*
X299731623Y54229196D01*
X299506582Y54185684D01*
X299294355Y54099103D01*
X299283320Y54093205D01*
X299182858Y53939931D01*
X297957142Y53939931D01*
X297856680Y54093205D01*
X297645391Y54182051D01*
X297420829Y54227970D01*
X297191623Y54229196D01*
X296966582Y54185684D01*
X296754355Y54099103D01*
X296743320Y54093205D01*
X296642858Y53939931D01*
X295417142Y53939931D01*
X295316680Y54093205D01*
X295105391Y54182051D01*
X294880829Y54227970D01*
X294651623Y54229196D01*
X294426582Y54185684D01*
X294214355Y54099103D01*
X294203320Y54093205D01*
X294102858Y53939931D01*
X276100000Y53939931D01*
X276100000Y58745022D01*
X334520000Y58745022D01*
X334520000Y58094978D01*
X334646817Y57457426D01*
X334895578Y56856864D01*
X335256723Y56316373D01*
X335716373Y55856723D01*
X336256864Y55495578D01*
X336857426Y55246817D01*
X337494978Y55120000D01*
X338145022Y55120000D01*
X338782574Y55246817D01*
X339383136Y55495578D01*
X339923627Y55856723D01*
X340383277Y56316373D01*
X340744422Y56856864D01*
X340993183Y57457426D01*
X341120000Y58094978D01*
X341120000Y58745022D01*
X340993183Y59382574D01*
X340744422Y59983136D01*
X340383277Y60523627D01*
X339923627Y60983277D01*
X339383136Y61344422D01*
X338782574Y61593183D01*
X338145022Y61720000D01*
X337494978Y61720000D01*
X336857426Y61593183D01*
X336256864Y61344422D01*
X335716373Y60983277D01*
X335256723Y60523627D01*
X334895578Y59983136D01*
X334646817Y59382574D01*
X334520000Y58745022D01*
X276100000Y58745022D01*
X276100000Y76059095D01*
X319000000Y76059095D01*
X319000000Y75940905D01*
X319023058Y75824986D01*
X319068287Y75715793D01*
X319133950Y75617522D01*
X319200001Y75551471D01*
X319200000Y74248536D01*
X319133950Y74182486D01*
X319068287Y74084215D01*
X319023058Y73975022D01*
X319000000Y73859103D01*
X319000000Y73740913D01*
X319023058Y73624994D01*
X319068287Y73515801D01*
X319133950Y73417530D01*
X319217522Y73333958D01*
X319315793Y73268295D01*
X319424986Y73223066D01*
X319540905Y73200008D01*
X319659095Y73200008D01*
X319775014Y73223066D01*
X319884207Y73268295D01*
X319982478Y73333958D01*
X320066050Y73417530D01*
X320131713Y73515801D01*
X320176942Y73624994D01*
X320200000Y73740913D01*
X320200000Y73859103D01*
X320176942Y73975022D01*
X320131713Y74084215D01*
X320066050Y74182486D01*
X320000000Y74248536D01*
X320000000Y75551472D01*
X320066050Y75617522D01*
X320131713Y75715793D01*
X320176942Y75824986D01*
X320200000Y75940905D01*
X320200000Y76059095D01*
X320176942Y76175014D01*
X320131713Y76284207D01*
X320066050Y76382478D01*
X319982478Y76466050D01*
X319884207Y76531713D01*
X319775014Y76576942D01*
X319659095Y76600000D01*
X319540905Y76600000D01*
X319424986Y76576942D01*
X319315793Y76531713D01*
X319217522Y76466050D01*
X319133950Y76382478D01*
X319068287Y76284207D01*
X319023058Y76175014D01*
X319000000Y76059095D01*
X276100000Y76059095D01*
X276100000Y82098491D01*
X279460000Y82098491D01*
X279460000Y81901509D01*
X279498429Y81708311D01*
X279573811Y81526322D01*
X279683249Y81362537D01*
X279822537Y81223249D01*
X279986322Y81113811D01*
X280168311Y81038429D01*
X280361509Y81000000D01*
X280558491Y81000000D01*
X280751689Y81038429D01*
X280933678Y81113811D01*
X281097463Y81223249D01*
X281116904Y81242690D01*
X282460479Y81242690D01*
X282540936Y81106153D01*
X282724138Y81033770D01*
X282917940Y80998518D01*
X283114896Y81001752D01*
X283307437Y81043348D01*
X283459064Y81106153D01*
X283539521Y81242690D01*
X283000000Y81782211D01*
X282460479Y81242690D01*
X281116904Y81242690D01*
X281236751Y81362537D01*
X281346189Y81526322D01*
X281421571Y81708311D01*
X281460000Y81901509D01*
X281460000Y82082060D01*
X281998518Y82082060D01*
X282001752Y81885104D01*
X282043348Y81692563D01*
X282106153Y81540936D01*
X282242690Y81460479D01*
X282782211Y82000000D01*
X283217789Y82000000D01*
X283757310Y81460479D01*
X283893847Y81540936D01*
X283966230Y81724138D01*
X284001482Y81917940D01*
X283998518Y82098491D01*
X284540000Y82098491D01*
X284540000Y81901509D01*
X284578429Y81708311D01*
X284653811Y81526322D01*
X284763249Y81362537D01*
X284902537Y81223249D01*
X285066322Y81113811D01*
X285248311Y81038429D01*
X285441509Y81000000D01*
X285638491Y81000000D01*
X285831689Y81038429D01*
X286013678Y81113811D01*
X286177463Y81223249D01*
X286316751Y81362537D01*
X286426189Y81526322D01*
X286501571Y81708311D01*
X286540000Y81901509D01*
X286540000Y82098491D01*
X293460000Y82098491D01*
X293460000Y81901509D01*
X293498429Y81708311D01*
X293573811Y81526322D01*
X293683249Y81362537D01*
X293822537Y81223249D01*
X293986322Y81113811D01*
X294168311Y81038429D01*
X294361509Y81000000D01*
X294558491Y81000000D01*
X294751689Y81038429D01*
X294933678Y81113811D01*
X295097463Y81223249D01*
X295116904Y81242690D01*
X296460479Y81242690D01*
X296540936Y81106153D01*
X296724138Y81033770D01*
X296917940Y80998518D01*
X297114896Y81001752D01*
X297307437Y81043348D01*
X297459064Y81106153D01*
X297539521Y81242690D01*
X297000000Y81782211D01*
X296460479Y81242690D01*
X295116904Y81242690D01*
X295236751Y81362537D01*
X295346189Y81526322D01*
X295421571Y81708311D01*
X295460000Y81901509D01*
X295460000Y82082060D01*
X295998518Y82082060D01*
X296001752Y81885104D01*
X296043348Y81692563D01*
X296106153Y81540936D01*
X296242690Y81460479D01*
X296782211Y82000000D01*
X297217789Y82000000D01*
X297757310Y81460479D01*
X297893847Y81540936D01*
X297966230Y81724138D01*
X298001482Y81917940D01*
X297998518Y82098491D01*
X298540000Y82098491D01*
X298540000Y81901509D01*
X298578429Y81708311D01*
X298653811Y81526322D01*
X298763249Y81362537D01*
X298902537Y81223249D01*
X299066322Y81113811D01*
X299248311Y81038429D01*
X299441509Y81000000D01*
X299638491Y81000000D01*
X299831689Y81038429D01*
X300013678Y81113811D01*
X300177463Y81223249D01*
X300316751Y81362537D01*
X300426189Y81526322D01*
X300501571Y81708311D01*
X300540000Y81901509D01*
X300540000Y82098491D01*
X307460000Y82098491D01*
X307460000Y81901509D01*
X307498429Y81708311D01*
X307573811Y81526322D01*
X307683249Y81362537D01*
X307822537Y81223249D01*
X307986322Y81113811D01*
X308168311Y81038429D01*
X308361509Y81000000D01*
X308558491Y81000000D01*
X308751689Y81038429D01*
X308933678Y81113811D01*
X309097463Y81223249D01*
X309116904Y81242690D01*
X310460479Y81242690D01*
X310540936Y81106153D01*
X310724138Y81033770D01*
X310917940Y80998518D01*
X311114896Y81001752D01*
X311307437Y81043348D01*
X311459064Y81106153D01*
X311539521Y81242690D01*
X311000000Y81782211D01*
X310460479Y81242690D01*
X309116904Y81242690D01*
X309236751Y81362537D01*
X309346189Y81526322D01*
X309421571Y81708311D01*
X309460000Y81901509D01*
X309460000Y82082060D01*
X309998518Y82082060D01*
X310001752Y81885104D01*
X310043348Y81692563D01*
X310106153Y81540936D01*
X310242690Y81460479D01*
X310782211Y82000000D01*
X311217789Y82000000D01*
X311757310Y81460479D01*
X311893847Y81540936D01*
X311966230Y81724138D01*
X312001482Y81917940D01*
X311998518Y82098491D01*
X312540000Y82098491D01*
X312540000Y81901509D01*
X312578429Y81708311D01*
X312653811Y81526322D01*
X312763249Y81362537D01*
X312902537Y81223249D01*
X313066322Y81113811D01*
X313248311Y81038429D01*
X313441509Y81000000D01*
X313638491Y81000000D01*
X313831689Y81038429D01*
X314013678Y81113811D01*
X314177463Y81223249D01*
X314316751Y81362537D01*
X314426189Y81526322D01*
X314501571Y81708311D01*
X314540000Y81901509D01*
X314540000Y82098491D01*
X321460000Y82098491D01*
X321460000Y81901509D01*
X321498429Y81708311D01*
X321573811Y81526322D01*
X321683249Y81362537D01*
X321822537Y81223249D01*
X321986322Y81113811D01*
X322168311Y81038429D01*
X322361509Y81000000D01*
X322558491Y81000000D01*
X322751689Y81038429D01*
X322933678Y81113811D01*
X323097463Y81223249D01*
X323116904Y81242690D01*
X324460479Y81242690D01*
X324540936Y81106153D01*
X324724138Y81033770D01*
X324917940Y80998518D01*
X325114896Y81001752D01*
X325307437Y81043348D01*
X325459064Y81106153D01*
X325539521Y81242690D01*
X325000000Y81782211D01*
X324460479Y81242690D01*
X323116904Y81242690D01*
X323236751Y81362537D01*
X323346189Y81526322D01*
X323421571Y81708311D01*
X323460000Y81901509D01*
X323460000Y82082060D01*
X323998518Y82082060D01*
X324001752Y81885104D01*
X324043348Y81692563D01*
X324106153Y81540936D01*
X324242690Y81460479D01*
X324782211Y82000000D01*
X325217789Y82000000D01*
X325757310Y81460479D01*
X325893847Y81540936D01*
X325966230Y81724138D01*
X326001482Y81917940D01*
X325998518Y82098491D01*
X326540000Y82098491D01*
X326540000Y81901509D01*
X326578429Y81708311D01*
X326653811Y81526322D01*
X326763249Y81362537D01*
X326902537Y81223249D01*
X327066322Y81113811D01*
X327248311Y81038429D01*
X327441509Y81000000D01*
X327638491Y81000000D01*
X327831689Y81038429D01*
X328013678Y81113811D01*
X328177463Y81223249D01*
X328316751Y81362537D01*
X328426189Y81526322D01*
X328501571Y81708311D01*
X328540000Y81901509D01*
X328540000Y82098491D01*
X328501571Y82291689D01*
X328426189Y82473678D01*
X328316751Y82637463D01*
X328177463Y82776751D01*
X328013678Y82886189D01*
X327831689Y82961571D01*
X327638491Y83000000D01*
X327441509Y83000000D01*
X327248311Y82961571D01*
X327066322Y82886189D01*
X326902537Y82776751D01*
X326763249Y82637463D01*
X326653811Y82473678D01*
X326578429Y82291689D01*
X326540000Y82098491D01*
X325998518Y82098491D01*
X325998248Y82114896D01*
X325956652Y82307437D01*
X325893847Y82459064D01*
X325757310Y82539521D01*
X325217789Y82000000D01*
X324782211Y82000000D01*
X324242690Y82539521D01*
X324106153Y82459064D01*
X324033770Y82275862D01*
X323998518Y82082060D01*
X323460000Y82082060D01*
X323460000Y82098491D01*
X323421571Y82291689D01*
X323346189Y82473678D01*
X323236751Y82637463D01*
X323116904Y82757310D01*
X324460479Y82757310D01*
X325000000Y82217789D01*
X325539521Y82757310D01*
X325459064Y82893847D01*
X325275862Y82966230D01*
X325082060Y83001482D01*
X324885104Y82998248D01*
X324692563Y82956652D01*
X324540936Y82893847D01*
X324460479Y82757310D01*
X323116904Y82757310D01*
X323097463Y82776751D01*
X322933678Y82886189D01*
X322751689Y82961571D01*
X322558491Y83000000D01*
X322361509Y83000000D01*
X322168311Y82961571D01*
X321986322Y82886189D01*
X321822537Y82776751D01*
X321683249Y82637463D01*
X321573811Y82473678D01*
X321498429Y82291689D01*
X321460000Y82098491D01*
X314540000Y82098491D01*
X314501571Y82291689D01*
X314426189Y82473678D01*
X314316751Y82637463D01*
X314177463Y82776751D01*
X314013678Y82886189D01*
X313831689Y82961571D01*
X313638491Y83000000D01*
X313441509Y83000000D01*
X313248311Y82961571D01*
X313066322Y82886189D01*
X312902537Y82776751D01*
X312763249Y82637463D01*
X312653811Y82473678D01*
X312578429Y82291689D01*
X312540000Y82098491D01*
X311998518Y82098491D01*
X311998248Y82114896D01*
X311956652Y82307437D01*
X311893847Y82459064D01*
X311757310Y82539521D01*
X311217789Y82000000D01*
X310782211Y82000000D01*
X310242690Y82539521D01*
X310106153Y82459064D01*
X310033770Y82275862D01*
X309998518Y82082060D01*
X309460000Y82082060D01*
X309460000Y82098491D01*
X309421571Y82291689D01*
X309346189Y82473678D01*
X309236751Y82637463D01*
X309116904Y82757310D01*
X310460479Y82757310D01*
X311000000Y82217789D01*
X311539521Y82757310D01*
X311459064Y82893847D01*
X311275862Y82966230D01*
X311082060Y83001482D01*
X310885104Y82998248D01*
X310692563Y82956652D01*
X310540936Y82893847D01*
X310460479Y82757310D01*
X309116904Y82757310D01*
X309097463Y82776751D01*
X308933678Y82886189D01*
X308751689Y82961571D01*
X308558491Y83000000D01*
X308361509Y83000000D01*
X308168311Y82961571D01*
X307986322Y82886189D01*
X307822537Y82776751D01*
X307683249Y82637463D01*
X307573811Y82473678D01*
X307498429Y82291689D01*
X307460000Y82098491D01*
X300540000Y82098491D01*
X300501571Y82291689D01*
X300426189Y82473678D01*
X300316751Y82637463D01*
X300177463Y82776751D01*
X300013678Y82886189D01*
X299831689Y82961571D01*
X299638491Y83000000D01*
X299441509Y83000000D01*
X299248311Y82961571D01*
X299066322Y82886189D01*
X298902537Y82776751D01*
X298763249Y82637463D01*
X298653811Y82473678D01*
X298578429Y82291689D01*
X298540000Y82098491D01*
X297998518Y82098491D01*
X297998248Y82114896D01*
X297956652Y82307437D01*
X297893847Y82459064D01*
X297757310Y82539521D01*
X297217789Y82000000D01*
X296782211Y82000000D01*
X296242690Y82539521D01*
X296106153Y82459064D01*
X296033770Y82275862D01*
X295998518Y82082060D01*
X295460000Y82082060D01*
X295460000Y82098491D01*
X295421571Y82291689D01*
X295346189Y82473678D01*
X295236751Y82637463D01*
X295116904Y82757310D01*
X296460479Y82757310D01*
X297000000Y82217789D01*
X297539521Y82757310D01*
X297459064Y82893847D01*
X297275862Y82966230D01*
X297082060Y83001482D01*
X296885104Y82998248D01*
X296692563Y82956652D01*
X296540936Y82893847D01*
X296460479Y82757310D01*
X295116904Y82757310D01*
X295097463Y82776751D01*
X294933678Y82886189D01*
X294751689Y82961571D01*
X294558491Y83000000D01*
X294361509Y83000000D01*
X294168311Y82961571D01*
X293986322Y82886189D01*
X293822537Y82776751D01*
X293683249Y82637463D01*
X293573811Y82473678D01*
X293498429Y82291689D01*
X293460000Y82098491D01*
X286540000Y82098491D01*
X286501571Y82291689D01*
X286426189Y82473678D01*
X286316751Y82637463D01*
X286177463Y82776751D01*
X286013678Y82886189D01*
X285831689Y82961571D01*
X285638491Y83000000D01*
X285441509Y83000000D01*
X285248311Y82961571D01*
X285066322Y82886189D01*
X284902537Y82776751D01*
X284763249Y82637463D01*
X284653811Y82473678D01*
X284578429Y82291689D01*
X284540000Y82098491D01*
X283998518Y82098491D01*
X283998248Y82114896D01*
X283956652Y82307437D01*
X283893847Y82459064D01*
X283757310Y82539521D01*
X283217789Y82000000D01*
X282782211Y82000000D01*
X282242690Y82539521D01*
X282106153Y82459064D01*
X282033770Y82275862D01*
X281998518Y82082060D01*
X281460000Y82082060D01*
X281460000Y82098491D01*
X281421571Y82291689D01*
X281346189Y82473678D01*
X281236751Y82637463D01*
X281116904Y82757310D01*
X282460479Y82757310D01*
X283000000Y82217789D01*
X283539521Y82757310D01*
X283459064Y82893847D01*
X283275862Y82966230D01*
X283082060Y83001482D01*
X282885104Y82998248D01*
X282692563Y82956652D01*
X282540936Y82893847D01*
X282460479Y82757310D01*
X281116904Y82757310D01*
X281097463Y82776751D01*
X280933678Y82886189D01*
X280751689Y82961571D01*
X280558491Y83000000D01*
X280361509Y83000000D01*
X280168311Y82961571D01*
X279986322Y82886189D01*
X279822537Y82776751D01*
X279683249Y82637463D01*
X279573811Y82473678D01*
X279498429Y82291689D01*
X279460000Y82098491D01*
X276100000Y82098491D01*
X276100000Y84738341D01*
X279360000Y84738341D01*
X279360000Y84521659D01*
X279402273Y84309142D01*
X279485193Y84108955D01*
X279605575Y83928791D01*
X279758791Y83775575D01*
X279938955Y83655193D01*
X280139142Y83572273D01*
X280351659Y83530000D01*
X280568341Y83530000D01*
X280780858Y83572273D01*
X280981045Y83655193D01*
X281161209Y83775575D01*
X281314425Y83928791D01*
X281434807Y84108955D01*
X281517727Y84309142D01*
X281560000Y84521659D01*
X281560000Y84738341D01*
X284440000Y84738341D01*
X284440000Y84521659D01*
X284482273Y84309142D01*
X284565193Y84108955D01*
X284685575Y83928791D01*
X284838791Y83775575D01*
X285018955Y83655193D01*
X285219142Y83572273D01*
X285431659Y83530000D01*
X285648341Y83530000D01*
X285860858Y83572273D01*
X286061045Y83655193D01*
X286241209Y83775575D01*
X286394425Y83928791D01*
X286514807Y84108955D01*
X286597727Y84309142D01*
X286640000Y84521659D01*
X286640000Y84738341D01*
X293360000Y84738341D01*
X293360000Y84521659D01*
X293402273Y84309142D01*
X293485193Y84108955D01*
X293605575Y83928791D01*
X293758791Y83775575D01*
X293938955Y83655193D01*
X294139142Y83572273D01*
X294351659Y83530000D01*
X294568341Y83530000D01*
X294780858Y83572273D01*
X294981045Y83655193D01*
X295161209Y83775575D01*
X295314425Y83928791D01*
X295434807Y84108955D01*
X295517727Y84309142D01*
X295560000Y84521659D01*
X295560000Y84738341D01*
X298440000Y84738341D01*
X298440000Y84521659D01*
X298482273Y84309142D01*
X298565193Y84108955D01*
X298685575Y83928791D01*
X298838791Y83775575D01*
X299018955Y83655193D01*
X299219142Y83572273D01*
X299431659Y83530000D01*
X299648341Y83530000D01*
X299860858Y83572273D01*
X300061045Y83655193D01*
X300241209Y83775575D01*
X300394425Y83928791D01*
X300514807Y84108955D01*
X300597727Y84309142D01*
X300640000Y84521659D01*
X300640000Y84738341D01*
X307360000Y84738341D01*
X307360000Y84521659D01*
X307402273Y84309142D01*
X307485193Y84108955D01*
X307605575Y83928791D01*
X307758791Y83775575D01*
X307938955Y83655193D01*
X308139142Y83572273D01*
X308351659Y83530000D01*
X308568341Y83530000D01*
X308780858Y83572273D01*
X308981045Y83655193D01*
X309161209Y83775575D01*
X309314425Y83928791D01*
X309434807Y84108955D01*
X309517727Y84309142D01*
X309560000Y84521659D01*
X309560000Y84738341D01*
X312440000Y84738341D01*
X312440000Y84521659D01*
X312482273Y84309142D01*
X312565193Y84108955D01*
X312685575Y83928791D01*
X312838791Y83775575D01*
X313018955Y83655193D01*
X313219142Y83572273D01*
X313431659Y83530000D01*
X313648341Y83530000D01*
X313860858Y83572273D01*
X314061045Y83655193D01*
X314241209Y83775575D01*
X314394425Y83928791D01*
X314514807Y84108955D01*
X314597727Y84309142D01*
X314640000Y84521659D01*
X314640000Y84738341D01*
X321360000Y84738341D01*
X321360000Y84521659D01*
X321402273Y84309142D01*
X321485193Y84108955D01*
X321605575Y83928791D01*
X321758791Y83775575D01*
X321938955Y83655193D01*
X322139142Y83572273D01*
X322351659Y83530000D01*
X322568341Y83530000D01*
X322780858Y83572273D01*
X322981045Y83655193D01*
X323161209Y83775575D01*
X323314425Y83928791D01*
X323434807Y84108955D01*
X323517727Y84309142D01*
X323560000Y84521659D01*
X323560000Y84738341D01*
X326440000Y84738341D01*
X326440000Y84521659D01*
X326482273Y84309142D01*
X326565193Y84108955D01*
X326685575Y83928791D01*
X326838791Y83775575D01*
X327018955Y83655193D01*
X327219142Y83572273D01*
X327431659Y83530000D01*
X327648341Y83530000D01*
X327860858Y83572273D01*
X328061045Y83655193D01*
X328241209Y83775575D01*
X328394425Y83928791D01*
X328514807Y84108955D01*
X328529746Y84145022D01*
X334520000Y84145022D01*
X334520000Y83494978D01*
X334646817Y82857426D01*
X334895578Y82256864D01*
X335256723Y81716373D01*
X335716373Y81256723D01*
X336256864Y80895578D01*
X336857426Y80646817D01*
X337494978Y80520000D01*
X338145022Y80520000D01*
X338782574Y80646817D01*
X339383136Y80895578D01*
X339923627Y81256723D01*
X340383277Y81716373D01*
X340744422Y82256864D01*
X340993183Y82857426D01*
X341120000Y83494978D01*
X341120000Y84145022D01*
X340993183Y84782574D01*
X340744422Y85383136D01*
X340383277Y85923627D01*
X339923627Y86383277D01*
X339383136Y86744422D01*
X338782574Y86993183D01*
X338145022Y87120000D01*
X337494978Y87120000D01*
X336857426Y86993183D01*
X336256864Y86744422D01*
X335716373Y86383277D01*
X335256723Y85923627D01*
X334895578Y85383136D01*
X334646817Y84782574D01*
X334520000Y84145022D01*
X328529746Y84145022D01*
X328597727Y84309142D01*
X328640000Y84521659D01*
X328640000Y84738341D01*
X328597727Y84950858D01*
X328514807Y85151045D01*
X328394425Y85331209D01*
X328241209Y85484425D01*
X328061045Y85604807D01*
X327860858Y85687727D01*
X327648341Y85730000D01*
X327431659Y85730000D01*
X327219142Y85687727D01*
X327018955Y85604807D01*
X326838791Y85484425D01*
X326685575Y85331209D01*
X326565193Y85151045D01*
X326482273Y84950858D01*
X326440000Y84738341D01*
X323560000Y84738341D01*
X323517727Y84950858D01*
X323434807Y85151045D01*
X323314425Y85331209D01*
X323161209Y85484425D01*
X322981045Y85604807D01*
X322780858Y85687727D01*
X322568341Y85730000D01*
X322351659Y85730000D01*
X322139142Y85687727D01*
X321938955Y85604807D01*
X321758791Y85484425D01*
X321605575Y85331209D01*
X321485193Y85151045D01*
X321402273Y84950858D01*
X321360000Y84738341D01*
X314640000Y84738341D01*
X314597727Y84950858D01*
X314514807Y85151045D01*
X314394425Y85331209D01*
X314241209Y85484425D01*
X314061045Y85604807D01*
X313860858Y85687727D01*
X313648341Y85730000D01*
X313431659Y85730000D01*
X313219142Y85687727D01*
X313018955Y85604807D01*
X312838791Y85484425D01*
X312685575Y85331209D01*
X312565193Y85151045D01*
X312482273Y84950858D01*
X312440000Y84738341D01*
X309560000Y84738341D01*
X309517727Y84950858D01*
X309434807Y85151045D01*
X309314425Y85331209D01*
X309161209Y85484425D01*
X308981045Y85604807D01*
X308780858Y85687727D01*
X308568341Y85730000D01*
X308351659Y85730000D01*
X308139142Y85687727D01*
X307938955Y85604807D01*
X307758791Y85484425D01*
X307605575Y85331209D01*
X307485193Y85151045D01*
X307402273Y84950858D01*
X307360000Y84738341D01*
X300640000Y84738341D01*
X300597727Y84950858D01*
X300514807Y85151045D01*
X300394425Y85331209D01*
X300241209Y85484425D01*
X300061045Y85604807D01*
X299860858Y85687727D01*
X299648341Y85730000D01*
X299431659Y85730000D01*
X299219142Y85687727D01*
X299018955Y85604807D01*
X298838791Y85484425D01*
X298685575Y85331209D01*
X298565193Y85151045D01*
X298482273Y84950858D01*
X298440000Y84738341D01*
X295560000Y84738341D01*
X295517727Y84950858D01*
X295434807Y85151045D01*
X295314425Y85331209D01*
X295161209Y85484425D01*
X294981045Y85604807D01*
X294780858Y85687727D01*
X294568341Y85730000D01*
X294351659Y85730000D01*
X294139142Y85687727D01*
X293938955Y85604807D01*
X293758791Y85484425D01*
X293605575Y85331209D01*
X293485193Y85151045D01*
X293402273Y84950858D01*
X293360000Y84738341D01*
X286640000Y84738341D01*
X286597727Y84950858D01*
X286514807Y85151045D01*
X286394425Y85331209D01*
X286241209Y85484425D01*
X286061045Y85604807D01*
X285860858Y85687727D01*
X285648341Y85730000D01*
X285431659Y85730000D01*
X285219142Y85687727D01*
X285018955Y85604807D01*
X284838791Y85484425D01*
X284685575Y85331209D01*
X284565193Y85151045D01*
X284482273Y84950858D01*
X284440000Y84738341D01*
X281560000Y84738341D01*
X281517727Y84950858D01*
X281434807Y85151045D01*
X281314425Y85331209D01*
X281161209Y85484425D01*
X280981045Y85604807D01*
X280780858Y85687727D01*
X280568341Y85730000D01*
X280351659Y85730000D01*
X280139142Y85687727D01*
X279938955Y85604807D01*
X279758791Y85484425D01*
X279605575Y85331209D01*
X279485193Y85151045D01*
X279402273Y84950858D01*
X279360000Y84738341D01*
X276100000Y84738341D01*
X276100000Y89625000D01*
X346625000Y89625000D01*
X346625001Y45375000D01*
M02*
