G04 #@! TF.GenerationSoftware,KiCad,Pcbnew,(5.1.2-1)-1*
G04 #@! TF.CreationDate,2019-07-24T21:32:52+02:00*
G04 #@! TF.ProjectId,AddOnB,4164644f-6e42-42e6-9b69-6361645f7063,rev?*
G04 #@! TF.SameCoordinates,Original*
G04 #@! TF.FileFunction,Soldermask,Bot*
G04 #@! TF.FilePolarity,Negative*
%FSLAX46Y46*%
G04 Gerber Fmt 4.6, Leading zero omitted, Abs format (unit mm)*
G04 Created by KiCad (PCBNEW (5.1.2-1)-1) date 2019-07-24 21:32:52*
%MOMM*%
%LPD*%
G04 APERTURE LIST*
%ADD10C,0.100000*%
G04 APERTURE END LIST*
D10*
G36*
X335672290Y49269381D02*
G01*
X335736689Y49256571D01*
X335918678Y49181189D01*
X336082463Y49071751D01*
X336221751Y48932463D01*
X336331189Y48768678D01*
X336335655Y48757895D01*
X336406571Y48586688D01*
X336437856Y48429410D01*
X336445000Y48393491D01*
X336445000Y48196509D01*
X336406571Y48003311D01*
X336331189Y47821322D01*
X336221751Y47657537D01*
X336082463Y47518249D01*
X335918678Y47408811D01*
X335736689Y47333429D01*
X335672290Y47320619D01*
X335543493Y47295000D01*
X335346507Y47295000D01*
X335217710Y47320619D01*
X335153311Y47333429D01*
X334971322Y47408811D01*
X334807537Y47518249D01*
X334668249Y47657537D01*
X334558811Y47821322D01*
X334483429Y48003311D01*
X334445000Y48196509D01*
X334445000Y48393491D01*
X334452145Y48429410D01*
X334483429Y48586688D01*
X334554345Y48757895D01*
X334558811Y48768678D01*
X334668249Y48932463D01*
X334807537Y49071751D01*
X334971322Y49181189D01*
X335153311Y49256571D01*
X335217710Y49269381D01*
X335346507Y49295000D01*
X335543493Y49295000D01*
X335672290Y49269381D01*
X335672290Y49269381D01*
G37*
G36*
X333132290Y49269381D02*
G01*
X333196689Y49256571D01*
X333378678Y49181189D01*
X333542463Y49071751D01*
X333681751Y48932463D01*
X333791189Y48768678D01*
X333795655Y48757895D01*
X333866571Y48586688D01*
X333897856Y48429410D01*
X333905000Y48393491D01*
X333905000Y48196509D01*
X333866571Y48003311D01*
X333791189Y47821322D01*
X333681751Y47657537D01*
X333542463Y47518249D01*
X333378678Y47408811D01*
X333196689Y47333429D01*
X333132290Y47320619D01*
X333003493Y47295000D01*
X332806507Y47295000D01*
X332677710Y47320619D01*
X332613311Y47333429D01*
X332431322Y47408811D01*
X332267537Y47518249D01*
X332128249Y47657537D01*
X332018811Y47821322D01*
X331943429Y48003311D01*
X331905000Y48196509D01*
X331905000Y48393491D01*
X331912145Y48429410D01*
X331943429Y48586688D01*
X332014345Y48757895D01*
X332018811Y48768678D01*
X332128249Y48932463D01*
X332267537Y49071751D01*
X332431322Y49181189D01*
X332613311Y49256571D01*
X332677710Y49269381D01*
X332806507Y49295000D01*
X333003493Y49295000D01*
X333132290Y49269381D01*
X333132290Y49269381D01*
G37*
G36*
X330592290Y49269381D02*
G01*
X330656689Y49256571D01*
X330838678Y49181189D01*
X331002463Y49071751D01*
X331141751Y48932463D01*
X331251189Y48768678D01*
X331255655Y48757895D01*
X331326571Y48586688D01*
X331357856Y48429410D01*
X331365000Y48393491D01*
X331365000Y48196509D01*
X331326571Y48003311D01*
X331251189Y47821322D01*
X331141751Y47657537D01*
X331002463Y47518249D01*
X330838678Y47408811D01*
X330656689Y47333429D01*
X330592290Y47320619D01*
X330463493Y47295000D01*
X330266507Y47295000D01*
X330137710Y47320619D01*
X330073311Y47333429D01*
X329891322Y47408811D01*
X329727537Y47518249D01*
X329588249Y47657537D01*
X329478811Y47821322D01*
X329403429Y48003311D01*
X329365000Y48196509D01*
X329365000Y48393491D01*
X329372145Y48429410D01*
X329403429Y48586688D01*
X329474345Y48757895D01*
X329478811Y48768678D01*
X329588249Y48932463D01*
X329727537Y49071751D01*
X329891322Y49181189D01*
X330073311Y49256571D01*
X330137710Y49269381D01*
X330266507Y49295000D01*
X330463493Y49295000D01*
X330592290Y49269381D01*
X330592290Y49269381D01*
G37*
G36*
X328052290Y49269381D02*
G01*
X328116689Y49256571D01*
X328298678Y49181189D01*
X328462463Y49071751D01*
X328601751Y48932463D01*
X328711189Y48768678D01*
X328715655Y48757895D01*
X328786571Y48586688D01*
X328817856Y48429410D01*
X328825000Y48393491D01*
X328825000Y48196509D01*
X328786571Y48003311D01*
X328711189Y47821322D01*
X328601751Y47657537D01*
X328462463Y47518249D01*
X328298678Y47408811D01*
X328116689Y47333429D01*
X328052290Y47320619D01*
X327923493Y47295000D01*
X327726507Y47295000D01*
X327597710Y47320619D01*
X327533311Y47333429D01*
X327351322Y47408811D01*
X327187537Y47518249D01*
X327048249Y47657537D01*
X326938811Y47821322D01*
X326863429Y48003311D01*
X326825000Y48196509D01*
X326825000Y48393491D01*
X326832145Y48429410D01*
X326863429Y48586688D01*
X326934345Y48757895D01*
X326938811Y48768678D01*
X327048249Y48932463D01*
X327187537Y49071751D01*
X327351322Y49181189D01*
X327533311Y49256571D01*
X327597710Y49269381D01*
X327726507Y49295000D01*
X327923493Y49295000D01*
X328052290Y49269381D01*
X328052290Y49269381D01*
G37*
G36*
X325512290Y49269381D02*
G01*
X325576689Y49256571D01*
X325758678Y49181189D01*
X325922463Y49071751D01*
X326061751Y48932463D01*
X326171189Y48768678D01*
X326175655Y48757895D01*
X326246571Y48586688D01*
X326277856Y48429410D01*
X326285000Y48393491D01*
X326285000Y48196509D01*
X326246571Y48003311D01*
X326171189Y47821322D01*
X326061751Y47657537D01*
X325922463Y47518249D01*
X325758678Y47408811D01*
X325576689Y47333429D01*
X325512290Y47320619D01*
X325383493Y47295000D01*
X325186507Y47295000D01*
X325057710Y47320619D01*
X324993311Y47333429D01*
X324811322Y47408811D01*
X324647537Y47518249D01*
X324508249Y47657537D01*
X324398811Y47821322D01*
X324323429Y48003311D01*
X324285000Y48196509D01*
X324285000Y48393491D01*
X324292145Y48429410D01*
X324323429Y48586688D01*
X324394345Y48757895D01*
X324398811Y48768678D01*
X324508249Y48932463D01*
X324647537Y49071751D01*
X324811322Y49181189D01*
X324993311Y49256571D01*
X325057710Y49269381D01*
X325186507Y49295000D01*
X325383493Y49295000D01*
X325512290Y49269381D01*
X325512290Y49269381D01*
G37*
G36*
X322972290Y49269381D02*
G01*
X323036689Y49256571D01*
X323218678Y49181189D01*
X323382463Y49071751D01*
X323521751Y48932463D01*
X323631189Y48768678D01*
X323635655Y48757895D01*
X323706571Y48586688D01*
X323737856Y48429410D01*
X323745000Y48393491D01*
X323745000Y48196509D01*
X323706571Y48003311D01*
X323631189Y47821322D01*
X323521751Y47657537D01*
X323382463Y47518249D01*
X323218678Y47408811D01*
X323036689Y47333429D01*
X322972290Y47320619D01*
X322843493Y47295000D01*
X322646507Y47295000D01*
X322517710Y47320619D01*
X322453311Y47333429D01*
X322271322Y47408811D01*
X322107537Y47518249D01*
X321968249Y47657537D01*
X321858811Y47821322D01*
X321783429Y48003311D01*
X321745000Y48196509D01*
X321745000Y48393491D01*
X321752145Y48429410D01*
X321783429Y48586688D01*
X321854345Y48757895D01*
X321858811Y48768678D01*
X321968249Y48932463D01*
X322107537Y49071751D01*
X322271322Y49181189D01*
X322453311Y49256571D01*
X322517710Y49269381D01*
X322646507Y49295000D01*
X322843493Y49295000D01*
X322972290Y49269381D01*
X322972290Y49269381D01*
G37*
G36*
X320432290Y49269381D02*
G01*
X320496689Y49256571D01*
X320678678Y49181189D01*
X320842463Y49071751D01*
X320981751Y48932463D01*
X321091189Y48768678D01*
X321095655Y48757895D01*
X321166571Y48586688D01*
X321197856Y48429410D01*
X321205000Y48393491D01*
X321205000Y48196509D01*
X321166571Y48003311D01*
X321091189Y47821322D01*
X320981751Y47657537D01*
X320842463Y47518249D01*
X320678678Y47408811D01*
X320496689Y47333429D01*
X320432290Y47320619D01*
X320303493Y47295000D01*
X320106507Y47295000D01*
X319977710Y47320619D01*
X319913311Y47333429D01*
X319731322Y47408811D01*
X319567537Y47518249D01*
X319428249Y47657537D01*
X319318811Y47821322D01*
X319243429Y48003311D01*
X319205000Y48196509D01*
X319205000Y48393491D01*
X319212145Y48429410D01*
X319243429Y48586688D01*
X319314345Y48757895D01*
X319318811Y48768678D01*
X319428249Y48932463D01*
X319567537Y49071751D01*
X319731322Y49181189D01*
X319913311Y49256571D01*
X319977710Y49269381D01*
X320106507Y49295000D01*
X320303493Y49295000D01*
X320432290Y49269381D01*
X320432290Y49269381D01*
G37*
G36*
X209213404Y53877026D02*
G01*
X209795767Y53635804D01*
X209795768Y53635803D01*
X210319881Y53285602D01*
X210765602Y52839881D01*
X210951812Y52561198D01*
X211115804Y52315767D01*
X211357026Y51733404D01*
X211480000Y51115174D01*
X211480000Y50484826D01*
X211357026Y49866596D01*
X211115804Y49284233D01*
X211115803Y49284232D01*
X210765602Y48760119D01*
X210319881Y48314398D01*
X209976563Y48085000D01*
X209795767Y47964196D01*
X209213404Y47722974D01*
X208595174Y47600000D01*
X207964826Y47600000D01*
X207346596Y47722974D01*
X206764233Y47964196D01*
X206583437Y48085000D01*
X206240119Y48314398D01*
X205794398Y48760119D01*
X205444197Y49284232D01*
X205444196Y49284233D01*
X205202974Y49866596D01*
X205080000Y50484826D01*
X205080000Y51115174D01*
X205202974Y51733404D01*
X205444196Y52315767D01*
X205608188Y52561198D01*
X205794398Y52839881D01*
X206240119Y53285602D01*
X206764232Y53635803D01*
X206764233Y53635804D01*
X207346596Y53877026D01*
X207964826Y54000000D01*
X208595174Y54000000D01*
X209213404Y53877026D01*
X209213404Y53877026D01*
G37*
G36*
X338300336Y49966746D02*
G01*
X338392105Y49948492D01*
X338564994Y49876879D01*
X338720590Y49772913D01*
X338852913Y49640590D01*
X338956879Y49484994D01*
X339028492Y49312105D01*
X339028492Y49312104D01*
X339065000Y49128568D01*
X339065000Y48941432D01*
X339046746Y48849664D01*
X339028492Y48757895D01*
X338956879Y48585006D01*
X338852913Y48429410D01*
X338720590Y48297087D01*
X338564994Y48193121D01*
X338392105Y48121508D01*
X338300336Y48103254D01*
X338208568Y48085000D01*
X338021432Y48085000D01*
X337929664Y48103254D01*
X337837895Y48121508D01*
X337665006Y48193121D01*
X337509410Y48297087D01*
X337377087Y48429410D01*
X337273121Y48585006D01*
X337201508Y48757895D01*
X337183254Y48849664D01*
X337165000Y48941432D01*
X337165000Y49128568D01*
X337201508Y49312104D01*
X337201508Y49312105D01*
X337273121Y49484994D01*
X337377087Y49640590D01*
X337509410Y49772913D01*
X337665006Y49876879D01*
X337837895Y49948492D01*
X337929664Y49966746D01*
X338021432Y49985000D01*
X338208568Y49985000D01*
X338300336Y49966746D01*
X338300336Y49966746D01*
G37*
G36*
X297610240Y51547727D02*
G01*
X297803802Y51467551D01*
X297978005Y51351152D01*
X298126152Y51203005D01*
X298242551Y51028802D01*
X298322727Y50835240D01*
X298363600Y50629757D01*
X298363600Y50420243D01*
X298322727Y50214760D01*
X298242551Y50021198D01*
X298126152Y49846995D01*
X297978005Y49698848D01*
X297803802Y49582449D01*
X297610240Y49502273D01*
X297404757Y49461400D01*
X297195243Y49461400D01*
X296989760Y49502273D01*
X296796198Y49582449D01*
X296621995Y49698848D01*
X296473848Y49846995D01*
X296357449Y50021198D01*
X296277273Y50214760D01*
X296236400Y50420243D01*
X296236400Y50629757D01*
X296277273Y50835240D01*
X296357449Y51028802D01*
X296473848Y51203005D01*
X296621995Y51351152D01*
X296796198Y51467551D01*
X296989760Y51547727D01*
X297195243Y51588600D01*
X297404757Y51588600D01*
X297610240Y51547727D01*
X297610240Y51547727D01*
G37*
G36*
X312850240Y51547727D02*
G01*
X313043802Y51467551D01*
X313218005Y51351152D01*
X313366152Y51203005D01*
X313482551Y51028802D01*
X313562727Y50835240D01*
X313603600Y50629757D01*
X313603600Y50420243D01*
X313562727Y50214760D01*
X313482551Y50021198D01*
X313366152Y49846995D01*
X313218005Y49698848D01*
X313043802Y49582449D01*
X312850240Y49502273D01*
X312644757Y49461400D01*
X312435243Y49461400D01*
X312229760Y49502273D01*
X312036198Y49582449D01*
X311861995Y49698848D01*
X311713848Y49846995D01*
X311597449Y50021198D01*
X311517273Y50214760D01*
X311476400Y50420243D01*
X311476400Y50629757D01*
X311517273Y50835240D01*
X311597449Y51028802D01*
X311713848Y51203005D01*
X311861995Y51351152D01*
X312036198Y51467551D01*
X312229760Y51547727D01*
X312435243Y51588600D01*
X312644757Y51588600D01*
X312850240Y51547727D01*
X312850240Y51547727D01*
G37*
G36*
X310310240Y51547727D02*
G01*
X310503802Y51467551D01*
X310678005Y51351152D01*
X310826152Y51203005D01*
X310942551Y51028802D01*
X311022727Y50835240D01*
X311063600Y50629757D01*
X311063600Y50420243D01*
X311022727Y50214760D01*
X310942551Y50021198D01*
X310826152Y49846995D01*
X310678005Y49698848D01*
X310503802Y49582449D01*
X310310240Y49502273D01*
X310104757Y49461400D01*
X309895243Y49461400D01*
X309689760Y49502273D01*
X309496198Y49582449D01*
X309321995Y49698848D01*
X309173848Y49846995D01*
X309057449Y50021198D01*
X308977273Y50214760D01*
X308936400Y50420243D01*
X308936400Y50629757D01*
X308977273Y50835240D01*
X309057449Y51028802D01*
X309173848Y51203005D01*
X309321995Y51351152D01*
X309496198Y51467551D01*
X309689760Y51547727D01*
X309895243Y51588600D01*
X310104757Y51588600D01*
X310310240Y51547727D01*
X310310240Y51547727D01*
G37*
G36*
X307770240Y51547727D02*
G01*
X307963802Y51467551D01*
X308138005Y51351152D01*
X308286152Y51203005D01*
X308402551Y51028802D01*
X308482727Y50835240D01*
X308523600Y50629757D01*
X308523600Y50420243D01*
X308482727Y50214760D01*
X308402551Y50021198D01*
X308286152Y49846995D01*
X308138005Y49698848D01*
X307963802Y49582449D01*
X307770240Y49502273D01*
X307564757Y49461400D01*
X307355243Y49461400D01*
X307149760Y49502273D01*
X306956198Y49582449D01*
X306781995Y49698848D01*
X306633848Y49846995D01*
X306517449Y50021198D01*
X306437273Y50214760D01*
X306396400Y50420243D01*
X306396400Y50629757D01*
X306437273Y50835240D01*
X306517449Y51028802D01*
X306633848Y51203005D01*
X306781995Y51351152D01*
X306956198Y51467551D01*
X307149760Y51547727D01*
X307355243Y51588600D01*
X307564757Y51588600D01*
X307770240Y51547727D01*
X307770240Y51547727D01*
G37*
G36*
X305230240Y51547727D02*
G01*
X305423802Y51467551D01*
X305598005Y51351152D01*
X305746152Y51203005D01*
X305862551Y51028802D01*
X305942727Y50835240D01*
X305983600Y50629757D01*
X305983600Y50420243D01*
X305942727Y50214760D01*
X305862551Y50021198D01*
X305746152Y49846995D01*
X305598005Y49698848D01*
X305423802Y49582449D01*
X305230240Y49502273D01*
X305024757Y49461400D01*
X304815243Y49461400D01*
X304609760Y49502273D01*
X304416198Y49582449D01*
X304241995Y49698848D01*
X304093848Y49846995D01*
X303977449Y50021198D01*
X303897273Y50214760D01*
X303856400Y50420243D01*
X303856400Y50629757D01*
X303897273Y50835240D01*
X303977449Y51028802D01*
X304093848Y51203005D01*
X304241995Y51351152D01*
X304416198Y51467551D01*
X304609760Y51547727D01*
X304815243Y51588600D01*
X305024757Y51588600D01*
X305230240Y51547727D01*
X305230240Y51547727D01*
G37*
G36*
X302690240Y51547727D02*
G01*
X302883802Y51467551D01*
X303058005Y51351152D01*
X303206152Y51203005D01*
X303322551Y51028802D01*
X303402727Y50835240D01*
X303443600Y50629757D01*
X303443600Y50420243D01*
X303402727Y50214760D01*
X303322551Y50021198D01*
X303206152Y49846995D01*
X303058005Y49698848D01*
X302883802Y49582449D01*
X302690240Y49502273D01*
X302484757Y49461400D01*
X302275243Y49461400D01*
X302069760Y49502273D01*
X301876198Y49582449D01*
X301701995Y49698848D01*
X301553848Y49846995D01*
X301437449Y50021198D01*
X301357273Y50214760D01*
X301316400Y50420243D01*
X301316400Y50629757D01*
X301357273Y50835240D01*
X301437449Y51028802D01*
X301553848Y51203005D01*
X301701995Y51351152D01*
X301876198Y51467551D01*
X302069760Y51547727D01*
X302275243Y51588600D01*
X302484757Y51588600D01*
X302690240Y51547727D01*
X302690240Y51547727D01*
G37*
G36*
X300150240Y51547727D02*
G01*
X300343802Y51467551D01*
X300518005Y51351152D01*
X300666152Y51203005D01*
X300782551Y51028802D01*
X300862727Y50835240D01*
X300903600Y50629757D01*
X300903600Y50420243D01*
X300862727Y50214760D01*
X300782551Y50021198D01*
X300666152Y49846995D01*
X300518005Y49698848D01*
X300343802Y49582449D01*
X300150240Y49502273D01*
X299944757Y49461400D01*
X299735243Y49461400D01*
X299529760Y49502273D01*
X299336198Y49582449D01*
X299161995Y49698848D01*
X299013848Y49846995D01*
X298897449Y50021198D01*
X298817273Y50214760D01*
X298776400Y50420243D01*
X298776400Y50629757D01*
X298817273Y50835240D01*
X298897449Y51028802D01*
X299013848Y51203005D01*
X299161995Y51351152D01*
X299336198Y51467551D01*
X299529760Y51547727D01*
X299735243Y51588600D01*
X299944757Y51588600D01*
X300150240Y51547727D01*
X300150240Y51547727D01*
G37*
G36*
X295823600Y49461400D02*
G01*
X293696400Y49461400D01*
X293696400Y51588600D01*
X295823600Y51588600D01*
X295823600Y49461400D01*
X295823600Y49461400D01*
G37*
G36*
X292210000Y49765000D02*
G01*
X290510000Y49765000D01*
X290510000Y51165000D01*
X292210000Y51165000D01*
X292210000Y49765000D01*
X292210000Y49765000D01*
G37*
G36*
X290178000Y49771000D02*
G01*
X287746000Y49771000D01*
X287746000Y51187000D01*
X290178000Y51187000D01*
X290178000Y49771000D01*
X290178000Y49771000D01*
G37*
G36*
X324242290Y51809381D02*
G01*
X324306689Y51796571D01*
X324488678Y51721189D01*
X324652463Y51611751D01*
X324791751Y51472463D01*
X324901189Y51308678D01*
X324951589Y51187000D01*
X324976571Y51126688D01*
X324996042Y51028803D01*
X325015000Y50933491D01*
X325015000Y50736509D01*
X324976571Y50543311D01*
X324901189Y50361322D01*
X324791751Y50197537D01*
X324652463Y50058249D01*
X324488678Y49948811D01*
X324306689Y49873429D01*
X324242290Y49860619D01*
X324113493Y49835000D01*
X323916507Y49835000D01*
X323787710Y49860619D01*
X323723311Y49873429D01*
X323541322Y49948811D01*
X323377537Y50058249D01*
X323238249Y50197537D01*
X323128811Y50361322D01*
X323053429Y50543311D01*
X323015000Y50736509D01*
X323015000Y50933491D01*
X323033959Y51028803D01*
X323053429Y51126688D01*
X323078411Y51187000D01*
X323128811Y51308678D01*
X323238249Y51472463D01*
X323377537Y51611751D01*
X323541322Y51721189D01*
X323723311Y51796571D01*
X323787710Y51809381D01*
X323916507Y51835000D01*
X324113493Y51835000D01*
X324242290Y51809381D01*
X324242290Y51809381D01*
G37*
G36*
X321702290Y51809381D02*
G01*
X321766689Y51796571D01*
X321948678Y51721189D01*
X322112463Y51611751D01*
X322251751Y51472463D01*
X322361189Y51308678D01*
X322411589Y51187000D01*
X322436571Y51126688D01*
X322456042Y51028803D01*
X322475000Y50933491D01*
X322475000Y50736509D01*
X322436571Y50543311D01*
X322361189Y50361322D01*
X322251751Y50197537D01*
X322112463Y50058249D01*
X321948678Y49948811D01*
X321766689Y49873429D01*
X321702290Y49860619D01*
X321573493Y49835000D01*
X321376507Y49835000D01*
X321247710Y49860619D01*
X321183311Y49873429D01*
X321001322Y49948811D01*
X320837537Y50058249D01*
X320698249Y50197537D01*
X320588811Y50361322D01*
X320513429Y50543311D01*
X320475000Y50736509D01*
X320475000Y50933491D01*
X320493959Y51028803D01*
X320513429Y51126688D01*
X320538411Y51187000D01*
X320588811Y51308678D01*
X320698249Y51472463D01*
X320837537Y51611751D01*
X321001322Y51721189D01*
X321183311Y51796571D01*
X321247710Y51809381D01*
X321376507Y51835000D01*
X321573493Y51835000D01*
X321702290Y51809381D01*
X321702290Y51809381D01*
G37*
G36*
X326782290Y51809381D02*
G01*
X326846689Y51796571D01*
X327028678Y51721189D01*
X327192463Y51611751D01*
X327331751Y51472463D01*
X327441189Y51308678D01*
X327491589Y51187000D01*
X327516571Y51126688D01*
X327536042Y51028803D01*
X327555000Y50933491D01*
X327555000Y50736509D01*
X327516571Y50543311D01*
X327441189Y50361322D01*
X327331751Y50197537D01*
X327192463Y50058249D01*
X327028678Y49948811D01*
X326846689Y49873429D01*
X326782290Y49860619D01*
X326653493Y49835000D01*
X326456507Y49835000D01*
X326327710Y49860619D01*
X326263311Y49873429D01*
X326081322Y49948811D01*
X325917537Y50058249D01*
X325778249Y50197537D01*
X325668811Y50361322D01*
X325593429Y50543311D01*
X325555000Y50736509D01*
X325555000Y50933491D01*
X325573959Y51028803D01*
X325593429Y51126688D01*
X325618411Y51187000D01*
X325668811Y51308678D01*
X325778249Y51472463D01*
X325917537Y51611751D01*
X326081322Y51721189D01*
X326263311Y51796571D01*
X326327710Y51809381D01*
X326456507Y51835000D01*
X326653493Y51835000D01*
X326782290Y51809381D01*
X326782290Y51809381D01*
G37*
G36*
X329322290Y51809381D02*
G01*
X329386689Y51796571D01*
X329568678Y51721189D01*
X329732463Y51611751D01*
X329871751Y51472463D01*
X329981189Y51308678D01*
X330031589Y51187000D01*
X330056571Y51126688D01*
X330076042Y51028803D01*
X330095000Y50933491D01*
X330095000Y50736509D01*
X330056571Y50543311D01*
X329981189Y50361322D01*
X329871751Y50197537D01*
X329732463Y50058249D01*
X329568678Y49948811D01*
X329386689Y49873429D01*
X329322290Y49860619D01*
X329193493Y49835000D01*
X328996507Y49835000D01*
X328867710Y49860619D01*
X328803311Y49873429D01*
X328621322Y49948811D01*
X328457537Y50058249D01*
X328318249Y50197537D01*
X328208811Y50361322D01*
X328133429Y50543311D01*
X328095000Y50736509D01*
X328095000Y50933491D01*
X328113959Y51028803D01*
X328133429Y51126688D01*
X328158411Y51187000D01*
X328208811Y51308678D01*
X328318249Y51472463D01*
X328457537Y51611751D01*
X328621322Y51721189D01*
X328803311Y51796571D01*
X328867710Y51809381D01*
X328996507Y51835000D01*
X329193493Y51835000D01*
X329322290Y51809381D01*
X329322290Y51809381D01*
G37*
G36*
X331862290Y51809381D02*
G01*
X331926689Y51796571D01*
X332108678Y51721189D01*
X332272463Y51611751D01*
X332411751Y51472463D01*
X332521189Y51308678D01*
X332571589Y51187000D01*
X332596571Y51126688D01*
X332616042Y51028803D01*
X332635000Y50933491D01*
X332635000Y50736509D01*
X332596571Y50543311D01*
X332521189Y50361322D01*
X332411751Y50197537D01*
X332272463Y50058249D01*
X332108678Y49948811D01*
X331926689Y49873429D01*
X331862290Y49860619D01*
X331733493Y49835000D01*
X331536507Y49835000D01*
X331407710Y49860619D01*
X331343311Y49873429D01*
X331161322Y49948811D01*
X330997537Y50058249D01*
X330858249Y50197537D01*
X330748811Y50361322D01*
X330673429Y50543311D01*
X330635000Y50736509D01*
X330635000Y50933491D01*
X330653959Y51028803D01*
X330673429Y51126688D01*
X330698411Y51187000D01*
X330748811Y51308678D01*
X330858249Y51472463D01*
X330997537Y51611751D01*
X331161322Y51721189D01*
X331343311Y51796571D01*
X331407710Y51809381D01*
X331536507Y51835000D01*
X331733493Y51835000D01*
X331862290Y51809381D01*
X331862290Y51809381D01*
G37*
G36*
X334402290Y51809381D02*
G01*
X334466689Y51796571D01*
X334648678Y51721189D01*
X334812463Y51611751D01*
X334951751Y51472463D01*
X335061189Y51308678D01*
X335111589Y51187000D01*
X335136571Y51126688D01*
X335156042Y51028803D01*
X335175000Y50933491D01*
X335175000Y50736509D01*
X335136571Y50543311D01*
X335061189Y50361322D01*
X334951751Y50197537D01*
X334812463Y50058249D01*
X334648678Y49948811D01*
X334466689Y49873429D01*
X334402290Y49860619D01*
X334273493Y49835000D01*
X334076507Y49835000D01*
X333947710Y49860619D01*
X333883311Y49873429D01*
X333701322Y49948811D01*
X333537537Y50058249D01*
X333398249Y50197537D01*
X333288811Y50361322D01*
X333213429Y50543311D01*
X333175000Y50736509D01*
X333175000Y50933491D01*
X333193959Y51028803D01*
X333213429Y51126688D01*
X333238411Y51187000D01*
X333288811Y51308678D01*
X333398249Y51472463D01*
X333537537Y51611751D01*
X333701322Y51721189D01*
X333883311Y51796571D01*
X333947710Y51809381D01*
X334076507Y51835000D01*
X334273493Y51835000D01*
X334402290Y51809381D01*
X334402290Y51809381D01*
G37*
G36*
X336942290Y51809381D02*
G01*
X337006689Y51796571D01*
X337188678Y51721189D01*
X337352463Y51611751D01*
X337491751Y51472463D01*
X337601189Y51308678D01*
X337651589Y51187000D01*
X337676571Y51126688D01*
X337696042Y51028803D01*
X337715000Y50933491D01*
X337715000Y50736509D01*
X337676571Y50543311D01*
X337601189Y50361322D01*
X337491751Y50197537D01*
X337352463Y50058249D01*
X337188678Y49948811D01*
X337006689Y49873429D01*
X336942290Y49860619D01*
X336813493Y49835000D01*
X336616507Y49835000D01*
X336487710Y49860619D01*
X336423311Y49873429D01*
X336241322Y49948811D01*
X336077537Y50058249D01*
X335938249Y50197537D01*
X335828811Y50361322D01*
X335753429Y50543311D01*
X335715000Y50736509D01*
X335715000Y50933491D01*
X335733959Y51028803D01*
X335753429Y51126688D01*
X335778411Y51187000D01*
X335828811Y51308678D01*
X335938249Y51472463D01*
X336077537Y51611751D01*
X336241322Y51721189D01*
X336423311Y51796571D01*
X336487710Y51809381D01*
X336616507Y51835000D01*
X336813493Y51835000D01*
X336942290Y51809381D01*
X336942290Y51809381D01*
G37*
G36*
X283574000Y50736200D02*
G01*
X281142000Y50736200D01*
X281142000Y54793800D01*
X283574000Y54793800D01*
X283574000Y50736200D01*
X283574000Y50736200D01*
G37*
G36*
X278960000Y50915000D02*
G01*
X277560000Y50915000D01*
X277560000Y52615000D01*
X278960000Y52615000D01*
X278960000Y50915000D01*
X278960000Y50915000D01*
G37*
G36*
X280760000Y50915000D02*
G01*
X279360000Y50915000D01*
X279360000Y52615000D01*
X280760000Y52615000D01*
X280760000Y50915000D01*
X280760000Y50915000D01*
G37*
G36*
X292210000Y51565000D02*
G01*
X290510000Y51565000D01*
X290510000Y52965000D01*
X292210000Y52965000D01*
X292210000Y51565000D01*
X292210000Y51565000D01*
G37*
G36*
X310310240Y54087727D02*
G01*
X310503802Y54007551D01*
X310678005Y53891152D01*
X310826152Y53743005D01*
X310942551Y53568802D01*
X311022727Y53375240D01*
X311063600Y53169757D01*
X311063600Y52960243D01*
X311022727Y52754760D01*
X310942551Y52561198D01*
X310826152Y52386995D01*
X310678005Y52238848D01*
X310503802Y52122449D01*
X310310240Y52042273D01*
X310104757Y52001400D01*
X309895243Y52001400D01*
X309689760Y52042273D01*
X309496198Y52122449D01*
X309321995Y52238848D01*
X309173848Y52386995D01*
X309057449Y52561198D01*
X308977273Y52754760D01*
X308936400Y52960243D01*
X308936400Y53169757D01*
X308977273Y53375240D01*
X309057449Y53568802D01*
X309173848Y53743005D01*
X309321995Y53891152D01*
X309496198Y54007551D01*
X309689760Y54087727D01*
X309895243Y54128600D01*
X310104757Y54128600D01*
X310310240Y54087727D01*
X310310240Y54087727D01*
G37*
G36*
X312850240Y54087727D02*
G01*
X313043802Y54007551D01*
X313218005Y53891152D01*
X313366152Y53743005D01*
X313482551Y53568802D01*
X313562727Y53375240D01*
X313603600Y53169757D01*
X313603600Y52960243D01*
X313562727Y52754760D01*
X313482551Y52561198D01*
X313366152Y52386995D01*
X313218005Y52238848D01*
X313043802Y52122449D01*
X312850240Y52042273D01*
X312644757Y52001400D01*
X312435243Y52001400D01*
X312229760Y52042273D01*
X312036198Y52122449D01*
X311861995Y52238848D01*
X311713848Y52386995D01*
X311597449Y52561198D01*
X311517273Y52754760D01*
X311476400Y52960243D01*
X311476400Y53169757D01*
X311517273Y53375240D01*
X311597449Y53568802D01*
X311713848Y53743005D01*
X311861995Y53891152D01*
X312036198Y54007551D01*
X312229760Y54087727D01*
X312435243Y54128600D01*
X312644757Y54128600D01*
X312850240Y54087727D01*
X312850240Y54087727D01*
G37*
G36*
X307770240Y54087727D02*
G01*
X307963802Y54007551D01*
X308138005Y53891152D01*
X308286152Y53743005D01*
X308402551Y53568802D01*
X308482727Y53375240D01*
X308523600Y53169757D01*
X308523600Y52960243D01*
X308482727Y52754760D01*
X308402551Y52561198D01*
X308286152Y52386995D01*
X308138005Y52238848D01*
X307963802Y52122449D01*
X307770240Y52042273D01*
X307564757Y52001400D01*
X307355243Y52001400D01*
X307149760Y52042273D01*
X306956198Y52122449D01*
X306781995Y52238848D01*
X306633848Y52386995D01*
X306517449Y52561198D01*
X306437273Y52754760D01*
X306396400Y52960243D01*
X306396400Y53169757D01*
X306437273Y53375240D01*
X306517449Y53568802D01*
X306633848Y53743005D01*
X306781995Y53891152D01*
X306956198Y54007551D01*
X307149760Y54087727D01*
X307355243Y54128600D01*
X307564757Y54128600D01*
X307770240Y54087727D01*
X307770240Y54087727D01*
G37*
G36*
X305230240Y54087727D02*
G01*
X305423802Y54007551D01*
X305598005Y53891152D01*
X305746152Y53743005D01*
X305862551Y53568802D01*
X305942727Y53375240D01*
X305983600Y53169757D01*
X305983600Y52960243D01*
X305942727Y52754760D01*
X305862551Y52561198D01*
X305746152Y52386995D01*
X305598005Y52238848D01*
X305423802Y52122449D01*
X305230240Y52042273D01*
X305024757Y52001400D01*
X304815243Y52001400D01*
X304609760Y52042273D01*
X304416198Y52122449D01*
X304241995Y52238848D01*
X304093848Y52386995D01*
X303977449Y52561198D01*
X303897273Y52754760D01*
X303856400Y52960243D01*
X303856400Y53169757D01*
X303897273Y53375240D01*
X303977449Y53568802D01*
X304093848Y53743005D01*
X304241995Y53891152D01*
X304416198Y54007551D01*
X304609760Y54087727D01*
X304815243Y54128600D01*
X305024757Y54128600D01*
X305230240Y54087727D01*
X305230240Y54087727D01*
G37*
G36*
X302690240Y54087727D02*
G01*
X302883802Y54007551D01*
X303058005Y53891152D01*
X303206152Y53743005D01*
X303322551Y53568802D01*
X303402727Y53375240D01*
X303443600Y53169757D01*
X303443600Y52960243D01*
X303402727Y52754760D01*
X303322551Y52561198D01*
X303206152Y52386995D01*
X303058005Y52238848D01*
X302883802Y52122449D01*
X302690240Y52042273D01*
X302484757Y52001400D01*
X302275243Y52001400D01*
X302069760Y52042273D01*
X301876198Y52122449D01*
X301701995Y52238848D01*
X301553848Y52386995D01*
X301437449Y52561198D01*
X301357273Y52754760D01*
X301316400Y52960243D01*
X301316400Y53169757D01*
X301357273Y53375240D01*
X301437449Y53568802D01*
X301553848Y53743005D01*
X301701995Y53891152D01*
X301876198Y54007551D01*
X302069760Y54087727D01*
X302275243Y54128600D01*
X302484757Y54128600D01*
X302690240Y54087727D01*
X302690240Y54087727D01*
G37*
G36*
X295070240Y54087727D02*
G01*
X295263802Y54007551D01*
X295438005Y53891152D01*
X295586152Y53743005D01*
X295702551Y53568802D01*
X295782727Y53375240D01*
X295823600Y53169757D01*
X295823600Y52960243D01*
X295782727Y52754760D01*
X295702551Y52561198D01*
X295586152Y52386995D01*
X295438005Y52238848D01*
X295263802Y52122449D01*
X295070240Y52042273D01*
X294864757Y52001400D01*
X294655243Y52001400D01*
X294449760Y52042273D01*
X294256198Y52122449D01*
X294081995Y52238848D01*
X293933848Y52386995D01*
X293817449Y52561198D01*
X293737273Y52754760D01*
X293696400Y52960243D01*
X293696400Y53169757D01*
X293737273Y53375240D01*
X293817449Y53568802D01*
X293933848Y53743005D01*
X294081995Y53891152D01*
X294256198Y54007551D01*
X294449760Y54087727D01*
X294655243Y54128600D01*
X294864757Y54128600D01*
X295070240Y54087727D01*
X295070240Y54087727D01*
G37*
G36*
X300150240Y54087727D02*
G01*
X300343802Y54007551D01*
X300518005Y53891152D01*
X300666152Y53743005D01*
X300782551Y53568802D01*
X300862727Y53375240D01*
X300903600Y53169757D01*
X300903600Y52960243D01*
X300862727Y52754760D01*
X300782551Y52561198D01*
X300666152Y52386995D01*
X300518005Y52238848D01*
X300343802Y52122449D01*
X300150240Y52042273D01*
X299944757Y52001400D01*
X299735243Y52001400D01*
X299529760Y52042273D01*
X299336198Y52122449D01*
X299161995Y52238848D01*
X299013848Y52386995D01*
X298897449Y52561198D01*
X298817273Y52754760D01*
X298776400Y52960243D01*
X298776400Y53169757D01*
X298817273Y53375240D01*
X298897449Y53568802D01*
X299013848Y53743005D01*
X299161995Y53891152D01*
X299336198Y54007551D01*
X299529760Y54087727D01*
X299735243Y54128600D01*
X299944757Y54128600D01*
X300150240Y54087727D01*
X300150240Y54087727D01*
G37*
G36*
X297610240Y54087727D02*
G01*
X297803802Y54007551D01*
X297978005Y53891152D01*
X298126152Y53743005D01*
X298242551Y53568802D01*
X298322727Y53375240D01*
X298363600Y53169757D01*
X298363600Y52960243D01*
X298322727Y52754760D01*
X298242551Y52561198D01*
X298126152Y52386995D01*
X297978005Y52238848D01*
X297803802Y52122449D01*
X297610240Y52042273D01*
X297404757Y52001400D01*
X297195243Y52001400D01*
X296989760Y52042273D01*
X296796198Y52122449D01*
X296621995Y52238848D01*
X296473848Y52386995D01*
X296357449Y52561198D01*
X296277273Y52754760D01*
X296236400Y52960243D01*
X296236400Y53169757D01*
X296277273Y53375240D01*
X296357449Y53568802D01*
X296473848Y53743005D01*
X296621995Y53891152D01*
X296796198Y54007551D01*
X296989760Y54087727D01*
X297195243Y54128600D01*
X297404757Y54128600D01*
X297610240Y54087727D01*
X297610240Y54087727D01*
G37*
G36*
X290178000Y52057000D02*
G01*
X287746000Y52057000D01*
X287746000Y53473000D01*
X290178000Y53473000D01*
X290178000Y52057000D01*
X290178000Y52057000D01*
G37*
G36*
X278960000Y52915000D02*
G01*
X277560000Y52915000D01*
X277560000Y54615000D01*
X278960000Y54615000D01*
X278960000Y52915000D01*
X278960000Y52915000D01*
G37*
G36*
X280760000Y52915000D02*
G01*
X279360000Y52915000D01*
X279360000Y54615000D01*
X280760000Y54615000D01*
X280760000Y52915000D01*
X280760000Y52915000D01*
G37*
G36*
X245698500Y55758211D02*
G01*
X245898994Y55697392D01*
X246083759Y55598633D01*
X246083762Y55598631D01*
X246083763Y55598630D01*
X246245718Y55465718D01*
X246378630Y55303763D01*
X246378633Y55303759D01*
X246477392Y55118994D01*
X246538211Y54918500D01*
X246558746Y54710000D01*
X246538211Y54501500D01*
X246477392Y54301006D01*
X246378633Y54116241D01*
X246378631Y54116238D01*
X246378630Y54116237D01*
X246245718Y53954282D01*
X246083763Y53821370D01*
X246083759Y53821367D01*
X245898994Y53722608D01*
X245698500Y53661789D01*
X245542251Y53646400D01*
X245437749Y53646400D01*
X245281500Y53661789D01*
X245081006Y53722608D01*
X244896241Y53821367D01*
X244896237Y53821370D01*
X244734282Y53954282D01*
X244601370Y54116237D01*
X244601369Y54116238D01*
X244601367Y54116241D01*
X244502608Y54301006D01*
X244441789Y54501500D01*
X244421254Y54710000D01*
X244441789Y54918500D01*
X244502608Y55118994D01*
X244601367Y55303759D01*
X244601370Y55303763D01*
X244734282Y55465718D01*
X244896237Y55598630D01*
X244896238Y55598631D01*
X244896241Y55598633D01*
X245081006Y55697392D01*
X245281500Y55758211D01*
X245437749Y55773600D01*
X245542251Y55773600D01*
X245698500Y55758211D01*
X245698500Y55758211D01*
G37*
G36*
X248238500Y55758211D02*
G01*
X248438994Y55697392D01*
X248623759Y55598633D01*
X248623762Y55598631D01*
X248623763Y55598630D01*
X248785718Y55465718D01*
X248918630Y55303763D01*
X248918633Y55303759D01*
X249017392Y55118994D01*
X249078211Y54918500D01*
X249098746Y54710000D01*
X249078211Y54501500D01*
X249017392Y54301006D01*
X248918633Y54116241D01*
X248918631Y54116238D01*
X248918630Y54116237D01*
X248785718Y53954282D01*
X248623763Y53821370D01*
X248623759Y53821367D01*
X248438994Y53722608D01*
X248238500Y53661789D01*
X248082251Y53646400D01*
X247977749Y53646400D01*
X247821500Y53661789D01*
X247621006Y53722608D01*
X247436241Y53821367D01*
X247436237Y53821370D01*
X247274282Y53954282D01*
X247141370Y54116237D01*
X247141369Y54116238D01*
X247141367Y54116241D01*
X247042608Y54301006D01*
X246981789Y54501500D01*
X246961254Y54710000D01*
X246981789Y54918500D01*
X247042608Y55118994D01*
X247141367Y55303759D01*
X247141370Y55303763D01*
X247274282Y55465718D01*
X247436237Y55598630D01*
X247436238Y55598631D01*
X247436241Y55598633D01*
X247621006Y55697392D01*
X247821500Y55758211D01*
X247977749Y55773600D01*
X248082251Y55773600D01*
X248238500Y55758211D01*
X248238500Y55758211D01*
G37*
G36*
X250778500Y55758211D02*
G01*
X250978994Y55697392D01*
X251163759Y55598633D01*
X251163762Y55598631D01*
X251163763Y55598630D01*
X251325718Y55465718D01*
X251458630Y55303763D01*
X251458633Y55303759D01*
X251557392Y55118994D01*
X251618211Y54918500D01*
X251638746Y54710000D01*
X251618211Y54501500D01*
X251557392Y54301006D01*
X251458633Y54116241D01*
X251458631Y54116238D01*
X251458630Y54116237D01*
X251325718Y53954282D01*
X251163763Y53821370D01*
X251163759Y53821367D01*
X250978994Y53722608D01*
X250778500Y53661789D01*
X250622251Y53646400D01*
X250517749Y53646400D01*
X250361500Y53661789D01*
X250161006Y53722608D01*
X249976241Y53821367D01*
X249976237Y53821370D01*
X249814282Y53954282D01*
X249681370Y54116237D01*
X249681369Y54116238D01*
X249681367Y54116241D01*
X249582608Y54301006D01*
X249521789Y54501500D01*
X249501254Y54710000D01*
X249521789Y54918500D01*
X249582608Y55118994D01*
X249681367Y55303759D01*
X249681370Y55303763D01*
X249814282Y55465718D01*
X249976237Y55598630D01*
X249976238Y55598631D01*
X249976241Y55598633D01*
X250161006Y55697392D01*
X250361500Y55758211D01*
X250517749Y55773600D01*
X250622251Y55773600D01*
X250778500Y55758211D01*
X250778500Y55758211D01*
G37*
G36*
X232998500Y55758211D02*
G01*
X233198994Y55697392D01*
X233383759Y55598633D01*
X233383762Y55598631D01*
X233383763Y55598630D01*
X233545718Y55465718D01*
X233678630Y55303763D01*
X233678633Y55303759D01*
X233777392Y55118994D01*
X233838211Y54918500D01*
X233858746Y54710000D01*
X233838211Y54501500D01*
X233777392Y54301006D01*
X233678633Y54116241D01*
X233678631Y54116238D01*
X233678630Y54116237D01*
X233545718Y53954282D01*
X233383763Y53821370D01*
X233383759Y53821367D01*
X233198994Y53722608D01*
X232998500Y53661789D01*
X232842251Y53646400D01*
X232737749Y53646400D01*
X232581500Y53661789D01*
X232381006Y53722608D01*
X232196241Y53821367D01*
X232196237Y53821370D01*
X232034282Y53954282D01*
X231901370Y54116237D01*
X231901369Y54116238D01*
X231901367Y54116241D01*
X231802608Y54301006D01*
X231741789Y54501500D01*
X231721254Y54710000D01*
X231741789Y54918500D01*
X231802608Y55118994D01*
X231901367Y55303759D01*
X231901370Y55303763D01*
X232034282Y55465718D01*
X232196237Y55598630D01*
X232196238Y55598631D01*
X232196241Y55598633D01*
X232381006Y55697392D01*
X232581500Y55758211D01*
X232737749Y55773600D01*
X232842251Y55773600D01*
X232998500Y55758211D01*
X232998500Y55758211D01*
G37*
G36*
X235538500Y55758211D02*
G01*
X235738994Y55697392D01*
X235923759Y55598633D01*
X235923762Y55598631D01*
X235923763Y55598630D01*
X236085718Y55465718D01*
X236218630Y55303763D01*
X236218633Y55303759D01*
X236317392Y55118994D01*
X236378211Y54918500D01*
X236398746Y54710000D01*
X236378211Y54501500D01*
X236317392Y54301006D01*
X236218633Y54116241D01*
X236218631Y54116238D01*
X236218630Y54116237D01*
X236085718Y53954282D01*
X235923763Y53821370D01*
X235923759Y53821367D01*
X235738994Y53722608D01*
X235538500Y53661789D01*
X235382251Y53646400D01*
X235277749Y53646400D01*
X235121500Y53661789D01*
X234921006Y53722608D01*
X234736241Y53821367D01*
X234736237Y53821370D01*
X234574282Y53954282D01*
X234441370Y54116237D01*
X234441369Y54116238D01*
X234441367Y54116241D01*
X234342608Y54301006D01*
X234281789Y54501500D01*
X234261254Y54710000D01*
X234281789Y54918500D01*
X234342608Y55118994D01*
X234441367Y55303759D01*
X234441370Y55303763D01*
X234574282Y55465718D01*
X234736237Y55598630D01*
X234736238Y55598631D01*
X234736241Y55598633D01*
X234921006Y55697392D01*
X235121500Y55758211D01*
X235277749Y55773600D01*
X235382251Y55773600D01*
X235538500Y55758211D01*
X235538500Y55758211D01*
G37*
G36*
X230458500Y55758211D02*
G01*
X230658994Y55697392D01*
X230843759Y55598633D01*
X230843762Y55598631D01*
X230843763Y55598630D01*
X231005718Y55465718D01*
X231138630Y55303763D01*
X231138633Y55303759D01*
X231237392Y55118994D01*
X231298211Y54918500D01*
X231318746Y54710000D01*
X231298211Y54501500D01*
X231237392Y54301006D01*
X231138633Y54116241D01*
X231138631Y54116238D01*
X231138630Y54116237D01*
X231005718Y53954282D01*
X230843763Y53821370D01*
X230843759Y53821367D01*
X230658994Y53722608D01*
X230458500Y53661789D01*
X230302251Y53646400D01*
X230197749Y53646400D01*
X230041500Y53661789D01*
X229841006Y53722608D01*
X229656241Y53821367D01*
X229656237Y53821370D01*
X229494282Y53954282D01*
X229361370Y54116237D01*
X229361369Y54116238D01*
X229361367Y54116241D01*
X229262608Y54301006D01*
X229201789Y54501500D01*
X229181254Y54710000D01*
X229201789Y54918500D01*
X229262608Y55118994D01*
X229361367Y55303759D01*
X229361370Y55303763D01*
X229494282Y55465718D01*
X229656237Y55598630D01*
X229656238Y55598631D01*
X229656241Y55598633D01*
X229841006Y55697392D01*
X230041500Y55758211D01*
X230197749Y55773600D01*
X230302251Y55773600D01*
X230458500Y55758211D01*
X230458500Y55758211D01*
G37*
G36*
X227918500Y55758211D02*
G01*
X228118994Y55697392D01*
X228303759Y55598633D01*
X228303762Y55598631D01*
X228303763Y55598630D01*
X228465718Y55465718D01*
X228598630Y55303763D01*
X228598633Y55303759D01*
X228697392Y55118994D01*
X228758211Y54918500D01*
X228778746Y54710000D01*
X228758211Y54501500D01*
X228697392Y54301006D01*
X228598633Y54116241D01*
X228598631Y54116238D01*
X228598630Y54116237D01*
X228465718Y53954282D01*
X228303763Y53821370D01*
X228303759Y53821367D01*
X228118994Y53722608D01*
X227918500Y53661789D01*
X227762251Y53646400D01*
X227657749Y53646400D01*
X227501500Y53661789D01*
X227301006Y53722608D01*
X227116241Y53821367D01*
X227116237Y53821370D01*
X226954282Y53954282D01*
X226821370Y54116237D01*
X226821369Y54116238D01*
X226821367Y54116241D01*
X226722608Y54301006D01*
X226661789Y54501500D01*
X226641254Y54710000D01*
X226661789Y54918500D01*
X226722608Y55118994D01*
X226821367Y55303759D01*
X226821370Y55303763D01*
X226954282Y55465718D01*
X227116237Y55598630D01*
X227116238Y55598631D01*
X227116241Y55598633D01*
X227301006Y55697392D01*
X227501500Y55758211D01*
X227657749Y55773600D01*
X227762251Y55773600D01*
X227918500Y55758211D01*
X227918500Y55758211D01*
G37*
G36*
X243158500Y55758211D02*
G01*
X243358994Y55697392D01*
X243543759Y55598633D01*
X243543762Y55598631D01*
X243543763Y55598630D01*
X243705718Y55465718D01*
X243838630Y55303763D01*
X243838633Y55303759D01*
X243937392Y55118994D01*
X243998211Y54918500D01*
X244018746Y54710000D01*
X243998211Y54501500D01*
X243937392Y54301006D01*
X243838633Y54116241D01*
X243838631Y54116238D01*
X243838630Y54116237D01*
X243705718Y53954282D01*
X243543763Y53821370D01*
X243543759Y53821367D01*
X243358994Y53722608D01*
X243158500Y53661789D01*
X243002251Y53646400D01*
X242897749Y53646400D01*
X242741500Y53661789D01*
X242541006Y53722608D01*
X242356241Y53821367D01*
X242356237Y53821370D01*
X242194282Y53954282D01*
X242061370Y54116237D01*
X242061369Y54116238D01*
X242061367Y54116241D01*
X241962608Y54301006D01*
X241901789Y54501500D01*
X241881254Y54710000D01*
X241901789Y54918500D01*
X241962608Y55118994D01*
X242061367Y55303759D01*
X242061370Y55303763D01*
X242194282Y55465718D01*
X242356237Y55598630D01*
X242356238Y55598631D01*
X242356241Y55598633D01*
X242541006Y55697392D01*
X242741500Y55758211D01*
X242897749Y55773600D01*
X243002251Y55773600D01*
X243158500Y55758211D01*
X243158500Y55758211D01*
G37*
G36*
X238078500Y55758211D02*
G01*
X238278994Y55697392D01*
X238463759Y55598633D01*
X238463762Y55598631D01*
X238463763Y55598630D01*
X238625718Y55465718D01*
X238758630Y55303763D01*
X238758633Y55303759D01*
X238857392Y55118994D01*
X238918211Y54918500D01*
X238938746Y54710000D01*
X238918211Y54501500D01*
X238857392Y54301006D01*
X238758633Y54116241D01*
X238758631Y54116238D01*
X238758630Y54116237D01*
X238625718Y53954282D01*
X238463763Y53821370D01*
X238463759Y53821367D01*
X238278994Y53722608D01*
X238078500Y53661789D01*
X237922251Y53646400D01*
X237817749Y53646400D01*
X237661500Y53661789D01*
X237461006Y53722608D01*
X237276241Y53821367D01*
X237276237Y53821370D01*
X237114282Y53954282D01*
X236981370Y54116237D01*
X236981369Y54116238D01*
X236981367Y54116241D01*
X236882608Y54301006D01*
X236821789Y54501500D01*
X236801254Y54710000D01*
X236821789Y54918500D01*
X236882608Y55118994D01*
X236981367Y55303759D01*
X236981370Y55303763D01*
X237114282Y55465718D01*
X237276237Y55598630D01*
X237276238Y55598631D01*
X237276241Y55598633D01*
X237461006Y55697392D01*
X237661500Y55758211D01*
X237817749Y55773600D01*
X237922251Y55773600D01*
X238078500Y55758211D01*
X238078500Y55758211D01*
G37*
G36*
X258398500Y55758211D02*
G01*
X258598994Y55697392D01*
X258783759Y55598633D01*
X258783762Y55598631D01*
X258783763Y55598630D01*
X258945718Y55465718D01*
X259078630Y55303763D01*
X259078633Y55303759D01*
X259177392Y55118994D01*
X259238211Y54918500D01*
X259258746Y54710000D01*
X259238211Y54501500D01*
X259177392Y54301006D01*
X259078633Y54116241D01*
X259078631Y54116238D01*
X259078630Y54116237D01*
X258945718Y53954282D01*
X258783763Y53821370D01*
X258783759Y53821367D01*
X258598994Y53722608D01*
X258398500Y53661789D01*
X258242251Y53646400D01*
X258137749Y53646400D01*
X257981500Y53661789D01*
X257781006Y53722608D01*
X257596241Y53821367D01*
X257596237Y53821370D01*
X257434282Y53954282D01*
X257301370Y54116237D01*
X257301369Y54116238D01*
X257301367Y54116241D01*
X257202608Y54301006D01*
X257141789Y54501500D01*
X257121254Y54710000D01*
X257141789Y54918500D01*
X257202608Y55118994D01*
X257301367Y55303759D01*
X257301370Y55303763D01*
X257434282Y55465718D01*
X257596237Y55598630D01*
X257596238Y55598631D01*
X257596241Y55598633D01*
X257781006Y55697392D01*
X257981500Y55758211D01*
X258137749Y55773600D01*
X258242251Y55773600D01*
X258398500Y55758211D01*
X258398500Y55758211D01*
G37*
G36*
X255858500Y55758211D02*
G01*
X256058994Y55697392D01*
X256243759Y55598633D01*
X256243762Y55598631D01*
X256243763Y55598630D01*
X256405718Y55465718D01*
X256538630Y55303763D01*
X256538633Y55303759D01*
X256637392Y55118994D01*
X256698211Y54918500D01*
X256718746Y54710000D01*
X256698211Y54501500D01*
X256637392Y54301006D01*
X256538633Y54116241D01*
X256538631Y54116238D01*
X256538630Y54116237D01*
X256405718Y53954282D01*
X256243763Y53821370D01*
X256243759Y53821367D01*
X256058994Y53722608D01*
X255858500Y53661789D01*
X255702251Y53646400D01*
X255597749Y53646400D01*
X255441500Y53661789D01*
X255241006Y53722608D01*
X255056241Y53821367D01*
X255056237Y53821370D01*
X254894282Y53954282D01*
X254761370Y54116237D01*
X254761369Y54116238D01*
X254761367Y54116241D01*
X254662608Y54301006D01*
X254601789Y54501500D01*
X254581254Y54710000D01*
X254601789Y54918500D01*
X254662608Y55118994D01*
X254761367Y55303759D01*
X254761370Y55303763D01*
X254894282Y55465718D01*
X255056237Y55598630D01*
X255056238Y55598631D01*
X255056241Y55598633D01*
X255241006Y55697392D01*
X255441500Y55758211D01*
X255597749Y55773600D01*
X255702251Y55773600D01*
X255858500Y55758211D01*
X255858500Y55758211D01*
G37*
G36*
X253318500Y55758211D02*
G01*
X253518994Y55697392D01*
X253703759Y55598633D01*
X253703762Y55598631D01*
X253703763Y55598630D01*
X253865718Y55465718D01*
X253998630Y55303763D01*
X253998633Y55303759D01*
X254097392Y55118994D01*
X254158211Y54918500D01*
X254178746Y54710000D01*
X254158211Y54501500D01*
X254097392Y54301006D01*
X253998633Y54116241D01*
X253998631Y54116238D01*
X253998630Y54116237D01*
X253865718Y53954282D01*
X253703763Y53821370D01*
X253703759Y53821367D01*
X253518994Y53722608D01*
X253318500Y53661789D01*
X253162251Y53646400D01*
X253057749Y53646400D01*
X252901500Y53661789D01*
X252701006Y53722608D01*
X252516241Y53821367D01*
X252516237Y53821370D01*
X252354282Y53954282D01*
X252221370Y54116237D01*
X252221369Y54116238D01*
X252221367Y54116241D01*
X252122608Y54301006D01*
X252061789Y54501500D01*
X252041254Y54710000D01*
X252061789Y54918500D01*
X252122608Y55118994D01*
X252221367Y55303759D01*
X252221370Y55303763D01*
X252354282Y55465718D01*
X252516237Y55598630D01*
X252516238Y55598631D01*
X252516241Y55598633D01*
X252701006Y55697392D01*
X252901500Y55758211D01*
X253057749Y55773600D01*
X253162251Y55773600D01*
X253318500Y55758211D01*
X253318500Y55758211D01*
G37*
G36*
X240618500Y55758211D02*
G01*
X240818994Y55697392D01*
X241003759Y55598633D01*
X241003762Y55598631D01*
X241003763Y55598630D01*
X241165718Y55465718D01*
X241298630Y55303763D01*
X241298633Y55303759D01*
X241397392Y55118994D01*
X241458211Y54918500D01*
X241478746Y54710000D01*
X241458211Y54501500D01*
X241397392Y54301006D01*
X241298633Y54116241D01*
X241298631Y54116238D01*
X241298630Y54116237D01*
X241165718Y53954282D01*
X241003763Y53821370D01*
X241003759Y53821367D01*
X240818994Y53722608D01*
X240618500Y53661789D01*
X240462251Y53646400D01*
X240357749Y53646400D01*
X240201500Y53661789D01*
X240001006Y53722608D01*
X239816241Y53821367D01*
X239816237Y53821370D01*
X239654282Y53954282D01*
X239521370Y54116237D01*
X239521369Y54116238D01*
X239521367Y54116241D01*
X239422608Y54301006D01*
X239361789Y54501500D01*
X239341254Y54710000D01*
X239361789Y54918500D01*
X239422608Y55118994D01*
X239521367Y55303759D01*
X239521370Y55303763D01*
X239654282Y55465718D01*
X239816237Y55598630D01*
X239816238Y55598631D01*
X239816241Y55598633D01*
X240001006Y55697392D01*
X240201500Y55758211D01*
X240357749Y55773600D01*
X240462251Y55773600D01*
X240618500Y55758211D01*
X240618500Y55758211D01*
G37*
G36*
X290178000Y54343000D02*
G01*
X287746000Y54343000D01*
X287746000Y55759000D01*
X290178000Y55759000D01*
X290178000Y54343000D01*
X290178000Y54343000D01*
G37*
G36*
X338753404Y61497026D02*
G01*
X339335767Y61255804D01*
X339335768Y61255803D01*
X339859881Y60905602D01*
X340305602Y60459881D01*
X340539599Y60109679D01*
X340655804Y59935767D01*
X340897026Y59353404D01*
X341020000Y58735174D01*
X341020000Y58104826D01*
X340897026Y57486596D01*
X340655804Y56904233D01*
X340655803Y56904232D01*
X340305602Y56380119D01*
X339859881Y55934398D01*
X339597379Y55759000D01*
X339335767Y55584196D01*
X338753404Y55342974D01*
X338135174Y55220000D01*
X337504826Y55220000D01*
X336886596Y55342974D01*
X336304233Y55584196D01*
X336042621Y55759000D01*
X335780119Y55934398D01*
X335334398Y56380119D01*
X334984197Y56904232D01*
X334984196Y56904233D01*
X334742974Y57486596D01*
X334620000Y58104826D01*
X334620000Y58735174D01*
X334742974Y59353404D01*
X334984196Y59935767D01*
X335100401Y60109679D01*
X335334398Y60459881D01*
X335780119Y60905602D01*
X336304232Y61255803D01*
X336304233Y61255804D01*
X336886596Y61497026D01*
X337504826Y61620000D01*
X338135174Y61620000D01*
X338753404Y61497026D01*
X338753404Y61497026D01*
G37*
G36*
X245698500Y58298211D02*
G01*
X245898994Y58237392D01*
X246083759Y58138633D01*
X246083762Y58138631D01*
X246083763Y58138630D01*
X246245718Y58005718D01*
X246378630Y57843763D01*
X246378633Y57843759D01*
X246477392Y57658994D01*
X246538211Y57458500D01*
X246558746Y57250000D01*
X246538211Y57041500D01*
X246477392Y56841006D01*
X246378633Y56656241D01*
X246378631Y56656238D01*
X246378630Y56656237D01*
X246245718Y56494282D01*
X246083763Y56361370D01*
X246083759Y56361367D01*
X245898994Y56262608D01*
X245698500Y56201789D01*
X245542251Y56186400D01*
X245437749Y56186400D01*
X245281500Y56201789D01*
X245081006Y56262608D01*
X244896241Y56361367D01*
X244896237Y56361370D01*
X244734282Y56494282D01*
X244601370Y56656237D01*
X244601369Y56656238D01*
X244601367Y56656241D01*
X244502608Y56841006D01*
X244441789Y57041500D01*
X244421254Y57250000D01*
X244441789Y57458500D01*
X244502608Y57658994D01*
X244601367Y57843759D01*
X244601370Y57843763D01*
X244734282Y58005718D01*
X244896237Y58138630D01*
X244896238Y58138631D01*
X244896241Y58138633D01*
X245081006Y58237392D01*
X245281500Y58298211D01*
X245437749Y58313600D01*
X245542251Y58313600D01*
X245698500Y58298211D01*
X245698500Y58298211D01*
G37*
G36*
X250778500Y58298211D02*
G01*
X250978994Y58237392D01*
X251163759Y58138633D01*
X251163762Y58138631D01*
X251163763Y58138630D01*
X251325718Y58005718D01*
X251458630Y57843763D01*
X251458633Y57843759D01*
X251557392Y57658994D01*
X251618211Y57458500D01*
X251638746Y57250000D01*
X251618211Y57041500D01*
X251557392Y56841006D01*
X251458633Y56656241D01*
X251458631Y56656238D01*
X251458630Y56656237D01*
X251325718Y56494282D01*
X251163763Y56361370D01*
X251163759Y56361367D01*
X250978994Y56262608D01*
X250778500Y56201789D01*
X250622251Y56186400D01*
X250517749Y56186400D01*
X250361500Y56201789D01*
X250161006Y56262608D01*
X249976241Y56361367D01*
X249976237Y56361370D01*
X249814282Y56494282D01*
X249681370Y56656237D01*
X249681369Y56656238D01*
X249681367Y56656241D01*
X249582608Y56841006D01*
X249521789Y57041500D01*
X249501254Y57250000D01*
X249521789Y57458500D01*
X249582608Y57658994D01*
X249681367Y57843759D01*
X249681370Y57843763D01*
X249814282Y58005718D01*
X249976237Y58138630D01*
X249976238Y58138631D01*
X249976241Y58138633D01*
X250161006Y58237392D01*
X250361500Y58298211D01*
X250517749Y58313600D01*
X250622251Y58313600D01*
X250778500Y58298211D01*
X250778500Y58298211D01*
G37*
G36*
X230458500Y58298211D02*
G01*
X230658994Y58237392D01*
X230843759Y58138633D01*
X230843762Y58138631D01*
X230843763Y58138630D01*
X231005718Y58005718D01*
X231138630Y57843763D01*
X231138633Y57843759D01*
X231237392Y57658994D01*
X231298211Y57458500D01*
X231318746Y57250000D01*
X231298211Y57041500D01*
X231237392Y56841006D01*
X231138633Y56656241D01*
X231138631Y56656238D01*
X231138630Y56656237D01*
X231005718Y56494282D01*
X230843763Y56361370D01*
X230843759Y56361367D01*
X230658994Y56262608D01*
X230458500Y56201789D01*
X230302251Y56186400D01*
X230197749Y56186400D01*
X230041500Y56201789D01*
X229841006Y56262608D01*
X229656241Y56361367D01*
X229656237Y56361370D01*
X229494282Y56494282D01*
X229361370Y56656237D01*
X229361369Y56656238D01*
X229361367Y56656241D01*
X229262608Y56841006D01*
X229201789Y57041500D01*
X229181254Y57250000D01*
X229201789Y57458500D01*
X229262608Y57658994D01*
X229361367Y57843759D01*
X229361370Y57843763D01*
X229494282Y58005718D01*
X229656237Y58138630D01*
X229656238Y58138631D01*
X229656241Y58138633D01*
X229841006Y58237392D01*
X230041500Y58298211D01*
X230197749Y58313600D01*
X230302251Y58313600D01*
X230458500Y58298211D01*
X230458500Y58298211D01*
G37*
G36*
X243158500Y58298211D02*
G01*
X243358994Y58237392D01*
X243543759Y58138633D01*
X243543762Y58138631D01*
X243543763Y58138630D01*
X243705718Y58005718D01*
X243838630Y57843763D01*
X243838633Y57843759D01*
X243937392Y57658994D01*
X243998211Y57458500D01*
X244018746Y57250000D01*
X243998211Y57041500D01*
X243937392Y56841006D01*
X243838633Y56656241D01*
X243838631Y56656238D01*
X243838630Y56656237D01*
X243705718Y56494282D01*
X243543763Y56361370D01*
X243543759Y56361367D01*
X243358994Y56262608D01*
X243158500Y56201789D01*
X243002251Y56186400D01*
X242897749Y56186400D01*
X242741500Y56201789D01*
X242541006Y56262608D01*
X242356241Y56361367D01*
X242356237Y56361370D01*
X242194282Y56494282D01*
X242061370Y56656237D01*
X242061369Y56656238D01*
X242061367Y56656241D01*
X241962608Y56841006D01*
X241901789Y57041500D01*
X241881254Y57250000D01*
X241901789Y57458500D01*
X241962608Y57658994D01*
X242061367Y57843759D01*
X242061370Y57843763D01*
X242194282Y58005718D01*
X242356237Y58138630D01*
X242356238Y58138631D01*
X242356241Y58138633D01*
X242541006Y58237392D01*
X242741500Y58298211D01*
X242897749Y58313600D01*
X243002251Y58313600D01*
X243158500Y58298211D01*
X243158500Y58298211D01*
G37*
G36*
X232998500Y58298211D02*
G01*
X233198994Y58237392D01*
X233383759Y58138633D01*
X233383762Y58138631D01*
X233383763Y58138630D01*
X233545718Y58005718D01*
X233678630Y57843763D01*
X233678633Y57843759D01*
X233777392Y57658994D01*
X233838211Y57458500D01*
X233858746Y57250000D01*
X233838211Y57041500D01*
X233777392Y56841006D01*
X233678633Y56656241D01*
X233678631Y56656238D01*
X233678630Y56656237D01*
X233545718Y56494282D01*
X233383763Y56361370D01*
X233383759Y56361367D01*
X233198994Y56262608D01*
X232998500Y56201789D01*
X232842251Y56186400D01*
X232737749Y56186400D01*
X232581500Y56201789D01*
X232381006Y56262608D01*
X232196241Y56361367D01*
X232196237Y56361370D01*
X232034282Y56494282D01*
X231901370Y56656237D01*
X231901369Y56656238D01*
X231901367Y56656241D01*
X231802608Y56841006D01*
X231741789Y57041500D01*
X231721254Y57250000D01*
X231741789Y57458500D01*
X231802608Y57658994D01*
X231901367Y57843759D01*
X231901370Y57843763D01*
X232034282Y58005718D01*
X232196237Y58138630D01*
X232196238Y58138631D01*
X232196241Y58138633D01*
X232381006Y58237392D01*
X232581500Y58298211D01*
X232737749Y58313600D01*
X232842251Y58313600D01*
X232998500Y58298211D01*
X232998500Y58298211D01*
G37*
G36*
X235538500Y58298211D02*
G01*
X235738994Y58237392D01*
X235923759Y58138633D01*
X235923762Y58138631D01*
X235923763Y58138630D01*
X236085718Y58005718D01*
X236218630Y57843763D01*
X236218633Y57843759D01*
X236317392Y57658994D01*
X236378211Y57458500D01*
X236398746Y57250000D01*
X236378211Y57041500D01*
X236317392Y56841006D01*
X236218633Y56656241D01*
X236218631Y56656238D01*
X236218630Y56656237D01*
X236085718Y56494282D01*
X235923763Y56361370D01*
X235923759Y56361367D01*
X235738994Y56262608D01*
X235538500Y56201789D01*
X235382251Y56186400D01*
X235277749Y56186400D01*
X235121500Y56201789D01*
X234921006Y56262608D01*
X234736241Y56361367D01*
X234736237Y56361370D01*
X234574282Y56494282D01*
X234441370Y56656237D01*
X234441369Y56656238D01*
X234441367Y56656241D01*
X234342608Y56841006D01*
X234281789Y57041500D01*
X234261254Y57250000D01*
X234281789Y57458500D01*
X234342608Y57658994D01*
X234441367Y57843759D01*
X234441370Y57843763D01*
X234574282Y58005718D01*
X234736237Y58138630D01*
X234736238Y58138631D01*
X234736241Y58138633D01*
X234921006Y58237392D01*
X235121500Y58298211D01*
X235277749Y58313600D01*
X235382251Y58313600D01*
X235538500Y58298211D01*
X235538500Y58298211D01*
G37*
G36*
X240618500Y58298211D02*
G01*
X240818994Y58237392D01*
X241003759Y58138633D01*
X241003762Y58138631D01*
X241003763Y58138630D01*
X241165718Y58005718D01*
X241298630Y57843763D01*
X241298633Y57843759D01*
X241397392Y57658994D01*
X241458211Y57458500D01*
X241478746Y57250000D01*
X241458211Y57041500D01*
X241397392Y56841006D01*
X241298633Y56656241D01*
X241298631Y56656238D01*
X241298630Y56656237D01*
X241165718Y56494282D01*
X241003763Y56361370D01*
X241003759Y56361367D01*
X240818994Y56262608D01*
X240618500Y56201789D01*
X240462251Y56186400D01*
X240357749Y56186400D01*
X240201500Y56201789D01*
X240001006Y56262608D01*
X239816241Y56361367D01*
X239816237Y56361370D01*
X239654282Y56494282D01*
X239521370Y56656237D01*
X239521369Y56656238D01*
X239521367Y56656241D01*
X239422608Y56841006D01*
X239361789Y57041500D01*
X239341254Y57250000D01*
X239361789Y57458500D01*
X239422608Y57658994D01*
X239521367Y57843759D01*
X239521370Y57843763D01*
X239654282Y58005718D01*
X239816237Y58138630D01*
X239816238Y58138631D01*
X239816241Y58138633D01*
X240001006Y58237392D01*
X240201500Y58298211D01*
X240357749Y58313600D01*
X240462251Y58313600D01*
X240618500Y58298211D01*
X240618500Y58298211D01*
G37*
G36*
X253318500Y58298211D02*
G01*
X253518994Y58237392D01*
X253703759Y58138633D01*
X253703762Y58138631D01*
X253703763Y58138630D01*
X253865718Y58005718D01*
X253998630Y57843763D01*
X253998633Y57843759D01*
X254097392Y57658994D01*
X254158211Y57458500D01*
X254178746Y57250000D01*
X254158211Y57041500D01*
X254097392Y56841006D01*
X253998633Y56656241D01*
X253998631Y56656238D01*
X253998630Y56656237D01*
X253865718Y56494282D01*
X253703763Y56361370D01*
X253703759Y56361367D01*
X253518994Y56262608D01*
X253318500Y56201789D01*
X253162251Y56186400D01*
X253057749Y56186400D01*
X252901500Y56201789D01*
X252701006Y56262608D01*
X252516241Y56361367D01*
X252516237Y56361370D01*
X252354282Y56494282D01*
X252221370Y56656237D01*
X252221369Y56656238D01*
X252221367Y56656241D01*
X252122608Y56841006D01*
X252061789Y57041500D01*
X252041254Y57250000D01*
X252061789Y57458500D01*
X252122608Y57658994D01*
X252221367Y57843759D01*
X252221370Y57843763D01*
X252354282Y58005718D01*
X252516237Y58138630D01*
X252516238Y58138631D01*
X252516241Y58138633D01*
X252701006Y58237392D01*
X252901500Y58298211D01*
X253057749Y58313600D01*
X253162251Y58313600D01*
X253318500Y58298211D01*
X253318500Y58298211D01*
G37*
G36*
X248238500Y58298211D02*
G01*
X248438994Y58237392D01*
X248623759Y58138633D01*
X248623762Y58138631D01*
X248623763Y58138630D01*
X248785718Y58005718D01*
X248918630Y57843763D01*
X248918633Y57843759D01*
X249017392Y57658994D01*
X249078211Y57458500D01*
X249098746Y57250000D01*
X249078211Y57041500D01*
X249017392Y56841006D01*
X248918633Y56656241D01*
X248918631Y56656238D01*
X248918630Y56656237D01*
X248785718Y56494282D01*
X248623763Y56361370D01*
X248623759Y56361367D01*
X248438994Y56262608D01*
X248238500Y56201789D01*
X248082251Y56186400D01*
X247977749Y56186400D01*
X247821500Y56201789D01*
X247621006Y56262608D01*
X247436241Y56361367D01*
X247436237Y56361370D01*
X247274282Y56494282D01*
X247141370Y56656237D01*
X247141369Y56656238D01*
X247141367Y56656241D01*
X247042608Y56841006D01*
X246981789Y57041500D01*
X246961254Y57250000D01*
X246981789Y57458500D01*
X247042608Y57658994D01*
X247141367Y57843759D01*
X247141370Y57843763D01*
X247274282Y58005718D01*
X247436237Y58138630D01*
X247436238Y58138631D01*
X247436241Y58138633D01*
X247621006Y58237392D01*
X247821500Y58298211D01*
X247977749Y58313600D01*
X248082251Y58313600D01*
X248238500Y58298211D01*
X248238500Y58298211D01*
G37*
G36*
X255858500Y58298211D02*
G01*
X256058994Y58237392D01*
X256243759Y58138633D01*
X256243762Y58138631D01*
X256243763Y58138630D01*
X256405718Y58005718D01*
X256538630Y57843763D01*
X256538633Y57843759D01*
X256637392Y57658994D01*
X256698211Y57458500D01*
X256718746Y57250000D01*
X256698211Y57041500D01*
X256637392Y56841006D01*
X256538633Y56656241D01*
X256538631Y56656238D01*
X256538630Y56656237D01*
X256405718Y56494282D01*
X256243763Y56361370D01*
X256243759Y56361367D01*
X256058994Y56262608D01*
X255858500Y56201789D01*
X255702251Y56186400D01*
X255597749Y56186400D01*
X255441500Y56201789D01*
X255241006Y56262608D01*
X255056241Y56361367D01*
X255056237Y56361370D01*
X254894282Y56494282D01*
X254761370Y56656237D01*
X254761369Y56656238D01*
X254761367Y56656241D01*
X254662608Y56841006D01*
X254601789Y57041500D01*
X254581254Y57250000D01*
X254601789Y57458500D01*
X254662608Y57658994D01*
X254761367Y57843759D01*
X254761370Y57843763D01*
X254894282Y58005718D01*
X255056237Y58138630D01*
X255056238Y58138631D01*
X255056241Y58138633D01*
X255241006Y58237392D01*
X255441500Y58298211D01*
X255597749Y58313600D01*
X255702251Y58313600D01*
X255858500Y58298211D01*
X255858500Y58298211D01*
G37*
G36*
X238078500Y58298211D02*
G01*
X238278994Y58237392D01*
X238463759Y58138633D01*
X238463762Y58138631D01*
X238463763Y58138630D01*
X238625718Y58005718D01*
X238758630Y57843763D01*
X238758633Y57843759D01*
X238857392Y57658994D01*
X238918211Y57458500D01*
X238938746Y57250000D01*
X238918211Y57041500D01*
X238857392Y56841006D01*
X238758633Y56656241D01*
X238758631Y56656238D01*
X238758630Y56656237D01*
X238625718Y56494282D01*
X238463763Y56361370D01*
X238463759Y56361367D01*
X238278994Y56262608D01*
X238078500Y56201789D01*
X237922251Y56186400D01*
X237817749Y56186400D01*
X237661500Y56201789D01*
X237461006Y56262608D01*
X237276241Y56361367D01*
X237276237Y56361370D01*
X237114282Y56494282D01*
X236981370Y56656237D01*
X236981369Y56656238D01*
X236981367Y56656241D01*
X236882608Y56841006D01*
X236821789Y57041500D01*
X236801254Y57250000D01*
X236821789Y57458500D01*
X236882608Y57658994D01*
X236981367Y57843759D01*
X236981370Y57843763D01*
X237114282Y58005718D01*
X237276237Y58138630D01*
X237276238Y58138631D01*
X237276241Y58138633D01*
X237461006Y58237392D01*
X237661500Y58298211D01*
X237817749Y58313600D01*
X237922251Y58313600D01*
X238078500Y58298211D01*
X238078500Y58298211D01*
G37*
G36*
X259253600Y56186400D02*
G01*
X257126400Y56186400D01*
X257126400Y58313600D01*
X259253600Y58313600D01*
X259253600Y56186400D01*
X259253600Y56186400D01*
G37*
G36*
X227918500Y58298211D02*
G01*
X228118994Y58237392D01*
X228303759Y58138633D01*
X228303762Y58138631D01*
X228303763Y58138630D01*
X228465718Y58005718D01*
X228598630Y57843763D01*
X228598633Y57843759D01*
X228697392Y57658994D01*
X228758211Y57458500D01*
X228778746Y57250000D01*
X228758211Y57041500D01*
X228697392Y56841006D01*
X228598633Y56656241D01*
X228598631Y56656238D01*
X228598630Y56656237D01*
X228465718Y56494282D01*
X228303763Y56361370D01*
X228303759Y56361367D01*
X228118994Y56262608D01*
X227918500Y56201789D01*
X227762251Y56186400D01*
X227657749Y56186400D01*
X227501500Y56201789D01*
X227301006Y56262608D01*
X227116241Y56361367D01*
X227116237Y56361370D01*
X226954282Y56494282D01*
X226821370Y56656237D01*
X226821369Y56656238D01*
X226821367Y56656241D01*
X226722608Y56841006D01*
X226661789Y57041500D01*
X226641254Y57250000D01*
X226661789Y57458500D01*
X226722608Y57658994D01*
X226821367Y57843759D01*
X226821370Y57843763D01*
X226954282Y58005718D01*
X227116237Y58138630D01*
X227116238Y58138631D01*
X227116241Y58138633D01*
X227301006Y58237392D01*
X227501500Y58298211D01*
X227657749Y58313600D01*
X227762251Y58313600D01*
X227918500Y58298211D01*
X227918500Y58298211D01*
G37*
G36*
X325250000Y66700000D02*
G01*
X323550000Y66700000D01*
X323550000Y68100000D01*
X325250000Y68100000D01*
X325250000Y66700000D01*
X325250000Y66700000D01*
G37*
G36*
X325250000Y68500000D02*
G01*
X323550000Y68500000D01*
X323550000Y69900000D01*
X325250000Y69900000D01*
X325250000Y68500000D01*
X325250000Y68500000D01*
G37*
G36*
X319105000Y70125000D02*
G01*
X318105000Y70125000D01*
X318105000Y72075000D01*
X319105000Y72075000D01*
X319105000Y70125000D01*
X319105000Y70125000D01*
G37*
G36*
X315295000Y70125000D02*
G01*
X314295000Y70125000D01*
X314295000Y72075000D01*
X315295000Y72075000D01*
X315295000Y70125000D01*
X315295000Y70125000D01*
G37*
G36*
X317835000Y70125000D02*
G01*
X316835000Y70125000D01*
X316835000Y72075000D01*
X317835000Y72075000D01*
X317835000Y70125000D01*
X317835000Y70125000D01*
G37*
G36*
X316565000Y70125000D02*
G01*
X315565000Y70125000D01*
X315565000Y72075000D01*
X316565000Y72075000D01*
X316565000Y70125000D01*
X316565000Y70125000D01*
G37*
G36*
X328675000Y70150000D02*
G01*
X327675000Y70150000D01*
X327675000Y72050000D01*
X328675000Y72050000D01*
X328675000Y70150000D01*
X328675000Y70150000D01*
G37*
G36*
X329945000Y70150000D02*
G01*
X328945000Y70150000D01*
X328945000Y72050000D01*
X329945000Y72050000D01*
X329945000Y70150000D01*
X329945000Y70150000D01*
G37*
G36*
X327405000Y70150000D02*
G01*
X326405000Y70150000D01*
X326405000Y72050000D01*
X327405000Y72050000D01*
X327405000Y70150000D01*
X327405000Y70150000D01*
G37*
G36*
X326135000Y70150000D02*
G01*
X325135000Y70150000D01*
X325135000Y72050000D01*
X326135000Y72050000D01*
X326135000Y70150000D01*
X326135000Y70150000D01*
G37*
G36*
X324865000Y70150000D02*
G01*
X323865000Y70150000D01*
X323865000Y72050000D01*
X324865000Y72050000D01*
X324865000Y70150000D01*
X324865000Y70150000D01*
G37*
G36*
X323595000Y70150000D02*
G01*
X322595000Y70150000D01*
X322595000Y72050000D01*
X323595000Y72050000D01*
X323595000Y70150000D01*
X323595000Y70150000D01*
G37*
G36*
X322325000Y70150000D02*
G01*
X321325000Y70150000D01*
X321325000Y72050000D01*
X322325000Y72050000D01*
X322325000Y70150000D01*
X322325000Y70150000D01*
G37*
G36*
X321055000Y70150000D02*
G01*
X320055000Y70150000D01*
X320055000Y72050000D01*
X321055000Y72050000D01*
X321055000Y70150000D01*
X321055000Y70150000D01*
G37*
G36*
X313800000Y70250000D02*
G01*
X312400000Y70250000D01*
X312400000Y71950000D01*
X313800000Y71950000D01*
X313800000Y70250000D01*
X313800000Y70250000D01*
G37*
G36*
X312000000Y70250000D02*
G01*
X310600000Y70250000D01*
X310600000Y71950000D01*
X312000000Y71950000D01*
X312000000Y70250000D01*
X312000000Y70250000D01*
G37*
G36*
X218640000Y72600000D02*
G01*
X216940000Y72600000D01*
X216940000Y74000000D01*
X218640000Y74000000D01*
X218640000Y72600000D01*
X218640000Y72600000D01*
G37*
G36*
X266140000Y72600000D02*
G01*
X264440000Y72600000D01*
X264440000Y74000000D01*
X266140000Y74000000D01*
X266140000Y72600000D01*
X266140000Y72600000D01*
G37*
G36*
X270140000Y72600000D02*
G01*
X268440000Y72600000D01*
X268440000Y74000000D01*
X270140000Y74000000D01*
X270140000Y72600000D01*
X270140000Y72600000D01*
G37*
G36*
X268140000Y72600000D02*
G01*
X266440000Y72600000D01*
X266440000Y74000000D01*
X268140000Y74000000D01*
X268140000Y72600000D01*
X268140000Y72600000D01*
G37*
G36*
X262640000Y72600000D02*
G01*
X260940000Y72600000D01*
X260940000Y74000000D01*
X262640000Y74000000D01*
X262640000Y72600000D01*
X262640000Y72600000D01*
G37*
G36*
X260640000Y72600000D02*
G01*
X258940000Y72600000D01*
X258940000Y74000000D01*
X260640000Y74000000D01*
X260640000Y72600000D01*
X260640000Y72600000D01*
G37*
G36*
X258640000Y72600000D02*
G01*
X256940000Y72600000D01*
X256940000Y74000000D01*
X258640000Y74000000D01*
X258640000Y72600000D01*
X258640000Y72600000D01*
G37*
G36*
X256140000Y72600000D02*
G01*
X254440000Y72600000D01*
X254440000Y74000000D01*
X256140000Y74000000D01*
X256140000Y72600000D01*
X256140000Y72600000D01*
G37*
G36*
X254140000Y72600000D02*
G01*
X252440000Y72600000D01*
X252440000Y74000000D01*
X254140000Y74000000D01*
X254140000Y72600000D01*
X254140000Y72600000D01*
G37*
G36*
X252140000Y72600000D02*
G01*
X250440000Y72600000D01*
X250440000Y74000000D01*
X252140000Y74000000D01*
X252140000Y72600000D01*
X252140000Y72600000D01*
G37*
G36*
X248640000Y72600000D02*
G01*
X246940000Y72600000D01*
X246940000Y74000000D01*
X248640000Y74000000D01*
X248640000Y72600000D01*
X248640000Y72600000D01*
G37*
G36*
X246640000Y72600000D02*
G01*
X244940000Y72600000D01*
X244940000Y74000000D01*
X246640000Y74000000D01*
X246640000Y72600000D01*
X246640000Y72600000D01*
G37*
G36*
X244640000Y72600000D02*
G01*
X242940000Y72600000D01*
X242940000Y74000000D01*
X244640000Y74000000D01*
X244640000Y72600000D01*
X244640000Y72600000D01*
G37*
G36*
X242140000Y72600000D02*
G01*
X240440000Y72600000D01*
X240440000Y74000000D01*
X242140000Y74000000D01*
X242140000Y72600000D01*
X242140000Y72600000D01*
G37*
G36*
X240140000Y72600000D02*
G01*
X238440000Y72600000D01*
X238440000Y74000000D01*
X240140000Y74000000D01*
X240140000Y72600000D01*
X240140000Y72600000D01*
G37*
G36*
X238140000Y72600000D02*
G01*
X236440000Y72600000D01*
X236440000Y74000000D01*
X238140000Y74000000D01*
X238140000Y72600000D01*
X238140000Y72600000D01*
G37*
G36*
X234640000Y72600000D02*
G01*
X232940000Y72600000D01*
X232940000Y74000000D01*
X234640000Y74000000D01*
X234640000Y72600000D01*
X234640000Y72600000D01*
G37*
G36*
X232640000Y72600000D02*
G01*
X230940000Y72600000D01*
X230940000Y74000000D01*
X232640000Y74000000D01*
X232640000Y72600000D01*
X232640000Y72600000D01*
G37*
G36*
X230640000Y72600000D02*
G01*
X228940000Y72600000D01*
X228940000Y74000000D01*
X230640000Y74000000D01*
X230640000Y72600000D01*
X230640000Y72600000D01*
G37*
G36*
X228140000Y72600000D02*
G01*
X226440000Y72600000D01*
X226440000Y74000000D01*
X228140000Y74000000D01*
X228140000Y72600000D01*
X228140000Y72600000D01*
G37*
G36*
X226140000Y72600000D02*
G01*
X224440000Y72600000D01*
X224440000Y74000000D01*
X226140000Y74000000D01*
X226140000Y72600000D01*
X226140000Y72600000D01*
G37*
G36*
X224140000Y72600000D02*
G01*
X222440000Y72600000D01*
X222440000Y74000000D01*
X224140000Y74000000D01*
X224140000Y72600000D01*
X224140000Y72600000D01*
G37*
G36*
X220640000Y72600000D02*
G01*
X218940000Y72600000D01*
X218940000Y74000000D01*
X220640000Y74000000D01*
X220640000Y72600000D01*
X220640000Y72600000D01*
G37*
G36*
X216640000Y72600000D02*
G01*
X214940000Y72600000D01*
X214940000Y74000000D01*
X216640000Y74000000D01*
X216640000Y72600000D01*
X216640000Y72600000D01*
G37*
G36*
X240140000Y74400000D02*
G01*
X238440000Y74400000D01*
X238440000Y75800000D01*
X240140000Y75800000D01*
X240140000Y74400000D01*
X240140000Y74400000D01*
G37*
G36*
X220277534Y78942357D02*
G01*
X220550515Y78829284D01*
X220550517Y78829283D01*
X220576507Y78811917D01*
X220796193Y78665127D01*
X221005127Y78456193D01*
X221169284Y78210515D01*
X221282357Y77937534D01*
X221340000Y77647738D01*
X221340000Y77352262D01*
X221282357Y77062466D01*
X221169284Y76789485D01*
X221169283Y76789483D01*
X221005126Y76543806D01*
X220796194Y76334874D01*
X220550517Y76170717D01*
X220550516Y76170716D01*
X220550515Y76170716D01*
X220277533Y76057643D01*
X220227023Y76047596D01*
X220203574Y76040483D01*
X220181963Y76028932D01*
X220163022Y76013387D01*
X220147476Y75994445D01*
X220135925Y75972834D01*
X220128812Y75949385D01*
X220126410Y75924999D01*
X220128812Y75900613D01*
X220135925Y75877164D01*
X220147476Y75855553D01*
X220163021Y75836612D01*
X220181963Y75821066D01*
X220203574Y75809515D01*
X220227023Y75802402D01*
X220251409Y75800000D01*
X220640000Y75800000D01*
X220640000Y74400000D01*
X218940000Y74400000D01*
X218940000Y75800000D01*
X219428591Y75800000D01*
X219452977Y75802402D01*
X219476426Y75809515D01*
X219498037Y75821066D01*
X219516979Y75836611D01*
X219532524Y75855553D01*
X219544075Y75877164D01*
X219551188Y75900613D01*
X219553590Y75924999D01*
X219551188Y75949385D01*
X219544075Y75972834D01*
X219532524Y75994445D01*
X219516979Y76013387D01*
X219498037Y76028932D01*
X219476426Y76040483D01*
X219452977Y76047596D01*
X219402467Y76057643D01*
X219129485Y76170716D01*
X219129484Y76170716D01*
X219129483Y76170717D01*
X218883806Y76334874D01*
X218674874Y76543806D01*
X218510717Y76789483D01*
X218510716Y76789485D01*
X218397643Y77062466D01*
X218340000Y77352262D01*
X218340000Y77647738D01*
X218397643Y77937534D01*
X218510716Y78210515D01*
X218674873Y78456193D01*
X218883807Y78665127D01*
X219103493Y78811917D01*
X219129483Y78829283D01*
X219129485Y78829284D01*
X219402466Y78942357D01*
X219692262Y79000000D01*
X219987738Y79000000D01*
X220277534Y78942357D01*
X220277534Y78942357D01*
G37*
G36*
X216640000Y74400000D02*
G01*
X214940000Y74400000D01*
X214940000Y75800000D01*
X216640000Y75800000D01*
X216640000Y74400000D01*
X216640000Y74400000D01*
G37*
G36*
X218640000Y74400000D02*
G01*
X216940000Y74400000D01*
X216940000Y75800000D01*
X218640000Y75800000D01*
X218640000Y74400000D01*
X218640000Y74400000D01*
G37*
G36*
X252140000Y74400000D02*
G01*
X250440000Y74400000D01*
X250440000Y75800000D01*
X252140000Y75800000D01*
X252140000Y74400000D01*
X252140000Y74400000D01*
G37*
G36*
X266140000Y74400000D02*
G01*
X264440000Y74400000D01*
X264440000Y75800000D01*
X266140000Y75800000D01*
X266140000Y74400000D01*
X266140000Y74400000D01*
G37*
G36*
X224140000Y74400000D02*
G01*
X222440000Y74400000D01*
X222440000Y75800000D01*
X224140000Y75800000D01*
X224140000Y74400000D01*
X224140000Y74400000D01*
G37*
G36*
X269777534Y78942357D02*
G01*
X270050515Y78829284D01*
X270050517Y78829283D01*
X270076507Y78811917D01*
X270296193Y78665127D01*
X270505127Y78456193D01*
X270669284Y78210515D01*
X270782357Y77937534D01*
X270840000Y77647738D01*
X270840000Y77352262D01*
X270782357Y77062466D01*
X270669284Y76789485D01*
X270669283Y76789483D01*
X270505126Y76543806D01*
X270296194Y76334874D01*
X270050517Y76170717D01*
X270050516Y76170716D01*
X270050515Y76170716D01*
X269777533Y76057643D01*
X269727023Y76047596D01*
X269703574Y76040483D01*
X269681963Y76028932D01*
X269663022Y76013387D01*
X269647476Y75994445D01*
X269635925Y75972834D01*
X269628812Y75949385D01*
X269626410Y75924999D01*
X269628812Y75900613D01*
X269635925Y75877164D01*
X269647476Y75855553D01*
X269663021Y75836612D01*
X269681963Y75821066D01*
X269703574Y75809515D01*
X269727023Y75802402D01*
X269751409Y75800000D01*
X270140000Y75800000D01*
X270140000Y74400000D01*
X268440000Y74400000D01*
X268440000Y75800000D01*
X268928591Y75800000D01*
X268952977Y75802402D01*
X268976426Y75809515D01*
X268998037Y75821066D01*
X269016979Y75836611D01*
X269032524Y75855553D01*
X269044075Y75877164D01*
X269051188Y75900613D01*
X269053590Y75924999D01*
X269051188Y75949385D01*
X269044075Y75972834D01*
X269032524Y75994445D01*
X269016979Y76013387D01*
X268998037Y76028932D01*
X268976426Y76040483D01*
X268952977Y76047596D01*
X268902467Y76057643D01*
X268629485Y76170716D01*
X268629484Y76170716D01*
X268629483Y76170717D01*
X268383806Y76334874D01*
X268174874Y76543806D01*
X268010717Y76789483D01*
X268010716Y76789485D01*
X267897643Y77062466D01*
X267840000Y77352262D01*
X267840000Y77647738D01*
X267897643Y77937534D01*
X268010716Y78210515D01*
X268174873Y78456193D01*
X268383807Y78665127D01*
X268603493Y78811917D01*
X268629483Y78829283D01*
X268629485Y78829284D01*
X268902466Y78942357D01*
X269192262Y79000000D01*
X269487738Y79000000D01*
X269777534Y78942357D01*
X269777534Y78942357D01*
G37*
G36*
X258640000Y74400000D02*
G01*
X256940000Y74400000D01*
X256940000Y75800000D01*
X258640000Y75800000D01*
X258640000Y74400000D01*
X258640000Y74400000D01*
G37*
G36*
X226140000Y74400000D02*
G01*
X224440000Y74400000D01*
X224440000Y75800000D01*
X226140000Y75800000D01*
X226140000Y74400000D01*
X226140000Y74400000D01*
G37*
G36*
X262277534Y78942357D02*
G01*
X262550515Y78829284D01*
X262550517Y78829283D01*
X262576507Y78811917D01*
X262796193Y78665127D01*
X263005127Y78456193D01*
X263169284Y78210515D01*
X263282357Y77937534D01*
X263340000Y77647738D01*
X263340000Y77352262D01*
X263282357Y77062466D01*
X263169284Y76789485D01*
X263169283Y76789483D01*
X263005126Y76543806D01*
X262796194Y76334874D01*
X262550517Y76170717D01*
X262550516Y76170716D01*
X262550515Y76170716D01*
X262277533Y76057643D01*
X262227023Y76047596D01*
X262203574Y76040483D01*
X262181963Y76028932D01*
X262163022Y76013387D01*
X262147476Y75994445D01*
X262135925Y75972834D01*
X262128812Y75949385D01*
X262126410Y75924999D01*
X262128812Y75900613D01*
X262135925Y75877164D01*
X262147476Y75855553D01*
X262163021Y75836612D01*
X262181963Y75821066D01*
X262203574Y75809515D01*
X262227023Y75802402D01*
X262251409Y75800000D01*
X262640000Y75800000D01*
X262640000Y74400000D01*
X260940000Y74400000D01*
X260940000Y75800000D01*
X261428591Y75800000D01*
X261452977Y75802402D01*
X261476426Y75809515D01*
X261498037Y75821066D01*
X261516979Y75836611D01*
X261532524Y75855553D01*
X261544075Y75877164D01*
X261551188Y75900613D01*
X261553590Y75924999D01*
X261551188Y75949385D01*
X261544075Y75972834D01*
X261532524Y75994445D01*
X261516979Y76013387D01*
X261498037Y76028932D01*
X261476426Y76040483D01*
X261452977Y76047596D01*
X261402467Y76057643D01*
X261129485Y76170716D01*
X261129484Y76170716D01*
X261129483Y76170717D01*
X260883806Y76334874D01*
X260674874Y76543806D01*
X260510717Y76789483D01*
X260510716Y76789485D01*
X260397643Y77062466D01*
X260340000Y77352262D01*
X260340000Y77647738D01*
X260397643Y77937534D01*
X260510716Y78210515D01*
X260674873Y78456193D01*
X260883807Y78665127D01*
X261103493Y78811917D01*
X261129483Y78829283D01*
X261129485Y78829284D01*
X261402466Y78942357D01*
X261692262Y79000000D01*
X261987738Y79000000D01*
X262277534Y78942357D01*
X262277534Y78942357D01*
G37*
G36*
X227777534Y78942357D02*
G01*
X228050515Y78829284D01*
X228050517Y78829283D01*
X228076507Y78811917D01*
X228296193Y78665127D01*
X228505127Y78456193D01*
X228669284Y78210515D01*
X228782357Y77937534D01*
X228840000Y77647738D01*
X228840000Y77352262D01*
X228782357Y77062466D01*
X228669284Y76789485D01*
X228669283Y76789483D01*
X228505126Y76543806D01*
X228296194Y76334874D01*
X228050517Y76170717D01*
X228050516Y76170716D01*
X228050515Y76170716D01*
X227777533Y76057643D01*
X227727023Y76047596D01*
X227703574Y76040483D01*
X227681963Y76028932D01*
X227663022Y76013387D01*
X227647476Y75994445D01*
X227635925Y75972834D01*
X227628812Y75949385D01*
X227626410Y75924999D01*
X227628812Y75900613D01*
X227635925Y75877164D01*
X227647476Y75855553D01*
X227663021Y75836612D01*
X227681963Y75821066D01*
X227703574Y75809515D01*
X227727023Y75802402D01*
X227751409Y75800000D01*
X228140000Y75800000D01*
X228140000Y74400000D01*
X226440000Y74400000D01*
X226440000Y75800000D01*
X226928591Y75800000D01*
X226952977Y75802402D01*
X226976426Y75809515D01*
X226998037Y75821066D01*
X227016979Y75836611D01*
X227032524Y75855553D01*
X227044075Y75877164D01*
X227051188Y75900613D01*
X227053590Y75924999D01*
X227051188Y75949385D01*
X227044075Y75972834D01*
X227032524Y75994445D01*
X227016979Y76013387D01*
X226998037Y76028932D01*
X226976426Y76040483D01*
X226952977Y76047596D01*
X226902467Y76057643D01*
X226629485Y76170716D01*
X226629484Y76170716D01*
X226629483Y76170717D01*
X226383806Y76334874D01*
X226174874Y76543806D01*
X226010717Y76789483D01*
X226010716Y76789485D01*
X225897643Y77062466D01*
X225840000Y77352262D01*
X225840000Y77647738D01*
X225897643Y77937534D01*
X226010716Y78210515D01*
X226174873Y78456193D01*
X226383807Y78665127D01*
X226603493Y78811917D01*
X226629483Y78829283D01*
X226629485Y78829284D01*
X226902466Y78942357D01*
X227192262Y79000000D01*
X227487738Y79000000D01*
X227777534Y78942357D01*
X227777534Y78942357D01*
G37*
G36*
X230640000Y74400000D02*
G01*
X228940000Y74400000D01*
X228940000Y75800000D01*
X230640000Y75800000D01*
X230640000Y74400000D01*
X230640000Y74400000D01*
G37*
G36*
X232640000Y74400000D02*
G01*
X230940000Y74400000D01*
X230940000Y75800000D01*
X232640000Y75800000D01*
X232640000Y74400000D01*
X232640000Y74400000D01*
G37*
G36*
X255777534Y78942357D02*
G01*
X256050515Y78829284D01*
X256050517Y78829283D01*
X256076507Y78811917D01*
X256296193Y78665127D01*
X256505127Y78456193D01*
X256669284Y78210515D01*
X256782357Y77937534D01*
X256840000Y77647738D01*
X256840000Y77352262D01*
X256782357Y77062466D01*
X256669284Y76789485D01*
X256669283Y76789483D01*
X256505126Y76543806D01*
X256296194Y76334874D01*
X256050517Y76170717D01*
X256050516Y76170716D01*
X256050515Y76170716D01*
X255777533Y76057643D01*
X255727023Y76047596D01*
X255703574Y76040483D01*
X255681963Y76028932D01*
X255663022Y76013387D01*
X255647476Y75994445D01*
X255635925Y75972834D01*
X255628812Y75949385D01*
X255626410Y75924999D01*
X255628812Y75900613D01*
X255635925Y75877164D01*
X255647476Y75855553D01*
X255663021Y75836612D01*
X255681963Y75821066D01*
X255703574Y75809515D01*
X255727023Y75802402D01*
X255751409Y75800000D01*
X256140000Y75800000D01*
X256140000Y74400000D01*
X254440000Y74400000D01*
X254440000Y75800000D01*
X254928591Y75800000D01*
X254952977Y75802402D01*
X254976426Y75809515D01*
X254998037Y75821066D01*
X255016979Y75836611D01*
X255032524Y75855553D01*
X255044075Y75877164D01*
X255051188Y75900613D01*
X255053590Y75924999D01*
X255051188Y75949385D01*
X255044075Y75972834D01*
X255032524Y75994445D01*
X255016979Y76013387D01*
X254998037Y76028932D01*
X254976426Y76040483D01*
X254952977Y76047596D01*
X254902467Y76057643D01*
X254629485Y76170716D01*
X254629484Y76170716D01*
X254629483Y76170717D01*
X254383806Y76334874D01*
X254174874Y76543806D01*
X254010717Y76789483D01*
X254010716Y76789485D01*
X253897643Y77062466D01*
X253840000Y77352262D01*
X253840000Y77647738D01*
X253897643Y77937534D01*
X254010716Y78210515D01*
X254174873Y78456193D01*
X254383807Y78665127D01*
X254603493Y78811917D01*
X254629483Y78829283D01*
X254629485Y78829284D01*
X254902466Y78942357D01*
X255192262Y79000000D01*
X255487738Y79000000D01*
X255777534Y78942357D01*
X255777534Y78942357D01*
G37*
G36*
X244640000Y74400000D02*
G01*
X242940000Y74400000D01*
X242940000Y75800000D01*
X244640000Y75800000D01*
X244640000Y74400000D01*
X244640000Y74400000D01*
G37*
G36*
X268140000Y74400000D02*
G01*
X266440000Y74400000D01*
X266440000Y75800000D01*
X268140000Y75800000D01*
X268140000Y74400000D01*
X268140000Y74400000D01*
G37*
G36*
X248277534Y78942357D02*
G01*
X248550515Y78829284D01*
X248550517Y78829283D01*
X248576507Y78811917D01*
X248796193Y78665127D01*
X249005127Y78456193D01*
X249169284Y78210515D01*
X249282357Y77937534D01*
X249340000Y77647738D01*
X249340000Y77352262D01*
X249282357Y77062466D01*
X249169284Y76789485D01*
X249169283Y76789483D01*
X249005126Y76543806D01*
X248796194Y76334874D01*
X248550517Y76170717D01*
X248550516Y76170716D01*
X248550515Y76170716D01*
X248277533Y76057643D01*
X248227023Y76047596D01*
X248203574Y76040483D01*
X248181963Y76028932D01*
X248163022Y76013387D01*
X248147476Y75994445D01*
X248135925Y75972834D01*
X248128812Y75949385D01*
X248126410Y75924999D01*
X248128812Y75900613D01*
X248135925Y75877164D01*
X248147476Y75855553D01*
X248163021Y75836612D01*
X248181963Y75821066D01*
X248203574Y75809515D01*
X248227023Y75802402D01*
X248251409Y75800000D01*
X248640000Y75800000D01*
X248640000Y74400000D01*
X246940000Y74400000D01*
X246940000Y75800000D01*
X247428591Y75800000D01*
X247452977Y75802402D01*
X247476426Y75809515D01*
X247498037Y75821066D01*
X247516979Y75836611D01*
X247532524Y75855553D01*
X247544075Y75877164D01*
X247551188Y75900613D01*
X247553590Y75924999D01*
X247551188Y75949385D01*
X247544075Y75972834D01*
X247532524Y75994445D01*
X247516979Y76013387D01*
X247498037Y76028932D01*
X247476426Y76040483D01*
X247452977Y76047596D01*
X247402467Y76057643D01*
X247129485Y76170716D01*
X247129484Y76170716D01*
X247129483Y76170717D01*
X246883806Y76334874D01*
X246674874Y76543806D01*
X246510717Y76789483D01*
X246510716Y76789485D01*
X246397643Y77062466D01*
X246340000Y77352262D01*
X246340000Y77647738D01*
X246397643Y77937534D01*
X246510716Y78210515D01*
X246674873Y78456193D01*
X246883807Y78665127D01*
X247103493Y78811917D01*
X247129483Y78829283D01*
X247129485Y78829284D01*
X247402466Y78942357D01*
X247692262Y79000000D01*
X247987738Y79000000D01*
X248277534Y78942357D01*
X248277534Y78942357D01*
G37*
G36*
X238140000Y74400000D02*
G01*
X236440000Y74400000D01*
X236440000Y75800000D01*
X238140000Y75800000D01*
X238140000Y74400000D01*
X238140000Y74400000D01*
G37*
G36*
X260640000Y74400000D02*
G01*
X258940000Y74400000D01*
X258940000Y75800000D01*
X260640000Y75800000D01*
X260640000Y74400000D01*
X260640000Y74400000D01*
G37*
G36*
X241777534Y78942357D02*
G01*
X242050515Y78829284D01*
X242050517Y78829283D01*
X242076507Y78811917D01*
X242296193Y78665127D01*
X242505127Y78456193D01*
X242669284Y78210515D01*
X242782357Y77937534D01*
X242840000Y77647738D01*
X242840000Y77352262D01*
X242782357Y77062466D01*
X242669284Y76789485D01*
X242669283Y76789483D01*
X242505126Y76543806D01*
X242296194Y76334874D01*
X242050517Y76170717D01*
X242050516Y76170716D01*
X242050515Y76170716D01*
X241777533Y76057643D01*
X241727023Y76047596D01*
X241703574Y76040483D01*
X241681963Y76028932D01*
X241663022Y76013387D01*
X241647476Y75994445D01*
X241635925Y75972834D01*
X241628812Y75949385D01*
X241626410Y75924999D01*
X241628812Y75900613D01*
X241635925Y75877164D01*
X241647476Y75855553D01*
X241663021Y75836612D01*
X241681963Y75821066D01*
X241703574Y75809515D01*
X241727023Y75802402D01*
X241751409Y75800000D01*
X242140000Y75800000D01*
X242140000Y74400000D01*
X240440000Y74400000D01*
X240440000Y75800000D01*
X240928591Y75800000D01*
X240952977Y75802402D01*
X240976426Y75809515D01*
X240998037Y75821066D01*
X241016979Y75836611D01*
X241032524Y75855553D01*
X241044075Y75877164D01*
X241051188Y75900613D01*
X241053590Y75924999D01*
X241051188Y75949385D01*
X241044075Y75972834D01*
X241032524Y75994445D01*
X241016979Y76013387D01*
X240998037Y76028932D01*
X240976426Y76040483D01*
X240952977Y76047596D01*
X240902467Y76057643D01*
X240629485Y76170716D01*
X240629484Y76170716D01*
X240629483Y76170717D01*
X240383806Y76334874D01*
X240174874Y76543806D01*
X240010717Y76789483D01*
X240010716Y76789485D01*
X239897643Y77062466D01*
X239840000Y77352262D01*
X239840000Y77647738D01*
X239897643Y77937534D01*
X240010716Y78210515D01*
X240174873Y78456193D01*
X240383807Y78665127D01*
X240603493Y78811917D01*
X240629483Y78829283D01*
X240629485Y78829284D01*
X240902466Y78942357D01*
X241192262Y79000000D01*
X241487738Y79000000D01*
X241777534Y78942357D01*
X241777534Y78942357D01*
G37*
G36*
X246640000Y74400000D02*
G01*
X244940000Y74400000D01*
X244940000Y75800000D01*
X246640000Y75800000D01*
X246640000Y74400000D01*
X246640000Y74400000D01*
G37*
G36*
X234277534Y78942357D02*
G01*
X234550515Y78829284D01*
X234550517Y78829283D01*
X234576507Y78811917D01*
X234796193Y78665127D01*
X235005127Y78456193D01*
X235169284Y78210515D01*
X235282357Y77937534D01*
X235340000Y77647738D01*
X235340000Y77352262D01*
X235282357Y77062466D01*
X235169284Y76789485D01*
X235169283Y76789483D01*
X235005126Y76543806D01*
X234796194Y76334874D01*
X234550517Y76170717D01*
X234550516Y76170716D01*
X234550515Y76170716D01*
X234277533Y76057643D01*
X234227023Y76047596D01*
X234203574Y76040483D01*
X234181963Y76028932D01*
X234163022Y76013387D01*
X234147476Y75994445D01*
X234135925Y75972834D01*
X234128812Y75949385D01*
X234126410Y75924999D01*
X234128812Y75900613D01*
X234135925Y75877164D01*
X234147476Y75855553D01*
X234163021Y75836612D01*
X234181963Y75821066D01*
X234203574Y75809515D01*
X234227023Y75802402D01*
X234251409Y75800000D01*
X234640000Y75800000D01*
X234640000Y74400000D01*
X232940000Y74400000D01*
X232940000Y75800000D01*
X233428591Y75800000D01*
X233452977Y75802402D01*
X233476426Y75809515D01*
X233498037Y75821066D01*
X233516979Y75836611D01*
X233532524Y75855553D01*
X233544075Y75877164D01*
X233551188Y75900613D01*
X233553590Y75924999D01*
X233551188Y75949385D01*
X233544075Y75972834D01*
X233532524Y75994445D01*
X233516979Y76013387D01*
X233498037Y76028932D01*
X233476426Y76040483D01*
X233452977Y76047596D01*
X233402467Y76057643D01*
X233129485Y76170716D01*
X233129484Y76170716D01*
X233129483Y76170717D01*
X232883806Y76334874D01*
X232674874Y76543806D01*
X232510717Y76789483D01*
X232510716Y76789485D01*
X232397643Y77062466D01*
X232340000Y77352262D01*
X232340000Y77647738D01*
X232397643Y77937534D01*
X232510716Y78210515D01*
X232674873Y78456193D01*
X232883807Y78665127D01*
X233103493Y78811917D01*
X233129483Y78829283D01*
X233129485Y78829284D01*
X233402466Y78942357D01*
X233692262Y79000000D01*
X233987738Y79000000D01*
X234277534Y78942357D01*
X234277534Y78942357D01*
G37*
G36*
X254140000Y74400000D02*
G01*
X252440000Y74400000D01*
X252440000Y75800000D01*
X254140000Y75800000D01*
X254140000Y74400000D01*
X254140000Y74400000D01*
G37*
G36*
X319105000Y75525000D02*
G01*
X318105000Y75525000D01*
X318105000Y77475000D01*
X319105000Y77475000D01*
X319105000Y75525000D01*
X319105000Y75525000D01*
G37*
G36*
X315295000Y75525000D02*
G01*
X314295000Y75525000D01*
X314295000Y77475000D01*
X315295000Y77475000D01*
X315295000Y75525000D01*
X315295000Y75525000D01*
G37*
G36*
X316565000Y75525000D02*
G01*
X315565000Y75525000D01*
X315565000Y77475000D01*
X316565000Y77475000D01*
X316565000Y75525000D01*
X316565000Y75525000D01*
G37*
G36*
X317835000Y75525000D02*
G01*
X316835000Y75525000D01*
X316835000Y77475000D01*
X317835000Y77475000D01*
X317835000Y75525000D01*
X317835000Y75525000D01*
G37*
G36*
X327405000Y75550000D02*
G01*
X326405000Y75550000D01*
X326405000Y77450000D01*
X327405000Y77450000D01*
X327405000Y75550000D01*
X327405000Y75550000D01*
G37*
G36*
X328675000Y75550000D02*
G01*
X327675000Y75550000D01*
X327675000Y77450000D01*
X328675000Y77450000D01*
X328675000Y75550000D01*
X328675000Y75550000D01*
G37*
G36*
X321055000Y75550000D02*
G01*
X320055000Y75550000D01*
X320055000Y77450000D01*
X321055000Y77450000D01*
X321055000Y75550000D01*
X321055000Y75550000D01*
G37*
G36*
X322325000Y75550000D02*
G01*
X321325000Y75550000D01*
X321325000Y77450000D01*
X322325000Y77450000D01*
X322325000Y75550000D01*
X322325000Y75550000D01*
G37*
G36*
X329945000Y75550000D02*
G01*
X328945000Y75550000D01*
X328945000Y77450000D01*
X329945000Y77450000D01*
X329945000Y75550000D01*
X329945000Y75550000D01*
G37*
G36*
X326135000Y75550000D02*
G01*
X325135000Y75550000D01*
X325135000Y77450000D01*
X326135000Y77450000D01*
X326135000Y75550000D01*
X326135000Y75550000D01*
G37*
G36*
X324865000Y75550000D02*
G01*
X323865000Y75550000D01*
X323865000Y77450000D01*
X324865000Y77450000D01*
X324865000Y75550000D01*
X324865000Y75550000D01*
G37*
G36*
X323595000Y75550000D02*
G01*
X322595000Y75550000D01*
X322595000Y77450000D01*
X323595000Y77450000D01*
X323595000Y75550000D01*
X323595000Y75550000D01*
G37*
G36*
X330000000Y77750000D02*
G01*
X328600000Y77750000D01*
X328600000Y79450000D01*
X330000000Y79450000D01*
X330000000Y77750000D01*
X330000000Y77750000D01*
G37*
G36*
X328200000Y77750000D02*
G01*
X326800000Y77750000D01*
X326800000Y79450000D01*
X328200000Y79450000D01*
X328200000Y77750000D01*
X328200000Y77750000D01*
G37*
G36*
X279150000Y77800000D02*
G01*
X277450000Y77800000D01*
X277450000Y79200000D01*
X279150000Y79200000D01*
X279150000Y77800000D01*
X279150000Y77800000D01*
G37*
G36*
X293150000Y77800000D02*
G01*
X291450000Y77800000D01*
X291450000Y79200000D01*
X293150000Y79200000D01*
X293150000Y77800000D01*
X293150000Y77800000D01*
G37*
G36*
X307150000Y77800000D02*
G01*
X305450000Y77800000D01*
X305450000Y79200000D01*
X307150000Y79200000D01*
X307150000Y77800000D01*
X307150000Y77800000D01*
G37*
G36*
X321250000Y77800000D02*
G01*
X319550000Y77800000D01*
X319550000Y79200000D01*
X321250000Y79200000D01*
X321250000Y77800000D01*
X321250000Y77800000D01*
G37*
G36*
X245021273Y84018168D02*
G01*
X245223394Y83956855D01*
X245435977Y83892369D01*
X245435979Y83892368D01*
X245818167Y83688084D01*
X246153162Y83413162D01*
X246428084Y83078167D01*
X246632368Y82695978D01*
X246758168Y82281272D01*
X246790000Y81958073D01*
X246790000Y80541926D01*
X246758168Y80218727D01*
X246632368Y79804021D01*
X246428084Y79421833D01*
X246153162Y79086838D01*
X245905432Y78883533D01*
X245818168Y78811917D01*
X245435976Y78607631D01*
X245228625Y78544732D01*
X245021272Y78481832D01*
X244590000Y78439356D01*
X244158727Y78481832D01*
X243951374Y78544732D01*
X243744023Y78607631D01*
X243638826Y78663860D01*
X243361833Y78811916D01*
X243026838Y79086838D01*
X242823533Y79334568D01*
X242751917Y79421832D01*
X242547631Y79804024D01*
X242421833Y80218726D01*
X242421832Y80218728D01*
X242390000Y80541927D01*
X242390000Y81958074D01*
X242421832Y82281273D01*
X242547632Y82695979D01*
X242751917Y83078167D01*
X243026839Y83413162D01*
X243361834Y83688084D01*
X243744022Y83892368D01*
X243744024Y83892369D01*
X243956607Y83956855D01*
X244158728Y84018168D01*
X244590000Y84060644D01*
X245021273Y84018168D01*
X245021273Y84018168D01*
G37*
G36*
X271994845Y84031190D02*
G01*
X272239896Y83956855D01*
X272465736Y83836140D01*
X272663687Y83673687D01*
X272826140Y83475736D01*
X272946855Y83249896D01*
X273021190Y83004845D01*
X273040000Y82813864D01*
X273040000Y79686136D01*
X273021190Y79495155D01*
X272946855Y79250104D01*
X272826140Y79024264D01*
X272663687Y78826313D01*
X272465735Y78663860D01*
X272239895Y78543145D01*
X271994844Y78468810D01*
X271740000Y78443710D01*
X271485155Y78468810D01*
X271240104Y78543145D01*
X271014264Y78663860D01*
X270816313Y78826313D01*
X270653860Y79024265D01*
X270533145Y79250105D01*
X270458810Y79495156D01*
X270440000Y79686137D01*
X270440001Y82813864D01*
X270458811Y83004845D01*
X270533146Y83249896D01*
X270653861Y83475736D01*
X270816314Y83673687D01*
X271014265Y83836140D01*
X271240105Y83956855D01*
X271485156Y84031190D01*
X271740000Y84056290D01*
X271994845Y84031190D01*
X271994845Y84031190D01*
G37*
G36*
X217694845Y84031190D02*
G01*
X217939896Y83956855D01*
X218165736Y83836140D01*
X218363687Y83673687D01*
X218526140Y83475736D01*
X218646855Y83249896D01*
X218721190Y83004845D01*
X218740000Y82813864D01*
X218740000Y79686136D01*
X218721190Y79495155D01*
X218646855Y79250104D01*
X218526140Y79024264D01*
X218363687Y78826313D01*
X218165735Y78663860D01*
X217939895Y78543145D01*
X217694844Y78468810D01*
X217440000Y78443710D01*
X217185155Y78468810D01*
X216940104Y78543145D01*
X216714264Y78663860D01*
X216516313Y78826313D01*
X216353860Y79024265D01*
X216233145Y79250105D01*
X216158810Y79495156D01*
X216140000Y79686137D01*
X216140001Y82813864D01*
X216158811Y83004845D01*
X216233146Y83249896D01*
X216353861Y83475736D01*
X216516314Y83673687D01*
X216714265Y83836140D01*
X216940105Y83956855D01*
X217185156Y84031190D01*
X217440000Y84056290D01*
X217694845Y84031190D01*
X217694845Y84031190D01*
G37*
G36*
X321250000Y79600000D02*
G01*
X319550000Y79600000D01*
X319550000Y81000000D01*
X321250000Y81000000D01*
X321250000Y79600000D01*
X321250000Y79600000D01*
G37*
G36*
X307150000Y79600000D02*
G01*
X305450000Y79600000D01*
X305450000Y81000000D01*
X307150000Y81000000D01*
X307150000Y79600000D01*
X307150000Y79600000D01*
G37*
G36*
X293150000Y79600000D02*
G01*
X291450000Y79600000D01*
X291450000Y81000000D01*
X293150000Y81000000D01*
X293150000Y79600000D01*
X293150000Y79600000D01*
G37*
G36*
X279150000Y79600000D02*
G01*
X277450000Y79600000D01*
X277450000Y81000000D01*
X279150000Y81000000D01*
X279150000Y79600000D01*
X279150000Y79600000D01*
G37*
G36*
X338753404Y86897026D02*
G01*
X339335767Y86655804D01*
X339335768Y86655803D01*
X339859881Y86305602D01*
X340305602Y85859881D01*
X340484881Y85591571D01*
X340655804Y85335767D01*
X340897026Y84753404D01*
X341020000Y84135174D01*
X341020000Y83504826D01*
X340897026Y82886596D01*
X340655804Y82304233D01*
X340640462Y82281272D01*
X340305602Y81780119D01*
X339859881Y81334398D01*
X339662375Y81202429D01*
X339335767Y80984196D01*
X338753404Y80742974D01*
X338135174Y80620000D01*
X337504826Y80620000D01*
X336886596Y80742974D01*
X336304233Y80984196D01*
X335977625Y81202429D01*
X335780119Y81334398D01*
X335334398Y81780119D01*
X334999538Y82281272D01*
X334984196Y82304233D01*
X334742974Y82886596D01*
X334620000Y83504826D01*
X334620000Y84135174D01*
X334742974Y84753404D01*
X334984196Y85335767D01*
X335155119Y85591571D01*
X335334398Y85859881D01*
X335780119Y86305602D01*
X336304232Y86655803D01*
X336304233Y86655804D01*
X336886596Y86897026D01*
X337504826Y87020000D01*
X338135174Y87020000D01*
X338753404Y86897026D01*
X338753404Y86897026D01*
G37*
G36*
X209213404Y86897026D02*
G01*
X209795767Y86655804D01*
X209795768Y86655803D01*
X210319881Y86305602D01*
X210765602Y85859881D01*
X210944881Y85591571D01*
X211115804Y85335767D01*
X211357026Y84753404D01*
X211480000Y84135174D01*
X211480000Y83504826D01*
X211357026Y82886596D01*
X211115804Y82304233D01*
X211100462Y82281272D01*
X210765602Y81780119D01*
X210319881Y81334398D01*
X210122375Y81202429D01*
X209795767Y80984196D01*
X209213404Y80742974D01*
X208595174Y80620000D01*
X207964826Y80620000D01*
X207346596Y80742974D01*
X206764233Y80984196D01*
X206437625Y81202429D01*
X206240119Y81334398D01*
X205794398Y81780119D01*
X205459538Y82281272D01*
X205444196Y82304233D01*
X205202974Y82886596D01*
X205080000Y83504826D01*
X205080000Y84135174D01*
X205202974Y84753404D01*
X205444196Y85335767D01*
X205615119Y85591571D01*
X205794398Y85859881D01*
X206240119Y86305602D01*
X206764232Y86655803D01*
X206764233Y86655804D01*
X207346596Y86897026D01*
X207964826Y87020000D01*
X208595174Y87020000D01*
X209213404Y86897026D01*
X209213404Y86897026D01*
G37*
G36*
X327802520Y82865414D02*
G01*
X327966310Y82797570D01*
X328113717Y82699076D01*
X328239076Y82573717D01*
X328337570Y82426310D01*
X328405414Y82262520D01*
X328440000Y82088642D01*
X328440000Y81911358D01*
X328405414Y81737480D01*
X328337570Y81573690D01*
X328239076Y81426283D01*
X328113717Y81300924D01*
X327966310Y81202430D01*
X327966309Y81202429D01*
X327966308Y81202429D01*
X327802520Y81134586D01*
X327628644Y81100000D01*
X327451356Y81100000D01*
X327277480Y81134586D01*
X327113692Y81202429D01*
X327113691Y81202429D01*
X327113690Y81202430D01*
X326966283Y81300924D01*
X326840924Y81426283D01*
X326742430Y81573690D01*
X326674586Y81737480D01*
X326640000Y81911358D01*
X326640000Y82088642D01*
X326674586Y82262520D01*
X326742430Y82426310D01*
X326840924Y82573717D01*
X326966283Y82699076D01*
X327113690Y82797570D01*
X327277480Y82865414D01*
X327451356Y82900000D01*
X327628644Y82900000D01*
X327802520Y82865414D01*
X327802520Y82865414D01*
G37*
G36*
X313802520Y82865414D02*
G01*
X313966310Y82797570D01*
X314113717Y82699076D01*
X314239076Y82573717D01*
X314337570Y82426310D01*
X314405414Y82262520D01*
X314440000Y82088642D01*
X314440000Y81911358D01*
X314405414Y81737480D01*
X314337570Y81573690D01*
X314239076Y81426283D01*
X314113717Y81300924D01*
X313966310Y81202430D01*
X313966309Y81202429D01*
X313966308Y81202429D01*
X313802520Y81134586D01*
X313628644Y81100000D01*
X313451356Y81100000D01*
X313277480Y81134586D01*
X313113692Y81202429D01*
X313113691Y81202429D01*
X313113690Y81202430D01*
X312966283Y81300924D01*
X312840924Y81426283D01*
X312742430Y81573690D01*
X312674586Y81737480D01*
X312640000Y81911358D01*
X312640000Y82088642D01*
X312674586Y82262520D01*
X312742430Y82426310D01*
X312840924Y82573717D01*
X312966283Y82699076D01*
X313113690Y82797570D01*
X313277480Y82865414D01*
X313451356Y82900000D01*
X313628644Y82900000D01*
X313802520Y82865414D01*
X313802520Y82865414D01*
G37*
G36*
X311262520Y82865414D02*
G01*
X311426310Y82797570D01*
X311573717Y82699076D01*
X311699076Y82573717D01*
X311797570Y82426310D01*
X311865414Y82262520D01*
X311900000Y82088642D01*
X311900000Y81911358D01*
X311865414Y81737480D01*
X311797570Y81573690D01*
X311699076Y81426283D01*
X311573717Y81300924D01*
X311426310Y81202430D01*
X311426309Y81202429D01*
X311426308Y81202429D01*
X311262520Y81134586D01*
X311088644Y81100000D01*
X310911356Y81100000D01*
X310737480Y81134586D01*
X310573692Y81202429D01*
X310573691Y81202429D01*
X310573690Y81202430D01*
X310426283Y81300924D01*
X310300924Y81426283D01*
X310202430Y81573690D01*
X310134586Y81737480D01*
X310100000Y81911358D01*
X310100000Y82088642D01*
X310134586Y82262520D01*
X310202430Y82426310D01*
X310300924Y82573717D01*
X310426283Y82699076D01*
X310573690Y82797570D01*
X310737480Y82865414D01*
X310911356Y82900000D01*
X311088644Y82900000D01*
X311262520Y82865414D01*
X311262520Y82865414D01*
G37*
G36*
X308722520Y82865414D02*
G01*
X308886310Y82797570D01*
X309033717Y82699076D01*
X309159076Y82573717D01*
X309257570Y82426310D01*
X309325414Y82262520D01*
X309360000Y82088642D01*
X309360000Y81911358D01*
X309325414Y81737480D01*
X309257570Y81573690D01*
X309159076Y81426283D01*
X309033717Y81300924D01*
X308886310Y81202430D01*
X308886309Y81202429D01*
X308886308Y81202429D01*
X308722520Y81134586D01*
X308548644Y81100000D01*
X308371356Y81100000D01*
X308197480Y81134586D01*
X308033692Y81202429D01*
X308033691Y81202429D01*
X308033690Y81202430D01*
X307886283Y81300924D01*
X307760924Y81426283D01*
X307662430Y81573690D01*
X307594586Y81737480D01*
X307560000Y81911358D01*
X307560000Y82088642D01*
X307594586Y82262520D01*
X307662430Y82426310D01*
X307760924Y82573717D01*
X307886283Y82699076D01*
X308033690Y82797570D01*
X308197480Y82865414D01*
X308371356Y82900000D01*
X308548644Y82900000D01*
X308722520Y82865414D01*
X308722520Y82865414D01*
G37*
G36*
X285802520Y82865414D02*
G01*
X285966310Y82797570D01*
X286113717Y82699076D01*
X286239076Y82573717D01*
X286337570Y82426310D01*
X286405414Y82262520D01*
X286440000Y82088642D01*
X286440000Y81911358D01*
X286405414Y81737480D01*
X286337570Y81573690D01*
X286239076Y81426283D01*
X286113717Y81300924D01*
X285966310Y81202430D01*
X285966309Y81202429D01*
X285966308Y81202429D01*
X285802520Y81134586D01*
X285628644Y81100000D01*
X285451356Y81100000D01*
X285277480Y81134586D01*
X285113692Y81202429D01*
X285113691Y81202429D01*
X285113690Y81202430D01*
X284966283Y81300924D01*
X284840924Y81426283D01*
X284742430Y81573690D01*
X284674586Y81737480D01*
X284640000Y81911358D01*
X284640000Y82088642D01*
X284674586Y82262520D01*
X284742430Y82426310D01*
X284840924Y82573717D01*
X284966283Y82699076D01*
X285113690Y82797570D01*
X285277480Y82865414D01*
X285451356Y82900000D01*
X285628644Y82900000D01*
X285802520Y82865414D01*
X285802520Y82865414D01*
G37*
G36*
X294722520Y82865414D02*
G01*
X294886310Y82797570D01*
X295033717Y82699076D01*
X295159076Y82573717D01*
X295257570Y82426310D01*
X295325414Y82262520D01*
X295360000Y82088642D01*
X295360000Y81911358D01*
X295325414Y81737480D01*
X295257570Y81573690D01*
X295159076Y81426283D01*
X295033717Y81300924D01*
X294886310Y81202430D01*
X294886309Y81202429D01*
X294886308Y81202429D01*
X294722520Y81134586D01*
X294548644Y81100000D01*
X294371356Y81100000D01*
X294197480Y81134586D01*
X294033692Y81202429D01*
X294033691Y81202429D01*
X294033690Y81202430D01*
X293886283Y81300924D01*
X293760924Y81426283D01*
X293662430Y81573690D01*
X293594586Y81737480D01*
X293560000Y81911358D01*
X293560000Y82088642D01*
X293594586Y82262520D01*
X293662430Y82426310D01*
X293760924Y82573717D01*
X293886283Y82699076D01*
X294033690Y82797570D01*
X294197480Y82865414D01*
X294371356Y82900000D01*
X294548644Y82900000D01*
X294722520Y82865414D01*
X294722520Y82865414D01*
G37*
G36*
X297262520Y82865414D02*
G01*
X297426310Y82797570D01*
X297573717Y82699076D01*
X297699076Y82573717D01*
X297797570Y82426310D01*
X297865414Y82262520D01*
X297900000Y82088642D01*
X297900000Y81911358D01*
X297865414Y81737480D01*
X297797570Y81573690D01*
X297699076Y81426283D01*
X297573717Y81300924D01*
X297426310Y81202430D01*
X297426309Y81202429D01*
X297426308Y81202429D01*
X297262520Y81134586D01*
X297088644Y81100000D01*
X296911356Y81100000D01*
X296737480Y81134586D01*
X296573692Y81202429D01*
X296573691Y81202429D01*
X296573690Y81202430D01*
X296426283Y81300924D01*
X296300924Y81426283D01*
X296202430Y81573690D01*
X296134586Y81737480D01*
X296100000Y81911358D01*
X296100000Y82088642D01*
X296134586Y82262520D01*
X296202430Y82426310D01*
X296300924Y82573717D01*
X296426283Y82699076D01*
X296573690Y82797570D01*
X296737480Y82865414D01*
X296911356Y82900000D01*
X297088644Y82900000D01*
X297262520Y82865414D01*
X297262520Y82865414D01*
G37*
G36*
X299802520Y82865414D02*
G01*
X299966310Y82797570D01*
X300113717Y82699076D01*
X300239076Y82573717D01*
X300337570Y82426310D01*
X300405414Y82262520D01*
X300440000Y82088642D01*
X300440000Y81911358D01*
X300405414Y81737480D01*
X300337570Y81573690D01*
X300239076Y81426283D01*
X300113717Y81300924D01*
X299966310Y81202430D01*
X299966309Y81202429D01*
X299966308Y81202429D01*
X299802520Y81134586D01*
X299628644Y81100000D01*
X299451356Y81100000D01*
X299277480Y81134586D01*
X299113692Y81202429D01*
X299113691Y81202429D01*
X299113690Y81202430D01*
X298966283Y81300924D01*
X298840924Y81426283D01*
X298742430Y81573690D01*
X298674586Y81737480D01*
X298640000Y81911358D01*
X298640000Y82088642D01*
X298674586Y82262520D01*
X298742430Y82426310D01*
X298840924Y82573717D01*
X298966283Y82699076D01*
X299113690Y82797570D01*
X299277480Y82865414D01*
X299451356Y82900000D01*
X299628644Y82900000D01*
X299802520Y82865414D01*
X299802520Y82865414D01*
G37*
G36*
X283262520Y82865414D02*
G01*
X283426310Y82797570D01*
X283573717Y82699076D01*
X283699076Y82573717D01*
X283797570Y82426310D01*
X283865414Y82262520D01*
X283900000Y82088642D01*
X283900000Y81911358D01*
X283865414Y81737480D01*
X283797570Y81573690D01*
X283699076Y81426283D01*
X283573717Y81300924D01*
X283426310Y81202430D01*
X283426309Y81202429D01*
X283426308Y81202429D01*
X283262520Y81134586D01*
X283088644Y81100000D01*
X282911356Y81100000D01*
X282737480Y81134586D01*
X282573692Y81202429D01*
X282573691Y81202429D01*
X282573690Y81202430D01*
X282426283Y81300924D01*
X282300924Y81426283D01*
X282202430Y81573690D01*
X282134586Y81737480D01*
X282100000Y81911358D01*
X282100000Y82088642D01*
X282134586Y82262520D01*
X282202430Y82426310D01*
X282300924Y82573717D01*
X282426283Y82699076D01*
X282573690Y82797570D01*
X282737480Y82865414D01*
X282911356Y82900000D01*
X283088644Y82900000D01*
X283262520Y82865414D01*
X283262520Y82865414D01*
G37*
G36*
X280722520Y82865414D02*
G01*
X280886310Y82797570D01*
X281033717Y82699076D01*
X281159076Y82573717D01*
X281257570Y82426310D01*
X281325414Y82262520D01*
X281360000Y82088642D01*
X281360000Y81911358D01*
X281325414Y81737480D01*
X281257570Y81573690D01*
X281159076Y81426283D01*
X281033717Y81300924D01*
X280886310Y81202430D01*
X280886309Y81202429D01*
X280886308Y81202429D01*
X280722520Y81134586D01*
X280548644Y81100000D01*
X280371356Y81100000D01*
X280197480Y81134586D01*
X280033692Y81202429D01*
X280033691Y81202429D01*
X280033690Y81202430D01*
X279886283Y81300924D01*
X279760924Y81426283D01*
X279662430Y81573690D01*
X279594586Y81737480D01*
X279560000Y81911358D01*
X279560000Y82088642D01*
X279594586Y82262520D01*
X279662430Y82426310D01*
X279760924Y82573717D01*
X279886283Y82699076D01*
X280033690Y82797570D01*
X280197480Y82865414D01*
X280371356Y82900000D01*
X280548644Y82900000D01*
X280722520Y82865414D01*
X280722520Y82865414D01*
G37*
G36*
X322722520Y82865414D02*
G01*
X322886310Y82797570D01*
X323033717Y82699076D01*
X323159076Y82573717D01*
X323257570Y82426310D01*
X323325414Y82262520D01*
X323360000Y82088642D01*
X323360000Y81911358D01*
X323325414Y81737480D01*
X323257570Y81573690D01*
X323159076Y81426283D01*
X323033717Y81300924D01*
X322886310Y81202430D01*
X322886309Y81202429D01*
X322886308Y81202429D01*
X322722520Y81134586D01*
X322548644Y81100000D01*
X322371356Y81100000D01*
X322197480Y81134586D01*
X322033692Y81202429D01*
X322033691Y81202429D01*
X322033690Y81202430D01*
X321886283Y81300924D01*
X321760924Y81426283D01*
X321662430Y81573690D01*
X321594586Y81737480D01*
X321560000Y81911358D01*
X321560000Y82088642D01*
X321594586Y82262520D01*
X321662430Y82426310D01*
X321760924Y82573717D01*
X321886283Y82699076D01*
X322033690Y82797570D01*
X322197480Y82865414D01*
X322371356Y82900000D01*
X322548644Y82900000D01*
X322722520Y82865414D01*
X322722520Y82865414D01*
G37*
G36*
X325262520Y82865414D02*
G01*
X325426310Y82797570D01*
X325573717Y82699076D01*
X325699076Y82573717D01*
X325797570Y82426310D01*
X325865414Y82262520D01*
X325900000Y82088642D01*
X325900000Y81911358D01*
X325865414Y81737480D01*
X325797570Y81573690D01*
X325699076Y81426283D01*
X325573717Y81300924D01*
X325426310Y81202430D01*
X325426309Y81202429D01*
X325426308Y81202429D01*
X325262520Y81134586D01*
X325088644Y81100000D01*
X324911356Y81100000D01*
X324737480Y81134586D01*
X324573692Y81202429D01*
X324573691Y81202429D01*
X324573690Y81202430D01*
X324426283Y81300924D01*
X324300924Y81426283D01*
X324202430Y81573690D01*
X324134586Y81737480D01*
X324100000Y81911358D01*
X324100000Y82088642D01*
X324134586Y82262520D01*
X324202430Y82426310D01*
X324300924Y82573717D01*
X324426283Y82699076D01*
X324573690Y82797570D01*
X324737480Y82865414D01*
X324911356Y82900000D01*
X325088644Y82900000D01*
X325262520Y82865414D01*
X325262520Y82865414D01*
G37*
G36*
X332000000Y81150000D02*
G01*
X330600000Y81150000D01*
X330600000Y84750000D01*
X332000000Y84750000D01*
X332000000Y81150000D01*
X332000000Y81150000D01*
G37*
G36*
X330200000Y81150000D02*
G01*
X328800000Y81150000D01*
X328800000Y84750000D01*
X330200000Y84750000D01*
X330200000Y81150000D01*
X330200000Y81150000D01*
G37*
G36*
X318000000Y81150000D02*
G01*
X316600000Y81150000D01*
X316600000Y82850000D01*
X318000000Y82850000D01*
X318000000Y81150000D01*
X318000000Y81150000D01*
G37*
G36*
X316200000Y81150000D02*
G01*
X314800000Y81150000D01*
X314800000Y82850000D01*
X316200000Y82850000D01*
X316200000Y81150000D01*
X316200000Y81150000D01*
G37*
G36*
X304000000Y81150000D02*
G01*
X302600000Y81150000D01*
X302600000Y82850000D01*
X304000000Y82850000D01*
X304000000Y81150000D01*
X304000000Y81150000D01*
G37*
G36*
X302200000Y81150000D02*
G01*
X300800000Y81150000D01*
X300800000Y82850000D01*
X302200000Y82850000D01*
X302200000Y81150000D01*
X302200000Y81150000D01*
G37*
G36*
X290000000Y81150000D02*
G01*
X288600000Y81150000D01*
X288600000Y82850000D01*
X290000000Y82850000D01*
X290000000Y81150000D01*
X290000000Y81150000D01*
G37*
G36*
X288200000Y81150000D02*
G01*
X286800000Y81150000D01*
X286800000Y82850000D01*
X288200000Y82850000D01*
X288200000Y81150000D01*
X288200000Y81150000D01*
G37*
G36*
X279150000Y81300000D02*
G01*
X277450000Y81300000D01*
X277450000Y82700000D01*
X279150000Y82700000D01*
X279150000Y81300000D01*
X279150000Y81300000D01*
G37*
G36*
X293150000Y81300000D02*
G01*
X291450000Y81300000D01*
X291450000Y82700000D01*
X293150000Y82700000D01*
X293150000Y81300000D01*
X293150000Y81300000D01*
G37*
G36*
X307150000Y81300000D02*
G01*
X305450000Y81300000D01*
X305450000Y82700000D01*
X307150000Y82700000D01*
X307150000Y81300000D01*
X307150000Y81300000D01*
G37*
G36*
X321250000Y81300000D02*
G01*
X319550000Y81300000D01*
X319550000Y82700000D01*
X321250000Y82700000D01*
X321250000Y81300000D01*
X321250000Y81300000D01*
G37*
G36*
X279150000Y83100000D02*
G01*
X277450000Y83100000D01*
X277450000Y84500000D01*
X279150000Y84500000D01*
X279150000Y83100000D01*
X279150000Y83100000D01*
G37*
G36*
X293150000Y83100000D02*
G01*
X291450000Y83100000D01*
X291450000Y84500000D01*
X293150000Y84500000D01*
X293150000Y83100000D01*
X293150000Y83100000D01*
G37*
G36*
X307150000Y83100000D02*
G01*
X305450000Y83100000D01*
X305450000Y84500000D01*
X307150000Y84500000D01*
X307150000Y83100000D01*
X307150000Y83100000D01*
G37*
G36*
X322687290Y85604381D02*
G01*
X322751689Y85591571D01*
X322933678Y85516189D01*
X323097463Y85406751D01*
X323236751Y85267463D01*
X323346189Y85103678D01*
X323421571Y84921689D01*
X323421571Y84921688D01*
X323460000Y84728493D01*
X323460000Y84531507D01*
X323453733Y84500000D01*
X323421571Y84338311D01*
X323346189Y84156322D01*
X323236751Y83992537D01*
X323097463Y83853249D01*
X322933678Y83743811D01*
X322751689Y83668429D01*
X322687290Y83655619D01*
X322558493Y83630000D01*
X322361507Y83630000D01*
X322232710Y83655619D01*
X322168311Y83668429D01*
X321986322Y83743811D01*
X321822537Y83853249D01*
X321683249Y83992537D01*
X321573811Y84156322D01*
X321498429Y84338311D01*
X321497595Y84342502D01*
X321490483Y84365949D01*
X321478932Y84387559D01*
X321463386Y84406501D01*
X321444444Y84422046D01*
X321422833Y84433597D01*
X321399384Y84440710D01*
X321374998Y84443112D01*
X321350612Y84440710D01*
X321327163Y84433597D01*
X321305553Y84422046D01*
X321286611Y84406500D01*
X321271066Y84387558D01*
X321259515Y84365947D01*
X321252402Y84342498D01*
X321250000Y84318113D01*
X321250000Y83100000D01*
X319550000Y83100000D01*
X319550000Y84500000D01*
X321335001Y84500000D01*
X321359387Y84502402D01*
X321382836Y84509515D01*
X321404447Y84521066D01*
X321423389Y84536611D01*
X321438934Y84555553D01*
X321450485Y84577164D01*
X321457598Y84600613D01*
X321460000Y84624999D01*
X321460000Y84728493D01*
X321498429Y84921688D01*
X321498429Y84921689D01*
X321573811Y85103678D01*
X321683249Y85267463D01*
X321822537Y85406751D01*
X321986322Y85516189D01*
X322168311Y85591571D01*
X322232710Y85604381D01*
X322361507Y85630000D01*
X322558493Y85630000D01*
X322687290Y85604381D01*
X322687290Y85604381D01*
G37*
G36*
X318000000Y83150000D02*
G01*
X316600000Y83150000D01*
X316600000Y84850000D01*
X318000000Y84850000D01*
X318000000Y83150000D01*
X318000000Y83150000D01*
G37*
G36*
X316200000Y83150000D02*
G01*
X314800000Y83150000D01*
X314800000Y84850000D01*
X316200000Y84850000D01*
X316200000Y83150000D01*
X316200000Y83150000D01*
G37*
G36*
X304000000Y83150000D02*
G01*
X302600000Y83150000D01*
X302600000Y84850000D01*
X304000000Y84850000D01*
X304000000Y83150000D01*
X304000000Y83150000D01*
G37*
G36*
X302200000Y83150000D02*
G01*
X300800000Y83150000D01*
X300800000Y84850000D01*
X302200000Y84850000D01*
X302200000Y83150000D01*
X302200000Y83150000D01*
G37*
G36*
X290000000Y83150000D02*
G01*
X288600000Y83150000D01*
X288600000Y84850000D01*
X290000000Y84850000D01*
X290000000Y83150000D01*
X290000000Y83150000D01*
G37*
G36*
X288200000Y83150000D02*
G01*
X286800000Y83150000D01*
X286800000Y84850000D01*
X288200000Y84850000D01*
X288200000Y83150000D01*
X288200000Y83150000D01*
G37*
G36*
X220277534Y86192357D02*
G01*
X220550515Y86079284D01*
X220550517Y86079283D01*
X220674190Y85996647D01*
X220796193Y85915127D01*
X221005127Y85706193D01*
X221169284Y85460515D01*
X221282357Y85187534D01*
X221340000Y84897738D01*
X221340000Y84602262D01*
X221282357Y84312466D01*
X221208919Y84135172D01*
X221169283Y84039483D01*
X221114072Y83956855D01*
X221033414Y83836141D01*
X221005126Y83793806D01*
X220796194Y83584874D01*
X220550517Y83420717D01*
X220550516Y83420716D01*
X220550515Y83420716D01*
X220277534Y83307643D01*
X219987738Y83250000D01*
X219692262Y83250000D01*
X219402466Y83307643D01*
X219129485Y83420716D01*
X219129484Y83420716D01*
X219129483Y83420717D01*
X218883806Y83584874D01*
X218674874Y83793806D01*
X218646587Y83836141D01*
X218565928Y83956855D01*
X218510717Y84039483D01*
X218471081Y84135172D01*
X218397643Y84312466D01*
X218340000Y84602262D01*
X218340000Y84897738D01*
X218397643Y85187534D01*
X218510716Y85460515D01*
X218674873Y85706193D01*
X218883807Y85915127D01*
X219005810Y85996647D01*
X219129483Y86079283D01*
X219129485Y86079284D01*
X219402466Y86192357D01*
X219692262Y86250000D01*
X219987738Y86250000D01*
X220277534Y86192357D01*
X220277534Y86192357D01*
G37*
G36*
X234277534Y86192357D02*
G01*
X234550515Y86079284D01*
X234550517Y86079283D01*
X234674190Y85996647D01*
X234796193Y85915127D01*
X235005127Y85706193D01*
X235169284Y85460515D01*
X235282357Y85187534D01*
X235340000Y84897738D01*
X235340000Y84602262D01*
X235282357Y84312466D01*
X235208919Y84135172D01*
X235169283Y84039483D01*
X235114072Y83956855D01*
X235033414Y83836141D01*
X235005126Y83793806D01*
X234796194Y83584874D01*
X234550517Y83420717D01*
X234550516Y83420716D01*
X234550515Y83420716D01*
X234277534Y83307643D01*
X233987738Y83250000D01*
X233692262Y83250000D01*
X233402466Y83307643D01*
X233129485Y83420716D01*
X233129484Y83420716D01*
X233129483Y83420717D01*
X232883806Y83584874D01*
X232674874Y83793806D01*
X232646587Y83836141D01*
X232565928Y83956855D01*
X232510717Y84039483D01*
X232471081Y84135172D01*
X232397643Y84312466D01*
X232340000Y84602262D01*
X232340000Y84897738D01*
X232397643Y85187534D01*
X232510716Y85460515D01*
X232674873Y85706193D01*
X232883807Y85915127D01*
X233005810Y85996647D01*
X233129483Y86079283D01*
X233129485Y86079284D01*
X233402466Y86192357D01*
X233692262Y86250000D01*
X233987738Y86250000D01*
X234277534Y86192357D01*
X234277534Y86192357D01*
G37*
G36*
X248277534Y86192357D02*
G01*
X248550515Y86079284D01*
X248550517Y86079283D01*
X248674190Y85996647D01*
X248796193Y85915127D01*
X249005127Y85706193D01*
X249169284Y85460515D01*
X249282357Y85187534D01*
X249340000Y84897738D01*
X249340000Y84602262D01*
X249282357Y84312466D01*
X249208919Y84135172D01*
X249169283Y84039483D01*
X249114072Y83956855D01*
X249033414Y83836141D01*
X249005126Y83793806D01*
X248796194Y83584874D01*
X248550517Y83420717D01*
X248550516Y83420716D01*
X248550515Y83420716D01*
X248277534Y83307643D01*
X247987738Y83250000D01*
X247692262Y83250000D01*
X247402466Y83307643D01*
X247129485Y83420716D01*
X247129484Y83420716D01*
X247129483Y83420717D01*
X246883806Y83584874D01*
X246674874Y83793806D01*
X246646587Y83836141D01*
X246565928Y83956855D01*
X246510717Y84039483D01*
X246471081Y84135172D01*
X246397643Y84312466D01*
X246340000Y84602262D01*
X246340000Y84897738D01*
X246397643Y85187534D01*
X246510716Y85460515D01*
X246674873Y85706193D01*
X246883807Y85915127D01*
X247005810Y85996647D01*
X247129483Y86079283D01*
X247129485Y86079284D01*
X247402466Y86192357D01*
X247692262Y86250000D01*
X247987738Y86250000D01*
X248277534Y86192357D01*
X248277534Y86192357D01*
G37*
G36*
X262277534Y86192357D02*
G01*
X262550515Y86079284D01*
X262550517Y86079283D01*
X262674190Y85996647D01*
X262796193Y85915127D01*
X263005127Y85706193D01*
X263169284Y85460515D01*
X263282357Y85187534D01*
X263340000Y84897738D01*
X263340000Y84602262D01*
X263282357Y84312466D01*
X263208919Y84135172D01*
X263169283Y84039483D01*
X263114072Y83956855D01*
X263033414Y83836141D01*
X263005126Y83793806D01*
X262796194Y83584874D01*
X262550517Y83420717D01*
X262550516Y83420716D01*
X262550515Y83420716D01*
X262277534Y83307643D01*
X261987738Y83250000D01*
X261692262Y83250000D01*
X261402466Y83307643D01*
X261129485Y83420716D01*
X261129484Y83420716D01*
X261129483Y83420717D01*
X260883806Y83584874D01*
X260674874Y83793806D01*
X260646587Y83836141D01*
X260565928Y83956855D01*
X260510717Y84039483D01*
X260471081Y84135172D01*
X260397643Y84312466D01*
X260340000Y84602262D01*
X260340000Y84897738D01*
X260397643Y85187534D01*
X260510716Y85460515D01*
X260674873Y85706193D01*
X260883807Y85915127D01*
X261005810Y85996647D01*
X261129483Y86079283D01*
X261129485Y86079284D01*
X261402466Y86192357D01*
X261692262Y86250000D01*
X261987738Y86250000D01*
X262277534Y86192357D01*
X262277534Y86192357D01*
G37*
G36*
X327767290Y85604381D02*
G01*
X327831689Y85591571D01*
X328013678Y85516189D01*
X328177463Y85406751D01*
X328316751Y85267463D01*
X328426189Y85103678D01*
X328501571Y84921689D01*
X328501571Y84921688D01*
X328540000Y84728493D01*
X328540000Y84531507D01*
X328533733Y84500000D01*
X328501571Y84338311D01*
X328426189Y84156322D01*
X328316751Y83992537D01*
X328177463Y83853249D01*
X328013678Y83743811D01*
X327831689Y83668429D01*
X327767290Y83655619D01*
X327638493Y83630000D01*
X327441507Y83630000D01*
X327312710Y83655619D01*
X327248311Y83668429D01*
X327066322Y83743811D01*
X326902537Y83853249D01*
X326763249Y83992537D01*
X326653811Y84156322D01*
X326578429Y84338311D01*
X326546267Y84500000D01*
X326540000Y84531507D01*
X326540000Y84728493D01*
X326578429Y84921688D01*
X326578429Y84921689D01*
X326653811Y85103678D01*
X326763249Y85267463D01*
X326902537Y85406751D01*
X327066322Y85516189D01*
X327248311Y85591571D01*
X327312710Y85604381D01*
X327441507Y85630000D01*
X327638493Y85630000D01*
X327767290Y85604381D01*
X327767290Y85604381D01*
G37*
G36*
X313767290Y85604381D02*
G01*
X313831689Y85591571D01*
X314013678Y85516189D01*
X314177463Y85406751D01*
X314316751Y85267463D01*
X314426189Y85103678D01*
X314501571Y84921689D01*
X314501571Y84921688D01*
X314540000Y84728493D01*
X314540000Y84531507D01*
X314533733Y84500000D01*
X314501571Y84338311D01*
X314426189Y84156322D01*
X314316751Y83992537D01*
X314177463Y83853249D01*
X314013678Y83743811D01*
X313831689Y83668429D01*
X313767290Y83655619D01*
X313638493Y83630000D01*
X313441507Y83630000D01*
X313312710Y83655619D01*
X313248311Y83668429D01*
X313066322Y83743811D01*
X312902537Y83853249D01*
X312763249Y83992537D01*
X312653811Y84156322D01*
X312578429Y84338311D01*
X312546267Y84500000D01*
X312540000Y84531507D01*
X312540000Y84728493D01*
X312578429Y84921688D01*
X312578429Y84921689D01*
X312653811Y85103678D01*
X312763249Y85267463D01*
X312902537Y85406751D01*
X313066322Y85516189D01*
X313248311Y85591571D01*
X313312710Y85604381D01*
X313441507Y85630000D01*
X313638493Y85630000D01*
X313767290Y85604381D01*
X313767290Y85604381D01*
G37*
G36*
X308687290Y85604381D02*
G01*
X308751689Y85591571D01*
X308933678Y85516189D01*
X309097463Y85406751D01*
X309236751Y85267463D01*
X309346189Y85103678D01*
X309421571Y84921689D01*
X309421571Y84921688D01*
X309460000Y84728493D01*
X309460000Y84531507D01*
X309453733Y84500000D01*
X309421571Y84338311D01*
X309346189Y84156322D01*
X309236751Y83992537D01*
X309097463Y83853249D01*
X308933678Y83743811D01*
X308751689Y83668429D01*
X308687290Y83655619D01*
X308558493Y83630000D01*
X308361507Y83630000D01*
X308232710Y83655619D01*
X308168311Y83668429D01*
X307986322Y83743811D01*
X307822537Y83853249D01*
X307683249Y83992537D01*
X307573811Y84156322D01*
X307498429Y84338311D01*
X307466267Y84500000D01*
X307460000Y84531507D01*
X307460000Y84728493D01*
X307498429Y84921688D01*
X307498429Y84921689D01*
X307573811Y85103678D01*
X307683249Y85267463D01*
X307822537Y85406751D01*
X307986322Y85516189D01*
X308168311Y85591571D01*
X308232710Y85604381D01*
X308361507Y85630000D01*
X308558493Y85630000D01*
X308687290Y85604381D01*
X308687290Y85604381D01*
G37*
G36*
X299767290Y85604381D02*
G01*
X299831689Y85591571D01*
X300013678Y85516189D01*
X300177463Y85406751D01*
X300316751Y85267463D01*
X300426189Y85103678D01*
X300501571Y84921689D01*
X300501571Y84921688D01*
X300540000Y84728493D01*
X300540000Y84531507D01*
X300533733Y84500000D01*
X300501571Y84338311D01*
X300426189Y84156322D01*
X300316751Y83992537D01*
X300177463Y83853249D01*
X300013678Y83743811D01*
X299831689Y83668429D01*
X299767290Y83655619D01*
X299638493Y83630000D01*
X299441507Y83630000D01*
X299312710Y83655619D01*
X299248311Y83668429D01*
X299066322Y83743811D01*
X298902537Y83853249D01*
X298763249Y83992537D01*
X298653811Y84156322D01*
X298578429Y84338311D01*
X298546267Y84500000D01*
X298540000Y84531507D01*
X298540000Y84728493D01*
X298578429Y84921688D01*
X298578429Y84921689D01*
X298653811Y85103678D01*
X298763249Y85267463D01*
X298902537Y85406751D01*
X299066322Y85516189D01*
X299248311Y85591571D01*
X299312710Y85604381D01*
X299441507Y85630000D01*
X299638493Y85630000D01*
X299767290Y85604381D01*
X299767290Y85604381D01*
G37*
G36*
X294687290Y85604381D02*
G01*
X294751689Y85591571D01*
X294933678Y85516189D01*
X295097463Y85406751D01*
X295236751Y85267463D01*
X295346189Y85103678D01*
X295421571Y84921689D01*
X295421571Y84921688D01*
X295460000Y84728493D01*
X295460000Y84531507D01*
X295453733Y84500000D01*
X295421571Y84338311D01*
X295346189Y84156322D01*
X295236751Y83992537D01*
X295097463Y83853249D01*
X294933678Y83743811D01*
X294751689Y83668429D01*
X294687290Y83655619D01*
X294558493Y83630000D01*
X294361507Y83630000D01*
X294232710Y83655619D01*
X294168311Y83668429D01*
X293986322Y83743811D01*
X293822537Y83853249D01*
X293683249Y83992537D01*
X293573811Y84156322D01*
X293498429Y84338311D01*
X293466267Y84500000D01*
X293460000Y84531507D01*
X293460000Y84728493D01*
X293498429Y84921688D01*
X293498429Y84921689D01*
X293573811Y85103678D01*
X293683249Y85267463D01*
X293822537Y85406751D01*
X293986322Y85516189D01*
X294168311Y85591571D01*
X294232710Y85604381D01*
X294361507Y85630000D01*
X294558493Y85630000D01*
X294687290Y85604381D01*
X294687290Y85604381D01*
G37*
G36*
X285767290Y85604381D02*
G01*
X285831689Y85591571D01*
X286013678Y85516189D01*
X286177463Y85406751D01*
X286316751Y85267463D01*
X286426189Y85103678D01*
X286501571Y84921689D01*
X286501571Y84921688D01*
X286540000Y84728493D01*
X286540000Y84531507D01*
X286533733Y84500000D01*
X286501571Y84338311D01*
X286426189Y84156322D01*
X286316751Y83992537D01*
X286177463Y83853249D01*
X286013678Y83743811D01*
X285831689Y83668429D01*
X285767290Y83655619D01*
X285638493Y83630000D01*
X285441507Y83630000D01*
X285312710Y83655619D01*
X285248311Y83668429D01*
X285066322Y83743811D01*
X284902537Y83853249D01*
X284763249Y83992537D01*
X284653811Y84156322D01*
X284578429Y84338311D01*
X284546267Y84500000D01*
X284540000Y84531507D01*
X284540000Y84728493D01*
X284578429Y84921688D01*
X284578429Y84921689D01*
X284653811Y85103678D01*
X284763249Y85267463D01*
X284902537Y85406751D01*
X285066322Y85516189D01*
X285248311Y85591571D01*
X285312710Y85604381D01*
X285441507Y85630000D01*
X285638493Y85630000D01*
X285767290Y85604381D01*
X285767290Y85604381D01*
G37*
G36*
X280687290Y85604381D02*
G01*
X280751689Y85591571D01*
X280933678Y85516189D01*
X281097463Y85406751D01*
X281236751Y85267463D01*
X281346189Y85103678D01*
X281421571Y84921689D01*
X281421571Y84921688D01*
X281460000Y84728493D01*
X281460000Y84531507D01*
X281453733Y84500000D01*
X281421571Y84338311D01*
X281346189Y84156322D01*
X281236751Y83992537D01*
X281097463Y83853249D01*
X280933678Y83743811D01*
X280751689Y83668429D01*
X280687290Y83655619D01*
X280558493Y83630000D01*
X280361507Y83630000D01*
X280232710Y83655619D01*
X280168311Y83668429D01*
X279986322Y83743811D01*
X279822537Y83853249D01*
X279683249Y83992537D01*
X279573811Y84156322D01*
X279498429Y84338311D01*
X279466267Y84500000D01*
X279460000Y84531507D01*
X279460000Y84728493D01*
X279498429Y84921688D01*
X279498429Y84921689D01*
X279573811Y85103678D01*
X279683249Y85267463D01*
X279822537Y85406751D01*
X279986322Y85516189D01*
X280168311Y85591571D01*
X280232710Y85604381D01*
X280361507Y85630000D01*
X280558493Y85630000D01*
X280687290Y85604381D01*
X280687290Y85604381D01*
G37*
M02*
