M48
; DRILL file {KiCad (5.1.2-1)-1} date 2019 July 24, Wednesday 21:32:55
; FORMAT={-:-/ absolute / inch / decimal}
; #@! TF.CreationDate,2019-07-24T21:32:55+02:00
; #@! TF.GenerationSoftware,Kicad,Pcbnew,(5.1.2-1)-1
FMAT,2
INCH
T1C0.0118
T2C0.0315
T3C0.0400
T4C0.0433
T5C0.0512
T6C0.0591
T7C0.1260
T8C0.0669
T9C0.1378
%
G90
G05
T1
X8.4957Y2.9921
X8.5744Y2.9921
X8.7909Y2.9921
X8.8697Y2.9921
X9.0469Y2.9921
X9.1256Y2.9921
X9.3421Y2.9921
X9.4209Y2.9921
X9.598Y2.9921
X9.6768Y2.9921
X9.8933Y2.9921
X9.972Y2.9921
X10.1492Y2.9921
X10.228Y2.9921
X10.4445Y2.9921
X10.5232Y2.9921
X10.9197Y2.1167
X10.9197Y2.038
X11.4252Y3.2283
X11.4315Y2.1679
X11.4709Y2.0931
X11.9764Y3.2283
X12.2205Y2.7992
X12.5276Y3.2283
X12.5433Y3.0591
X12.5827Y2.9921
X12.5827Y2.9055
X12.6203Y2.752
X12.6703Y2.752
X12.8583Y3.0945
X13.0787Y3.2283
T2
X11.5929Y3.2283
X11.6929Y3.2283
X11.7929Y3.2283
X12.1441Y3.2283
X12.2441Y3.2283
X12.3441Y3.2283
X11.0417Y3.2283
X11.1417Y3.2283
X11.2417Y3.2283
X12.6065Y1.9014
X12.6565Y2.0014
X12.7065Y1.9014
X12.7565Y2.0014
X12.8065Y1.9014
X12.8565Y2.0014
X12.9065Y1.9014
X12.9565Y2.0014
X13.0065Y1.9014
X13.0565Y2.0014
X13.1065Y1.9014
X13.1565Y2.0014
X13.2065Y1.9014
X13.2565Y2.0014
X12.6953Y3.2283
X12.7953Y3.2283
X12.8953Y3.2283
T3
X11.6047Y2.0892
X11.6047Y1.9892
X11.7047Y2.0892
X11.7047Y1.9892
X11.8047Y2.0892
X11.8047Y1.9892
X11.9047Y2.0892
X11.9047Y1.9892
X12.0047Y2.0892
X12.0047Y1.9892
X12.1047Y2.0892
X12.1047Y1.9892
X12.2047Y2.0892
X12.2047Y1.9892
X12.3047Y2.0892
X12.3047Y1.9892
X8.965Y2.2539
X8.965Y2.1539
X9.065Y2.2539
X9.065Y2.1539
X9.165Y2.2539
X9.165Y2.1539
X9.265Y2.2539
X9.265Y2.1539
X9.365Y2.2539
X9.365Y2.1539
X9.465Y2.2539
X9.465Y2.1539
X9.565Y2.2539
X9.565Y2.1539
X9.665Y2.2539
X9.665Y2.1539
X9.765Y2.2539
X9.765Y2.1539
X9.865Y2.2539
X9.865Y2.1539
X9.965Y2.2539
X9.965Y2.1539
X10.065Y2.2539
X10.065Y2.1539
X10.165Y2.2539
X10.165Y2.1539
T4
X12.6953Y3.3319
X12.8953Y3.3319
X11.5929Y3.3319
X11.7929Y3.3319
X12.1441Y3.3319
X12.3441Y3.3319
X11.0417Y3.3319
X11.2417Y3.3319
T5
X8.6551Y3.0512
X8.9504Y3.0512
X9.2063Y3.0512
X9.5016Y3.0512
X9.7575Y3.0512
X10.0528Y3.0512
X10.3087Y3.0512
X10.6039Y3.0512
T6
X13.3116Y1.9305
X8.6551Y3.3366
X9.2063Y3.3366
X9.7575Y3.3366
X10.3087Y3.3366
T7
X13.3Y2.3
X8.2Y2.0
X8.2Y3.3
X13.3Y3.3
T8
G00X8.5606Y3.1398
M15
G01X8.5606Y3.2579
M16
G05
G00X10.6984Y3.1398
M15
G01X10.6984Y3.2579
M16
G05
T9
G00X9.6295Y3.1752
M15
G01X9.6295Y3.2224
M16
G05
T0
M30
